G04 #@! TF.GenerationSoftware,KiCad,Pcbnew,(5.1.6)-1*
G04 #@! TF.CreationDate,2021-06-24T11:46:10+03:00*
G04 #@! TF.ProjectId,power supply,706f7765-7220-4737-9570-706c792e6b69,rev?*
G04 #@! TF.SameCoordinates,Original*
G04 #@! TF.FileFunction,Legend,Top*
G04 #@! TF.FilePolarity,Positive*
%FSLAX46Y46*%
G04 Gerber Fmt 4.6, Leading zero omitted, Abs format (unit mm)*
G04 Created by KiCad (PCBNEW (5.1.6)-1) date 2021-06-24 11:46:10*
%MOMM*%
%LPD*%
G01*
G04 APERTURE LIST*
%ADD10C,0.150000*%
%ADD11C,0.300000*%
%ADD12C,0.120000*%
G04 APERTURE END LIST*
D10*
X103452380Y-108666666D02*
X103928571Y-108666666D01*
X103357142Y-108952380D02*
X103690476Y-107952380D01*
X104023809Y-108952380D01*
X104357142Y-108952380D02*
X104357142Y-108285714D01*
X104357142Y-108476190D02*
X104404761Y-108380952D01*
X104452380Y-108333333D01*
X104547619Y-108285714D01*
X104642857Y-108285714D01*
X105119047Y-108952380D02*
X105023809Y-108904761D01*
X104976190Y-108857142D01*
X104928571Y-108761904D01*
X104928571Y-108476190D01*
X104976190Y-108380952D01*
X105023809Y-108333333D01*
X105119047Y-108285714D01*
X105261904Y-108285714D01*
X105357142Y-108333333D01*
X105404761Y-108380952D01*
X105452380Y-108476190D01*
X105452380Y-108761904D01*
X105404761Y-108857142D01*
X105357142Y-108904761D01*
X105261904Y-108952380D01*
X105119047Y-108952380D01*
X105880952Y-108285714D02*
X105880952Y-108952380D01*
X105880952Y-108380952D02*
X105928571Y-108333333D01*
X106023809Y-108285714D01*
X106166666Y-108285714D01*
X106261904Y-108333333D01*
X106309523Y-108428571D01*
X106309523Y-108952380D01*
X107500000Y-108666666D02*
X107976190Y-108666666D01*
X107404761Y-108952380D02*
X107738095Y-107952380D01*
X108071428Y-108952380D01*
X108309523Y-108285714D02*
X108547619Y-108952380D01*
X108785714Y-108285714D02*
X108547619Y-108952380D01*
X108452380Y-109190476D01*
X108404761Y-109238095D01*
X108309523Y-109285714D01*
X109595238Y-108285714D02*
X109595238Y-108952380D01*
X109166666Y-108285714D02*
X109166666Y-108809523D01*
X109214285Y-108904761D01*
X109309523Y-108952380D01*
X109452380Y-108952380D01*
X109547619Y-108904761D01*
X109595238Y-108857142D01*
X110071428Y-108952380D02*
X110071428Y-107952380D01*
X110071428Y-108333333D02*
X110166666Y-108285714D01*
X110357142Y-108285714D01*
X110452380Y-108333333D01*
X110500000Y-108380952D01*
X110547619Y-108476190D01*
X110547619Y-108761904D01*
X110500000Y-108857142D01*
X110452380Y-108904761D01*
X110357142Y-108952380D01*
X110166666Y-108952380D01*
X110071428Y-108904761D01*
D11*
X83392857Y-135571428D02*
X83392857Y-135071428D01*
X84178571Y-134857142D02*
X84178571Y-135571428D01*
X82678571Y-135571428D01*
X82678571Y-134857142D01*
X83178571Y-134214285D02*
X84178571Y-134214285D01*
X83321428Y-134214285D02*
X83250000Y-134142857D01*
X83178571Y-134000000D01*
X83178571Y-133785714D01*
X83250000Y-133642857D01*
X83392857Y-133571428D01*
X84178571Y-133571428D01*
X83178571Y-132214285D02*
X84392857Y-132214285D01*
X84535714Y-132285714D01*
X84607142Y-132357142D01*
X84678571Y-132500000D01*
X84678571Y-132714285D01*
X84607142Y-132857142D01*
X84107142Y-132214285D02*
X84178571Y-132357142D01*
X84178571Y-132642857D01*
X84107142Y-132785714D01*
X84035714Y-132857142D01*
X83892857Y-132928571D01*
X83464285Y-132928571D01*
X83321428Y-132857142D01*
X83250000Y-132785714D01*
X83178571Y-132642857D01*
X83178571Y-132357142D01*
X83250000Y-132214285D01*
X84321428Y-131857142D02*
X84321428Y-130714285D01*
X84178571Y-129714285D02*
X83392857Y-129714285D01*
X83250000Y-129785714D01*
X83178571Y-129928571D01*
X83178571Y-130214285D01*
X83250000Y-130357142D01*
X84107142Y-129714285D02*
X84178571Y-129857142D01*
X84178571Y-130214285D01*
X84107142Y-130357142D01*
X83964285Y-130428571D01*
X83821428Y-130428571D01*
X83678571Y-130357142D01*
X83607142Y-130214285D01*
X83607142Y-129857142D01*
X83535714Y-129714285D01*
X84178571Y-129000000D02*
X83178571Y-129000000D01*
X83464285Y-129000000D02*
X83321428Y-128928571D01*
X83250000Y-128857142D01*
X83178571Y-128714285D01*
X83178571Y-128571428D01*
X84178571Y-127857142D02*
X84107142Y-128000000D01*
X84035714Y-128071428D01*
X83892857Y-128142857D01*
X83464285Y-128142857D01*
X83321428Y-128071428D01*
X83250000Y-128000000D01*
X83178571Y-127857142D01*
X83178571Y-127642857D01*
X83250000Y-127500000D01*
X83321428Y-127428571D01*
X83464285Y-127357142D01*
X83892857Y-127357142D01*
X84035714Y-127428571D01*
X84107142Y-127500000D01*
X84178571Y-127642857D01*
X84178571Y-127857142D01*
X83178571Y-126714285D02*
X84178571Y-126714285D01*
X83321428Y-126714285D02*
X83250000Y-126642857D01*
X83178571Y-126500000D01*
X83178571Y-126285714D01*
X83250000Y-126142857D01*
X83392857Y-126071428D01*
X84178571Y-126071428D01*
X84107142Y-124785714D02*
X84178571Y-124928571D01*
X84178571Y-125214285D01*
X84107142Y-125357142D01*
X83964285Y-125428571D01*
X83392857Y-125428571D01*
X83250000Y-125357142D01*
X83178571Y-125214285D01*
X83178571Y-124928571D01*
X83250000Y-124785714D01*
X83392857Y-124714285D01*
X83535714Y-124714285D01*
X83678571Y-125428571D01*
X84178571Y-123857142D02*
X84107142Y-124000000D01*
X83964285Y-124071428D01*
X82678571Y-124071428D01*
X84107142Y-122714285D02*
X84178571Y-122857142D01*
X84178571Y-123142857D01*
X84107142Y-123285714D01*
X83964285Y-123357142D01*
X83392857Y-123357142D01*
X83250000Y-123285714D01*
X83178571Y-123142857D01*
X83178571Y-122857142D01*
X83250000Y-122714285D01*
X83392857Y-122642857D01*
X83535714Y-122642857D01*
X83678571Y-123357142D01*
X84107142Y-121357142D02*
X84178571Y-121500000D01*
X84178571Y-121785714D01*
X84107142Y-121928571D01*
X84035714Y-122000000D01*
X83892857Y-122071428D01*
X83464285Y-122071428D01*
X83321428Y-122000000D01*
X83250000Y-121928571D01*
X83178571Y-121785714D01*
X83178571Y-121500000D01*
X83250000Y-121357142D01*
X140428571Y-143178571D02*
X141357142Y-143178571D01*
X140857142Y-143750000D01*
X141071428Y-143750000D01*
X141214285Y-143821428D01*
X141285714Y-143892857D01*
X141357142Y-144035714D01*
X141357142Y-144392857D01*
X141285714Y-144535714D01*
X141214285Y-144607142D01*
X141071428Y-144678571D01*
X140642857Y-144678571D01*
X140500000Y-144607142D01*
X140428571Y-144535714D01*
X141785714Y-143178571D02*
X142285714Y-144678571D01*
X142785714Y-143178571D01*
X143142857Y-143178571D02*
X144071428Y-143178571D01*
X143571428Y-143750000D01*
X143785714Y-143750000D01*
X143928571Y-143821428D01*
X144000000Y-143892857D01*
X144071428Y-144035714D01*
X144071428Y-144392857D01*
X144000000Y-144535714D01*
X143928571Y-144607142D01*
X143785714Y-144678571D01*
X143357142Y-144678571D01*
X143214285Y-144607142D01*
X143142857Y-144535714D01*
X146142857Y-143178571D02*
X146428571Y-143178571D01*
X146571428Y-143250000D01*
X146714285Y-143392857D01*
X146785714Y-143678571D01*
X146785714Y-144178571D01*
X146714285Y-144464285D01*
X146571428Y-144607142D01*
X146428571Y-144678571D01*
X146142857Y-144678571D01*
X146000000Y-144607142D01*
X145857142Y-144464285D01*
X145785714Y-144178571D01*
X145785714Y-143678571D01*
X145857142Y-143392857D01*
X146000000Y-143250000D01*
X146142857Y-143178571D01*
X147428571Y-143178571D02*
X147428571Y-144392857D01*
X147500000Y-144535714D01*
X147571428Y-144607142D01*
X147714285Y-144678571D01*
X148000000Y-144678571D01*
X148142857Y-144607142D01*
X148214285Y-144535714D01*
X148285714Y-144392857D01*
X148285714Y-143178571D01*
X148785714Y-143178571D02*
X149642857Y-143178571D01*
X149214285Y-144678571D02*
X149214285Y-143178571D01*
X143500000Y-111678571D02*
X142785714Y-111678571D01*
X142714285Y-112392857D01*
X142785714Y-112321428D01*
X142928571Y-112250000D01*
X143285714Y-112250000D01*
X143428571Y-112321428D01*
X143500000Y-112392857D01*
X143571428Y-112535714D01*
X143571428Y-112892857D01*
X143500000Y-113035714D01*
X143428571Y-113107142D01*
X143285714Y-113178571D01*
X142928571Y-113178571D01*
X142785714Y-113107142D01*
X142714285Y-113035714D01*
X144000000Y-111678571D02*
X144500000Y-113178571D01*
X145000000Y-111678571D01*
X146928571Y-111678571D02*
X147214285Y-111678571D01*
X147357142Y-111750000D01*
X147500000Y-111892857D01*
X147571428Y-112178571D01*
X147571428Y-112678571D01*
X147500000Y-112964285D01*
X147357142Y-113107142D01*
X147214285Y-113178571D01*
X146928571Y-113178571D01*
X146785714Y-113107142D01*
X146642857Y-112964285D01*
X146571428Y-112678571D01*
X146571428Y-112178571D01*
X146642857Y-111892857D01*
X146785714Y-111750000D01*
X146928571Y-111678571D01*
X148214285Y-111678571D02*
X148214285Y-112892857D01*
X148285714Y-113035714D01*
X148357142Y-113107142D01*
X148500000Y-113178571D01*
X148785714Y-113178571D01*
X148928571Y-113107142D01*
X149000000Y-113035714D01*
X149071428Y-112892857D01*
X149071428Y-111678571D01*
X149571428Y-111678571D02*
X150428571Y-111678571D01*
X150000000Y-113178571D02*
X150000000Y-111678571D01*
D12*
X133854000Y-114768000D02*
X133994000Y-114648000D01*
X133994000Y-114648000D02*
X134154000Y-114558000D01*
X134154000Y-114558000D02*
X134404000Y-114508000D01*
X134404000Y-114508000D02*
X134664000Y-114538000D01*
X134664000Y-114538000D02*
X134924000Y-114688000D01*
X134924000Y-114688000D02*
X135094000Y-114908000D01*
X135094000Y-114908000D02*
X135174000Y-115198000D01*
X135174000Y-115198000D02*
X135134000Y-115488000D01*
X135134000Y-115488000D02*
X135054000Y-115668000D01*
X135054000Y-115668000D02*
X134904000Y-115798000D01*
X135824000Y-118618000D02*
G75*
G03*
X135824000Y-118618000I-4750000J0D01*
G01*
X127410000Y-126602064D02*
X127410000Y-125397936D01*
X125590000Y-126602064D02*
X125590000Y-125397936D01*
X115897936Y-143910000D02*
X117102064Y-143910000D01*
X115897936Y-142090000D02*
X117102064Y-142090000D01*
X115897936Y-125910000D02*
X117102064Y-125910000D01*
X115897936Y-124090000D02*
X117102064Y-124090000D01*
X125410000Y-135411936D02*
X125410000Y-136616064D01*
X123590000Y-135411936D02*
X123590000Y-136616064D01*
X109590000Y-118202064D02*
X109590000Y-116997936D01*
X111410000Y-118202064D02*
X111410000Y-116997936D01*
X115897936Y-129646000D02*
X117102064Y-129646000D01*
X115897936Y-131466000D02*
X117102064Y-131466000D01*
X123090000Y-118202064D02*
X123090000Y-116997936D01*
X124910000Y-118202064D02*
X124910000Y-116997936D01*
X109834000Y-135411936D02*
X109834000Y-136616064D01*
X111654000Y-135411936D02*
X111654000Y-136616064D01*
X142897936Y-110910000D02*
X144102064Y-110910000D01*
X142897936Y-109090000D02*
X144102064Y-109090000D01*
X130210000Y-125955000D02*
X130210000Y-129045000D01*
X135270000Y-127500000D02*
G75*
G03*
X135270000Y-127500000I-2500000J0D01*
G01*
X135760000Y-127500462D02*
G75*
G03*
X130210000Y-125955170I-2990000J462D01*
G01*
X135760000Y-127499538D02*
G75*
G02*
X130210000Y-129044830I-2990000J-462D01*
G01*
X107472000Y-140194000D02*
X107592000Y-140334000D01*
X107592000Y-140334000D02*
X107682000Y-140494000D01*
X107682000Y-140494000D02*
X107732000Y-140744000D01*
X107732000Y-140744000D02*
X107702000Y-141004000D01*
X107702000Y-141004000D02*
X107552000Y-141264000D01*
X107552000Y-141264000D02*
X107332000Y-141434000D01*
X107332000Y-141434000D02*
X107042000Y-141514000D01*
X107042000Y-141514000D02*
X106752000Y-141474000D01*
X106752000Y-141474000D02*
X106572000Y-141394000D01*
X106572000Y-141394000D02*
X106442000Y-141244000D01*
X108372000Y-137414000D02*
G75*
G03*
X108372000Y-137414000I-4750000J0D01*
G01*
X108372000Y-118618000D02*
G75*
G03*
X108372000Y-118618000I-4750000J0D01*
G01*
X99642000Y-121568000D02*
X99792000Y-121438000D01*
X99562000Y-121748000D02*
X99642000Y-121568000D01*
X99522000Y-122038000D02*
X99562000Y-121748000D01*
X99602000Y-122328000D02*
X99522000Y-122038000D01*
X99772000Y-122548000D02*
X99602000Y-122328000D01*
X100032000Y-122698000D02*
X99772000Y-122548000D01*
X100292000Y-122728000D02*
X100032000Y-122698000D01*
X100542000Y-122678000D02*
X100292000Y-122728000D01*
X100702000Y-122588000D02*
X100542000Y-122678000D01*
X100842000Y-122468000D02*
X100702000Y-122588000D01*
X135824000Y-137414000D02*
G75*
G03*
X135824000Y-137414000I-4750000J0D01*
G01*
X135054000Y-134464000D02*
X134904000Y-134594000D01*
X135134000Y-134284000D02*
X135054000Y-134464000D01*
X135174000Y-133994000D02*
X135134000Y-134284000D01*
X135094000Y-133704000D02*
X135174000Y-133994000D01*
X134924000Y-133484000D02*
X135094000Y-133704000D01*
X134664000Y-133334000D02*
X134924000Y-133484000D01*
X134404000Y-133304000D02*
X134664000Y-133334000D01*
X134154000Y-133354000D02*
X134404000Y-133304000D01*
X133994000Y-133444000D02*
X134154000Y-133354000D01*
X133854000Y-133564000D02*
X133994000Y-133444000D01*
X94178000Y-113443000D02*
X97178000Y-113443000D01*
X97178000Y-113443000D02*
X97178000Y-116443000D01*
X96798000Y-113823000D02*
X96798000Y-124063000D01*
X96798000Y-124063000D02*
X84058000Y-124063000D01*
X84058000Y-113823000D02*
X84058000Y-124063000D01*
X96798000Y-113823000D02*
X84058000Y-113823000D01*
X96798000Y-113823000D02*
X96798000Y-124063000D01*
X96798000Y-124063000D02*
X84058000Y-124063000D01*
X84058000Y-113823000D02*
X84058000Y-124063000D01*
X96798000Y-113823000D02*
X84058000Y-113823000D01*
X96798000Y-132762000D02*
X84058000Y-132762000D01*
X84058000Y-132762000D02*
X84058000Y-143002000D01*
X96798000Y-143002000D02*
X84058000Y-143002000D01*
X96798000Y-132762000D02*
X96798000Y-143002000D01*
X96798000Y-132762000D02*
X84058000Y-132762000D01*
X84058000Y-132762000D02*
X84058000Y-143002000D01*
X96798000Y-143002000D02*
X84058000Y-143002000D01*
X96798000Y-132762000D02*
X96798000Y-143002000D01*
X97178000Y-132382000D02*
X97178000Y-135382000D01*
X94178000Y-132382000D02*
X97178000Y-132382000D01*
X140264000Y-143097000D02*
X137264000Y-143097000D01*
X137264000Y-143097000D02*
X137264000Y-140097000D01*
X137644000Y-142717000D02*
X137644000Y-132477000D01*
X137644000Y-132477000D02*
X150384000Y-132477000D01*
X150384000Y-142717000D02*
X150384000Y-132477000D01*
X137644000Y-142717000D02*
X150384000Y-142717000D01*
X137644000Y-142717000D02*
X137644000Y-132477000D01*
X137644000Y-132477000D02*
X150384000Y-132477000D01*
X150384000Y-142717000D02*
X150384000Y-132477000D01*
X137644000Y-142717000D02*
X150384000Y-142717000D01*
X137898000Y-123778000D02*
X150638000Y-123778000D01*
X150638000Y-123778000D02*
X150638000Y-113538000D01*
X137898000Y-113538000D02*
X150638000Y-113538000D01*
X137898000Y-123778000D02*
X137898000Y-113538000D01*
X137898000Y-123778000D02*
X150638000Y-123778000D01*
X150638000Y-123778000D02*
X150638000Y-113538000D01*
X137898000Y-113538000D02*
X150638000Y-113538000D01*
X137898000Y-123778000D02*
X137898000Y-113538000D01*
X137518000Y-124158000D02*
X137518000Y-121158000D01*
X140518000Y-124158000D02*
X137518000Y-124158000D01*
X86488000Y-126414000D02*
X97408000Y-126414000D01*
X86488000Y-130634000D02*
X97408000Y-130634000D01*
X86488000Y-126414000D02*
X86488000Y-130634000D01*
X97408000Y-126414000D02*
X97408000Y-130634000D01*
X86248000Y-126174000D02*
X87631000Y-126174000D01*
X86248000Y-126174000D02*
X86248000Y-127557000D01*
X84628000Y-127714000D02*
X86488000Y-127714000D01*
X84628000Y-129334000D02*
X86488000Y-129334000D01*
X84628000Y-127714000D02*
X84628000Y-129334000D01*
X86488000Y-127714000D02*
X86488000Y-129334000D01*
X86488000Y-108918000D02*
X86488000Y-110538000D01*
X84628000Y-108918000D02*
X84628000Y-110538000D01*
X84628000Y-110538000D02*
X86488000Y-110538000D01*
X84628000Y-108918000D02*
X86488000Y-108918000D01*
X86248000Y-107378000D02*
X86248000Y-108761000D01*
X86248000Y-107378000D02*
X87631000Y-107378000D01*
X97408000Y-107618000D02*
X97408000Y-111838000D01*
X86488000Y-107618000D02*
X86488000Y-111838000D01*
X86488000Y-111838000D02*
X97408000Y-111838000D01*
X86488000Y-107618000D02*
X97408000Y-107618000D01*
X112994000Y-132988000D02*
X119004000Y-132988000D01*
X115244000Y-139808000D02*
X119004000Y-139808000D01*
X119004000Y-132988000D02*
X119004000Y-134248000D01*
X119004000Y-139808000D02*
X119004000Y-138548000D01*
X119512000Y-120758000D02*
X119512000Y-119498000D01*
X119512000Y-113938000D02*
X119512000Y-115198000D01*
X115752000Y-120758000D02*
X119512000Y-120758000D01*
X113502000Y-113938000D02*
X119512000Y-113938000D01*
X130955000Y-112790000D02*
X134045000Y-112790000D01*
X135000000Y-110230000D02*
G75*
G03*
X135000000Y-110230000I-2500000J0D01*
G01*
X132500462Y-107240000D02*
G75*
G03*
X130955170Y-112790000I-462J-2990000D01*
G01*
X132499538Y-107240000D02*
G75*
G02*
X134044830Y-112790000I462J-2990000D01*
G01*
X120161522Y-128608478D02*
G75*
G03*
X124600000Y-126770000I1838478J1838478D01*
G01*
X120161522Y-124931522D02*
G75*
G02*
X124600000Y-126770000I1838478J-1838478D01*
G01*
X120150000Y-124970000D02*
X120150000Y-128570000D01*
X121650000Y-108470000D02*
X121650000Y-112070000D01*
X121661522Y-108431522D02*
G75*
G02*
X126100000Y-110270000I1838478J-1838478D01*
G01*
X121661522Y-112108478D02*
G75*
G03*
X126100000Y-110270000I1838478J1838478D01*
G01*
X140410000Y-129202064D02*
X140410000Y-127997936D01*
X138590000Y-129202064D02*
X138590000Y-127997936D01*
X115702064Y-108590000D02*
X114497936Y-108590000D01*
X115702064Y-110410000D02*
X114497936Y-110410000D01*
X144910000Y-127997936D02*
X144910000Y-129202064D01*
X143090000Y-127997936D02*
X143090000Y-129202064D01*
D10*
X146666666Y-143252380D02*
X146333333Y-142776190D01*
X146095238Y-143252380D02*
X146095238Y-142252380D01*
X146476190Y-142252380D01*
X146571428Y-142300000D01*
X146619047Y-142347619D01*
X146666666Y-142442857D01*
X146666666Y-142585714D01*
X146619047Y-142680952D01*
X146571428Y-142728571D01*
X146476190Y-142776190D01*
X146095238Y-142776190D01*
X147095238Y-142728571D02*
X147428571Y-142728571D01*
X147571428Y-143252380D02*
X147095238Y-143252380D01*
X147095238Y-142252380D01*
X147571428Y-142252380D01*
X148333333Y-142728571D02*
X148000000Y-142728571D01*
X148000000Y-143252380D02*
X148000000Y-142252380D01*
X148476190Y-142252380D01*
X149000000Y-142252380D02*
X149000000Y-142490476D01*
X148761904Y-142395238D02*
X149000000Y-142490476D01*
X149238095Y-142395238D01*
X148857142Y-142680952D02*
X149000000Y-142490476D01*
X149142857Y-142680952D01*
X149761904Y-142252380D02*
X149761904Y-142490476D01*
X149523809Y-142395238D02*
X149761904Y-142490476D01*
X150000000Y-142395238D01*
X149619047Y-142680952D02*
X149761904Y-142490476D01*
X149904761Y-142680952D01*
X86666666Y-142952380D02*
X86333333Y-142476190D01*
X86095238Y-142952380D02*
X86095238Y-141952380D01*
X86476190Y-141952380D01*
X86571428Y-142000000D01*
X86619047Y-142047619D01*
X86666666Y-142142857D01*
X86666666Y-142285714D01*
X86619047Y-142380952D01*
X86571428Y-142428571D01*
X86476190Y-142476190D01*
X86095238Y-142476190D01*
X87095238Y-142428571D02*
X87428571Y-142428571D01*
X87571428Y-142952380D02*
X87095238Y-142952380D01*
X87095238Y-141952380D01*
X87571428Y-141952380D01*
X88333333Y-142428571D02*
X88000000Y-142428571D01*
X88000000Y-142952380D02*
X88000000Y-141952380D01*
X88476190Y-141952380D01*
X89000000Y-141952380D02*
X89000000Y-142190476D01*
X88761904Y-142095238D02*
X89000000Y-142190476D01*
X89238095Y-142095238D01*
X88857142Y-142380952D02*
X89000000Y-142190476D01*
X89142857Y-142380952D01*
X89761904Y-141952380D02*
X89761904Y-142190476D01*
X89523809Y-142095238D02*
X89761904Y-142190476D01*
X90000000Y-142095238D01*
X89619047Y-142380952D02*
X89761904Y-142190476D01*
X89904761Y-142380952D01*
X146166666Y-102952380D02*
X145833333Y-102476190D01*
X145595238Y-102952380D02*
X145595238Y-101952380D01*
X145976190Y-101952380D01*
X146071428Y-102000000D01*
X146119047Y-102047619D01*
X146166666Y-102142857D01*
X146166666Y-102285714D01*
X146119047Y-102380952D01*
X146071428Y-102428571D01*
X145976190Y-102476190D01*
X145595238Y-102476190D01*
X146595238Y-102428571D02*
X146928571Y-102428571D01*
X147071428Y-102952380D02*
X146595238Y-102952380D01*
X146595238Y-101952380D01*
X147071428Y-101952380D01*
X147833333Y-102428571D02*
X147500000Y-102428571D01*
X147500000Y-102952380D02*
X147500000Y-101952380D01*
X147976190Y-101952380D01*
X148500000Y-101952380D02*
X148500000Y-102190476D01*
X148261904Y-102095238D02*
X148500000Y-102190476D01*
X148738095Y-102095238D01*
X148357142Y-102380952D02*
X148500000Y-102190476D01*
X148642857Y-102380952D01*
X149261904Y-101952380D02*
X149261904Y-102190476D01*
X149023809Y-102095238D02*
X149261904Y-102190476D01*
X149500000Y-102095238D01*
X149119047Y-102380952D02*
X149261904Y-102190476D01*
X149404761Y-102380952D01*
X83166666Y-102952380D02*
X82833333Y-102476190D01*
X82595238Y-102952380D02*
X82595238Y-101952380D01*
X82976190Y-101952380D01*
X83071428Y-102000000D01*
X83119047Y-102047619D01*
X83166666Y-102142857D01*
X83166666Y-102285714D01*
X83119047Y-102380952D01*
X83071428Y-102428571D01*
X82976190Y-102476190D01*
X82595238Y-102476190D01*
X83595238Y-102428571D02*
X83928571Y-102428571D01*
X84071428Y-102952380D02*
X83595238Y-102952380D01*
X83595238Y-101952380D01*
X84071428Y-101952380D01*
X84833333Y-102428571D02*
X84500000Y-102428571D01*
X84500000Y-102952380D02*
X84500000Y-101952380D01*
X84976190Y-101952380D01*
X85500000Y-101952380D02*
X85500000Y-102190476D01*
X85261904Y-102095238D02*
X85500000Y-102190476D01*
X85738095Y-102095238D01*
X85357142Y-102380952D02*
X85500000Y-102190476D01*
X85642857Y-102380952D01*
X86261904Y-101952380D02*
X86261904Y-102190476D01*
X86023809Y-102095238D02*
X86261904Y-102190476D01*
X86500000Y-102095238D01*
X86119047Y-102380952D02*
X86261904Y-102190476D01*
X86404761Y-102380952D01*
X126412666Y-112928571D02*
X126079333Y-112928571D01*
X126079333Y-113452380D02*
X126079333Y-112452380D01*
X126555523Y-112452380D01*
X127365047Y-112785714D02*
X127365047Y-113452380D01*
X127126952Y-112404761D02*
X126888857Y-113119047D01*
X127507904Y-113119047D01*
X125132380Y-126166666D02*
X124656190Y-126500000D01*
X125132380Y-126738095D02*
X124132380Y-126738095D01*
X124132380Y-126357142D01*
X124180000Y-126261904D01*
X124227619Y-126214285D01*
X124322857Y-126166666D01*
X124465714Y-126166666D01*
X124560952Y-126214285D01*
X124608571Y-126261904D01*
X124656190Y-126357142D01*
X124656190Y-126738095D01*
X125132380Y-125214285D02*
X125132380Y-125785714D01*
X125132380Y-125500000D02*
X124132380Y-125500000D01*
X124275238Y-125595238D01*
X124370476Y-125690476D01*
X124418095Y-125785714D01*
X120019333Y-143611142D02*
X119971714Y-143658761D01*
X119828857Y-143706380D01*
X119733619Y-143706380D01*
X119590761Y-143658761D01*
X119495523Y-143563523D01*
X119447904Y-143468285D01*
X119400285Y-143277809D01*
X119400285Y-143134952D01*
X119447904Y-142944476D01*
X119495523Y-142849238D01*
X119590761Y-142754000D01*
X119733619Y-142706380D01*
X119828857Y-142706380D01*
X119971714Y-142754000D01*
X120019333Y-142801619D01*
X120971714Y-143706380D02*
X120400285Y-143706380D01*
X120686000Y-143706380D02*
X120686000Y-142706380D01*
X120590761Y-142849238D01*
X120495523Y-142944476D01*
X120400285Y-142992095D01*
X119765333Y-125357142D02*
X119717714Y-125404761D01*
X119574857Y-125452380D01*
X119479619Y-125452380D01*
X119336761Y-125404761D01*
X119241523Y-125309523D01*
X119193904Y-125214285D01*
X119146285Y-125023809D01*
X119146285Y-124880952D01*
X119193904Y-124690476D01*
X119241523Y-124595238D01*
X119336761Y-124500000D01*
X119479619Y-124452380D01*
X119574857Y-124452380D01*
X119717714Y-124500000D01*
X119765333Y-124547619D01*
X120146285Y-124547619D02*
X120193904Y-124500000D01*
X120289142Y-124452380D01*
X120527238Y-124452380D01*
X120622476Y-124500000D01*
X120670095Y-124547619D01*
X120717714Y-124642857D01*
X120717714Y-124738095D01*
X120670095Y-124880952D01*
X120098666Y-125452380D01*
X120717714Y-125452380D01*
X124333333Y-132945142D02*
X124285714Y-132992761D01*
X124142857Y-133040380D01*
X124047619Y-133040380D01*
X123904761Y-132992761D01*
X123809523Y-132897523D01*
X123761904Y-132802285D01*
X123714285Y-132611809D01*
X123714285Y-132468952D01*
X123761904Y-132278476D01*
X123809523Y-132183238D01*
X123904761Y-132088000D01*
X124047619Y-132040380D01*
X124142857Y-132040380D01*
X124285714Y-132088000D01*
X124333333Y-132135619D01*
X124666666Y-132040380D02*
X125285714Y-132040380D01*
X124952380Y-132421333D01*
X125095238Y-132421333D01*
X125190476Y-132468952D01*
X125238095Y-132516571D01*
X125285714Y-132611809D01*
X125285714Y-132849904D01*
X125238095Y-132945142D01*
X125190476Y-132992761D01*
X125095238Y-133040380D01*
X124809523Y-133040380D01*
X124714285Y-132992761D01*
X124666666Y-132945142D01*
X110857142Y-113832666D02*
X110904761Y-113880285D01*
X110952380Y-114023142D01*
X110952380Y-114118380D01*
X110904761Y-114261238D01*
X110809523Y-114356476D01*
X110714285Y-114404095D01*
X110523809Y-114451714D01*
X110380952Y-114451714D01*
X110190476Y-114404095D01*
X110095238Y-114356476D01*
X110000000Y-114261238D01*
X109952380Y-114118380D01*
X109952380Y-114023142D01*
X110000000Y-113880285D01*
X110047619Y-113832666D01*
X110285714Y-112975523D02*
X110952380Y-112975523D01*
X109904761Y-113213619D02*
X110619047Y-113451714D01*
X110619047Y-112832666D01*
X119635333Y-130913142D02*
X119587714Y-130960761D01*
X119444857Y-131008380D01*
X119349619Y-131008380D01*
X119206761Y-130960761D01*
X119111523Y-130865523D01*
X119063904Y-130770285D01*
X119016285Y-130579809D01*
X119016285Y-130436952D01*
X119063904Y-130246476D01*
X119111523Y-130151238D01*
X119206761Y-130056000D01*
X119349619Y-130008380D01*
X119444857Y-130008380D01*
X119587714Y-130056000D01*
X119635333Y-130103619D01*
X120540095Y-130008380D02*
X120063904Y-130008380D01*
X120016285Y-130484571D01*
X120063904Y-130436952D01*
X120159142Y-130389333D01*
X120397238Y-130389333D01*
X120492476Y-130436952D01*
X120540095Y-130484571D01*
X120587714Y-130579809D01*
X120587714Y-130817904D01*
X120540095Y-130913142D01*
X120492476Y-130960761D01*
X120397238Y-131008380D01*
X120159142Y-131008380D01*
X120063904Y-130960761D01*
X120016285Y-130913142D01*
X124357142Y-113956666D02*
X124404761Y-114004285D01*
X124452380Y-114147142D01*
X124452380Y-114242380D01*
X124404761Y-114385238D01*
X124309523Y-114480476D01*
X124214285Y-114528095D01*
X124023809Y-114575714D01*
X123880952Y-114575714D01*
X123690476Y-114528095D01*
X123595238Y-114480476D01*
X123500000Y-114385238D01*
X123452380Y-114242380D01*
X123452380Y-114147142D01*
X123500000Y-114004285D01*
X123547619Y-113956666D01*
X123452380Y-113099523D02*
X123452380Y-113290000D01*
X123500000Y-113385238D01*
X123547619Y-113432857D01*
X123690476Y-113528095D01*
X123880952Y-113575714D01*
X124261904Y-113575714D01*
X124357142Y-113528095D01*
X124404761Y-113480476D01*
X124452380Y-113385238D01*
X124452380Y-113194761D01*
X124404761Y-113099523D01*
X124357142Y-113051904D01*
X124261904Y-113004285D01*
X124023809Y-113004285D01*
X123928571Y-113051904D01*
X123880952Y-113099523D01*
X123833333Y-113194761D01*
X123833333Y-113385238D01*
X123880952Y-113480476D01*
X123928571Y-113528095D01*
X124023809Y-113575714D01*
X110577333Y-133193142D02*
X110529714Y-133240761D01*
X110386857Y-133288380D01*
X110291619Y-133288380D01*
X110148761Y-133240761D01*
X110053523Y-133145523D01*
X110005904Y-133050285D01*
X109958285Y-132859809D01*
X109958285Y-132716952D01*
X110005904Y-132526476D01*
X110053523Y-132431238D01*
X110148761Y-132336000D01*
X110291619Y-132288380D01*
X110386857Y-132288380D01*
X110529714Y-132336000D01*
X110577333Y-132383619D01*
X110910666Y-132288380D02*
X111577333Y-132288380D01*
X111148761Y-133288380D01*
X146833333Y-110357142D02*
X146785714Y-110404761D01*
X146642857Y-110452380D01*
X146547619Y-110452380D01*
X146404761Y-110404761D01*
X146309523Y-110309523D01*
X146261904Y-110214285D01*
X146214285Y-110023809D01*
X146214285Y-109880952D01*
X146261904Y-109690476D01*
X146309523Y-109595238D01*
X146404761Y-109500000D01*
X146547619Y-109452380D01*
X146642857Y-109452380D01*
X146785714Y-109500000D01*
X146833333Y-109547619D01*
X147404761Y-109880952D02*
X147309523Y-109833333D01*
X147261904Y-109785714D01*
X147214285Y-109690476D01*
X147214285Y-109642857D01*
X147261904Y-109547619D01*
X147309523Y-109500000D01*
X147404761Y-109452380D01*
X147595238Y-109452380D01*
X147690476Y-109500000D01*
X147738095Y-109547619D01*
X147785714Y-109642857D01*
X147785714Y-109690476D01*
X147738095Y-109785714D01*
X147690476Y-109833333D01*
X147595238Y-109880952D01*
X147404761Y-109880952D01*
X147309523Y-109928571D01*
X147261904Y-109976190D01*
X147214285Y-110071428D01*
X147214285Y-110261904D01*
X147261904Y-110357142D01*
X147309523Y-110404761D01*
X147404761Y-110452380D01*
X147595238Y-110452380D01*
X147690476Y-110404761D01*
X147738095Y-110357142D01*
X147785714Y-110261904D01*
X147785714Y-110071428D01*
X147738095Y-109976190D01*
X147690476Y-109928571D01*
X147595238Y-109880952D01*
X132031904Y-123992380D02*
X132031904Y-122992380D01*
X132270000Y-122992380D01*
X132412857Y-123040000D01*
X132508095Y-123135238D01*
X132555714Y-123230476D01*
X132603333Y-123420952D01*
X132603333Y-123563809D01*
X132555714Y-123754285D01*
X132508095Y-123849523D01*
X132412857Y-123944761D01*
X132270000Y-123992380D01*
X132031904Y-123992380D01*
X133555714Y-123992380D02*
X132984285Y-123992380D01*
X133270000Y-123992380D02*
X133270000Y-122992380D01*
X133174761Y-123135238D01*
X133079523Y-123230476D01*
X132984285Y-123278095D01*
X103166666Y-131428571D02*
X102833333Y-131428571D01*
X102833333Y-131952380D02*
X102833333Y-130952380D01*
X103309523Y-130952380D01*
X104214285Y-131952380D02*
X103642857Y-131952380D01*
X103928571Y-131952380D02*
X103928571Y-130952380D01*
X103833333Y-131095238D01*
X103738095Y-131190476D01*
X103642857Y-131238095D01*
X103298666Y-111434571D02*
X102965333Y-111434571D01*
X102965333Y-111958380D02*
X102965333Y-110958380D01*
X103441523Y-110958380D01*
X103774857Y-111053619D02*
X103822476Y-111006000D01*
X103917714Y-110958380D01*
X104155809Y-110958380D01*
X104251047Y-111006000D01*
X104298666Y-111053619D01*
X104346285Y-111148857D01*
X104346285Y-111244095D01*
X104298666Y-111386952D01*
X103727238Y-111958380D01*
X104346285Y-111958380D01*
X131746666Y-143438571D02*
X131413333Y-143438571D01*
X131413333Y-143962380D02*
X131413333Y-142962380D01*
X131889523Y-142962380D01*
X132175238Y-142962380D02*
X132794285Y-142962380D01*
X132460952Y-143343333D01*
X132603809Y-143343333D01*
X132699047Y-143390952D01*
X132746666Y-143438571D01*
X132794285Y-143533809D01*
X132794285Y-143771904D01*
X132746666Y-143867142D01*
X132699047Y-143914761D01*
X132603809Y-143962380D01*
X132318095Y-143962380D01*
X132222857Y-143914761D01*
X132175238Y-143867142D01*
X82666666Y-117952380D02*
X82666666Y-118666666D01*
X82619047Y-118809523D01*
X82523809Y-118904761D01*
X82380952Y-118952380D01*
X82285714Y-118952380D01*
X83666666Y-118952380D02*
X83095238Y-118952380D01*
X83380952Y-118952380D02*
X83380952Y-117952380D01*
X83285714Y-118095238D01*
X83190476Y-118190476D01*
X83095238Y-118238095D01*
X82166666Y-136952380D02*
X82166666Y-137666666D01*
X82119047Y-137809523D01*
X82023809Y-137904761D01*
X81880952Y-137952380D01*
X81785714Y-137952380D01*
X82595238Y-137047619D02*
X82642857Y-137000000D01*
X82738095Y-136952380D01*
X82976190Y-136952380D01*
X83071428Y-137000000D01*
X83119047Y-137047619D01*
X83166666Y-137142857D01*
X83166666Y-137238095D01*
X83119047Y-137380952D01*
X82547619Y-137952380D01*
X83166666Y-137952380D01*
X136016380Y-140430333D02*
X136730666Y-140430333D01*
X136873523Y-140477952D01*
X136968761Y-140573190D01*
X137016380Y-140716047D01*
X137016380Y-140811285D01*
X136016380Y-140049380D02*
X136016380Y-139430333D01*
X136397333Y-139763666D01*
X136397333Y-139620809D01*
X136444952Y-139525571D01*
X136492571Y-139477952D01*
X136587809Y-139430333D01*
X136825904Y-139430333D01*
X136921142Y-139477952D01*
X136968761Y-139525571D01*
X137016380Y-139620809D01*
X137016380Y-139906523D01*
X136968761Y-140001761D01*
X136921142Y-140049380D01*
X136270380Y-121491333D02*
X136984666Y-121491333D01*
X137127523Y-121538952D01*
X137222761Y-121634190D01*
X137270380Y-121777047D01*
X137270380Y-121872285D01*
X136603714Y-120586571D02*
X137270380Y-120586571D01*
X136222761Y-120824666D02*
X136937047Y-121062761D01*
X136937047Y-120443714D01*
X98166666Y-128904761D02*
X98309523Y-128952380D01*
X98547619Y-128952380D01*
X98642857Y-128904761D01*
X98690476Y-128857142D01*
X98738095Y-128761904D01*
X98738095Y-128666666D01*
X98690476Y-128571428D01*
X98642857Y-128523809D01*
X98547619Y-128476190D01*
X98357142Y-128428571D01*
X98261904Y-128380952D01*
X98214285Y-128333333D01*
X98166666Y-128238095D01*
X98166666Y-128142857D01*
X98214285Y-128047619D01*
X98261904Y-128000000D01*
X98357142Y-127952380D01*
X98595238Y-127952380D01*
X98738095Y-128000000D01*
X99071428Y-127952380D02*
X99309523Y-128952380D01*
X99500000Y-128238095D01*
X99690476Y-128952380D01*
X99928571Y-127952380D01*
X100833333Y-128952380D02*
X100261904Y-128952380D01*
X100547619Y-128952380D02*
X100547619Y-127952380D01*
X100452380Y-128095238D01*
X100357142Y-128190476D01*
X100261904Y-128238095D01*
X98666666Y-109904761D02*
X98809523Y-109952380D01*
X99047619Y-109952380D01*
X99142857Y-109904761D01*
X99190476Y-109857142D01*
X99238095Y-109761904D01*
X99238095Y-109666666D01*
X99190476Y-109571428D01*
X99142857Y-109523809D01*
X99047619Y-109476190D01*
X98857142Y-109428571D01*
X98761904Y-109380952D01*
X98714285Y-109333333D01*
X98666666Y-109238095D01*
X98666666Y-109142857D01*
X98714285Y-109047619D01*
X98761904Y-109000000D01*
X98857142Y-108952380D01*
X99095238Y-108952380D01*
X99238095Y-109000000D01*
X99571428Y-108952380D02*
X99809523Y-109952380D01*
X100000000Y-109238095D01*
X100190476Y-109952380D01*
X100428571Y-108952380D01*
X100761904Y-109047619D02*
X100809523Y-109000000D01*
X100904761Y-108952380D01*
X101142857Y-108952380D01*
X101238095Y-109000000D01*
X101285714Y-109047619D01*
X101333333Y-109142857D01*
X101333333Y-109238095D01*
X101285714Y-109380952D01*
X100714285Y-109952380D01*
X101333333Y-109952380D01*
X116332095Y-131452380D02*
X116332095Y-132261904D01*
X116379714Y-132357142D01*
X116427333Y-132404761D01*
X116522571Y-132452380D01*
X116713047Y-132452380D01*
X116808285Y-132404761D01*
X116855904Y-132357142D01*
X116903523Y-132261904D01*
X116903523Y-131452380D01*
X117903523Y-132452380D02*
X117332095Y-132452380D01*
X117617809Y-132452380D02*
X117617809Y-131452380D01*
X117522571Y-131595238D01*
X117427333Y-131690476D01*
X117332095Y-131738095D01*
X116840095Y-112300380D02*
X116840095Y-113109904D01*
X116887714Y-113205142D01*
X116935333Y-113252761D01*
X117030571Y-113300380D01*
X117221047Y-113300380D01*
X117316285Y-113252761D01*
X117363904Y-113205142D01*
X117411523Y-113109904D01*
X117411523Y-112300380D01*
X117840095Y-112395619D02*
X117887714Y-112348000D01*
X117982952Y-112300380D01*
X118221047Y-112300380D01*
X118316285Y-112348000D01*
X118363904Y-112395619D01*
X118411523Y-112490857D01*
X118411523Y-112586095D01*
X118363904Y-112728952D01*
X117792476Y-113300380D01*
X118411523Y-113300380D01*
X128992380Y-110968095D02*
X127992380Y-110968095D01*
X127992380Y-110730000D01*
X128040000Y-110587142D01*
X128135238Y-110491904D01*
X128230476Y-110444285D01*
X128420952Y-110396666D01*
X128563809Y-110396666D01*
X128754285Y-110444285D01*
X128849523Y-110491904D01*
X128944761Y-110587142D01*
X128992380Y-110730000D01*
X128992380Y-110968095D01*
X128087619Y-110015714D02*
X128040000Y-109968095D01*
X127992380Y-109872857D01*
X127992380Y-109634761D01*
X128040000Y-109539523D01*
X128087619Y-109491904D01*
X128182857Y-109444285D01*
X128278095Y-109444285D01*
X128420952Y-109491904D01*
X128992380Y-110063333D01*
X128992380Y-109444285D01*
X126107619Y-126865238D02*
X126060000Y-126960476D01*
X125964761Y-127055714D01*
X125821904Y-127198571D01*
X125774285Y-127293809D01*
X125774285Y-127389047D01*
X126012380Y-127341428D02*
X125964761Y-127436666D01*
X125869523Y-127531904D01*
X125679047Y-127579523D01*
X125345714Y-127579523D01*
X125155238Y-127531904D01*
X125060000Y-127436666D01*
X125012380Y-127341428D01*
X125012380Y-127150952D01*
X125060000Y-127055714D01*
X125155238Y-126960476D01*
X125345714Y-126912857D01*
X125679047Y-126912857D01*
X125869523Y-126960476D01*
X125964761Y-127055714D01*
X126012380Y-127150952D01*
X126012380Y-127341428D01*
X126012380Y-125960476D02*
X126012380Y-126531904D01*
X126012380Y-126246190D02*
X125012380Y-126246190D01*
X125155238Y-126341428D01*
X125250476Y-126436666D01*
X125298095Y-126531904D01*
X127607619Y-110365238D02*
X127560000Y-110460476D01*
X127464761Y-110555714D01*
X127321904Y-110698571D01*
X127274285Y-110793809D01*
X127274285Y-110889047D01*
X127512380Y-110841428D02*
X127464761Y-110936666D01*
X127369523Y-111031904D01*
X127179047Y-111079523D01*
X126845714Y-111079523D01*
X126655238Y-111031904D01*
X126560000Y-110936666D01*
X126512380Y-110841428D01*
X126512380Y-110650952D01*
X126560000Y-110555714D01*
X126655238Y-110460476D01*
X126845714Y-110412857D01*
X127179047Y-110412857D01*
X127369523Y-110460476D01*
X127464761Y-110555714D01*
X127512380Y-110650952D01*
X127512380Y-110841428D01*
X126607619Y-110031904D02*
X126560000Y-109984285D01*
X126512380Y-109889047D01*
X126512380Y-109650952D01*
X126560000Y-109555714D01*
X126607619Y-109508095D01*
X126702857Y-109460476D01*
X126798095Y-109460476D01*
X126940952Y-109508095D01*
X127512380Y-110079523D01*
X127512380Y-109460476D01*
X138132380Y-128766666D02*
X137656190Y-129100000D01*
X138132380Y-129338095D02*
X137132380Y-129338095D01*
X137132380Y-128957142D01*
X137180000Y-128861904D01*
X137227619Y-128814285D01*
X137322857Y-128766666D01*
X137465714Y-128766666D01*
X137560952Y-128814285D01*
X137608571Y-128861904D01*
X137656190Y-128957142D01*
X137656190Y-129338095D01*
X137227619Y-128385714D02*
X137180000Y-128338095D01*
X137132380Y-128242857D01*
X137132380Y-128004761D01*
X137180000Y-127909523D01*
X137227619Y-127861904D01*
X137322857Y-127814285D01*
X137418095Y-127814285D01*
X137560952Y-127861904D01*
X138132380Y-128433333D01*
X138132380Y-127814285D01*
X114933333Y-111772380D02*
X114600000Y-111296190D01*
X114361904Y-111772380D02*
X114361904Y-110772380D01*
X114742857Y-110772380D01*
X114838095Y-110820000D01*
X114885714Y-110867619D01*
X114933333Y-110962857D01*
X114933333Y-111105714D01*
X114885714Y-111200952D01*
X114838095Y-111248571D01*
X114742857Y-111296190D01*
X114361904Y-111296190D01*
X115266666Y-110772380D02*
X115885714Y-110772380D01*
X115552380Y-111153333D01*
X115695238Y-111153333D01*
X115790476Y-111200952D01*
X115838095Y-111248571D01*
X115885714Y-111343809D01*
X115885714Y-111581904D01*
X115838095Y-111677142D01*
X115790476Y-111724761D01*
X115695238Y-111772380D01*
X115409523Y-111772380D01*
X115314285Y-111724761D01*
X115266666Y-111677142D01*
X146272380Y-128766666D02*
X145796190Y-129100000D01*
X146272380Y-129338095D02*
X145272380Y-129338095D01*
X145272380Y-128957142D01*
X145320000Y-128861904D01*
X145367619Y-128814285D01*
X145462857Y-128766666D01*
X145605714Y-128766666D01*
X145700952Y-128814285D01*
X145748571Y-128861904D01*
X145796190Y-128957142D01*
X145796190Y-129338095D01*
X145605714Y-127909523D02*
X146272380Y-127909523D01*
X145224761Y-128147619D02*
X145939047Y-128385714D01*
X145939047Y-127766666D01*
M02*
