M48
; DRILL file {KiCad (5.1.6)-1} date 06/24/21 11:46:04
; FORMAT={-:-/ absolute / inch / decimal}
; #@! TF.CreationDate,2021-06-24T11:46:04+03:00
; #@! TF.GenerationSoftware,Kicad,Pcbnew,(5.1.6)-1
; #@! TF.FileFunction,Plated,1,2,PTH
FMAT,2
INCH
T1C0.0157
T2C0.0197
T3C0.0295
T4C0.0315
T5C0.0354
T6C0.0394
T7C0.0591
T8C0.1063
%
G90
G05
T1
X3.878Y-5.6496
X4.3307Y-5.1181
X4.3504Y-4.4685
X4.4094Y-5.2362
X4.4488Y-4.4685
X4.4685Y-5.0984
X4.6417Y-4.8268
X4.7244Y-5.6486
X4.7441Y-4.4488
X4.8228Y-4.7638
X4.9016Y-5.4528
X4.9803Y-4.9409
X5.3543Y-5.1772
X5.3937Y-4.626
X5.5118Y-4.3504
T2
X5.747Y-5.7677
X5.7704Y-5.7113
X5.7704Y-5.8241
X5.8268Y-5.688
X5.8268Y-5.8474
X5.8831Y-5.7113
X5.8831Y-5.8241
X5.9065Y-5.7677
X3.2864Y-5.748
X3.3098Y-5.6917
X3.3098Y-5.8044
X3.3661Y-5.6683
X3.3661Y-5.8278
X3.4225Y-5.6917
X3.4225Y-5.8044
X3.4459Y-5.748
T3
X4.8031Y-4.9409
X4.8031Y-4.9909
X4.8031Y-5.0409
X4.8622Y-4.2913
X4.8622Y-4.3413
X4.8622Y-4.3913
T4
X3.47Y-5.06
X3.77Y-5.06
X3.47Y-4.32
X3.77Y-4.32
T5
X5.1772Y-5.0197
X5.2772Y-5.0197
X5.2165Y-4.2898
X5.2165Y-4.3898
T6
X3.9796Y-5.4096
X4.1796Y-5.41
X4.0796Y-4.77
X4.08Y-4.57
X5.16Y-5.51
X5.1604Y-5.31
X5.16Y-4.77
X5.1604Y-4.57
T7
X3.57Y-5.33
X3.57Y-5.5269
X5.66Y-5.3188
X5.66Y-5.5156
X3.57Y-4.5844
X3.57Y-4.7812
X5.67Y-4.5731
X5.67Y-4.77
T8
X5.8268Y-5.7677
X3.3661Y-5.748
T0
M30
