G04 #@! TF.GenerationSoftware,KiCad,Pcbnew,(5.1.6)-1*
G04 #@! TF.CreationDate,2021-06-24T11:46:10+03:00*
G04 #@! TF.ProjectId,power supply,706f7765-7220-4737-9570-706c792e6b69,rev?*
G04 #@! TF.SameCoordinates,Original*
G04 #@! TF.FileFunction,Copper,L1,Top*
G04 #@! TF.FilePolarity,Positive*
%FSLAX46Y46*%
G04 Gerber Fmt 4.6, Leading zero omitted, Abs format (unit mm)*
G04 Created by KiCad (PCBNEW (5.1.6)-1) date 2021-06-24 11:46:10*
%MOMM*%
%LPD*%
G01*
G04 APERTURE LIST*
G04 #@! TA.AperFunction,ComponentPad*
%ADD10C,5.400000*%
G04 #@! TD*
G04 #@! TA.AperFunction,ComponentPad*
%ADD11C,0.800000*%
G04 #@! TD*
G04 #@! TA.AperFunction,ComponentPad*
%ADD12C,2.000000*%
G04 #@! TD*
G04 #@! TA.AperFunction,ComponentPad*
%ADD13R,1.800000X1.800000*%
G04 #@! TD*
G04 #@! TA.AperFunction,ComponentPad*
%ADD14C,1.800000*%
G04 #@! TD*
G04 #@! TA.AperFunction,ComponentPad*
%ADD15C,3.000000*%
G04 #@! TD*
G04 #@! TA.AperFunction,ComponentPad*
%ADD16R,3.000000X3.000000*%
G04 #@! TD*
G04 #@! TA.AperFunction,ComponentPad*
%ADD17O,1.600000X1.600000*%
G04 #@! TD*
G04 #@! TA.AperFunction,ComponentPad*
%ADD18R,1.600000X1.600000*%
G04 #@! TD*
G04 #@! TA.AperFunction,SMDPad,CuDef*
%ADD19R,2.000000X3.800000*%
G04 #@! TD*
G04 #@! TA.AperFunction,SMDPad,CuDef*
%ADD20R,2.000000X1.500000*%
G04 #@! TD*
G04 #@! TA.AperFunction,ComponentPad*
%ADD21R,1.500000X1.050000*%
G04 #@! TD*
G04 #@! TA.AperFunction,ComponentPad*
%ADD22O,1.500000X1.050000*%
G04 #@! TD*
G04 #@! TA.AperFunction,ViaPad*
%ADD23C,0.800000*%
G04 #@! TD*
G04 #@! TA.AperFunction,Conductor*
%ADD24C,0.350000*%
G04 #@! TD*
G04 #@! TA.AperFunction,Conductor*
%ADD25C,0.850000*%
G04 #@! TD*
G04 #@! TA.AperFunction,Conductor*
%ADD26C,0.800000*%
G04 #@! TD*
G04 #@! TA.AperFunction,Conductor*
%ADD27C,0.550000*%
G04 #@! TD*
G04 #@! TA.AperFunction,Conductor*
%ADD28C,0.254000*%
G04 #@! TD*
G04 APERTURE END LIST*
D10*
X148000000Y-146500000D03*
D11*
X150025000Y-146500000D03*
X149431891Y-147931891D03*
X148000000Y-148525000D03*
X146568109Y-147931891D03*
X145975000Y-146500000D03*
X146568109Y-145068109D03*
X148000000Y-144475000D03*
X149431891Y-145068109D03*
X86931891Y-144568109D03*
X85500000Y-143975000D03*
X84068109Y-144568109D03*
X83475000Y-146000000D03*
X84068109Y-147431891D03*
X85500000Y-148025000D03*
X86931891Y-147431891D03*
X87525000Y-146000000D03*
D10*
X85500000Y-146000000D03*
D12*
X131074000Y-116078000D03*
X131064000Y-121158000D03*
G04 #@! TA.AperFunction,SMDPad,CuDef*
G36*
G01*
X127125000Y-125225000D02*
X125875000Y-125225000D01*
G75*
G02*
X125625000Y-124975000I0J250000D01*
G01*
X125625000Y-124225000D01*
G75*
G02*
X125875000Y-123975000I250000J0D01*
G01*
X127125000Y-123975000D01*
G75*
G02*
X127375000Y-124225000I0J-250000D01*
G01*
X127375000Y-124975000D01*
G75*
G02*
X127125000Y-125225000I-250000J0D01*
G01*
G37*
G04 #@! TD.AperFunction*
G04 #@! TA.AperFunction,SMDPad,CuDef*
G36*
G01*
X127125000Y-128025000D02*
X125875000Y-128025000D01*
G75*
G02*
X125625000Y-127775000I0J250000D01*
G01*
X125625000Y-127025000D01*
G75*
G02*
X125875000Y-126775000I250000J0D01*
G01*
X127125000Y-126775000D01*
G75*
G02*
X127375000Y-127025000I0J-250000D01*
G01*
X127375000Y-127775000D01*
G75*
G02*
X127125000Y-128025000I-250000J0D01*
G01*
G37*
G04 #@! TD.AperFunction*
G04 #@! TA.AperFunction,SMDPad,CuDef*
G36*
G01*
X114475000Y-143625000D02*
X114475000Y-142375000D01*
G75*
G02*
X114725000Y-142125000I250000J0D01*
G01*
X115475000Y-142125000D01*
G75*
G02*
X115725000Y-142375000I0J-250000D01*
G01*
X115725000Y-143625000D01*
G75*
G02*
X115475000Y-143875000I-250000J0D01*
G01*
X114725000Y-143875000D01*
G75*
G02*
X114475000Y-143625000I0J250000D01*
G01*
G37*
G04 #@! TD.AperFunction*
G04 #@! TA.AperFunction,SMDPad,CuDef*
G36*
G01*
X117275000Y-143625000D02*
X117275000Y-142375000D01*
G75*
G02*
X117525000Y-142125000I250000J0D01*
G01*
X118275000Y-142125000D01*
G75*
G02*
X118525000Y-142375000I0J-250000D01*
G01*
X118525000Y-143625000D01*
G75*
G02*
X118275000Y-143875000I-250000J0D01*
G01*
X117525000Y-143875000D01*
G75*
G02*
X117275000Y-143625000I0J250000D01*
G01*
G37*
G04 #@! TD.AperFunction*
G04 #@! TA.AperFunction,SMDPad,CuDef*
G36*
G01*
X114475000Y-125625000D02*
X114475000Y-124375000D01*
G75*
G02*
X114725000Y-124125000I250000J0D01*
G01*
X115475000Y-124125000D01*
G75*
G02*
X115725000Y-124375000I0J-250000D01*
G01*
X115725000Y-125625000D01*
G75*
G02*
X115475000Y-125875000I-250000J0D01*
G01*
X114725000Y-125875000D01*
G75*
G02*
X114475000Y-125625000I0J250000D01*
G01*
G37*
G04 #@! TD.AperFunction*
G04 #@! TA.AperFunction,SMDPad,CuDef*
G36*
G01*
X117275000Y-125625000D02*
X117275000Y-124375000D01*
G75*
G02*
X117525000Y-124125000I250000J0D01*
G01*
X118275000Y-124125000D01*
G75*
G02*
X118525000Y-124375000I0J-250000D01*
G01*
X118525000Y-125625000D01*
G75*
G02*
X118275000Y-125875000I-250000J0D01*
G01*
X117525000Y-125875000D01*
G75*
G02*
X117275000Y-125625000I0J250000D01*
G01*
G37*
G04 #@! TD.AperFunction*
G04 #@! TA.AperFunction,SMDPad,CuDef*
G36*
G01*
X123875000Y-136789000D02*
X125125000Y-136789000D01*
G75*
G02*
X125375000Y-137039000I0J-250000D01*
G01*
X125375000Y-137789000D01*
G75*
G02*
X125125000Y-138039000I-250000J0D01*
G01*
X123875000Y-138039000D01*
G75*
G02*
X123625000Y-137789000I0J250000D01*
G01*
X123625000Y-137039000D01*
G75*
G02*
X123875000Y-136789000I250000J0D01*
G01*
G37*
G04 #@! TD.AperFunction*
G04 #@! TA.AperFunction,SMDPad,CuDef*
G36*
G01*
X123875000Y-133989000D02*
X125125000Y-133989000D01*
G75*
G02*
X125375000Y-134239000I0J-250000D01*
G01*
X125375000Y-134989000D01*
G75*
G02*
X125125000Y-135239000I-250000J0D01*
G01*
X123875000Y-135239000D01*
G75*
G02*
X123625000Y-134989000I0J250000D01*
G01*
X123625000Y-134239000D01*
G75*
G02*
X123875000Y-133989000I250000J0D01*
G01*
G37*
G04 #@! TD.AperFunction*
G04 #@! TA.AperFunction,SMDPad,CuDef*
G36*
G01*
X111125000Y-116825000D02*
X109875000Y-116825000D01*
G75*
G02*
X109625000Y-116575000I0J250000D01*
G01*
X109625000Y-115825000D01*
G75*
G02*
X109875000Y-115575000I250000J0D01*
G01*
X111125000Y-115575000D01*
G75*
G02*
X111375000Y-115825000I0J-250000D01*
G01*
X111375000Y-116575000D01*
G75*
G02*
X111125000Y-116825000I-250000J0D01*
G01*
G37*
G04 #@! TD.AperFunction*
G04 #@! TA.AperFunction,SMDPad,CuDef*
G36*
G01*
X111125000Y-119625000D02*
X109875000Y-119625000D01*
G75*
G02*
X109625000Y-119375000I0J250000D01*
G01*
X109625000Y-118625000D01*
G75*
G02*
X109875000Y-118375000I250000J0D01*
G01*
X111125000Y-118375000D01*
G75*
G02*
X111375000Y-118625000I0J-250000D01*
G01*
X111375000Y-119375000D01*
G75*
G02*
X111125000Y-119625000I-250000J0D01*
G01*
G37*
G04 #@! TD.AperFunction*
G04 #@! TA.AperFunction,SMDPad,CuDef*
G36*
G01*
X117275000Y-131181000D02*
X117275000Y-129931000D01*
G75*
G02*
X117525000Y-129681000I250000J0D01*
G01*
X118275000Y-129681000D01*
G75*
G02*
X118525000Y-129931000I0J-250000D01*
G01*
X118525000Y-131181000D01*
G75*
G02*
X118275000Y-131431000I-250000J0D01*
G01*
X117525000Y-131431000D01*
G75*
G02*
X117275000Y-131181000I0J250000D01*
G01*
G37*
G04 #@! TD.AperFunction*
G04 #@! TA.AperFunction,SMDPad,CuDef*
G36*
G01*
X114475000Y-131181000D02*
X114475000Y-129931000D01*
G75*
G02*
X114725000Y-129681000I250000J0D01*
G01*
X115475000Y-129681000D01*
G75*
G02*
X115725000Y-129931000I0J-250000D01*
G01*
X115725000Y-131181000D01*
G75*
G02*
X115475000Y-131431000I-250000J0D01*
G01*
X114725000Y-131431000D01*
G75*
G02*
X114475000Y-131181000I0J250000D01*
G01*
G37*
G04 #@! TD.AperFunction*
G04 #@! TA.AperFunction,SMDPad,CuDef*
G36*
G01*
X124625000Y-116825000D02*
X123375000Y-116825000D01*
G75*
G02*
X123125000Y-116575000I0J250000D01*
G01*
X123125000Y-115825000D01*
G75*
G02*
X123375000Y-115575000I250000J0D01*
G01*
X124625000Y-115575000D01*
G75*
G02*
X124875000Y-115825000I0J-250000D01*
G01*
X124875000Y-116575000D01*
G75*
G02*
X124625000Y-116825000I-250000J0D01*
G01*
G37*
G04 #@! TD.AperFunction*
G04 #@! TA.AperFunction,SMDPad,CuDef*
G36*
G01*
X124625000Y-119625000D02*
X123375000Y-119625000D01*
G75*
G02*
X123125000Y-119375000I0J250000D01*
G01*
X123125000Y-118625000D01*
G75*
G02*
X123375000Y-118375000I250000J0D01*
G01*
X124625000Y-118375000D01*
G75*
G02*
X124875000Y-118625000I0J-250000D01*
G01*
X124875000Y-119375000D01*
G75*
G02*
X124625000Y-119625000I-250000J0D01*
G01*
G37*
G04 #@! TD.AperFunction*
G04 #@! TA.AperFunction,SMDPad,CuDef*
G36*
G01*
X110119000Y-133989000D02*
X111369000Y-133989000D01*
G75*
G02*
X111619000Y-134239000I0J-250000D01*
G01*
X111619000Y-134989000D01*
G75*
G02*
X111369000Y-135239000I-250000J0D01*
G01*
X110119000Y-135239000D01*
G75*
G02*
X109869000Y-134989000I0J250000D01*
G01*
X109869000Y-134239000D01*
G75*
G02*
X110119000Y-133989000I250000J0D01*
G01*
G37*
G04 #@! TD.AperFunction*
G04 #@! TA.AperFunction,SMDPad,CuDef*
G36*
G01*
X110119000Y-136789000D02*
X111369000Y-136789000D01*
G75*
G02*
X111619000Y-137039000I0J-250000D01*
G01*
X111619000Y-137789000D01*
G75*
G02*
X111369000Y-138039000I-250000J0D01*
G01*
X110119000Y-138039000D01*
G75*
G02*
X109869000Y-137789000I0J250000D01*
G01*
X109869000Y-137039000D01*
G75*
G02*
X110119000Y-136789000I250000J0D01*
G01*
G37*
G04 #@! TD.AperFunction*
G04 #@! TA.AperFunction,SMDPad,CuDef*
G36*
G01*
X141475000Y-110625000D02*
X141475000Y-109375000D01*
G75*
G02*
X141725000Y-109125000I250000J0D01*
G01*
X142475000Y-109125000D01*
G75*
G02*
X142725000Y-109375000I0J-250000D01*
G01*
X142725000Y-110625000D01*
G75*
G02*
X142475000Y-110875000I-250000J0D01*
G01*
X141725000Y-110875000D01*
G75*
G02*
X141475000Y-110625000I0J250000D01*
G01*
G37*
G04 #@! TD.AperFunction*
G04 #@! TA.AperFunction,SMDPad,CuDef*
G36*
G01*
X144275000Y-110625000D02*
X144275000Y-109375000D01*
G75*
G02*
X144525000Y-109125000I250000J0D01*
G01*
X145275000Y-109125000D01*
G75*
G02*
X145525000Y-109375000I0J-250000D01*
G01*
X145525000Y-110625000D01*
G75*
G02*
X145275000Y-110875000I-250000J0D01*
G01*
X144525000Y-110875000D01*
G75*
G02*
X144275000Y-110625000I0J250000D01*
G01*
G37*
G04 #@! TD.AperFunction*
D13*
X131500000Y-127500000D03*
D14*
X134040000Y-127500000D03*
D12*
X106162000Y-137414000D03*
X101082000Y-137404000D03*
X103632000Y-116078000D03*
X103622000Y-121158000D03*
X131064000Y-139954000D03*
X131074000Y-134874000D03*
D15*
X90678000Y-121443000D03*
D16*
X90678000Y-116443000D03*
X90678000Y-135382000D03*
D15*
X90678000Y-140382000D03*
X143764000Y-135097000D03*
D16*
X143764000Y-140097000D03*
X144018000Y-121158000D03*
D15*
X144018000Y-116158000D03*
D17*
X95758000Y-128524000D03*
D18*
X88138000Y-128524000D03*
X88138000Y-109728000D03*
D17*
X95758000Y-109728000D03*
D19*
X120244000Y-136398000D03*
D20*
X113944000Y-136398000D03*
X113944000Y-138698000D03*
X113944000Y-134098000D03*
X114452000Y-115048000D03*
X114452000Y-119648000D03*
X114452000Y-117348000D03*
D19*
X120752000Y-117348000D03*
D13*
X132500000Y-111500000D03*
D14*
X132500000Y-108960000D03*
D21*
X122000000Y-125500000D03*
D22*
X122000000Y-128040000D03*
X122000000Y-126770000D03*
X123500000Y-110270000D03*
X123500000Y-111540000D03*
D21*
X123500000Y-109000000D03*
G04 #@! TA.AperFunction,SMDPad,CuDef*
G36*
G01*
X140125000Y-130625000D02*
X138875000Y-130625000D01*
G75*
G02*
X138625000Y-130375000I0J250000D01*
G01*
X138625000Y-129625000D01*
G75*
G02*
X138875000Y-129375000I250000J0D01*
G01*
X140125000Y-129375000D01*
G75*
G02*
X140375000Y-129625000I0J-250000D01*
G01*
X140375000Y-130375000D01*
G75*
G02*
X140125000Y-130625000I-250000J0D01*
G01*
G37*
G04 #@! TD.AperFunction*
G04 #@! TA.AperFunction,SMDPad,CuDef*
G36*
G01*
X140125000Y-127825000D02*
X138875000Y-127825000D01*
G75*
G02*
X138625000Y-127575000I0J250000D01*
G01*
X138625000Y-126825000D01*
G75*
G02*
X138875000Y-126575000I250000J0D01*
G01*
X140125000Y-126575000D01*
G75*
G02*
X140375000Y-126825000I0J-250000D01*
G01*
X140375000Y-127575000D01*
G75*
G02*
X140125000Y-127825000I-250000J0D01*
G01*
G37*
G04 #@! TD.AperFunction*
G04 #@! TA.AperFunction,SMDPad,CuDef*
G36*
G01*
X117125000Y-108875000D02*
X117125000Y-110125000D01*
G75*
G02*
X116875000Y-110375000I-250000J0D01*
G01*
X116125000Y-110375000D01*
G75*
G02*
X115875000Y-110125000I0J250000D01*
G01*
X115875000Y-108875000D01*
G75*
G02*
X116125000Y-108625000I250000J0D01*
G01*
X116875000Y-108625000D01*
G75*
G02*
X117125000Y-108875000I0J-250000D01*
G01*
G37*
G04 #@! TD.AperFunction*
G04 #@! TA.AperFunction,SMDPad,CuDef*
G36*
G01*
X114325000Y-108875000D02*
X114325000Y-110125000D01*
G75*
G02*
X114075000Y-110375000I-250000J0D01*
G01*
X113325000Y-110375000D01*
G75*
G02*
X113075000Y-110125000I0J250000D01*
G01*
X113075000Y-108875000D01*
G75*
G02*
X113325000Y-108625000I250000J0D01*
G01*
X114075000Y-108625000D01*
G75*
G02*
X114325000Y-108875000I0J-250000D01*
G01*
G37*
G04 #@! TD.AperFunction*
G04 #@! TA.AperFunction,SMDPad,CuDef*
G36*
G01*
X143375000Y-129375000D02*
X144625000Y-129375000D01*
G75*
G02*
X144875000Y-129625000I0J-250000D01*
G01*
X144875000Y-130375000D01*
G75*
G02*
X144625000Y-130625000I-250000J0D01*
G01*
X143375000Y-130625000D01*
G75*
G02*
X143125000Y-130375000I0J250000D01*
G01*
X143125000Y-129625000D01*
G75*
G02*
X143375000Y-129375000I250000J0D01*
G01*
G37*
G04 #@! TD.AperFunction*
G04 #@! TA.AperFunction,SMDPad,CuDef*
G36*
G01*
X143375000Y-126575000D02*
X144625000Y-126575000D01*
G75*
G02*
X144875000Y-126825000I0J-250000D01*
G01*
X144875000Y-127575000D01*
G75*
G02*
X144625000Y-127825000I-250000J0D01*
G01*
X143375000Y-127825000D01*
G75*
G02*
X143125000Y-127575000I0J250000D01*
G01*
X143125000Y-126825000D01*
G75*
G02*
X143375000Y-126575000I250000J0D01*
G01*
G37*
G04 #@! TD.AperFunction*
D23*
X110000000Y-130000000D03*
X120500000Y-113000000D03*
X110500000Y-113500000D03*
X113000000Y-113500000D03*
X117900000Y-122600000D03*
X126500000Y-125500000D03*
X122500000Y-121000000D03*
X140000000Y-110500000D03*
X113500000Y-129500000D03*
X124500000Y-138500000D03*
X120000000Y-143475010D03*
X112000000Y-133000000D03*
X98500000Y-143500000D03*
X137000000Y-117500000D03*
X136000000Y-131500000D03*
D24*
X85500000Y-146000000D02*
X87000000Y-144500000D01*
D25*
X113944000Y-141844000D02*
X115100000Y-143000000D01*
X113944000Y-138698000D02*
X113944000Y-141844000D01*
X111748000Y-143000000D02*
X115100000Y-143000000D01*
X106162000Y-137414000D02*
X111748000Y-143000000D01*
X125375000Y-134614000D02*
X124500000Y-134614000D01*
X126500000Y-135739000D02*
X125375000Y-134614000D01*
X115100000Y-144100000D02*
X115500010Y-144500010D01*
X126500000Y-138513978D02*
X126500000Y-135739000D01*
X115100000Y-143000000D02*
X115100000Y-144100000D01*
X115500010Y-144500010D02*
X120513968Y-144500010D01*
X120513968Y-144500010D02*
X126500000Y-138513978D01*
X115100000Y-114400000D02*
X114452000Y-115048000D01*
X142100000Y-114240000D02*
X144018000Y-116158000D01*
X142100000Y-110000000D02*
X142100000Y-114240000D01*
X113428000Y-134614000D02*
X113944000Y-134098000D01*
X110744000Y-134614000D02*
X113428000Y-134614000D01*
X115100000Y-132942000D02*
X113944000Y-134098000D01*
X115100000Y-130556000D02*
X115100000Y-132942000D01*
X115100000Y-127800000D02*
X117900000Y-125000000D01*
X115100000Y-130556000D02*
X115100000Y-127800000D01*
X118914000Y-143000000D02*
X124500000Y-137414000D01*
X117900000Y-143000000D02*
X118914000Y-143000000D01*
X90678000Y-140382000D02*
X93500000Y-137560000D01*
X93500000Y-124265000D02*
X90678000Y-121443000D01*
X93500000Y-137560000D02*
X93500000Y-124265000D01*
X104386000Y-134614000D02*
X110744000Y-134614000D01*
X103500000Y-135500000D02*
X104386000Y-134614000D01*
X103500000Y-138764000D02*
X103500000Y-135500000D01*
X90678000Y-140382000D02*
X101882000Y-140382000D01*
X101882000Y-140382000D02*
X103500000Y-138764000D01*
X111652000Y-115048000D02*
X114452000Y-115048000D01*
X110500000Y-116200000D02*
X111652000Y-115048000D01*
D26*
X113944000Y-134098000D02*
X113098000Y-134098000D01*
X113944000Y-134098000D02*
X113944000Y-132444000D01*
X113944000Y-132444000D02*
X111500000Y-130000000D01*
X111500000Y-130000000D02*
X110000000Y-130000000D01*
X114452000Y-115048000D02*
X117952000Y-115048000D01*
X117952000Y-115048000D02*
X120000000Y-113000000D01*
X120000000Y-113000000D02*
X120500000Y-113000000D01*
X110500000Y-116200000D02*
X110500000Y-113500000D01*
X114452000Y-115048000D02*
X114452000Y-114952000D01*
X114452000Y-114952000D02*
X113000000Y-113500000D01*
X117900000Y-125000000D02*
X117900000Y-122600000D01*
X126400000Y-125600000D02*
X126500000Y-125500000D01*
X124000000Y-119000000D02*
X124000000Y-119500000D01*
X124000000Y-119500000D02*
X122500000Y-121000000D01*
X142100000Y-110000000D02*
X140500000Y-110000000D01*
X140500000Y-110000000D02*
X140000000Y-110500000D01*
X115100000Y-130556000D02*
X114556000Y-130556000D01*
X114556000Y-130556000D02*
X113500000Y-129500000D01*
X124500000Y-137414000D02*
X124500000Y-138500000D01*
X110744000Y-134614000D02*
X110744000Y-134256000D01*
X110744000Y-134256000D02*
X112000000Y-133000000D01*
D25*
X145444002Y-116158000D02*
X144018000Y-116158000D01*
X143764000Y-130236000D02*
X143764000Y-135097000D01*
X144000000Y-130000000D02*
X143764000Y-130236000D01*
D24*
X90678000Y-140382000D02*
X95382000Y-140382000D01*
X95382000Y-140382000D02*
X98500000Y-143500000D01*
D25*
X108342000Y-121158000D02*
X110500000Y-119000000D01*
X103622000Y-121158000D02*
X108342000Y-121158000D01*
X115100000Y-123600000D02*
X110500000Y-119000000D01*
X115100000Y-125000000D02*
X115100000Y-123600000D01*
X115100000Y-120296000D02*
X114452000Y-119648000D01*
X115100000Y-125000000D02*
X115100000Y-120296000D01*
X111760000Y-136398000D02*
X113944000Y-136398000D01*
X110744000Y-137414000D02*
X111760000Y-136398000D01*
X120244000Y-133244000D02*
X120244000Y-136398000D01*
X117900000Y-130556000D02*
X117900000Y-130900000D01*
X117900000Y-130900000D02*
X120244000Y-133244000D01*
X120244000Y-136398000D02*
X125642000Y-131000000D01*
X125642000Y-131000000D02*
X126000000Y-131000000D01*
X128500000Y-133500000D02*
X126000000Y-131000000D01*
X128500000Y-137390000D02*
X128500000Y-133500000D01*
X131064000Y-139954000D02*
X128500000Y-137390000D01*
D26*
X113944000Y-136398000D02*
X120244000Y-136398000D01*
D25*
X137300000Y-127200000D02*
X139500000Y-127200000D01*
X126000000Y-131000000D02*
X133500000Y-131000000D01*
X133500000Y-131000000D02*
X137300000Y-127200000D01*
X122682000Y-128040000D02*
X125642000Y-131000000D01*
X122000000Y-128040000D02*
X122682000Y-128040000D01*
X122852000Y-117348000D02*
X124000000Y-116200000D01*
X120752000Y-117348000D02*
X122852000Y-117348000D01*
X114452000Y-117348000D02*
X120752000Y-117348000D01*
X124000000Y-116200000D02*
X125800000Y-116200000D01*
X126106000Y-116200000D02*
X125800000Y-116200000D01*
X131064000Y-121158000D02*
X126106000Y-116200000D01*
X142550010Y-107650010D02*
X144900000Y-110000000D01*
X127800000Y-116200000D02*
X130500000Y-113500000D01*
X125800000Y-116200000D02*
X127800000Y-116200000D01*
X135500000Y-113500000D02*
X141349990Y-107650010D01*
X130500000Y-113500000D02*
X135500000Y-113500000D01*
X141349990Y-107650010D02*
X142550010Y-107650010D01*
X123500000Y-115700000D02*
X124000000Y-116200000D01*
X123500000Y-111540000D02*
X123500000Y-115700000D01*
D24*
X108999990Y-116937444D02*
X108999990Y-113550427D01*
X109512556Y-117450010D02*
X108999990Y-116937444D01*
D27*
X113774988Y-117450010D02*
X109512556Y-117450010D01*
D25*
X113876998Y-117348000D02*
X113774988Y-117450010D01*
X114452000Y-117348000D02*
X113876998Y-117348000D01*
X110550417Y-111949583D02*
X110550417Y-112000000D01*
X113700000Y-109500000D02*
X113000000Y-109500000D01*
X110550417Y-112000000D02*
X108999990Y-113550427D01*
X113000000Y-109500000D02*
X110550417Y-111949583D01*
D26*
X126600000Y-127500000D02*
X126500000Y-127400000D01*
X131500000Y-127500000D02*
X126600000Y-127500000D01*
X144000000Y-127200000D02*
X141800000Y-125000000D01*
X141800000Y-125000000D02*
X137500000Y-125000000D01*
X137500000Y-125000000D02*
X137000000Y-124500000D01*
X137000000Y-124500000D02*
X137000000Y-117500000D01*
D25*
X95758000Y-132080000D02*
X101082000Y-137404000D01*
X95758000Y-128524000D02*
X95758000Y-132080000D01*
X97282000Y-109728000D02*
X103632000Y-116078000D01*
X95758000Y-109728000D02*
X97282000Y-109728000D01*
X138541000Y-134874000D02*
X143764000Y-140097000D01*
X131074000Y-134874000D02*
X138541000Y-134874000D01*
D26*
X138938000Y-116078000D02*
X144018000Y-121158000D01*
X131074000Y-116078000D02*
X138938000Y-116078000D01*
D25*
X88138000Y-113903000D02*
X90678000Y-116443000D01*
X88138000Y-109728000D02*
X88138000Y-113903000D01*
X88138000Y-132842000D02*
X90678000Y-135382000D01*
X88138000Y-128524000D02*
X88138000Y-132842000D01*
D26*
X134040000Y-126227208D02*
X134040000Y-127500000D01*
X122000000Y-125500000D02*
X125500000Y-122000000D01*
X125500000Y-122000000D02*
X127000000Y-122000000D01*
X131312792Y-123500000D02*
X134040000Y-126227208D01*
X127000000Y-122000000D02*
X128500000Y-123500000D01*
X128500000Y-123500000D02*
X131312792Y-123500000D01*
X132460000Y-109000000D02*
X132500000Y-108960000D01*
X123500000Y-109000000D02*
X132460000Y-109000000D01*
X138000000Y-131500000D02*
X139500000Y-130000000D01*
X136000000Y-131500000D02*
X138000000Y-131500000D01*
X117270000Y-110270000D02*
X116500000Y-109500000D01*
X123500000Y-110270000D02*
X117270000Y-110270000D01*
D28*
G36*
X150373000Y-106786773D02*
G01*
X150364288Y-106821607D01*
X150350554Y-106865669D01*
X150340266Y-106962557D01*
X150059287Y-143865000D01*
X149579715Y-143544561D01*
X148972784Y-143293162D01*
X148328469Y-143165000D01*
X147671531Y-143165000D01*
X147027216Y-143293162D01*
X146420285Y-143544561D01*
X145874061Y-143909536D01*
X145410597Y-144373000D01*
X122140043Y-144373000D01*
X127212717Y-139300327D01*
X127253159Y-139267137D01*
X127385622Y-139105731D01*
X127484050Y-138921585D01*
X127494389Y-138887502D01*
X127544662Y-138721775D01*
X127549367Y-138674000D01*
X127560000Y-138566044D01*
X127560000Y-138566036D01*
X127565127Y-138513978D01*
X127560000Y-138461920D01*
X127560000Y-137880018D01*
X127614378Y-137981753D01*
X127746841Y-138143159D01*
X127787289Y-138176354D01*
X129429000Y-139818066D01*
X129429000Y-140115033D01*
X129491832Y-140430912D01*
X129615082Y-140728463D01*
X129794013Y-140996252D01*
X130021748Y-141223987D01*
X130289537Y-141402918D01*
X130587088Y-141526168D01*
X130902967Y-141589000D01*
X131225033Y-141589000D01*
X131540912Y-141526168D01*
X131838463Y-141402918D01*
X132106252Y-141223987D01*
X132333987Y-140996252D01*
X132512918Y-140728463D01*
X132636168Y-140430912D01*
X132699000Y-140115033D01*
X132699000Y-139792967D01*
X132636168Y-139477088D01*
X132512918Y-139179537D01*
X132333987Y-138911748D01*
X132106252Y-138684013D01*
X131838463Y-138505082D01*
X131540912Y-138381832D01*
X131225033Y-138319000D01*
X130928066Y-138319000D01*
X129560000Y-136950935D01*
X129560000Y-135491342D01*
X129625082Y-135648463D01*
X129804013Y-135916252D01*
X130031748Y-136143987D01*
X130299537Y-136322918D01*
X130597088Y-136446168D01*
X130912967Y-136509000D01*
X131235033Y-136509000D01*
X131550912Y-136446168D01*
X131848463Y-136322918D01*
X132116252Y-136143987D01*
X132326239Y-135934000D01*
X138101935Y-135934000D01*
X141625928Y-139457994D01*
X141625928Y-141597000D01*
X141638188Y-141721482D01*
X141674498Y-141841180D01*
X141733463Y-141951494D01*
X141812815Y-142048185D01*
X141909506Y-142127537D01*
X142019820Y-142186502D01*
X142139518Y-142222812D01*
X142264000Y-142235072D01*
X145264000Y-142235072D01*
X145388482Y-142222812D01*
X145508180Y-142186502D01*
X145618494Y-142127537D01*
X145715185Y-142048185D01*
X145794537Y-141951494D01*
X145853502Y-141841180D01*
X145889812Y-141721482D01*
X145902072Y-141597000D01*
X145902072Y-138597000D01*
X145889812Y-138472518D01*
X145853502Y-138352820D01*
X145794537Y-138242506D01*
X145715185Y-138145815D01*
X145618494Y-138066463D01*
X145508180Y-138007498D01*
X145388482Y-137971188D01*
X145264000Y-137958928D01*
X143124994Y-137958928D01*
X141754719Y-136588653D01*
X142451952Y-136588653D01*
X142607962Y-136904214D01*
X142982745Y-137095020D01*
X143387551Y-137209044D01*
X143806824Y-137241902D01*
X144224451Y-137192334D01*
X144624383Y-137062243D01*
X144920038Y-136904214D01*
X145076048Y-136588653D01*
X143764000Y-135276605D01*
X142451952Y-136588653D01*
X141754719Y-136588653D01*
X140305890Y-135139824D01*
X141619098Y-135139824D01*
X141668666Y-135557451D01*
X141798757Y-135957383D01*
X141956786Y-136253038D01*
X142272347Y-136409048D01*
X143584395Y-135097000D01*
X143943605Y-135097000D01*
X145255653Y-136409048D01*
X145571214Y-136253038D01*
X145762020Y-135878255D01*
X145876044Y-135473449D01*
X145908902Y-135054176D01*
X145859334Y-134636549D01*
X145729243Y-134236617D01*
X145571214Y-133940962D01*
X145255653Y-133784952D01*
X143943605Y-135097000D01*
X143584395Y-135097000D01*
X142272347Y-133784952D01*
X141956786Y-133940962D01*
X141765980Y-134315745D01*
X141651956Y-134720551D01*
X141619098Y-135139824D01*
X140305890Y-135139824D01*
X139327354Y-134161289D01*
X139294159Y-134120841D01*
X139132753Y-133988378D01*
X138948607Y-133889950D01*
X138748796Y-133829338D01*
X138593066Y-133814000D01*
X138593056Y-133814000D01*
X138541000Y-133808873D01*
X138488944Y-133814000D01*
X132326239Y-133814000D01*
X132117586Y-133605347D01*
X142451952Y-133605347D01*
X143764000Y-134917395D01*
X145076048Y-133605347D01*
X144920038Y-133289786D01*
X144545255Y-133098980D01*
X144140449Y-132984956D01*
X143721176Y-132952098D01*
X143303549Y-133001666D01*
X142903617Y-133131757D01*
X142607962Y-133289786D01*
X142451952Y-133605347D01*
X132117586Y-133605347D01*
X132116252Y-133604013D01*
X131848463Y-133425082D01*
X131550912Y-133301832D01*
X131235033Y-133239000D01*
X130912967Y-133239000D01*
X130597088Y-133301832D01*
X130299537Y-133425082D01*
X130031748Y-133604013D01*
X129804013Y-133831748D01*
X129625082Y-134099537D01*
X129560000Y-134256658D01*
X129560000Y-133552056D01*
X129565127Y-133500000D01*
X129560000Y-133447944D01*
X129560000Y-133447934D01*
X129544662Y-133292204D01*
X129484050Y-133092393D01*
X129385622Y-132908247D01*
X129253159Y-132746841D01*
X129212717Y-132713651D01*
X128559066Y-132060000D01*
X133447944Y-132060000D01*
X133500000Y-132065127D01*
X133552056Y-132060000D01*
X133552066Y-132060000D01*
X133707796Y-132044662D01*
X133907607Y-131984050D01*
X134091753Y-131885622D01*
X134253159Y-131753159D01*
X134286354Y-131712711D01*
X134499065Y-131500000D01*
X134959993Y-131500000D01*
X134965000Y-131550838D01*
X134965000Y-131601939D01*
X134974969Y-131652057D01*
X134979976Y-131702895D01*
X134994804Y-131751777D01*
X135004774Y-131801898D01*
X135024331Y-131849113D01*
X135039159Y-131897993D01*
X135063238Y-131943042D01*
X135082795Y-131990256D01*
X135111186Y-132032746D01*
X135135266Y-132077797D01*
X135167672Y-132117284D01*
X135196063Y-132159774D01*
X135232197Y-132195908D01*
X135264604Y-132235396D01*
X135304092Y-132267803D01*
X135340226Y-132303937D01*
X135382716Y-132332328D01*
X135422203Y-132364734D01*
X135467254Y-132388814D01*
X135509744Y-132417205D01*
X135556958Y-132436762D01*
X135602007Y-132460841D01*
X135650887Y-132475669D01*
X135698102Y-132495226D01*
X135748223Y-132505196D01*
X135797105Y-132520024D01*
X135847943Y-132525031D01*
X135898061Y-132535000D01*
X137949172Y-132535000D01*
X138000000Y-132540006D01*
X138050828Y-132535000D01*
X138050838Y-132535000D01*
X138202895Y-132520024D01*
X138397993Y-132460841D01*
X138577797Y-132364734D01*
X138735396Y-132235396D01*
X138767807Y-132195903D01*
X139700639Y-131263072D01*
X140125000Y-131263072D01*
X140298254Y-131246008D01*
X140464850Y-131195472D01*
X140618386Y-131113405D01*
X140752962Y-131002962D01*
X140863405Y-130868386D01*
X140945472Y-130714850D01*
X140972727Y-130625000D01*
X142486928Y-130625000D01*
X142499188Y-130749482D01*
X142535498Y-130869180D01*
X142594463Y-130979494D01*
X142673815Y-131076185D01*
X142770506Y-131155537D01*
X142880820Y-131214502D01*
X143000518Y-131250812D01*
X143125000Y-131263072D01*
X143714250Y-131260000D01*
X143873000Y-131101250D01*
X143873000Y-130127000D01*
X144127000Y-130127000D01*
X144127000Y-131101250D01*
X144285750Y-131260000D01*
X144875000Y-131263072D01*
X144999482Y-131250812D01*
X145119180Y-131214502D01*
X145229494Y-131155537D01*
X145326185Y-131076185D01*
X145405537Y-130979494D01*
X145464502Y-130869180D01*
X145500812Y-130749482D01*
X145513072Y-130625000D01*
X145510000Y-130285750D01*
X145351250Y-130127000D01*
X144127000Y-130127000D01*
X143873000Y-130127000D01*
X142648750Y-130127000D01*
X142490000Y-130285750D01*
X142486928Y-130625000D01*
X140972727Y-130625000D01*
X140996008Y-130548254D01*
X141013072Y-130375000D01*
X141013072Y-129625000D01*
X140996008Y-129451746D01*
X140972728Y-129375000D01*
X142486928Y-129375000D01*
X142490000Y-129714250D01*
X142648750Y-129873000D01*
X143873000Y-129873000D01*
X143873000Y-128898750D01*
X144127000Y-128898750D01*
X144127000Y-129873000D01*
X145351250Y-129873000D01*
X145510000Y-129714250D01*
X145513072Y-129375000D01*
X145500812Y-129250518D01*
X145464502Y-129130820D01*
X145405537Y-129020506D01*
X145326185Y-128923815D01*
X145229494Y-128844463D01*
X145119180Y-128785498D01*
X144999482Y-128749188D01*
X144875000Y-128736928D01*
X144285750Y-128740000D01*
X144127000Y-128898750D01*
X143873000Y-128898750D01*
X143714250Y-128740000D01*
X143125000Y-128736928D01*
X143000518Y-128749188D01*
X142880820Y-128785498D01*
X142770506Y-128844463D01*
X142673815Y-128923815D01*
X142594463Y-129020506D01*
X142535498Y-129130820D01*
X142499188Y-129250518D01*
X142486928Y-129375000D01*
X140972728Y-129375000D01*
X140945472Y-129285150D01*
X140863405Y-129131614D01*
X140752962Y-128997038D01*
X140618386Y-128886595D01*
X140464850Y-128804528D01*
X140298254Y-128753992D01*
X140125000Y-128736928D01*
X138875000Y-128736928D01*
X138701746Y-128753992D01*
X138535150Y-128804528D01*
X138381614Y-128886595D01*
X138247038Y-128997038D01*
X138136595Y-129131614D01*
X138054528Y-129285150D01*
X138003992Y-129451746D01*
X137986928Y-129625000D01*
X137986928Y-130049362D01*
X137571290Y-130465000D01*
X135898061Y-130465000D01*
X135847943Y-130474969D01*
X135797105Y-130479976D01*
X135748223Y-130494804D01*
X135698102Y-130504774D01*
X135650887Y-130524331D01*
X135602007Y-130539159D01*
X135556958Y-130563238D01*
X135509744Y-130582795D01*
X135467254Y-130611186D01*
X135422203Y-130635266D01*
X135382716Y-130667672D01*
X135340226Y-130696063D01*
X135304092Y-130732197D01*
X135264604Y-130764604D01*
X135232197Y-130804092D01*
X135196063Y-130840226D01*
X135167672Y-130882716D01*
X135135266Y-130922203D01*
X135111186Y-130967254D01*
X135082795Y-131009744D01*
X135063238Y-131056958D01*
X135039159Y-131102007D01*
X135024331Y-131150887D01*
X135004774Y-131198102D01*
X134994804Y-131248223D01*
X134979976Y-131297105D01*
X134974969Y-131347943D01*
X134965000Y-131398061D01*
X134965000Y-131449162D01*
X134959993Y-131500000D01*
X134499065Y-131500000D01*
X137739066Y-128260000D01*
X138316539Y-128260000D01*
X138381614Y-128313405D01*
X138535150Y-128395472D01*
X138701746Y-128446008D01*
X138875000Y-128463072D01*
X140125000Y-128463072D01*
X140298254Y-128446008D01*
X140464850Y-128395472D01*
X140618386Y-128313405D01*
X140752962Y-128202962D01*
X140863405Y-128068386D01*
X140945472Y-127914850D01*
X140996008Y-127748254D01*
X141013072Y-127575000D01*
X141013072Y-126825000D01*
X140996008Y-126651746D01*
X140945472Y-126485150D01*
X140863405Y-126331614D01*
X140752962Y-126197038D01*
X140618386Y-126086595D01*
X140521859Y-126035000D01*
X141371290Y-126035000D01*
X142486928Y-127150639D01*
X142486928Y-127575000D01*
X142503992Y-127748254D01*
X142554528Y-127914850D01*
X142636595Y-128068386D01*
X142747038Y-128202962D01*
X142881614Y-128313405D01*
X143035150Y-128395472D01*
X143201746Y-128446008D01*
X143375000Y-128463072D01*
X144625000Y-128463072D01*
X144798254Y-128446008D01*
X144964850Y-128395472D01*
X145118386Y-128313405D01*
X145252962Y-128202962D01*
X145363405Y-128068386D01*
X145445472Y-127914850D01*
X145496008Y-127748254D01*
X145513072Y-127575000D01*
X145513072Y-126825000D01*
X145496008Y-126651746D01*
X145445472Y-126485150D01*
X145363405Y-126331614D01*
X145252962Y-126197038D01*
X145118386Y-126086595D01*
X144964850Y-126004528D01*
X144798254Y-125953992D01*
X144625000Y-125936928D01*
X144200639Y-125936928D01*
X142567807Y-124304097D01*
X142535396Y-124264604D01*
X142377797Y-124135266D01*
X142197993Y-124039159D01*
X142002895Y-123979976D01*
X141850838Y-123965000D01*
X141850828Y-123965000D01*
X141800000Y-123959994D01*
X141749172Y-123965000D01*
X138035000Y-123965000D01*
X138035000Y-117398061D01*
X138025031Y-117347943D01*
X138020024Y-117297105D01*
X138005196Y-117248223D01*
X137995226Y-117198102D01*
X137975669Y-117150887D01*
X137964176Y-117113000D01*
X138509290Y-117113000D01*
X141879928Y-120483639D01*
X141879928Y-122658000D01*
X141892188Y-122782482D01*
X141928498Y-122902180D01*
X141987463Y-123012494D01*
X142066815Y-123109185D01*
X142163506Y-123188537D01*
X142273820Y-123247502D01*
X142393518Y-123283812D01*
X142518000Y-123296072D01*
X145518000Y-123296072D01*
X145642482Y-123283812D01*
X145762180Y-123247502D01*
X145872494Y-123188537D01*
X145969185Y-123109185D01*
X146048537Y-123012494D01*
X146107502Y-122902180D01*
X146143812Y-122782482D01*
X146156072Y-122658000D01*
X146156072Y-119658000D01*
X146143812Y-119533518D01*
X146107502Y-119413820D01*
X146048537Y-119303506D01*
X145969185Y-119206815D01*
X145872494Y-119127463D01*
X145762180Y-119068498D01*
X145642482Y-119032188D01*
X145518000Y-119019928D01*
X143343639Y-119019928D01*
X141973364Y-117649653D01*
X142705952Y-117649653D01*
X142861962Y-117965214D01*
X143236745Y-118156020D01*
X143641551Y-118270044D01*
X144060824Y-118302902D01*
X144478451Y-118253334D01*
X144878383Y-118123243D01*
X145174038Y-117965214D01*
X145330048Y-117649653D01*
X144018000Y-116337605D01*
X142705952Y-117649653D01*
X141973364Y-117649653D01*
X140524535Y-116200824D01*
X141873098Y-116200824D01*
X141922666Y-116618451D01*
X142052757Y-117018383D01*
X142210786Y-117314038D01*
X142526347Y-117470048D01*
X143838395Y-116158000D01*
X144197605Y-116158000D01*
X145509653Y-117470048D01*
X145825214Y-117314038D01*
X146016020Y-116939255D01*
X146130044Y-116534449D01*
X146162902Y-116115176D01*
X146113334Y-115697549D01*
X145983243Y-115297617D01*
X145825214Y-115001962D01*
X145509653Y-114845952D01*
X144197605Y-116158000D01*
X143838395Y-116158000D01*
X142526347Y-114845952D01*
X142210786Y-115001962D01*
X142019980Y-115376745D01*
X141905956Y-115781551D01*
X141873098Y-116200824D01*
X140524535Y-116200824D01*
X139705807Y-115382097D01*
X139673396Y-115342604D01*
X139515797Y-115213266D01*
X139335993Y-115117159D01*
X139140895Y-115057976D01*
X138988838Y-115043000D01*
X138988828Y-115043000D01*
X138938000Y-115037994D01*
X138887172Y-115043000D01*
X132348833Y-115043000D01*
X132343987Y-115035748D01*
X132116252Y-114808013D01*
X131904234Y-114666347D01*
X142705952Y-114666347D01*
X144018000Y-115978395D01*
X145330048Y-114666347D01*
X145174038Y-114350786D01*
X144799255Y-114159980D01*
X144394449Y-114045956D01*
X143975176Y-114013098D01*
X143557549Y-114062666D01*
X143157617Y-114192757D01*
X142861962Y-114350786D01*
X142705952Y-114666347D01*
X131904234Y-114666347D01*
X131848463Y-114629082D01*
X131681685Y-114560000D01*
X135447944Y-114560000D01*
X135500000Y-114565127D01*
X135552056Y-114560000D01*
X135552066Y-114560000D01*
X135707796Y-114544662D01*
X135907607Y-114484050D01*
X136091753Y-114385622D01*
X136253159Y-114253159D01*
X136286354Y-114212711D01*
X139624066Y-110875000D01*
X140836928Y-110875000D01*
X140849188Y-110999482D01*
X140885498Y-111119180D01*
X140944463Y-111229494D01*
X141023815Y-111326185D01*
X141120506Y-111405537D01*
X141230820Y-111464502D01*
X141350518Y-111500812D01*
X141475000Y-111513072D01*
X141814250Y-111510000D01*
X141973000Y-111351250D01*
X141973000Y-110127000D01*
X142227000Y-110127000D01*
X142227000Y-111351250D01*
X142385750Y-111510000D01*
X142725000Y-111513072D01*
X142849482Y-111500812D01*
X142969180Y-111464502D01*
X143079494Y-111405537D01*
X143176185Y-111326185D01*
X143255537Y-111229494D01*
X143314502Y-111119180D01*
X143350812Y-110999482D01*
X143363072Y-110875000D01*
X143360000Y-110285750D01*
X143201250Y-110127000D01*
X142227000Y-110127000D01*
X141973000Y-110127000D01*
X140998750Y-110127000D01*
X140840000Y-110285750D01*
X140836928Y-110875000D01*
X139624066Y-110875000D01*
X140839714Y-109659353D01*
X140840000Y-109714250D01*
X140998750Y-109873000D01*
X141973000Y-109873000D01*
X141973000Y-109853000D01*
X142227000Y-109853000D01*
X142227000Y-109873000D01*
X143201250Y-109873000D01*
X143237592Y-109836658D01*
X143636928Y-110235994D01*
X143636928Y-110625000D01*
X143653992Y-110798254D01*
X143704528Y-110964850D01*
X143786595Y-111118386D01*
X143897038Y-111252962D01*
X144031614Y-111363405D01*
X144185150Y-111445472D01*
X144351746Y-111496008D01*
X144525000Y-111513072D01*
X145275000Y-111513072D01*
X145448254Y-111496008D01*
X145614850Y-111445472D01*
X145768386Y-111363405D01*
X145902962Y-111252962D01*
X146013405Y-111118386D01*
X146095472Y-110964850D01*
X146146008Y-110798254D01*
X146163072Y-110625000D01*
X146163072Y-109375000D01*
X146146008Y-109201746D01*
X146095472Y-109035150D01*
X146013405Y-108881614D01*
X145902962Y-108747038D01*
X145768386Y-108636595D01*
X145614850Y-108554528D01*
X145448254Y-108503992D01*
X145275000Y-108486928D01*
X144885994Y-108486928D01*
X143657046Y-107257981D01*
X143940739Y-107258476D01*
X144037720Y-107249095D01*
X144162195Y-107211572D01*
X144276959Y-107150488D01*
X144377601Y-107068186D01*
X144460253Y-106967832D01*
X144521738Y-106853282D01*
X144559695Y-106728938D01*
X144572664Y-106599578D01*
X144567328Y-106544417D01*
X144526315Y-105936917D01*
X145615000Y-105880467D01*
X145615000Y-106185656D01*
X145687439Y-106549834D01*
X145829534Y-106892882D01*
X146035825Y-107201618D01*
X146298382Y-107464175D01*
X146607118Y-107670466D01*
X146950166Y-107812561D01*
X147314344Y-107885000D01*
X147685656Y-107885000D01*
X148049834Y-107812561D01*
X148392882Y-107670466D01*
X148701618Y-107464175D01*
X148964175Y-107201618D01*
X149170466Y-106892882D01*
X149312561Y-106549834D01*
X149385000Y-106185656D01*
X149385000Y-105814344D01*
X149359532Y-105686306D01*
X150373000Y-105633756D01*
X150373000Y-106786773D01*
G37*
X150373000Y-106786773D02*
X150364288Y-106821607D01*
X150350554Y-106865669D01*
X150340266Y-106962557D01*
X150059287Y-143865000D01*
X149579715Y-143544561D01*
X148972784Y-143293162D01*
X148328469Y-143165000D01*
X147671531Y-143165000D01*
X147027216Y-143293162D01*
X146420285Y-143544561D01*
X145874061Y-143909536D01*
X145410597Y-144373000D01*
X122140043Y-144373000D01*
X127212717Y-139300327D01*
X127253159Y-139267137D01*
X127385622Y-139105731D01*
X127484050Y-138921585D01*
X127494389Y-138887502D01*
X127544662Y-138721775D01*
X127549367Y-138674000D01*
X127560000Y-138566044D01*
X127560000Y-138566036D01*
X127565127Y-138513978D01*
X127560000Y-138461920D01*
X127560000Y-137880018D01*
X127614378Y-137981753D01*
X127746841Y-138143159D01*
X127787289Y-138176354D01*
X129429000Y-139818066D01*
X129429000Y-140115033D01*
X129491832Y-140430912D01*
X129615082Y-140728463D01*
X129794013Y-140996252D01*
X130021748Y-141223987D01*
X130289537Y-141402918D01*
X130587088Y-141526168D01*
X130902967Y-141589000D01*
X131225033Y-141589000D01*
X131540912Y-141526168D01*
X131838463Y-141402918D01*
X132106252Y-141223987D01*
X132333987Y-140996252D01*
X132512918Y-140728463D01*
X132636168Y-140430912D01*
X132699000Y-140115033D01*
X132699000Y-139792967D01*
X132636168Y-139477088D01*
X132512918Y-139179537D01*
X132333987Y-138911748D01*
X132106252Y-138684013D01*
X131838463Y-138505082D01*
X131540912Y-138381832D01*
X131225033Y-138319000D01*
X130928066Y-138319000D01*
X129560000Y-136950935D01*
X129560000Y-135491342D01*
X129625082Y-135648463D01*
X129804013Y-135916252D01*
X130031748Y-136143987D01*
X130299537Y-136322918D01*
X130597088Y-136446168D01*
X130912967Y-136509000D01*
X131235033Y-136509000D01*
X131550912Y-136446168D01*
X131848463Y-136322918D01*
X132116252Y-136143987D01*
X132326239Y-135934000D01*
X138101935Y-135934000D01*
X141625928Y-139457994D01*
X141625928Y-141597000D01*
X141638188Y-141721482D01*
X141674498Y-141841180D01*
X141733463Y-141951494D01*
X141812815Y-142048185D01*
X141909506Y-142127537D01*
X142019820Y-142186502D01*
X142139518Y-142222812D01*
X142264000Y-142235072D01*
X145264000Y-142235072D01*
X145388482Y-142222812D01*
X145508180Y-142186502D01*
X145618494Y-142127537D01*
X145715185Y-142048185D01*
X145794537Y-141951494D01*
X145853502Y-141841180D01*
X145889812Y-141721482D01*
X145902072Y-141597000D01*
X145902072Y-138597000D01*
X145889812Y-138472518D01*
X145853502Y-138352820D01*
X145794537Y-138242506D01*
X145715185Y-138145815D01*
X145618494Y-138066463D01*
X145508180Y-138007498D01*
X145388482Y-137971188D01*
X145264000Y-137958928D01*
X143124994Y-137958928D01*
X141754719Y-136588653D01*
X142451952Y-136588653D01*
X142607962Y-136904214D01*
X142982745Y-137095020D01*
X143387551Y-137209044D01*
X143806824Y-137241902D01*
X144224451Y-137192334D01*
X144624383Y-137062243D01*
X144920038Y-136904214D01*
X145076048Y-136588653D01*
X143764000Y-135276605D01*
X142451952Y-136588653D01*
X141754719Y-136588653D01*
X140305890Y-135139824D01*
X141619098Y-135139824D01*
X141668666Y-135557451D01*
X141798757Y-135957383D01*
X141956786Y-136253038D01*
X142272347Y-136409048D01*
X143584395Y-135097000D01*
X143943605Y-135097000D01*
X145255653Y-136409048D01*
X145571214Y-136253038D01*
X145762020Y-135878255D01*
X145876044Y-135473449D01*
X145908902Y-135054176D01*
X145859334Y-134636549D01*
X145729243Y-134236617D01*
X145571214Y-133940962D01*
X145255653Y-133784952D01*
X143943605Y-135097000D01*
X143584395Y-135097000D01*
X142272347Y-133784952D01*
X141956786Y-133940962D01*
X141765980Y-134315745D01*
X141651956Y-134720551D01*
X141619098Y-135139824D01*
X140305890Y-135139824D01*
X139327354Y-134161289D01*
X139294159Y-134120841D01*
X139132753Y-133988378D01*
X138948607Y-133889950D01*
X138748796Y-133829338D01*
X138593066Y-133814000D01*
X138593056Y-133814000D01*
X138541000Y-133808873D01*
X138488944Y-133814000D01*
X132326239Y-133814000D01*
X132117586Y-133605347D01*
X142451952Y-133605347D01*
X143764000Y-134917395D01*
X145076048Y-133605347D01*
X144920038Y-133289786D01*
X144545255Y-133098980D01*
X144140449Y-132984956D01*
X143721176Y-132952098D01*
X143303549Y-133001666D01*
X142903617Y-133131757D01*
X142607962Y-133289786D01*
X142451952Y-133605347D01*
X132117586Y-133605347D01*
X132116252Y-133604013D01*
X131848463Y-133425082D01*
X131550912Y-133301832D01*
X131235033Y-133239000D01*
X130912967Y-133239000D01*
X130597088Y-133301832D01*
X130299537Y-133425082D01*
X130031748Y-133604013D01*
X129804013Y-133831748D01*
X129625082Y-134099537D01*
X129560000Y-134256658D01*
X129560000Y-133552056D01*
X129565127Y-133500000D01*
X129560000Y-133447944D01*
X129560000Y-133447934D01*
X129544662Y-133292204D01*
X129484050Y-133092393D01*
X129385622Y-132908247D01*
X129253159Y-132746841D01*
X129212717Y-132713651D01*
X128559066Y-132060000D01*
X133447944Y-132060000D01*
X133500000Y-132065127D01*
X133552056Y-132060000D01*
X133552066Y-132060000D01*
X133707796Y-132044662D01*
X133907607Y-131984050D01*
X134091753Y-131885622D01*
X134253159Y-131753159D01*
X134286354Y-131712711D01*
X134499065Y-131500000D01*
X134959993Y-131500000D01*
X134965000Y-131550838D01*
X134965000Y-131601939D01*
X134974969Y-131652057D01*
X134979976Y-131702895D01*
X134994804Y-131751777D01*
X135004774Y-131801898D01*
X135024331Y-131849113D01*
X135039159Y-131897993D01*
X135063238Y-131943042D01*
X135082795Y-131990256D01*
X135111186Y-132032746D01*
X135135266Y-132077797D01*
X135167672Y-132117284D01*
X135196063Y-132159774D01*
X135232197Y-132195908D01*
X135264604Y-132235396D01*
X135304092Y-132267803D01*
X135340226Y-132303937D01*
X135382716Y-132332328D01*
X135422203Y-132364734D01*
X135467254Y-132388814D01*
X135509744Y-132417205D01*
X135556958Y-132436762D01*
X135602007Y-132460841D01*
X135650887Y-132475669D01*
X135698102Y-132495226D01*
X135748223Y-132505196D01*
X135797105Y-132520024D01*
X135847943Y-132525031D01*
X135898061Y-132535000D01*
X137949172Y-132535000D01*
X138000000Y-132540006D01*
X138050828Y-132535000D01*
X138050838Y-132535000D01*
X138202895Y-132520024D01*
X138397993Y-132460841D01*
X138577797Y-132364734D01*
X138735396Y-132235396D01*
X138767807Y-132195903D01*
X139700639Y-131263072D01*
X140125000Y-131263072D01*
X140298254Y-131246008D01*
X140464850Y-131195472D01*
X140618386Y-131113405D01*
X140752962Y-131002962D01*
X140863405Y-130868386D01*
X140945472Y-130714850D01*
X140972727Y-130625000D01*
X142486928Y-130625000D01*
X142499188Y-130749482D01*
X142535498Y-130869180D01*
X142594463Y-130979494D01*
X142673815Y-131076185D01*
X142770506Y-131155537D01*
X142880820Y-131214502D01*
X143000518Y-131250812D01*
X143125000Y-131263072D01*
X143714250Y-131260000D01*
X143873000Y-131101250D01*
X143873000Y-130127000D01*
X144127000Y-130127000D01*
X144127000Y-131101250D01*
X144285750Y-131260000D01*
X144875000Y-131263072D01*
X144999482Y-131250812D01*
X145119180Y-131214502D01*
X145229494Y-131155537D01*
X145326185Y-131076185D01*
X145405537Y-130979494D01*
X145464502Y-130869180D01*
X145500812Y-130749482D01*
X145513072Y-130625000D01*
X145510000Y-130285750D01*
X145351250Y-130127000D01*
X144127000Y-130127000D01*
X143873000Y-130127000D01*
X142648750Y-130127000D01*
X142490000Y-130285750D01*
X142486928Y-130625000D01*
X140972727Y-130625000D01*
X140996008Y-130548254D01*
X141013072Y-130375000D01*
X141013072Y-129625000D01*
X140996008Y-129451746D01*
X140972728Y-129375000D01*
X142486928Y-129375000D01*
X142490000Y-129714250D01*
X142648750Y-129873000D01*
X143873000Y-129873000D01*
X143873000Y-128898750D01*
X144127000Y-128898750D01*
X144127000Y-129873000D01*
X145351250Y-129873000D01*
X145510000Y-129714250D01*
X145513072Y-129375000D01*
X145500812Y-129250518D01*
X145464502Y-129130820D01*
X145405537Y-129020506D01*
X145326185Y-128923815D01*
X145229494Y-128844463D01*
X145119180Y-128785498D01*
X144999482Y-128749188D01*
X144875000Y-128736928D01*
X144285750Y-128740000D01*
X144127000Y-128898750D01*
X143873000Y-128898750D01*
X143714250Y-128740000D01*
X143125000Y-128736928D01*
X143000518Y-128749188D01*
X142880820Y-128785498D01*
X142770506Y-128844463D01*
X142673815Y-128923815D01*
X142594463Y-129020506D01*
X142535498Y-129130820D01*
X142499188Y-129250518D01*
X142486928Y-129375000D01*
X140972728Y-129375000D01*
X140945472Y-129285150D01*
X140863405Y-129131614D01*
X140752962Y-128997038D01*
X140618386Y-128886595D01*
X140464850Y-128804528D01*
X140298254Y-128753992D01*
X140125000Y-128736928D01*
X138875000Y-128736928D01*
X138701746Y-128753992D01*
X138535150Y-128804528D01*
X138381614Y-128886595D01*
X138247038Y-128997038D01*
X138136595Y-129131614D01*
X138054528Y-129285150D01*
X138003992Y-129451746D01*
X137986928Y-129625000D01*
X137986928Y-130049362D01*
X137571290Y-130465000D01*
X135898061Y-130465000D01*
X135847943Y-130474969D01*
X135797105Y-130479976D01*
X135748223Y-130494804D01*
X135698102Y-130504774D01*
X135650887Y-130524331D01*
X135602007Y-130539159D01*
X135556958Y-130563238D01*
X135509744Y-130582795D01*
X135467254Y-130611186D01*
X135422203Y-130635266D01*
X135382716Y-130667672D01*
X135340226Y-130696063D01*
X135304092Y-130732197D01*
X135264604Y-130764604D01*
X135232197Y-130804092D01*
X135196063Y-130840226D01*
X135167672Y-130882716D01*
X135135266Y-130922203D01*
X135111186Y-130967254D01*
X135082795Y-131009744D01*
X135063238Y-131056958D01*
X135039159Y-131102007D01*
X135024331Y-131150887D01*
X135004774Y-131198102D01*
X134994804Y-131248223D01*
X134979976Y-131297105D01*
X134974969Y-131347943D01*
X134965000Y-131398061D01*
X134965000Y-131449162D01*
X134959993Y-131500000D01*
X134499065Y-131500000D01*
X137739066Y-128260000D01*
X138316539Y-128260000D01*
X138381614Y-128313405D01*
X138535150Y-128395472D01*
X138701746Y-128446008D01*
X138875000Y-128463072D01*
X140125000Y-128463072D01*
X140298254Y-128446008D01*
X140464850Y-128395472D01*
X140618386Y-128313405D01*
X140752962Y-128202962D01*
X140863405Y-128068386D01*
X140945472Y-127914850D01*
X140996008Y-127748254D01*
X141013072Y-127575000D01*
X141013072Y-126825000D01*
X140996008Y-126651746D01*
X140945472Y-126485150D01*
X140863405Y-126331614D01*
X140752962Y-126197038D01*
X140618386Y-126086595D01*
X140521859Y-126035000D01*
X141371290Y-126035000D01*
X142486928Y-127150639D01*
X142486928Y-127575000D01*
X142503992Y-127748254D01*
X142554528Y-127914850D01*
X142636595Y-128068386D01*
X142747038Y-128202962D01*
X142881614Y-128313405D01*
X143035150Y-128395472D01*
X143201746Y-128446008D01*
X143375000Y-128463072D01*
X144625000Y-128463072D01*
X144798254Y-128446008D01*
X144964850Y-128395472D01*
X145118386Y-128313405D01*
X145252962Y-128202962D01*
X145363405Y-128068386D01*
X145445472Y-127914850D01*
X145496008Y-127748254D01*
X145513072Y-127575000D01*
X145513072Y-126825000D01*
X145496008Y-126651746D01*
X145445472Y-126485150D01*
X145363405Y-126331614D01*
X145252962Y-126197038D01*
X145118386Y-126086595D01*
X144964850Y-126004528D01*
X144798254Y-125953992D01*
X144625000Y-125936928D01*
X144200639Y-125936928D01*
X142567807Y-124304097D01*
X142535396Y-124264604D01*
X142377797Y-124135266D01*
X142197993Y-124039159D01*
X142002895Y-123979976D01*
X141850838Y-123965000D01*
X141850828Y-123965000D01*
X141800000Y-123959994D01*
X141749172Y-123965000D01*
X138035000Y-123965000D01*
X138035000Y-117398061D01*
X138025031Y-117347943D01*
X138020024Y-117297105D01*
X138005196Y-117248223D01*
X137995226Y-117198102D01*
X137975669Y-117150887D01*
X137964176Y-117113000D01*
X138509290Y-117113000D01*
X141879928Y-120483639D01*
X141879928Y-122658000D01*
X141892188Y-122782482D01*
X141928498Y-122902180D01*
X141987463Y-123012494D01*
X142066815Y-123109185D01*
X142163506Y-123188537D01*
X142273820Y-123247502D01*
X142393518Y-123283812D01*
X142518000Y-123296072D01*
X145518000Y-123296072D01*
X145642482Y-123283812D01*
X145762180Y-123247502D01*
X145872494Y-123188537D01*
X145969185Y-123109185D01*
X146048537Y-123012494D01*
X146107502Y-122902180D01*
X146143812Y-122782482D01*
X146156072Y-122658000D01*
X146156072Y-119658000D01*
X146143812Y-119533518D01*
X146107502Y-119413820D01*
X146048537Y-119303506D01*
X145969185Y-119206815D01*
X145872494Y-119127463D01*
X145762180Y-119068498D01*
X145642482Y-119032188D01*
X145518000Y-119019928D01*
X143343639Y-119019928D01*
X141973364Y-117649653D01*
X142705952Y-117649653D01*
X142861962Y-117965214D01*
X143236745Y-118156020D01*
X143641551Y-118270044D01*
X144060824Y-118302902D01*
X144478451Y-118253334D01*
X144878383Y-118123243D01*
X145174038Y-117965214D01*
X145330048Y-117649653D01*
X144018000Y-116337605D01*
X142705952Y-117649653D01*
X141973364Y-117649653D01*
X140524535Y-116200824D01*
X141873098Y-116200824D01*
X141922666Y-116618451D01*
X142052757Y-117018383D01*
X142210786Y-117314038D01*
X142526347Y-117470048D01*
X143838395Y-116158000D01*
X144197605Y-116158000D01*
X145509653Y-117470048D01*
X145825214Y-117314038D01*
X146016020Y-116939255D01*
X146130044Y-116534449D01*
X146162902Y-116115176D01*
X146113334Y-115697549D01*
X145983243Y-115297617D01*
X145825214Y-115001962D01*
X145509653Y-114845952D01*
X144197605Y-116158000D01*
X143838395Y-116158000D01*
X142526347Y-114845952D01*
X142210786Y-115001962D01*
X142019980Y-115376745D01*
X141905956Y-115781551D01*
X141873098Y-116200824D01*
X140524535Y-116200824D01*
X139705807Y-115382097D01*
X139673396Y-115342604D01*
X139515797Y-115213266D01*
X139335993Y-115117159D01*
X139140895Y-115057976D01*
X138988838Y-115043000D01*
X138988828Y-115043000D01*
X138938000Y-115037994D01*
X138887172Y-115043000D01*
X132348833Y-115043000D01*
X132343987Y-115035748D01*
X132116252Y-114808013D01*
X131904234Y-114666347D01*
X142705952Y-114666347D01*
X144018000Y-115978395D01*
X145330048Y-114666347D01*
X145174038Y-114350786D01*
X144799255Y-114159980D01*
X144394449Y-114045956D01*
X143975176Y-114013098D01*
X143557549Y-114062666D01*
X143157617Y-114192757D01*
X142861962Y-114350786D01*
X142705952Y-114666347D01*
X131904234Y-114666347D01*
X131848463Y-114629082D01*
X131681685Y-114560000D01*
X135447944Y-114560000D01*
X135500000Y-114565127D01*
X135552056Y-114560000D01*
X135552066Y-114560000D01*
X135707796Y-114544662D01*
X135907607Y-114484050D01*
X136091753Y-114385622D01*
X136253159Y-114253159D01*
X136286354Y-114212711D01*
X139624066Y-110875000D01*
X140836928Y-110875000D01*
X140849188Y-110999482D01*
X140885498Y-111119180D01*
X140944463Y-111229494D01*
X141023815Y-111326185D01*
X141120506Y-111405537D01*
X141230820Y-111464502D01*
X141350518Y-111500812D01*
X141475000Y-111513072D01*
X141814250Y-111510000D01*
X141973000Y-111351250D01*
X141973000Y-110127000D01*
X142227000Y-110127000D01*
X142227000Y-111351250D01*
X142385750Y-111510000D01*
X142725000Y-111513072D01*
X142849482Y-111500812D01*
X142969180Y-111464502D01*
X143079494Y-111405537D01*
X143176185Y-111326185D01*
X143255537Y-111229494D01*
X143314502Y-111119180D01*
X143350812Y-110999482D01*
X143363072Y-110875000D01*
X143360000Y-110285750D01*
X143201250Y-110127000D01*
X142227000Y-110127000D01*
X141973000Y-110127000D01*
X140998750Y-110127000D01*
X140840000Y-110285750D01*
X140836928Y-110875000D01*
X139624066Y-110875000D01*
X140839714Y-109659353D01*
X140840000Y-109714250D01*
X140998750Y-109873000D01*
X141973000Y-109873000D01*
X141973000Y-109853000D01*
X142227000Y-109853000D01*
X142227000Y-109873000D01*
X143201250Y-109873000D01*
X143237592Y-109836658D01*
X143636928Y-110235994D01*
X143636928Y-110625000D01*
X143653992Y-110798254D01*
X143704528Y-110964850D01*
X143786595Y-111118386D01*
X143897038Y-111252962D01*
X144031614Y-111363405D01*
X144185150Y-111445472D01*
X144351746Y-111496008D01*
X144525000Y-111513072D01*
X145275000Y-111513072D01*
X145448254Y-111496008D01*
X145614850Y-111445472D01*
X145768386Y-111363405D01*
X145902962Y-111252962D01*
X146013405Y-111118386D01*
X146095472Y-110964850D01*
X146146008Y-110798254D01*
X146163072Y-110625000D01*
X146163072Y-109375000D01*
X146146008Y-109201746D01*
X146095472Y-109035150D01*
X146013405Y-108881614D01*
X145902962Y-108747038D01*
X145768386Y-108636595D01*
X145614850Y-108554528D01*
X145448254Y-108503992D01*
X145275000Y-108486928D01*
X144885994Y-108486928D01*
X143657046Y-107257981D01*
X143940739Y-107258476D01*
X144037720Y-107249095D01*
X144162195Y-107211572D01*
X144276959Y-107150488D01*
X144377601Y-107068186D01*
X144460253Y-106967832D01*
X144521738Y-106853282D01*
X144559695Y-106728938D01*
X144572664Y-106599578D01*
X144567328Y-106544417D01*
X144526315Y-105936917D01*
X145615000Y-105880467D01*
X145615000Y-106185656D01*
X145687439Y-106549834D01*
X145829534Y-106892882D01*
X146035825Y-107201618D01*
X146298382Y-107464175D01*
X146607118Y-107670466D01*
X146950166Y-107812561D01*
X147314344Y-107885000D01*
X147685656Y-107885000D01*
X148049834Y-107812561D01*
X148392882Y-107670466D01*
X148701618Y-107464175D01*
X148964175Y-107201618D01*
X149170466Y-106892882D01*
X149312561Y-106549834D01*
X149385000Y-106185656D01*
X149385000Y-105814344D01*
X149359532Y-105686306D01*
X150373000Y-105633756D01*
X150373000Y-106786773D01*
G36*
X140248898Y-107252035D02*
G01*
X135060935Y-112440000D01*
X134034132Y-112440000D01*
X134038072Y-112400000D01*
X134038072Y-110600000D01*
X134025812Y-110475518D01*
X133989502Y-110355820D01*
X133930537Y-110245506D01*
X133851185Y-110148815D01*
X133754494Y-110069463D01*
X133644180Y-110010498D01*
X133625873Y-110004944D01*
X133692312Y-109938505D01*
X133860299Y-109687095D01*
X133976011Y-109407743D01*
X134035000Y-109111184D01*
X134035000Y-108808816D01*
X133976011Y-108512257D01*
X133860299Y-108232905D01*
X133692312Y-107981495D01*
X133478505Y-107767688D01*
X133227095Y-107599701D01*
X132947743Y-107483989D01*
X132651184Y-107425000D01*
X132348816Y-107425000D01*
X132052257Y-107483989D01*
X131772905Y-107599701D01*
X131521495Y-107767688D01*
X131324183Y-107965000D01*
X124629518Y-107965000D01*
X124604494Y-107944463D01*
X124494180Y-107885498D01*
X124374482Y-107849188D01*
X124250000Y-107836928D01*
X122750000Y-107836928D01*
X122625518Y-107849188D01*
X122505820Y-107885498D01*
X122395506Y-107944463D01*
X122298815Y-108023815D01*
X122219463Y-108120506D01*
X122160498Y-108230820D01*
X122124188Y-108350518D01*
X122111928Y-108475000D01*
X122111928Y-109235000D01*
X117763072Y-109235000D01*
X117763072Y-108875000D01*
X117746008Y-108701746D01*
X117695472Y-108535150D01*
X117613405Y-108381614D01*
X117502962Y-108247038D01*
X117368386Y-108136595D01*
X117214850Y-108054528D01*
X117048254Y-108003992D01*
X116875000Y-107986928D01*
X116125000Y-107986928D01*
X115951746Y-108003992D01*
X115785150Y-108054528D01*
X115631614Y-108136595D01*
X115497038Y-108247038D01*
X115386595Y-108381614D01*
X115304528Y-108535150D01*
X115253992Y-108701746D01*
X115236928Y-108875000D01*
X115236928Y-110125000D01*
X115253992Y-110298254D01*
X115304528Y-110464850D01*
X115386595Y-110618386D01*
X115497038Y-110752962D01*
X115631614Y-110863405D01*
X115785150Y-110945472D01*
X115951746Y-110996008D01*
X116125000Y-111013072D01*
X116543957Y-111013072D01*
X116574092Y-111037803D01*
X116692202Y-111134734D01*
X116745085Y-111163000D01*
X116872007Y-111230841D01*
X117067105Y-111290024D01*
X117219162Y-111305000D01*
X117219171Y-111305000D01*
X117269999Y-111310006D01*
X117320827Y-111305000D01*
X122134090Y-111305000D01*
X122131785Y-111312600D01*
X122109388Y-111540000D01*
X122131785Y-111767400D01*
X122198115Y-111986060D01*
X122305829Y-112187579D01*
X122440000Y-112351067D01*
X122440001Y-115647934D01*
X122434873Y-115700000D01*
X122455339Y-115907796D01*
X122486928Y-116011932D01*
X122486928Y-116214006D01*
X122412934Y-116288000D01*
X122390072Y-116288000D01*
X122390072Y-115448000D01*
X122377812Y-115323518D01*
X122341502Y-115203820D01*
X122282537Y-115093506D01*
X122203185Y-114996815D01*
X122106494Y-114917463D01*
X121996180Y-114858498D01*
X121876482Y-114822188D01*
X121752000Y-114809928D01*
X119752000Y-114809928D01*
X119627518Y-114822188D01*
X119507820Y-114858498D01*
X119397506Y-114917463D01*
X119300815Y-114996815D01*
X119221463Y-115093506D01*
X119162498Y-115203820D01*
X119126188Y-115323518D01*
X119113928Y-115448000D01*
X119113928Y-116288000D01*
X116006320Y-116288000D01*
X115982537Y-116243506D01*
X115945191Y-116198000D01*
X115982537Y-116152494D01*
X116041502Y-116042180D01*
X116077812Y-115922482D01*
X116090072Y-115798000D01*
X116087000Y-115333750D01*
X115928250Y-115175000D01*
X114579000Y-115175000D01*
X114579000Y-115195000D01*
X114325000Y-115195000D01*
X114325000Y-115175000D01*
X112975750Y-115175000D01*
X112817000Y-115333750D01*
X112813928Y-115798000D01*
X112826188Y-115922482D01*
X112862498Y-116042180D01*
X112921463Y-116152494D01*
X112958809Y-116198000D01*
X112921463Y-116243506D01*
X112862498Y-116353820D01*
X112826188Y-116473518D01*
X112819639Y-116540010D01*
X112010491Y-116540010D01*
X112010000Y-116485750D01*
X111851250Y-116327000D01*
X110627000Y-116327000D01*
X110627000Y-116347000D01*
X110373000Y-116347000D01*
X110373000Y-116327000D01*
X110353000Y-116327000D01*
X110353000Y-116073000D01*
X110373000Y-116073000D01*
X110373000Y-115098750D01*
X110627000Y-115098750D01*
X110627000Y-116073000D01*
X111851250Y-116073000D01*
X112010000Y-115914250D01*
X112013072Y-115575000D01*
X112000812Y-115450518D01*
X111964502Y-115330820D01*
X111905537Y-115220506D01*
X111826185Y-115123815D01*
X111729494Y-115044463D01*
X111619180Y-114985498D01*
X111499482Y-114949188D01*
X111375000Y-114936928D01*
X110785750Y-114940000D01*
X110627000Y-115098750D01*
X110373000Y-115098750D01*
X110214250Y-114940000D01*
X109809990Y-114937892D01*
X109809990Y-114298000D01*
X112813928Y-114298000D01*
X112817000Y-114762250D01*
X112975750Y-114921000D01*
X114325000Y-114921000D01*
X114325000Y-113821750D01*
X114579000Y-113821750D01*
X114579000Y-114921000D01*
X115928250Y-114921000D01*
X116087000Y-114762250D01*
X116090072Y-114298000D01*
X116077812Y-114173518D01*
X116041502Y-114053820D01*
X115982537Y-113943506D01*
X115903185Y-113846815D01*
X115806494Y-113767463D01*
X115696180Y-113708498D01*
X115576482Y-113672188D01*
X115452000Y-113659928D01*
X114737750Y-113663000D01*
X114579000Y-113821750D01*
X114325000Y-113821750D01*
X114166250Y-113663000D01*
X113452000Y-113659928D01*
X113327518Y-113672188D01*
X113207820Y-113708498D01*
X113097506Y-113767463D01*
X113000815Y-113846815D01*
X112921463Y-113943506D01*
X112862498Y-114053820D01*
X112826188Y-114173518D01*
X112813928Y-114298000D01*
X109809990Y-114298000D01*
X109809990Y-114239492D01*
X111263134Y-112786349D01*
X111303576Y-112753159D01*
X111436039Y-112591753D01*
X111469025Y-112530040D01*
X113037664Y-110961402D01*
X113151746Y-110996008D01*
X113325000Y-111013072D01*
X114075000Y-111013072D01*
X114248254Y-110996008D01*
X114414850Y-110945472D01*
X114568386Y-110863405D01*
X114702962Y-110752962D01*
X114813405Y-110618386D01*
X114895472Y-110464850D01*
X114946008Y-110298254D01*
X114963072Y-110125000D01*
X114963072Y-108875000D01*
X114946008Y-108701746D01*
X114895472Y-108535150D01*
X114813405Y-108381614D01*
X114702962Y-108247038D01*
X114568386Y-108136595D01*
X114414850Y-108054528D01*
X114248254Y-108003992D01*
X114075000Y-107986928D01*
X113325000Y-107986928D01*
X113151746Y-108003992D01*
X112985150Y-108054528D01*
X112831614Y-108136595D01*
X112697038Y-108247038D01*
X112586595Y-108381614D01*
X112504528Y-108535150D01*
X112494476Y-108568288D01*
X112408247Y-108614378D01*
X112246841Y-108746841D01*
X112213651Y-108787283D01*
X109837706Y-111163229D01*
X109797258Y-111196424D01*
X109664795Y-111357830D01*
X109631810Y-111419541D01*
X108213641Y-112837711D01*
X108114369Y-112958674D01*
X108015940Y-113142821D01*
X107955329Y-113342631D01*
X107934863Y-113550427D01*
X107955329Y-113758223D01*
X108015940Y-113958033D01*
X108114369Y-114142180D01*
X108189991Y-114234326D01*
X108189990Y-116897656D01*
X108186071Y-116937444D01*
X108189990Y-116977232D01*
X108189990Y-116977234D01*
X108201710Y-117096231D01*
X108248027Y-117248916D01*
X108276000Y-117301250D01*
X108323241Y-117389633D01*
X108330158Y-117398061D01*
X108424462Y-117512972D01*
X108455378Y-117538344D01*
X108646329Y-117729295D01*
X108667758Y-117799937D01*
X108752258Y-117958025D01*
X108865975Y-118096591D01*
X109004541Y-118210308D01*
X109074535Y-118247720D01*
X109054528Y-118285150D01*
X109003992Y-118451746D01*
X108986928Y-118625000D01*
X108986928Y-119014006D01*
X107902935Y-120098000D01*
X104874239Y-120098000D01*
X104664252Y-119888013D01*
X104396463Y-119709082D01*
X104098912Y-119585832D01*
X103783033Y-119523000D01*
X103460967Y-119523000D01*
X103145088Y-119585832D01*
X102847537Y-119709082D01*
X102579748Y-119888013D01*
X102352013Y-120115748D01*
X102173082Y-120383537D01*
X102049832Y-120681088D01*
X101987000Y-120996967D01*
X101987000Y-121319033D01*
X102049832Y-121634912D01*
X102173082Y-121932463D01*
X102352013Y-122200252D01*
X102579748Y-122427987D01*
X102847537Y-122606918D01*
X103145088Y-122730168D01*
X103460967Y-122793000D01*
X103783033Y-122793000D01*
X104098912Y-122730168D01*
X104396463Y-122606918D01*
X104664252Y-122427987D01*
X104874239Y-122218000D01*
X108289944Y-122218000D01*
X108342000Y-122223127D01*
X108394056Y-122218000D01*
X108394066Y-122218000D01*
X108549796Y-122202662D01*
X108749607Y-122142050D01*
X108933753Y-122043622D01*
X109095159Y-121911159D01*
X109128354Y-121870711D01*
X110500000Y-120499065D01*
X113950352Y-123949419D01*
X113904528Y-124035150D01*
X113853992Y-124201746D01*
X113836928Y-124375000D01*
X113836928Y-125625000D01*
X113853992Y-125798254D01*
X113904528Y-125964850D01*
X113986595Y-126118386D01*
X114097038Y-126252962D01*
X114231614Y-126363405D01*
X114385150Y-126445472D01*
X114551746Y-126496008D01*
X114725000Y-126513072D01*
X115475000Y-126513072D01*
X115648254Y-126496008D01*
X115814850Y-126445472D01*
X115968386Y-126363405D01*
X116102962Y-126252962D01*
X116213405Y-126118386D01*
X116295472Y-125964850D01*
X116322727Y-125875000D01*
X116636928Y-125875000D01*
X116649188Y-125999482D01*
X116685498Y-126119180D01*
X116744463Y-126229494D01*
X116823815Y-126326185D01*
X116920506Y-126405537D01*
X117030820Y-126464502D01*
X117150518Y-126500812D01*
X117275000Y-126513072D01*
X117614250Y-126510000D01*
X117773000Y-126351250D01*
X117773000Y-125127000D01*
X118027000Y-125127000D01*
X118027000Y-126351250D01*
X118185750Y-126510000D01*
X118525000Y-126513072D01*
X118649482Y-126500812D01*
X118769180Y-126464502D01*
X118879494Y-126405537D01*
X118976185Y-126326185D01*
X119055537Y-126229494D01*
X119114502Y-126119180D01*
X119150812Y-125999482D01*
X119163072Y-125875000D01*
X119160000Y-125285750D01*
X119001250Y-125127000D01*
X118027000Y-125127000D01*
X117773000Y-125127000D01*
X116798750Y-125127000D01*
X116640000Y-125285750D01*
X116636928Y-125875000D01*
X116322727Y-125875000D01*
X116346008Y-125798254D01*
X116363072Y-125625000D01*
X116363072Y-124375000D01*
X116346008Y-124201746D01*
X116322728Y-124125000D01*
X116636928Y-124125000D01*
X116640000Y-124714250D01*
X116798750Y-124873000D01*
X117773000Y-124873000D01*
X117773000Y-123648750D01*
X118027000Y-123648750D01*
X118027000Y-124873000D01*
X119001250Y-124873000D01*
X119160000Y-124714250D01*
X119163072Y-124125000D01*
X119150812Y-124000518D01*
X119114502Y-123880820D01*
X119055537Y-123770506D01*
X118976185Y-123673815D01*
X118879494Y-123594463D01*
X118769180Y-123535498D01*
X118649482Y-123499188D01*
X118525000Y-123486928D01*
X118185750Y-123490000D01*
X118027000Y-123648750D01*
X117773000Y-123648750D01*
X117614250Y-123490000D01*
X117275000Y-123486928D01*
X117150518Y-123499188D01*
X117030820Y-123535498D01*
X116920506Y-123594463D01*
X116823815Y-123673815D01*
X116744463Y-123770506D01*
X116685498Y-123880820D01*
X116649188Y-124000518D01*
X116636928Y-124125000D01*
X116322728Y-124125000D01*
X116295472Y-124035150D01*
X116213405Y-123881614D01*
X116160000Y-123816539D01*
X116160000Y-123652055D01*
X116165127Y-123599999D01*
X116160000Y-123547943D01*
X116160000Y-120348055D01*
X116165127Y-120295999D01*
X116160000Y-120243943D01*
X116160000Y-120243934D01*
X116144662Y-120088204D01*
X116090072Y-119908245D01*
X116090072Y-118898000D01*
X116077812Y-118773518D01*
X116041502Y-118653820D01*
X115982537Y-118543506D01*
X115945191Y-118498000D01*
X115982537Y-118452494D01*
X116006320Y-118408000D01*
X119113928Y-118408000D01*
X119113928Y-119248000D01*
X119126188Y-119372482D01*
X119162498Y-119492180D01*
X119221463Y-119602494D01*
X119300815Y-119699185D01*
X119397506Y-119778537D01*
X119507820Y-119837502D01*
X119627518Y-119873812D01*
X119752000Y-119886072D01*
X121752000Y-119886072D01*
X121876482Y-119873812D01*
X121996180Y-119837502D01*
X122106494Y-119778537D01*
X122203185Y-119699185D01*
X122264066Y-119625000D01*
X122486928Y-119625000D01*
X122499188Y-119749482D01*
X122535498Y-119869180D01*
X122594463Y-119979494D01*
X122673815Y-120076185D01*
X122770506Y-120155537D01*
X122880820Y-120214502D01*
X123000518Y-120250812D01*
X123125000Y-120263072D01*
X123714250Y-120260000D01*
X123873000Y-120101250D01*
X123873000Y-119127000D01*
X124127000Y-119127000D01*
X124127000Y-120101250D01*
X124285750Y-120260000D01*
X124875000Y-120263072D01*
X124999482Y-120250812D01*
X125119180Y-120214502D01*
X125229494Y-120155537D01*
X125326185Y-120076185D01*
X125405537Y-119979494D01*
X125464502Y-119869180D01*
X125500812Y-119749482D01*
X125513072Y-119625000D01*
X125510000Y-119285750D01*
X125351250Y-119127000D01*
X124127000Y-119127000D01*
X123873000Y-119127000D01*
X122648750Y-119127000D01*
X122490000Y-119285750D01*
X122486928Y-119625000D01*
X122264066Y-119625000D01*
X122282537Y-119602494D01*
X122341502Y-119492180D01*
X122377812Y-119372482D01*
X122390072Y-119248000D01*
X122390072Y-118408000D01*
X122487227Y-118408000D01*
X122490000Y-118714250D01*
X122648750Y-118873000D01*
X123873000Y-118873000D01*
X123873000Y-117898750D01*
X124127000Y-117898750D01*
X124127000Y-118873000D01*
X125351250Y-118873000D01*
X125510000Y-118714250D01*
X125513072Y-118375000D01*
X125500812Y-118250518D01*
X125464502Y-118130820D01*
X125405537Y-118020506D01*
X125326185Y-117923815D01*
X125229494Y-117844463D01*
X125119180Y-117785498D01*
X124999482Y-117749188D01*
X124875000Y-117736928D01*
X124285750Y-117740000D01*
X124127000Y-117898750D01*
X123873000Y-117898750D01*
X123836658Y-117862408D01*
X124235994Y-117463072D01*
X124625000Y-117463072D01*
X124798254Y-117446008D01*
X124964850Y-117395472D01*
X125118386Y-117313405D01*
X125183461Y-117260000D01*
X125666935Y-117260000D01*
X129429000Y-121022066D01*
X129429000Y-121319033D01*
X129491832Y-121634912D01*
X129615082Y-121932463D01*
X129794013Y-122200252D01*
X130021748Y-122427987D01*
X130077142Y-122465000D01*
X128928711Y-122465000D01*
X127767807Y-121304097D01*
X127735396Y-121264604D01*
X127577797Y-121135266D01*
X127397993Y-121039159D01*
X127202895Y-120979976D01*
X127050838Y-120965000D01*
X127050828Y-120965000D01*
X127000000Y-120959994D01*
X126949172Y-120965000D01*
X125550827Y-120965000D01*
X125499999Y-120959994D01*
X125449171Y-120965000D01*
X125449162Y-120965000D01*
X125297105Y-120979976D01*
X125102007Y-121039159D01*
X124922203Y-121135266D01*
X124764604Y-121264604D01*
X124732197Y-121304092D01*
X121699362Y-124336928D01*
X121250000Y-124336928D01*
X121125518Y-124349188D01*
X121005820Y-124385498D01*
X120895506Y-124444463D01*
X120798815Y-124523815D01*
X120719463Y-124620506D01*
X120660498Y-124730820D01*
X120624188Y-124850518D01*
X120611928Y-124975000D01*
X120611928Y-126025000D01*
X120624188Y-126149482D01*
X120660498Y-126269180D01*
X120695093Y-126333902D01*
X120631785Y-126542600D01*
X120609388Y-126770000D01*
X120631785Y-126997400D01*
X120698115Y-127216060D01*
X120799105Y-127405000D01*
X120698115Y-127593940D01*
X120631785Y-127812600D01*
X120609388Y-128040000D01*
X120631785Y-128267400D01*
X120698115Y-128486060D01*
X120805829Y-128687579D01*
X120950788Y-128864212D01*
X121127421Y-129009171D01*
X121328940Y-129116885D01*
X121547600Y-129183215D01*
X121718021Y-129200000D01*
X122281979Y-129200000D01*
X122337469Y-129194535D01*
X124142934Y-131000000D01*
X121304000Y-133838935D01*
X121304000Y-133296058D01*
X121309127Y-133244000D01*
X121304000Y-133191942D01*
X121304000Y-133191934D01*
X121288662Y-133036204D01*
X121228050Y-132836393D01*
X121129622Y-132652247D01*
X120997159Y-132490841D01*
X120956717Y-132457651D01*
X119163072Y-130664007D01*
X119163072Y-129931000D01*
X119146008Y-129757746D01*
X119095472Y-129591150D01*
X119013405Y-129437614D01*
X118902962Y-129303038D01*
X118768386Y-129192595D01*
X118614850Y-129110528D01*
X118448254Y-129059992D01*
X118275000Y-129042928D01*
X117525000Y-129042928D01*
X117351746Y-129059992D01*
X117185150Y-129110528D01*
X117031614Y-129192595D01*
X116897038Y-129303038D01*
X116786595Y-129437614D01*
X116704528Y-129591150D01*
X116653992Y-129757746D01*
X116636928Y-129931000D01*
X116636928Y-131181000D01*
X116653992Y-131354254D01*
X116704528Y-131520850D01*
X116786595Y-131674386D01*
X116897038Y-131808962D01*
X117031614Y-131919405D01*
X117185150Y-132001472D01*
X117351746Y-132052008D01*
X117525000Y-132069072D01*
X117570007Y-132069072D01*
X119184000Y-133683066D01*
X119184000Y-133865837D01*
X119119518Y-133872188D01*
X118999820Y-133908498D01*
X118889506Y-133967463D01*
X118792815Y-134046815D01*
X118713463Y-134143506D01*
X118654498Y-134253820D01*
X118618188Y-134373518D01*
X118605928Y-134498000D01*
X118605928Y-135363000D01*
X115511683Y-135363000D01*
X115474537Y-135293506D01*
X115437191Y-135248000D01*
X115474537Y-135202494D01*
X115533502Y-135092180D01*
X115569812Y-134972482D01*
X115582072Y-134848000D01*
X115579000Y-134383750D01*
X115420250Y-134225000D01*
X114071000Y-134225000D01*
X114071000Y-134245000D01*
X113817000Y-134245000D01*
X113817000Y-134225000D01*
X112467750Y-134225000D01*
X112309000Y-134383750D01*
X112305928Y-134848000D01*
X112318188Y-134972482D01*
X112354498Y-135092180D01*
X112413463Y-135202494D01*
X112450809Y-135248000D01*
X112413463Y-135293506D01*
X112389680Y-135338000D01*
X112247322Y-135338000D01*
X112257072Y-135239000D01*
X112254000Y-134899750D01*
X112095250Y-134741000D01*
X110871000Y-134741000D01*
X110871000Y-135715250D01*
X110907342Y-135751592D01*
X110508006Y-136150928D01*
X110119000Y-136150928D01*
X109945746Y-136167992D01*
X109779150Y-136218528D01*
X109625614Y-136300595D01*
X109491038Y-136411038D01*
X109380595Y-136545614D01*
X109298528Y-136699150D01*
X109247992Y-136865746D01*
X109230928Y-137039000D01*
X109230928Y-137789000D01*
X109247992Y-137962254D01*
X109298528Y-138128850D01*
X109380595Y-138282386D01*
X109491038Y-138416962D01*
X109625614Y-138527405D01*
X109779150Y-138609472D01*
X109945746Y-138660008D01*
X110119000Y-138677072D01*
X111369000Y-138677072D01*
X111542254Y-138660008D01*
X111708850Y-138609472D01*
X111862386Y-138527405D01*
X111996962Y-138416962D01*
X112107405Y-138282386D01*
X112189472Y-138128850D01*
X112240008Y-137962254D01*
X112257072Y-137789000D01*
X112257072Y-137458000D01*
X112389680Y-137458000D01*
X112413463Y-137502494D01*
X112450809Y-137548000D01*
X112413463Y-137593506D01*
X112354498Y-137703820D01*
X112318188Y-137823518D01*
X112305928Y-137948000D01*
X112305928Y-139448000D01*
X112318188Y-139572482D01*
X112354498Y-139692180D01*
X112413463Y-139802494D01*
X112492815Y-139899185D01*
X112589506Y-139978537D01*
X112699820Y-140037502D01*
X112819518Y-140073812D01*
X112884000Y-140080163D01*
X112884001Y-141791935D01*
X112878873Y-141844000D01*
X112888328Y-141940000D01*
X112187066Y-141940000D01*
X107797000Y-137549935D01*
X107797000Y-137252967D01*
X107734168Y-136937088D01*
X107610918Y-136639537D01*
X107431987Y-136371748D01*
X107204252Y-136144013D01*
X106936463Y-135965082D01*
X106638912Y-135841832D01*
X106323033Y-135779000D01*
X106000967Y-135779000D01*
X105685088Y-135841832D01*
X105387537Y-135965082D01*
X105119748Y-136144013D01*
X104892013Y-136371748D01*
X104713082Y-136639537D01*
X104589832Y-136937088D01*
X104527000Y-137252967D01*
X104527000Y-137575033D01*
X104589832Y-137890912D01*
X104713082Y-138188463D01*
X104892013Y-138456252D01*
X105119748Y-138683987D01*
X105387537Y-138862918D01*
X105685088Y-138986168D01*
X106000967Y-139049000D01*
X106297935Y-139049000D01*
X110961651Y-143712717D01*
X110994841Y-143753159D01*
X111156247Y-143885622D01*
X111340393Y-143984050D01*
X111540204Y-144044662D01*
X111695934Y-144060000D01*
X111695944Y-144060000D01*
X111748000Y-144065127D01*
X111800056Y-144060000D01*
X113955387Y-144060000D01*
X113986595Y-144118386D01*
X114043514Y-144187742D01*
X114052296Y-144276898D01*
X114055339Y-144307796D01*
X114075118Y-144373000D01*
X88423844Y-144373000D01*
X88090464Y-143874061D01*
X87625939Y-143409536D01*
X87079715Y-143044561D01*
X86472784Y-142793162D01*
X85828469Y-142665000D01*
X85171531Y-142665000D01*
X84527216Y-142793162D01*
X83920285Y-143044561D01*
X83374061Y-143409536D01*
X83163019Y-143620578D01*
X83166840Y-141873653D01*
X89365952Y-141873653D01*
X89521962Y-142189214D01*
X89896745Y-142380020D01*
X90301551Y-142494044D01*
X90720824Y-142526902D01*
X91138451Y-142477334D01*
X91538383Y-142347243D01*
X91834038Y-142189214D01*
X91990048Y-141873653D01*
X90678000Y-140561605D01*
X89365952Y-141873653D01*
X83166840Y-141873653D01*
X83170010Y-140424824D01*
X88533098Y-140424824D01*
X88582666Y-140842451D01*
X88712757Y-141242383D01*
X88870786Y-141538038D01*
X89186347Y-141694048D01*
X90498395Y-140382000D01*
X90857605Y-140382000D01*
X92169653Y-141694048D01*
X92485214Y-141538038D01*
X92676020Y-141163255D01*
X92790044Y-140758449D01*
X92822902Y-140339176D01*
X92773334Y-139921549D01*
X92643243Y-139521617D01*
X92485214Y-139225962D01*
X92169653Y-139069952D01*
X90857605Y-140382000D01*
X90498395Y-140382000D01*
X89186347Y-139069952D01*
X88870786Y-139225962D01*
X88679980Y-139600745D01*
X88565956Y-140005551D01*
X88533098Y-140424824D01*
X83170010Y-140424824D01*
X83173367Y-138890347D01*
X89365952Y-138890347D01*
X90678000Y-140202395D01*
X91990048Y-138890347D01*
X91834038Y-138574786D01*
X91459255Y-138383980D01*
X91054449Y-138269956D01*
X90635176Y-138237098D01*
X90217549Y-138286666D01*
X89817617Y-138416757D01*
X89521962Y-138574786D01*
X89365952Y-138890347D01*
X83173367Y-138890347D01*
X83197799Y-127724000D01*
X86699928Y-127724000D01*
X86699928Y-129324000D01*
X86712188Y-129448482D01*
X86748498Y-129568180D01*
X86807463Y-129678494D01*
X86886815Y-129775185D01*
X86983506Y-129854537D01*
X87078000Y-129905046D01*
X87078001Y-132789934D01*
X87072873Y-132842000D01*
X87093339Y-133049796D01*
X87153950Y-133249606D01*
X87252379Y-133433753D01*
X87351064Y-133554000D01*
X87384842Y-133595159D01*
X87425284Y-133628349D01*
X88539928Y-134742994D01*
X88539928Y-136882000D01*
X88552188Y-137006482D01*
X88588498Y-137126180D01*
X88647463Y-137236494D01*
X88726815Y-137333185D01*
X88823506Y-137412537D01*
X88933820Y-137471502D01*
X89053518Y-137507812D01*
X89178000Y-137520072D01*
X92178000Y-137520072D01*
X92302482Y-137507812D01*
X92422180Y-137471502D01*
X92532494Y-137412537D01*
X92629185Y-137333185D01*
X92708537Y-137236494D01*
X92767502Y-137126180D01*
X92803812Y-137006482D01*
X92816072Y-136882000D01*
X92816072Y-133882000D01*
X92803812Y-133757518D01*
X92767502Y-133637820D01*
X92708537Y-133527506D01*
X92629185Y-133430815D01*
X92532494Y-133351463D01*
X92422180Y-133292498D01*
X92302482Y-133256188D01*
X92178000Y-133243928D01*
X90038994Y-133243928D01*
X89198000Y-132402935D01*
X89198000Y-129905046D01*
X89292494Y-129854537D01*
X89389185Y-129775185D01*
X89468537Y-129678494D01*
X89527502Y-129568180D01*
X89563812Y-129448482D01*
X89576072Y-129324000D01*
X89576072Y-128382665D01*
X94323000Y-128382665D01*
X94323000Y-128665335D01*
X94378147Y-128942574D01*
X94486320Y-129203727D01*
X94643363Y-129438759D01*
X94698000Y-129493396D01*
X94698001Y-132027935D01*
X94692873Y-132080000D01*
X94713339Y-132287796D01*
X94773950Y-132487606D01*
X94872379Y-132671753D01*
X94903709Y-132709928D01*
X95004842Y-132833159D01*
X95045284Y-132866349D01*
X99447000Y-137268066D01*
X99447000Y-137565033D01*
X99509832Y-137880912D01*
X99633082Y-138178463D01*
X99812013Y-138446252D01*
X100039748Y-138673987D01*
X100307537Y-138852918D01*
X100605088Y-138976168D01*
X100920967Y-139039000D01*
X101243033Y-139039000D01*
X101558912Y-138976168D01*
X101856463Y-138852918D01*
X102124252Y-138673987D01*
X102351987Y-138446252D01*
X102530918Y-138178463D01*
X102654168Y-137880912D01*
X102717000Y-137565033D01*
X102717000Y-137242967D01*
X102654168Y-136927088D01*
X102530918Y-136629537D01*
X102351987Y-136361748D01*
X102124252Y-136134013D01*
X101856463Y-135955082D01*
X101558912Y-135831832D01*
X101243033Y-135769000D01*
X100946066Y-135769000D01*
X100416066Y-135239000D01*
X109230928Y-135239000D01*
X109243188Y-135363482D01*
X109279498Y-135483180D01*
X109338463Y-135593494D01*
X109417815Y-135690185D01*
X109514506Y-135769537D01*
X109624820Y-135828502D01*
X109744518Y-135864812D01*
X109869000Y-135877072D01*
X110458250Y-135874000D01*
X110617000Y-135715250D01*
X110617000Y-134741000D01*
X109392750Y-134741000D01*
X109234000Y-134899750D01*
X109230928Y-135239000D01*
X100416066Y-135239000D01*
X99166066Y-133989000D01*
X109230928Y-133989000D01*
X109234000Y-134328250D01*
X109392750Y-134487000D01*
X110617000Y-134487000D01*
X110617000Y-133512750D01*
X110871000Y-133512750D01*
X110871000Y-134487000D01*
X112095250Y-134487000D01*
X112254000Y-134328250D01*
X112257072Y-133989000D01*
X112244812Y-133864518D01*
X112208502Y-133744820D01*
X112149537Y-133634506D01*
X112070185Y-133537815D01*
X111973494Y-133458463D01*
X111863180Y-133399498D01*
X111743482Y-133363188D01*
X111619000Y-133350928D01*
X111029750Y-133354000D01*
X110871000Y-133512750D01*
X110617000Y-133512750D01*
X110458250Y-133354000D01*
X109869000Y-133350928D01*
X109744518Y-133363188D01*
X109624820Y-133399498D01*
X109514506Y-133458463D01*
X109417815Y-133537815D01*
X109338463Y-133634506D01*
X109279498Y-133744820D01*
X109243188Y-133864518D01*
X109230928Y-133989000D01*
X99166066Y-133989000D01*
X98525066Y-133348000D01*
X112305928Y-133348000D01*
X112309000Y-133812250D01*
X112467750Y-133971000D01*
X113817000Y-133971000D01*
X113817000Y-132871750D01*
X114071000Y-132871750D01*
X114071000Y-133971000D01*
X115420250Y-133971000D01*
X115579000Y-133812250D01*
X115582072Y-133348000D01*
X115569812Y-133223518D01*
X115533502Y-133103820D01*
X115474537Y-132993506D01*
X115395185Y-132896815D01*
X115298494Y-132817463D01*
X115188180Y-132758498D01*
X115068482Y-132722188D01*
X114944000Y-132709928D01*
X114229750Y-132713000D01*
X114071000Y-132871750D01*
X113817000Y-132871750D01*
X113658250Y-132713000D01*
X112944000Y-132709928D01*
X112819518Y-132722188D01*
X112699820Y-132758498D01*
X112589506Y-132817463D01*
X112492815Y-132896815D01*
X112413463Y-132993506D01*
X112354498Y-133103820D01*
X112318188Y-133223518D01*
X112305928Y-133348000D01*
X98525066Y-133348000D01*
X96818000Y-131640935D01*
X96818000Y-131431000D01*
X113836928Y-131431000D01*
X113849188Y-131555482D01*
X113885498Y-131675180D01*
X113944463Y-131785494D01*
X114023815Y-131882185D01*
X114120506Y-131961537D01*
X114230820Y-132020502D01*
X114350518Y-132056812D01*
X114475000Y-132069072D01*
X114814250Y-132066000D01*
X114973000Y-131907250D01*
X114973000Y-130683000D01*
X115227000Y-130683000D01*
X115227000Y-131907250D01*
X115385750Y-132066000D01*
X115725000Y-132069072D01*
X115849482Y-132056812D01*
X115969180Y-132020502D01*
X116079494Y-131961537D01*
X116176185Y-131882185D01*
X116255537Y-131785494D01*
X116314502Y-131675180D01*
X116350812Y-131555482D01*
X116363072Y-131431000D01*
X116360000Y-130841750D01*
X116201250Y-130683000D01*
X115227000Y-130683000D01*
X114973000Y-130683000D01*
X113998750Y-130683000D01*
X113840000Y-130841750D01*
X113836928Y-131431000D01*
X96818000Y-131431000D01*
X96818000Y-129681000D01*
X113836928Y-129681000D01*
X113840000Y-130270250D01*
X113998750Y-130429000D01*
X114973000Y-130429000D01*
X114973000Y-129204750D01*
X115227000Y-129204750D01*
X115227000Y-130429000D01*
X116201250Y-130429000D01*
X116360000Y-130270250D01*
X116363072Y-129681000D01*
X116350812Y-129556518D01*
X116314502Y-129436820D01*
X116255537Y-129326506D01*
X116176185Y-129229815D01*
X116079494Y-129150463D01*
X115969180Y-129091498D01*
X115849482Y-129055188D01*
X115725000Y-129042928D01*
X115385750Y-129046000D01*
X115227000Y-129204750D01*
X114973000Y-129204750D01*
X114814250Y-129046000D01*
X114475000Y-129042928D01*
X114350518Y-129055188D01*
X114230820Y-129091498D01*
X114120506Y-129150463D01*
X114023815Y-129229815D01*
X113944463Y-129326506D01*
X113885498Y-129436820D01*
X113849188Y-129556518D01*
X113836928Y-129681000D01*
X96818000Y-129681000D01*
X96818000Y-129493396D01*
X96872637Y-129438759D01*
X97029680Y-129203727D01*
X97137853Y-128942574D01*
X97193000Y-128665335D01*
X97193000Y-128382665D01*
X97137853Y-128105426D01*
X97029680Y-127844273D01*
X96872637Y-127609241D01*
X96672759Y-127409363D01*
X96437727Y-127252320D01*
X96176574Y-127144147D01*
X95899335Y-127089000D01*
X95616665Y-127089000D01*
X95339426Y-127144147D01*
X95078273Y-127252320D01*
X94843241Y-127409363D01*
X94643363Y-127609241D01*
X94486320Y-127844273D01*
X94378147Y-128105426D01*
X94323000Y-128382665D01*
X89576072Y-128382665D01*
X89576072Y-127724000D01*
X89563812Y-127599518D01*
X89527502Y-127479820D01*
X89468537Y-127369506D01*
X89389185Y-127272815D01*
X89292494Y-127193463D01*
X89182180Y-127134498D01*
X89062482Y-127098188D01*
X88938000Y-127085928D01*
X87338000Y-127085928D01*
X87213518Y-127098188D01*
X87093820Y-127134498D01*
X86983506Y-127193463D01*
X86886815Y-127272815D01*
X86807463Y-127369506D01*
X86748498Y-127479820D01*
X86712188Y-127599518D01*
X86699928Y-127724000D01*
X83197799Y-127724000D01*
X83208277Y-122934653D01*
X89365952Y-122934653D01*
X89521962Y-123250214D01*
X89896745Y-123441020D01*
X90301551Y-123555044D01*
X90720824Y-123587902D01*
X91138451Y-123538334D01*
X91538383Y-123408243D01*
X91834038Y-123250214D01*
X91990048Y-122934653D01*
X90678000Y-121622605D01*
X89365952Y-122934653D01*
X83208277Y-122934653D01*
X83211447Y-121485824D01*
X88533098Y-121485824D01*
X88582666Y-121903451D01*
X88712757Y-122303383D01*
X88870786Y-122599038D01*
X89186347Y-122755048D01*
X90498395Y-121443000D01*
X90857605Y-121443000D01*
X92169653Y-122755048D01*
X92485214Y-122599038D01*
X92676020Y-122224255D01*
X92790044Y-121819449D01*
X92822902Y-121400176D01*
X92773334Y-120982549D01*
X92643243Y-120582617D01*
X92485214Y-120286962D01*
X92169653Y-120130952D01*
X90857605Y-121443000D01*
X90498395Y-121443000D01*
X89186347Y-120130952D01*
X88870786Y-120286962D01*
X88679980Y-120661745D01*
X88565956Y-121066551D01*
X88533098Y-121485824D01*
X83211447Y-121485824D01*
X83214804Y-119951347D01*
X89365952Y-119951347D01*
X90678000Y-121263395D01*
X91990048Y-119951347D01*
X91834038Y-119635786D01*
X91459255Y-119444980D01*
X91054449Y-119330956D01*
X90635176Y-119298098D01*
X90217549Y-119347666D01*
X89817617Y-119477757D01*
X89521962Y-119635786D01*
X89365952Y-119951347D01*
X83214804Y-119951347D01*
X83238515Y-109114803D01*
X86699928Y-108935323D01*
X86699928Y-110528000D01*
X86712188Y-110652482D01*
X86748498Y-110772180D01*
X86807463Y-110882494D01*
X86886815Y-110979185D01*
X86983506Y-111058537D01*
X87078000Y-111109046D01*
X87078001Y-113850934D01*
X87072873Y-113903000D01*
X87093339Y-114110796D01*
X87153950Y-114310606D01*
X87224716Y-114443000D01*
X87252379Y-114494753D01*
X87384842Y-114656159D01*
X87425284Y-114689349D01*
X88539928Y-115803994D01*
X88539928Y-117943000D01*
X88552188Y-118067482D01*
X88588498Y-118187180D01*
X88647463Y-118297494D01*
X88726815Y-118394185D01*
X88823506Y-118473537D01*
X88933820Y-118532502D01*
X89053518Y-118568812D01*
X89178000Y-118581072D01*
X92178000Y-118581072D01*
X92302482Y-118568812D01*
X92422180Y-118532502D01*
X92532494Y-118473537D01*
X92629185Y-118394185D01*
X92708537Y-118297494D01*
X92767502Y-118187180D01*
X92803812Y-118067482D01*
X92816072Y-117943000D01*
X92816072Y-114943000D01*
X92803812Y-114818518D01*
X92767502Y-114698820D01*
X92708537Y-114588506D01*
X92629185Y-114491815D01*
X92532494Y-114412463D01*
X92422180Y-114353498D01*
X92302482Y-114317188D01*
X92178000Y-114304928D01*
X90038994Y-114304928D01*
X89198000Y-113463935D01*
X89198000Y-111109046D01*
X89292494Y-111058537D01*
X89389185Y-110979185D01*
X89468537Y-110882494D01*
X89527502Y-110772180D01*
X89563812Y-110652482D01*
X89576072Y-110528000D01*
X89576072Y-108928000D01*
X89563812Y-108803518D01*
X89558827Y-108787083D01*
X95005957Y-108504640D01*
X94843241Y-108613363D01*
X94643363Y-108813241D01*
X94486320Y-109048273D01*
X94378147Y-109309426D01*
X94323000Y-109586665D01*
X94323000Y-109869335D01*
X94378147Y-110146574D01*
X94486320Y-110407727D01*
X94643363Y-110642759D01*
X94843241Y-110842637D01*
X95078273Y-110999680D01*
X95339426Y-111107853D01*
X95616665Y-111163000D01*
X95899335Y-111163000D01*
X96176574Y-111107853D01*
X96437727Y-110999680D01*
X96672759Y-110842637D01*
X96727396Y-110788000D01*
X96842935Y-110788000D01*
X101997000Y-115942067D01*
X101997000Y-116239033D01*
X102059832Y-116554912D01*
X102183082Y-116852463D01*
X102362013Y-117120252D01*
X102589748Y-117347987D01*
X102857537Y-117526918D01*
X103155088Y-117650168D01*
X103470967Y-117713000D01*
X103793033Y-117713000D01*
X104108912Y-117650168D01*
X104406463Y-117526918D01*
X104674252Y-117347987D01*
X104901987Y-117120252D01*
X105080918Y-116852463D01*
X105204168Y-116554912D01*
X105267000Y-116239033D01*
X105267000Y-115916967D01*
X105204168Y-115601088D01*
X105080918Y-115303537D01*
X104901987Y-115035748D01*
X104674252Y-114808013D01*
X104406463Y-114629082D01*
X104108912Y-114505832D01*
X103793033Y-114443000D01*
X103496067Y-114443000D01*
X98068354Y-109015289D01*
X98035159Y-108974841D01*
X97873753Y-108842378D01*
X97689607Y-108743950D01*
X97489796Y-108683338D01*
X97334066Y-108668000D01*
X97334056Y-108668000D01*
X97282000Y-108662873D01*
X97229944Y-108668000D01*
X96727396Y-108668000D01*
X96672759Y-108613363D01*
X96437727Y-108456320D01*
X96382112Y-108433283D01*
X119849745Y-107216443D01*
X140248898Y-107252035D01*
G37*
X140248898Y-107252035D02*
X135060935Y-112440000D01*
X134034132Y-112440000D01*
X134038072Y-112400000D01*
X134038072Y-110600000D01*
X134025812Y-110475518D01*
X133989502Y-110355820D01*
X133930537Y-110245506D01*
X133851185Y-110148815D01*
X133754494Y-110069463D01*
X133644180Y-110010498D01*
X133625873Y-110004944D01*
X133692312Y-109938505D01*
X133860299Y-109687095D01*
X133976011Y-109407743D01*
X134035000Y-109111184D01*
X134035000Y-108808816D01*
X133976011Y-108512257D01*
X133860299Y-108232905D01*
X133692312Y-107981495D01*
X133478505Y-107767688D01*
X133227095Y-107599701D01*
X132947743Y-107483989D01*
X132651184Y-107425000D01*
X132348816Y-107425000D01*
X132052257Y-107483989D01*
X131772905Y-107599701D01*
X131521495Y-107767688D01*
X131324183Y-107965000D01*
X124629518Y-107965000D01*
X124604494Y-107944463D01*
X124494180Y-107885498D01*
X124374482Y-107849188D01*
X124250000Y-107836928D01*
X122750000Y-107836928D01*
X122625518Y-107849188D01*
X122505820Y-107885498D01*
X122395506Y-107944463D01*
X122298815Y-108023815D01*
X122219463Y-108120506D01*
X122160498Y-108230820D01*
X122124188Y-108350518D01*
X122111928Y-108475000D01*
X122111928Y-109235000D01*
X117763072Y-109235000D01*
X117763072Y-108875000D01*
X117746008Y-108701746D01*
X117695472Y-108535150D01*
X117613405Y-108381614D01*
X117502962Y-108247038D01*
X117368386Y-108136595D01*
X117214850Y-108054528D01*
X117048254Y-108003992D01*
X116875000Y-107986928D01*
X116125000Y-107986928D01*
X115951746Y-108003992D01*
X115785150Y-108054528D01*
X115631614Y-108136595D01*
X115497038Y-108247038D01*
X115386595Y-108381614D01*
X115304528Y-108535150D01*
X115253992Y-108701746D01*
X115236928Y-108875000D01*
X115236928Y-110125000D01*
X115253992Y-110298254D01*
X115304528Y-110464850D01*
X115386595Y-110618386D01*
X115497038Y-110752962D01*
X115631614Y-110863405D01*
X115785150Y-110945472D01*
X115951746Y-110996008D01*
X116125000Y-111013072D01*
X116543957Y-111013072D01*
X116574092Y-111037803D01*
X116692202Y-111134734D01*
X116745085Y-111163000D01*
X116872007Y-111230841D01*
X117067105Y-111290024D01*
X117219162Y-111305000D01*
X117219171Y-111305000D01*
X117269999Y-111310006D01*
X117320827Y-111305000D01*
X122134090Y-111305000D01*
X122131785Y-111312600D01*
X122109388Y-111540000D01*
X122131785Y-111767400D01*
X122198115Y-111986060D01*
X122305829Y-112187579D01*
X122440000Y-112351067D01*
X122440001Y-115647934D01*
X122434873Y-115700000D01*
X122455339Y-115907796D01*
X122486928Y-116011932D01*
X122486928Y-116214006D01*
X122412934Y-116288000D01*
X122390072Y-116288000D01*
X122390072Y-115448000D01*
X122377812Y-115323518D01*
X122341502Y-115203820D01*
X122282537Y-115093506D01*
X122203185Y-114996815D01*
X122106494Y-114917463D01*
X121996180Y-114858498D01*
X121876482Y-114822188D01*
X121752000Y-114809928D01*
X119752000Y-114809928D01*
X119627518Y-114822188D01*
X119507820Y-114858498D01*
X119397506Y-114917463D01*
X119300815Y-114996815D01*
X119221463Y-115093506D01*
X119162498Y-115203820D01*
X119126188Y-115323518D01*
X119113928Y-115448000D01*
X119113928Y-116288000D01*
X116006320Y-116288000D01*
X115982537Y-116243506D01*
X115945191Y-116198000D01*
X115982537Y-116152494D01*
X116041502Y-116042180D01*
X116077812Y-115922482D01*
X116090072Y-115798000D01*
X116087000Y-115333750D01*
X115928250Y-115175000D01*
X114579000Y-115175000D01*
X114579000Y-115195000D01*
X114325000Y-115195000D01*
X114325000Y-115175000D01*
X112975750Y-115175000D01*
X112817000Y-115333750D01*
X112813928Y-115798000D01*
X112826188Y-115922482D01*
X112862498Y-116042180D01*
X112921463Y-116152494D01*
X112958809Y-116198000D01*
X112921463Y-116243506D01*
X112862498Y-116353820D01*
X112826188Y-116473518D01*
X112819639Y-116540010D01*
X112010491Y-116540010D01*
X112010000Y-116485750D01*
X111851250Y-116327000D01*
X110627000Y-116327000D01*
X110627000Y-116347000D01*
X110373000Y-116347000D01*
X110373000Y-116327000D01*
X110353000Y-116327000D01*
X110353000Y-116073000D01*
X110373000Y-116073000D01*
X110373000Y-115098750D01*
X110627000Y-115098750D01*
X110627000Y-116073000D01*
X111851250Y-116073000D01*
X112010000Y-115914250D01*
X112013072Y-115575000D01*
X112000812Y-115450518D01*
X111964502Y-115330820D01*
X111905537Y-115220506D01*
X111826185Y-115123815D01*
X111729494Y-115044463D01*
X111619180Y-114985498D01*
X111499482Y-114949188D01*
X111375000Y-114936928D01*
X110785750Y-114940000D01*
X110627000Y-115098750D01*
X110373000Y-115098750D01*
X110214250Y-114940000D01*
X109809990Y-114937892D01*
X109809990Y-114298000D01*
X112813928Y-114298000D01*
X112817000Y-114762250D01*
X112975750Y-114921000D01*
X114325000Y-114921000D01*
X114325000Y-113821750D01*
X114579000Y-113821750D01*
X114579000Y-114921000D01*
X115928250Y-114921000D01*
X116087000Y-114762250D01*
X116090072Y-114298000D01*
X116077812Y-114173518D01*
X116041502Y-114053820D01*
X115982537Y-113943506D01*
X115903185Y-113846815D01*
X115806494Y-113767463D01*
X115696180Y-113708498D01*
X115576482Y-113672188D01*
X115452000Y-113659928D01*
X114737750Y-113663000D01*
X114579000Y-113821750D01*
X114325000Y-113821750D01*
X114166250Y-113663000D01*
X113452000Y-113659928D01*
X113327518Y-113672188D01*
X113207820Y-113708498D01*
X113097506Y-113767463D01*
X113000815Y-113846815D01*
X112921463Y-113943506D01*
X112862498Y-114053820D01*
X112826188Y-114173518D01*
X112813928Y-114298000D01*
X109809990Y-114298000D01*
X109809990Y-114239492D01*
X111263134Y-112786349D01*
X111303576Y-112753159D01*
X111436039Y-112591753D01*
X111469025Y-112530040D01*
X113037664Y-110961402D01*
X113151746Y-110996008D01*
X113325000Y-111013072D01*
X114075000Y-111013072D01*
X114248254Y-110996008D01*
X114414850Y-110945472D01*
X114568386Y-110863405D01*
X114702962Y-110752962D01*
X114813405Y-110618386D01*
X114895472Y-110464850D01*
X114946008Y-110298254D01*
X114963072Y-110125000D01*
X114963072Y-108875000D01*
X114946008Y-108701746D01*
X114895472Y-108535150D01*
X114813405Y-108381614D01*
X114702962Y-108247038D01*
X114568386Y-108136595D01*
X114414850Y-108054528D01*
X114248254Y-108003992D01*
X114075000Y-107986928D01*
X113325000Y-107986928D01*
X113151746Y-108003992D01*
X112985150Y-108054528D01*
X112831614Y-108136595D01*
X112697038Y-108247038D01*
X112586595Y-108381614D01*
X112504528Y-108535150D01*
X112494476Y-108568288D01*
X112408247Y-108614378D01*
X112246841Y-108746841D01*
X112213651Y-108787283D01*
X109837706Y-111163229D01*
X109797258Y-111196424D01*
X109664795Y-111357830D01*
X109631810Y-111419541D01*
X108213641Y-112837711D01*
X108114369Y-112958674D01*
X108015940Y-113142821D01*
X107955329Y-113342631D01*
X107934863Y-113550427D01*
X107955329Y-113758223D01*
X108015940Y-113958033D01*
X108114369Y-114142180D01*
X108189991Y-114234326D01*
X108189990Y-116897656D01*
X108186071Y-116937444D01*
X108189990Y-116977232D01*
X108189990Y-116977234D01*
X108201710Y-117096231D01*
X108248027Y-117248916D01*
X108276000Y-117301250D01*
X108323241Y-117389633D01*
X108330158Y-117398061D01*
X108424462Y-117512972D01*
X108455378Y-117538344D01*
X108646329Y-117729295D01*
X108667758Y-117799937D01*
X108752258Y-117958025D01*
X108865975Y-118096591D01*
X109004541Y-118210308D01*
X109074535Y-118247720D01*
X109054528Y-118285150D01*
X109003992Y-118451746D01*
X108986928Y-118625000D01*
X108986928Y-119014006D01*
X107902935Y-120098000D01*
X104874239Y-120098000D01*
X104664252Y-119888013D01*
X104396463Y-119709082D01*
X104098912Y-119585832D01*
X103783033Y-119523000D01*
X103460967Y-119523000D01*
X103145088Y-119585832D01*
X102847537Y-119709082D01*
X102579748Y-119888013D01*
X102352013Y-120115748D01*
X102173082Y-120383537D01*
X102049832Y-120681088D01*
X101987000Y-120996967D01*
X101987000Y-121319033D01*
X102049832Y-121634912D01*
X102173082Y-121932463D01*
X102352013Y-122200252D01*
X102579748Y-122427987D01*
X102847537Y-122606918D01*
X103145088Y-122730168D01*
X103460967Y-122793000D01*
X103783033Y-122793000D01*
X104098912Y-122730168D01*
X104396463Y-122606918D01*
X104664252Y-122427987D01*
X104874239Y-122218000D01*
X108289944Y-122218000D01*
X108342000Y-122223127D01*
X108394056Y-122218000D01*
X108394066Y-122218000D01*
X108549796Y-122202662D01*
X108749607Y-122142050D01*
X108933753Y-122043622D01*
X109095159Y-121911159D01*
X109128354Y-121870711D01*
X110500000Y-120499065D01*
X113950352Y-123949419D01*
X113904528Y-124035150D01*
X113853992Y-124201746D01*
X113836928Y-124375000D01*
X113836928Y-125625000D01*
X113853992Y-125798254D01*
X113904528Y-125964850D01*
X113986595Y-126118386D01*
X114097038Y-126252962D01*
X114231614Y-126363405D01*
X114385150Y-126445472D01*
X114551746Y-126496008D01*
X114725000Y-126513072D01*
X115475000Y-126513072D01*
X115648254Y-126496008D01*
X115814850Y-126445472D01*
X115968386Y-126363405D01*
X116102962Y-126252962D01*
X116213405Y-126118386D01*
X116295472Y-125964850D01*
X116322727Y-125875000D01*
X116636928Y-125875000D01*
X116649188Y-125999482D01*
X116685498Y-126119180D01*
X116744463Y-126229494D01*
X116823815Y-126326185D01*
X116920506Y-126405537D01*
X117030820Y-126464502D01*
X117150518Y-126500812D01*
X117275000Y-126513072D01*
X117614250Y-126510000D01*
X117773000Y-126351250D01*
X117773000Y-125127000D01*
X118027000Y-125127000D01*
X118027000Y-126351250D01*
X118185750Y-126510000D01*
X118525000Y-126513072D01*
X118649482Y-126500812D01*
X118769180Y-126464502D01*
X118879494Y-126405537D01*
X118976185Y-126326185D01*
X119055537Y-126229494D01*
X119114502Y-126119180D01*
X119150812Y-125999482D01*
X119163072Y-125875000D01*
X119160000Y-125285750D01*
X119001250Y-125127000D01*
X118027000Y-125127000D01*
X117773000Y-125127000D01*
X116798750Y-125127000D01*
X116640000Y-125285750D01*
X116636928Y-125875000D01*
X116322727Y-125875000D01*
X116346008Y-125798254D01*
X116363072Y-125625000D01*
X116363072Y-124375000D01*
X116346008Y-124201746D01*
X116322728Y-124125000D01*
X116636928Y-124125000D01*
X116640000Y-124714250D01*
X116798750Y-124873000D01*
X117773000Y-124873000D01*
X117773000Y-123648750D01*
X118027000Y-123648750D01*
X118027000Y-124873000D01*
X119001250Y-124873000D01*
X119160000Y-124714250D01*
X119163072Y-124125000D01*
X119150812Y-124000518D01*
X119114502Y-123880820D01*
X119055537Y-123770506D01*
X118976185Y-123673815D01*
X118879494Y-123594463D01*
X118769180Y-123535498D01*
X118649482Y-123499188D01*
X118525000Y-123486928D01*
X118185750Y-123490000D01*
X118027000Y-123648750D01*
X117773000Y-123648750D01*
X117614250Y-123490000D01*
X117275000Y-123486928D01*
X117150518Y-123499188D01*
X117030820Y-123535498D01*
X116920506Y-123594463D01*
X116823815Y-123673815D01*
X116744463Y-123770506D01*
X116685498Y-123880820D01*
X116649188Y-124000518D01*
X116636928Y-124125000D01*
X116322728Y-124125000D01*
X116295472Y-124035150D01*
X116213405Y-123881614D01*
X116160000Y-123816539D01*
X116160000Y-123652055D01*
X116165127Y-123599999D01*
X116160000Y-123547943D01*
X116160000Y-120348055D01*
X116165127Y-120295999D01*
X116160000Y-120243943D01*
X116160000Y-120243934D01*
X116144662Y-120088204D01*
X116090072Y-119908245D01*
X116090072Y-118898000D01*
X116077812Y-118773518D01*
X116041502Y-118653820D01*
X115982537Y-118543506D01*
X115945191Y-118498000D01*
X115982537Y-118452494D01*
X116006320Y-118408000D01*
X119113928Y-118408000D01*
X119113928Y-119248000D01*
X119126188Y-119372482D01*
X119162498Y-119492180D01*
X119221463Y-119602494D01*
X119300815Y-119699185D01*
X119397506Y-119778537D01*
X119507820Y-119837502D01*
X119627518Y-119873812D01*
X119752000Y-119886072D01*
X121752000Y-119886072D01*
X121876482Y-119873812D01*
X121996180Y-119837502D01*
X122106494Y-119778537D01*
X122203185Y-119699185D01*
X122264066Y-119625000D01*
X122486928Y-119625000D01*
X122499188Y-119749482D01*
X122535498Y-119869180D01*
X122594463Y-119979494D01*
X122673815Y-120076185D01*
X122770506Y-120155537D01*
X122880820Y-120214502D01*
X123000518Y-120250812D01*
X123125000Y-120263072D01*
X123714250Y-120260000D01*
X123873000Y-120101250D01*
X123873000Y-119127000D01*
X124127000Y-119127000D01*
X124127000Y-120101250D01*
X124285750Y-120260000D01*
X124875000Y-120263072D01*
X124999482Y-120250812D01*
X125119180Y-120214502D01*
X125229494Y-120155537D01*
X125326185Y-120076185D01*
X125405537Y-119979494D01*
X125464502Y-119869180D01*
X125500812Y-119749482D01*
X125513072Y-119625000D01*
X125510000Y-119285750D01*
X125351250Y-119127000D01*
X124127000Y-119127000D01*
X123873000Y-119127000D01*
X122648750Y-119127000D01*
X122490000Y-119285750D01*
X122486928Y-119625000D01*
X122264066Y-119625000D01*
X122282537Y-119602494D01*
X122341502Y-119492180D01*
X122377812Y-119372482D01*
X122390072Y-119248000D01*
X122390072Y-118408000D01*
X122487227Y-118408000D01*
X122490000Y-118714250D01*
X122648750Y-118873000D01*
X123873000Y-118873000D01*
X123873000Y-117898750D01*
X124127000Y-117898750D01*
X124127000Y-118873000D01*
X125351250Y-118873000D01*
X125510000Y-118714250D01*
X125513072Y-118375000D01*
X125500812Y-118250518D01*
X125464502Y-118130820D01*
X125405537Y-118020506D01*
X125326185Y-117923815D01*
X125229494Y-117844463D01*
X125119180Y-117785498D01*
X124999482Y-117749188D01*
X124875000Y-117736928D01*
X124285750Y-117740000D01*
X124127000Y-117898750D01*
X123873000Y-117898750D01*
X123836658Y-117862408D01*
X124235994Y-117463072D01*
X124625000Y-117463072D01*
X124798254Y-117446008D01*
X124964850Y-117395472D01*
X125118386Y-117313405D01*
X125183461Y-117260000D01*
X125666935Y-117260000D01*
X129429000Y-121022066D01*
X129429000Y-121319033D01*
X129491832Y-121634912D01*
X129615082Y-121932463D01*
X129794013Y-122200252D01*
X130021748Y-122427987D01*
X130077142Y-122465000D01*
X128928711Y-122465000D01*
X127767807Y-121304097D01*
X127735396Y-121264604D01*
X127577797Y-121135266D01*
X127397993Y-121039159D01*
X127202895Y-120979976D01*
X127050838Y-120965000D01*
X127050828Y-120965000D01*
X127000000Y-120959994D01*
X126949172Y-120965000D01*
X125550827Y-120965000D01*
X125499999Y-120959994D01*
X125449171Y-120965000D01*
X125449162Y-120965000D01*
X125297105Y-120979976D01*
X125102007Y-121039159D01*
X124922203Y-121135266D01*
X124764604Y-121264604D01*
X124732197Y-121304092D01*
X121699362Y-124336928D01*
X121250000Y-124336928D01*
X121125518Y-124349188D01*
X121005820Y-124385498D01*
X120895506Y-124444463D01*
X120798815Y-124523815D01*
X120719463Y-124620506D01*
X120660498Y-124730820D01*
X120624188Y-124850518D01*
X120611928Y-124975000D01*
X120611928Y-126025000D01*
X120624188Y-126149482D01*
X120660498Y-126269180D01*
X120695093Y-126333902D01*
X120631785Y-126542600D01*
X120609388Y-126770000D01*
X120631785Y-126997400D01*
X120698115Y-127216060D01*
X120799105Y-127405000D01*
X120698115Y-127593940D01*
X120631785Y-127812600D01*
X120609388Y-128040000D01*
X120631785Y-128267400D01*
X120698115Y-128486060D01*
X120805829Y-128687579D01*
X120950788Y-128864212D01*
X121127421Y-129009171D01*
X121328940Y-129116885D01*
X121547600Y-129183215D01*
X121718021Y-129200000D01*
X122281979Y-129200000D01*
X122337469Y-129194535D01*
X124142934Y-131000000D01*
X121304000Y-133838935D01*
X121304000Y-133296058D01*
X121309127Y-133244000D01*
X121304000Y-133191942D01*
X121304000Y-133191934D01*
X121288662Y-133036204D01*
X121228050Y-132836393D01*
X121129622Y-132652247D01*
X120997159Y-132490841D01*
X120956717Y-132457651D01*
X119163072Y-130664007D01*
X119163072Y-129931000D01*
X119146008Y-129757746D01*
X119095472Y-129591150D01*
X119013405Y-129437614D01*
X118902962Y-129303038D01*
X118768386Y-129192595D01*
X118614850Y-129110528D01*
X118448254Y-129059992D01*
X118275000Y-129042928D01*
X117525000Y-129042928D01*
X117351746Y-129059992D01*
X117185150Y-129110528D01*
X117031614Y-129192595D01*
X116897038Y-129303038D01*
X116786595Y-129437614D01*
X116704528Y-129591150D01*
X116653992Y-129757746D01*
X116636928Y-129931000D01*
X116636928Y-131181000D01*
X116653992Y-131354254D01*
X116704528Y-131520850D01*
X116786595Y-131674386D01*
X116897038Y-131808962D01*
X117031614Y-131919405D01*
X117185150Y-132001472D01*
X117351746Y-132052008D01*
X117525000Y-132069072D01*
X117570007Y-132069072D01*
X119184000Y-133683066D01*
X119184000Y-133865837D01*
X119119518Y-133872188D01*
X118999820Y-133908498D01*
X118889506Y-133967463D01*
X118792815Y-134046815D01*
X118713463Y-134143506D01*
X118654498Y-134253820D01*
X118618188Y-134373518D01*
X118605928Y-134498000D01*
X118605928Y-135363000D01*
X115511683Y-135363000D01*
X115474537Y-135293506D01*
X115437191Y-135248000D01*
X115474537Y-135202494D01*
X115533502Y-135092180D01*
X115569812Y-134972482D01*
X115582072Y-134848000D01*
X115579000Y-134383750D01*
X115420250Y-134225000D01*
X114071000Y-134225000D01*
X114071000Y-134245000D01*
X113817000Y-134245000D01*
X113817000Y-134225000D01*
X112467750Y-134225000D01*
X112309000Y-134383750D01*
X112305928Y-134848000D01*
X112318188Y-134972482D01*
X112354498Y-135092180D01*
X112413463Y-135202494D01*
X112450809Y-135248000D01*
X112413463Y-135293506D01*
X112389680Y-135338000D01*
X112247322Y-135338000D01*
X112257072Y-135239000D01*
X112254000Y-134899750D01*
X112095250Y-134741000D01*
X110871000Y-134741000D01*
X110871000Y-135715250D01*
X110907342Y-135751592D01*
X110508006Y-136150928D01*
X110119000Y-136150928D01*
X109945746Y-136167992D01*
X109779150Y-136218528D01*
X109625614Y-136300595D01*
X109491038Y-136411038D01*
X109380595Y-136545614D01*
X109298528Y-136699150D01*
X109247992Y-136865746D01*
X109230928Y-137039000D01*
X109230928Y-137789000D01*
X109247992Y-137962254D01*
X109298528Y-138128850D01*
X109380595Y-138282386D01*
X109491038Y-138416962D01*
X109625614Y-138527405D01*
X109779150Y-138609472D01*
X109945746Y-138660008D01*
X110119000Y-138677072D01*
X111369000Y-138677072D01*
X111542254Y-138660008D01*
X111708850Y-138609472D01*
X111862386Y-138527405D01*
X111996962Y-138416962D01*
X112107405Y-138282386D01*
X112189472Y-138128850D01*
X112240008Y-137962254D01*
X112257072Y-137789000D01*
X112257072Y-137458000D01*
X112389680Y-137458000D01*
X112413463Y-137502494D01*
X112450809Y-137548000D01*
X112413463Y-137593506D01*
X112354498Y-137703820D01*
X112318188Y-137823518D01*
X112305928Y-137948000D01*
X112305928Y-139448000D01*
X112318188Y-139572482D01*
X112354498Y-139692180D01*
X112413463Y-139802494D01*
X112492815Y-139899185D01*
X112589506Y-139978537D01*
X112699820Y-140037502D01*
X112819518Y-140073812D01*
X112884000Y-140080163D01*
X112884001Y-141791935D01*
X112878873Y-141844000D01*
X112888328Y-141940000D01*
X112187066Y-141940000D01*
X107797000Y-137549935D01*
X107797000Y-137252967D01*
X107734168Y-136937088D01*
X107610918Y-136639537D01*
X107431987Y-136371748D01*
X107204252Y-136144013D01*
X106936463Y-135965082D01*
X106638912Y-135841832D01*
X106323033Y-135779000D01*
X106000967Y-135779000D01*
X105685088Y-135841832D01*
X105387537Y-135965082D01*
X105119748Y-136144013D01*
X104892013Y-136371748D01*
X104713082Y-136639537D01*
X104589832Y-136937088D01*
X104527000Y-137252967D01*
X104527000Y-137575033D01*
X104589832Y-137890912D01*
X104713082Y-138188463D01*
X104892013Y-138456252D01*
X105119748Y-138683987D01*
X105387537Y-138862918D01*
X105685088Y-138986168D01*
X106000967Y-139049000D01*
X106297935Y-139049000D01*
X110961651Y-143712717D01*
X110994841Y-143753159D01*
X111156247Y-143885622D01*
X111340393Y-143984050D01*
X111540204Y-144044662D01*
X111695934Y-144060000D01*
X111695944Y-144060000D01*
X111748000Y-144065127D01*
X111800056Y-144060000D01*
X113955387Y-144060000D01*
X113986595Y-144118386D01*
X114043514Y-144187742D01*
X114052296Y-144276898D01*
X114055339Y-144307796D01*
X114075118Y-144373000D01*
X88423844Y-144373000D01*
X88090464Y-143874061D01*
X87625939Y-143409536D01*
X87079715Y-143044561D01*
X86472784Y-142793162D01*
X85828469Y-142665000D01*
X85171531Y-142665000D01*
X84527216Y-142793162D01*
X83920285Y-143044561D01*
X83374061Y-143409536D01*
X83163019Y-143620578D01*
X83166840Y-141873653D01*
X89365952Y-141873653D01*
X89521962Y-142189214D01*
X89896745Y-142380020D01*
X90301551Y-142494044D01*
X90720824Y-142526902D01*
X91138451Y-142477334D01*
X91538383Y-142347243D01*
X91834038Y-142189214D01*
X91990048Y-141873653D01*
X90678000Y-140561605D01*
X89365952Y-141873653D01*
X83166840Y-141873653D01*
X83170010Y-140424824D01*
X88533098Y-140424824D01*
X88582666Y-140842451D01*
X88712757Y-141242383D01*
X88870786Y-141538038D01*
X89186347Y-141694048D01*
X90498395Y-140382000D01*
X90857605Y-140382000D01*
X92169653Y-141694048D01*
X92485214Y-141538038D01*
X92676020Y-141163255D01*
X92790044Y-140758449D01*
X92822902Y-140339176D01*
X92773334Y-139921549D01*
X92643243Y-139521617D01*
X92485214Y-139225962D01*
X92169653Y-139069952D01*
X90857605Y-140382000D01*
X90498395Y-140382000D01*
X89186347Y-139069952D01*
X88870786Y-139225962D01*
X88679980Y-139600745D01*
X88565956Y-140005551D01*
X88533098Y-140424824D01*
X83170010Y-140424824D01*
X83173367Y-138890347D01*
X89365952Y-138890347D01*
X90678000Y-140202395D01*
X91990048Y-138890347D01*
X91834038Y-138574786D01*
X91459255Y-138383980D01*
X91054449Y-138269956D01*
X90635176Y-138237098D01*
X90217549Y-138286666D01*
X89817617Y-138416757D01*
X89521962Y-138574786D01*
X89365952Y-138890347D01*
X83173367Y-138890347D01*
X83197799Y-127724000D01*
X86699928Y-127724000D01*
X86699928Y-129324000D01*
X86712188Y-129448482D01*
X86748498Y-129568180D01*
X86807463Y-129678494D01*
X86886815Y-129775185D01*
X86983506Y-129854537D01*
X87078000Y-129905046D01*
X87078001Y-132789934D01*
X87072873Y-132842000D01*
X87093339Y-133049796D01*
X87153950Y-133249606D01*
X87252379Y-133433753D01*
X87351064Y-133554000D01*
X87384842Y-133595159D01*
X87425284Y-133628349D01*
X88539928Y-134742994D01*
X88539928Y-136882000D01*
X88552188Y-137006482D01*
X88588498Y-137126180D01*
X88647463Y-137236494D01*
X88726815Y-137333185D01*
X88823506Y-137412537D01*
X88933820Y-137471502D01*
X89053518Y-137507812D01*
X89178000Y-137520072D01*
X92178000Y-137520072D01*
X92302482Y-137507812D01*
X92422180Y-137471502D01*
X92532494Y-137412537D01*
X92629185Y-137333185D01*
X92708537Y-137236494D01*
X92767502Y-137126180D01*
X92803812Y-137006482D01*
X92816072Y-136882000D01*
X92816072Y-133882000D01*
X92803812Y-133757518D01*
X92767502Y-133637820D01*
X92708537Y-133527506D01*
X92629185Y-133430815D01*
X92532494Y-133351463D01*
X92422180Y-133292498D01*
X92302482Y-133256188D01*
X92178000Y-133243928D01*
X90038994Y-133243928D01*
X89198000Y-132402935D01*
X89198000Y-129905046D01*
X89292494Y-129854537D01*
X89389185Y-129775185D01*
X89468537Y-129678494D01*
X89527502Y-129568180D01*
X89563812Y-129448482D01*
X89576072Y-129324000D01*
X89576072Y-128382665D01*
X94323000Y-128382665D01*
X94323000Y-128665335D01*
X94378147Y-128942574D01*
X94486320Y-129203727D01*
X94643363Y-129438759D01*
X94698000Y-129493396D01*
X94698001Y-132027935D01*
X94692873Y-132080000D01*
X94713339Y-132287796D01*
X94773950Y-132487606D01*
X94872379Y-132671753D01*
X94903709Y-132709928D01*
X95004842Y-132833159D01*
X95045284Y-132866349D01*
X99447000Y-137268066D01*
X99447000Y-137565033D01*
X99509832Y-137880912D01*
X99633082Y-138178463D01*
X99812013Y-138446252D01*
X100039748Y-138673987D01*
X100307537Y-138852918D01*
X100605088Y-138976168D01*
X100920967Y-139039000D01*
X101243033Y-139039000D01*
X101558912Y-138976168D01*
X101856463Y-138852918D01*
X102124252Y-138673987D01*
X102351987Y-138446252D01*
X102530918Y-138178463D01*
X102654168Y-137880912D01*
X102717000Y-137565033D01*
X102717000Y-137242967D01*
X102654168Y-136927088D01*
X102530918Y-136629537D01*
X102351987Y-136361748D01*
X102124252Y-136134013D01*
X101856463Y-135955082D01*
X101558912Y-135831832D01*
X101243033Y-135769000D01*
X100946066Y-135769000D01*
X100416066Y-135239000D01*
X109230928Y-135239000D01*
X109243188Y-135363482D01*
X109279498Y-135483180D01*
X109338463Y-135593494D01*
X109417815Y-135690185D01*
X109514506Y-135769537D01*
X109624820Y-135828502D01*
X109744518Y-135864812D01*
X109869000Y-135877072D01*
X110458250Y-135874000D01*
X110617000Y-135715250D01*
X110617000Y-134741000D01*
X109392750Y-134741000D01*
X109234000Y-134899750D01*
X109230928Y-135239000D01*
X100416066Y-135239000D01*
X99166066Y-133989000D01*
X109230928Y-133989000D01*
X109234000Y-134328250D01*
X109392750Y-134487000D01*
X110617000Y-134487000D01*
X110617000Y-133512750D01*
X110871000Y-133512750D01*
X110871000Y-134487000D01*
X112095250Y-134487000D01*
X112254000Y-134328250D01*
X112257072Y-133989000D01*
X112244812Y-133864518D01*
X112208502Y-133744820D01*
X112149537Y-133634506D01*
X112070185Y-133537815D01*
X111973494Y-133458463D01*
X111863180Y-133399498D01*
X111743482Y-133363188D01*
X111619000Y-133350928D01*
X111029750Y-133354000D01*
X110871000Y-133512750D01*
X110617000Y-133512750D01*
X110458250Y-133354000D01*
X109869000Y-133350928D01*
X109744518Y-133363188D01*
X109624820Y-133399498D01*
X109514506Y-133458463D01*
X109417815Y-133537815D01*
X109338463Y-133634506D01*
X109279498Y-133744820D01*
X109243188Y-133864518D01*
X109230928Y-133989000D01*
X99166066Y-133989000D01*
X98525066Y-133348000D01*
X112305928Y-133348000D01*
X112309000Y-133812250D01*
X112467750Y-133971000D01*
X113817000Y-133971000D01*
X113817000Y-132871750D01*
X114071000Y-132871750D01*
X114071000Y-133971000D01*
X115420250Y-133971000D01*
X115579000Y-133812250D01*
X115582072Y-133348000D01*
X115569812Y-133223518D01*
X115533502Y-133103820D01*
X115474537Y-132993506D01*
X115395185Y-132896815D01*
X115298494Y-132817463D01*
X115188180Y-132758498D01*
X115068482Y-132722188D01*
X114944000Y-132709928D01*
X114229750Y-132713000D01*
X114071000Y-132871750D01*
X113817000Y-132871750D01*
X113658250Y-132713000D01*
X112944000Y-132709928D01*
X112819518Y-132722188D01*
X112699820Y-132758498D01*
X112589506Y-132817463D01*
X112492815Y-132896815D01*
X112413463Y-132993506D01*
X112354498Y-133103820D01*
X112318188Y-133223518D01*
X112305928Y-133348000D01*
X98525066Y-133348000D01*
X96818000Y-131640935D01*
X96818000Y-131431000D01*
X113836928Y-131431000D01*
X113849188Y-131555482D01*
X113885498Y-131675180D01*
X113944463Y-131785494D01*
X114023815Y-131882185D01*
X114120506Y-131961537D01*
X114230820Y-132020502D01*
X114350518Y-132056812D01*
X114475000Y-132069072D01*
X114814250Y-132066000D01*
X114973000Y-131907250D01*
X114973000Y-130683000D01*
X115227000Y-130683000D01*
X115227000Y-131907250D01*
X115385750Y-132066000D01*
X115725000Y-132069072D01*
X115849482Y-132056812D01*
X115969180Y-132020502D01*
X116079494Y-131961537D01*
X116176185Y-131882185D01*
X116255537Y-131785494D01*
X116314502Y-131675180D01*
X116350812Y-131555482D01*
X116363072Y-131431000D01*
X116360000Y-130841750D01*
X116201250Y-130683000D01*
X115227000Y-130683000D01*
X114973000Y-130683000D01*
X113998750Y-130683000D01*
X113840000Y-130841750D01*
X113836928Y-131431000D01*
X96818000Y-131431000D01*
X96818000Y-129681000D01*
X113836928Y-129681000D01*
X113840000Y-130270250D01*
X113998750Y-130429000D01*
X114973000Y-130429000D01*
X114973000Y-129204750D01*
X115227000Y-129204750D01*
X115227000Y-130429000D01*
X116201250Y-130429000D01*
X116360000Y-130270250D01*
X116363072Y-129681000D01*
X116350812Y-129556518D01*
X116314502Y-129436820D01*
X116255537Y-129326506D01*
X116176185Y-129229815D01*
X116079494Y-129150463D01*
X115969180Y-129091498D01*
X115849482Y-129055188D01*
X115725000Y-129042928D01*
X115385750Y-129046000D01*
X115227000Y-129204750D01*
X114973000Y-129204750D01*
X114814250Y-129046000D01*
X114475000Y-129042928D01*
X114350518Y-129055188D01*
X114230820Y-129091498D01*
X114120506Y-129150463D01*
X114023815Y-129229815D01*
X113944463Y-129326506D01*
X113885498Y-129436820D01*
X113849188Y-129556518D01*
X113836928Y-129681000D01*
X96818000Y-129681000D01*
X96818000Y-129493396D01*
X96872637Y-129438759D01*
X97029680Y-129203727D01*
X97137853Y-128942574D01*
X97193000Y-128665335D01*
X97193000Y-128382665D01*
X97137853Y-128105426D01*
X97029680Y-127844273D01*
X96872637Y-127609241D01*
X96672759Y-127409363D01*
X96437727Y-127252320D01*
X96176574Y-127144147D01*
X95899335Y-127089000D01*
X95616665Y-127089000D01*
X95339426Y-127144147D01*
X95078273Y-127252320D01*
X94843241Y-127409363D01*
X94643363Y-127609241D01*
X94486320Y-127844273D01*
X94378147Y-128105426D01*
X94323000Y-128382665D01*
X89576072Y-128382665D01*
X89576072Y-127724000D01*
X89563812Y-127599518D01*
X89527502Y-127479820D01*
X89468537Y-127369506D01*
X89389185Y-127272815D01*
X89292494Y-127193463D01*
X89182180Y-127134498D01*
X89062482Y-127098188D01*
X88938000Y-127085928D01*
X87338000Y-127085928D01*
X87213518Y-127098188D01*
X87093820Y-127134498D01*
X86983506Y-127193463D01*
X86886815Y-127272815D01*
X86807463Y-127369506D01*
X86748498Y-127479820D01*
X86712188Y-127599518D01*
X86699928Y-127724000D01*
X83197799Y-127724000D01*
X83208277Y-122934653D01*
X89365952Y-122934653D01*
X89521962Y-123250214D01*
X89896745Y-123441020D01*
X90301551Y-123555044D01*
X90720824Y-123587902D01*
X91138451Y-123538334D01*
X91538383Y-123408243D01*
X91834038Y-123250214D01*
X91990048Y-122934653D01*
X90678000Y-121622605D01*
X89365952Y-122934653D01*
X83208277Y-122934653D01*
X83211447Y-121485824D01*
X88533098Y-121485824D01*
X88582666Y-121903451D01*
X88712757Y-122303383D01*
X88870786Y-122599038D01*
X89186347Y-122755048D01*
X90498395Y-121443000D01*
X90857605Y-121443000D01*
X92169653Y-122755048D01*
X92485214Y-122599038D01*
X92676020Y-122224255D01*
X92790044Y-121819449D01*
X92822902Y-121400176D01*
X92773334Y-120982549D01*
X92643243Y-120582617D01*
X92485214Y-120286962D01*
X92169653Y-120130952D01*
X90857605Y-121443000D01*
X90498395Y-121443000D01*
X89186347Y-120130952D01*
X88870786Y-120286962D01*
X88679980Y-120661745D01*
X88565956Y-121066551D01*
X88533098Y-121485824D01*
X83211447Y-121485824D01*
X83214804Y-119951347D01*
X89365952Y-119951347D01*
X90678000Y-121263395D01*
X91990048Y-119951347D01*
X91834038Y-119635786D01*
X91459255Y-119444980D01*
X91054449Y-119330956D01*
X90635176Y-119298098D01*
X90217549Y-119347666D01*
X89817617Y-119477757D01*
X89521962Y-119635786D01*
X89365952Y-119951347D01*
X83214804Y-119951347D01*
X83238515Y-109114803D01*
X86699928Y-108935323D01*
X86699928Y-110528000D01*
X86712188Y-110652482D01*
X86748498Y-110772180D01*
X86807463Y-110882494D01*
X86886815Y-110979185D01*
X86983506Y-111058537D01*
X87078000Y-111109046D01*
X87078001Y-113850934D01*
X87072873Y-113903000D01*
X87093339Y-114110796D01*
X87153950Y-114310606D01*
X87224716Y-114443000D01*
X87252379Y-114494753D01*
X87384842Y-114656159D01*
X87425284Y-114689349D01*
X88539928Y-115803994D01*
X88539928Y-117943000D01*
X88552188Y-118067482D01*
X88588498Y-118187180D01*
X88647463Y-118297494D01*
X88726815Y-118394185D01*
X88823506Y-118473537D01*
X88933820Y-118532502D01*
X89053518Y-118568812D01*
X89178000Y-118581072D01*
X92178000Y-118581072D01*
X92302482Y-118568812D01*
X92422180Y-118532502D01*
X92532494Y-118473537D01*
X92629185Y-118394185D01*
X92708537Y-118297494D01*
X92767502Y-118187180D01*
X92803812Y-118067482D01*
X92816072Y-117943000D01*
X92816072Y-114943000D01*
X92803812Y-114818518D01*
X92767502Y-114698820D01*
X92708537Y-114588506D01*
X92629185Y-114491815D01*
X92532494Y-114412463D01*
X92422180Y-114353498D01*
X92302482Y-114317188D01*
X92178000Y-114304928D01*
X90038994Y-114304928D01*
X89198000Y-113463935D01*
X89198000Y-111109046D01*
X89292494Y-111058537D01*
X89389185Y-110979185D01*
X89468537Y-110882494D01*
X89527502Y-110772180D01*
X89563812Y-110652482D01*
X89576072Y-110528000D01*
X89576072Y-108928000D01*
X89563812Y-108803518D01*
X89558827Y-108787083D01*
X95005957Y-108504640D01*
X94843241Y-108613363D01*
X94643363Y-108813241D01*
X94486320Y-109048273D01*
X94378147Y-109309426D01*
X94323000Y-109586665D01*
X94323000Y-109869335D01*
X94378147Y-110146574D01*
X94486320Y-110407727D01*
X94643363Y-110642759D01*
X94843241Y-110842637D01*
X95078273Y-110999680D01*
X95339426Y-111107853D01*
X95616665Y-111163000D01*
X95899335Y-111163000D01*
X96176574Y-111107853D01*
X96437727Y-110999680D01*
X96672759Y-110842637D01*
X96727396Y-110788000D01*
X96842935Y-110788000D01*
X101997000Y-115942067D01*
X101997000Y-116239033D01*
X102059832Y-116554912D01*
X102183082Y-116852463D01*
X102362013Y-117120252D01*
X102589748Y-117347987D01*
X102857537Y-117526918D01*
X103155088Y-117650168D01*
X103470967Y-117713000D01*
X103793033Y-117713000D01*
X104108912Y-117650168D01*
X104406463Y-117526918D01*
X104674252Y-117347987D01*
X104901987Y-117120252D01*
X105080918Y-116852463D01*
X105204168Y-116554912D01*
X105267000Y-116239033D01*
X105267000Y-115916967D01*
X105204168Y-115601088D01*
X105080918Y-115303537D01*
X104901987Y-115035748D01*
X104674252Y-114808013D01*
X104406463Y-114629082D01*
X104108912Y-114505832D01*
X103793033Y-114443000D01*
X103496067Y-114443000D01*
X98068354Y-109015289D01*
X98035159Y-108974841D01*
X97873753Y-108842378D01*
X97689607Y-108743950D01*
X97489796Y-108683338D01*
X97334066Y-108668000D01*
X97334056Y-108668000D01*
X97282000Y-108662873D01*
X97229944Y-108668000D01*
X96727396Y-108668000D01*
X96672759Y-108613363D01*
X96437727Y-108456320D01*
X96382112Y-108433283D01*
X119849745Y-107216443D01*
X140248898Y-107252035D01*
G36*
X123003992Y-135162254D02*
G01*
X123054528Y-135328850D01*
X123136595Y-135482386D01*
X123247038Y-135616962D01*
X123381614Y-135727405D01*
X123535150Y-135809472D01*
X123701746Y-135860008D01*
X123875000Y-135877072D01*
X125125000Y-135877072D01*
X125137750Y-135875816D01*
X125416998Y-136155064D01*
X125375000Y-136150928D01*
X124785750Y-136154000D01*
X124627000Y-136312750D01*
X124627000Y-137287000D01*
X124647000Y-137287000D01*
X124647000Y-137541000D01*
X124627000Y-137541000D01*
X124627000Y-138515250D01*
X124785750Y-138674000D01*
X124840626Y-138674286D01*
X120074903Y-143440010D01*
X119160804Y-143440010D01*
X119160000Y-143285750D01*
X119001250Y-143127000D01*
X118027000Y-143127000D01*
X118027000Y-143147000D01*
X117773000Y-143147000D01*
X117773000Y-143127000D01*
X116798750Y-143127000D01*
X116640000Y-143285750D01*
X116639196Y-143440010D01*
X116363072Y-143440010D01*
X116363072Y-142375000D01*
X116346008Y-142201746D01*
X116322728Y-142125000D01*
X116636928Y-142125000D01*
X116640000Y-142714250D01*
X116798750Y-142873000D01*
X117773000Y-142873000D01*
X117773000Y-141648750D01*
X118027000Y-141648750D01*
X118027000Y-142873000D01*
X119001250Y-142873000D01*
X119160000Y-142714250D01*
X119163072Y-142125000D01*
X119150812Y-142000518D01*
X119114502Y-141880820D01*
X119055537Y-141770506D01*
X118976185Y-141673815D01*
X118879494Y-141594463D01*
X118769180Y-141535498D01*
X118649482Y-141499188D01*
X118525000Y-141486928D01*
X118185750Y-141490000D01*
X118027000Y-141648750D01*
X117773000Y-141648750D01*
X117614250Y-141490000D01*
X117275000Y-141486928D01*
X117150518Y-141499188D01*
X117030820Y-141535498D01*
X116920506Y-141594463D01*
X116823815Y-141673815D01*
X116744463Y-141770506D01*
X116685498Y-141880820D01*
X116649188Y-142000518D01*
X116636928Y-142125000D01*
X116322728Y-142125000D01*
X116295472Y-142035150D01*
X116213405Y-141881614D01*
X116102962Y-141747038D01*
X115968386Y-141636595D01*
X115814850Y-141554528D01*
X115648254Y-141503992D01*
X115475000Y-141486928D01*
X115085993Y-141486928D01*
X115004000Y-141404935D01*
X115004000Y-140080163D01*
X115068482Y-140073812D01*
X115188180Y-140037502D01*
X115298494Y-139978537D01*
X115395185Y-139899185D01*
X115474537Y-139802494D01*
X115533502Y-139692180D01*
X115569812Y-139572482D01*
X115582072Y-139448000D01*
X115582072Y-137948000D01*
X115569812Y-137823518D01*
X115533502Y-137703820D01*
X115474537Y-137593506D01*
X115437191Y-137548000D01*
X115474537Y-137502494D01*
X115511683Y-137433000D01*
X118605928Y-137433000D01*
X118605928Y-138298000D01*
X118618188Y-138422482D01*
X118654498Y-138542180D01*
X118713463Y-138652494D01*
X118792815Y-138749185D01*
X118889506Y-138828537D01*
X118999820Y-138887502D01*
X119119518Y-138923812D01*
X119244000Y-138936072D01*
X121244000Y-138936072D01*
X121368482Y-138923812D01*
X121488180Y-138887502D01*
X121598494Y-138828537D01*
X121695185Y-138749185D01*
X121774537Y-138652494D01*
X121833502Y-138542180D01*
X121869812Y-138422482D01*
X121882072Y-138298000D01*
X121882072Y-138039000D01*
X122986928Y-138039000D01*
X122999188Y-138163482D01*
X123035498Y-138283180D01*
X123094463Y-138393494D01*
X123173815Y-138490185D01*
X123270506Y-138569537D01*
X123380820Y-138628502D01*
X123500518Y-138664812D01*
X123625000Y-138677072D01*
X124214250Y-138674000D01*
X124373000Y-138515250D01*
X124373000Y-137541000D01*
X123148750Y-137541000D01*
X122990000Y-137699750D01*
X122986928Y-138039000D01*
X121882072Y-138039000D01*
X121882072Y-136789000D01*
X122986928Y-136789000D01*
X122990000Y-137128250D01*
X123148750Y-137287000D01*
X124373000Y-137287000D01*
X124373000Y-136312750D01*
X124214250Y-136154000D01*
X123625000Y-136150928D01*
X123500518Y-136163188D01*
X123380820Y-136199498D01*
X123270506Y-136258463D01*
X123173815Y-136337815D01*
X123094463Y-136434506D01*
X123035498Y-136544820D01*
X122999188Y-136664518D01*
X122986928Y-136789000D01*
X121882072Y-136789000D01*
X121882072Y-136258993D01*
X123001734Y-135139331D01*
X123003992Y-135162254D01*
G37*
X123003992Y-135162254D02*
X123054528Y-135328850D01*
X123136595Y-135482386D01*
X123247038Y-135616962D01*
X123381614Y-135727405D01*
X123535150Y-135809472D01*
X123701746Y-135860008D01*
X123875000Y-135877072D01*
X125125000Y-135877072D01*
X125137750Y-135875816D01*
X125416998Y-136155064D01*
X125375000Y-136150928D01*
X124785750Y-136154000D01*
X124627000Y-136312750D01*
X124627000Y-137287000D01*
X124647000Y-137287000D01*
X124647000Y-137541000D01*
X124627000Y-137541000D01*
X124627000Y-138515250D01*
X124785750Y-138674000D01*
X124840626Y-138674286D01*
X120074903Y-143440010D01*
X119160804Y-143440010D01*
X119160000Y-143285750D01*
X119001250Y-143127000D01*
X118027000Y-143127000D01*
X118027000Y-143147000D01*
X117773000Y-143147000D01*
X117773000Y-143127000D01*
X116798750Y-143127000D01*
X116640000Y-143285750D01*
X116639196Y-143440010D01*
X116363072Y-143440010D01*
X116363072Y-142375000D01*
X116346008Y-142201746D01*
X116322728Y-142125000D01*
X116636928Y-142125000D01*
X116640000Y-142714250D01*
X116798750Y-142873000D01*
X117773000Y-142873000D01*
X117773000Y-141648750D01*
X118027000Y-141648750D01*
X118027000Y-142873000D01*
X119001250Y-142873000D01*
X119160000Y-142714250D01*
X119163072Y-142125000D01*
X119150812Y-142000518D01*
X119114502Y-141880820D01*
X119055537Y-141770506D01*
X118976185Y-141673815D01*
X118879494Y-141594463D01*
X118769180Y-141535498D01*
X118649482Y-141499188D01*
X118525000Y-141486928D01*
X118185750Y-141490000D01*
X118027000Y-141648750D01*
X117773000Y-141648750D01*
X117614250Y-141490000D01*
X117275000Y-141486928D01*
X117150518Y-141499188D01*
X117030820Y-141535498D01*
X116920506Y-141594463D01*
X116823815Y-141673815D01*
X116744463Y-141770506D01*
X116685498Y-141880820D01*
X116649188Y-142000518D01*
X116636928Y-142125000D01*
X116322728Y-142125000D01*
X116295472Y-142035150D01*
X116213405Y-141881614D01*
X116102962Y-141747038D01*
X115968386Y-141636595D01*
X115814850Y-141554528D01*
X115648254Y-141503992D01*
X115475000Y-141486928D01*
X115085993Y-141486928D01*
X115004000Y-141404935D01*
X115004000Y-140080163D01*
X115068482Y-140073812D01*
X115188180Y-140037502D01*
X115298494Y-139978537D01*
X115395185Y-139899185D01*
X115474537Y-139802494D01*
X115533502Y-139692180D01*
X115569812Y-139572482D01*
X115582072Y-139448000D01*
X115582072Y-137948000D01*
X115569812Y-137823518D01*
X115533502Y-137703820D01*
X115474537Y-137593506D01*
X115437191Y-137548000D01*
X115474537Y-137502494D01*
X115511683Y-137433000D01*
X118605928Y-137433000D01*
X118605928Y-138298000D01*
X118618188Y-138422482D01*
X118654498Y-138542180D01*
X118713463Y-138652494D01*
X118792815Y-138749185D01*
X118889506Y-138828537D01*
X118999820Y-138887502D01*
X119119518Y-138923812D01*
X119244000Y-138936072D01*
X121244000Y-138936072D01*
X121368482Y-138923812D01*
X121488180Y-138887502D01*
X121598494Y-138828537D01*
X121695185Y-138749185D01*
X121774537Y-138652494D01*
X121833502Y-138542180D01*
X121869812Y-138422482D01*
X121882072Y-138298000D01*
X121882072Y-138039000D01*
X122986928Y-138039000D01*
X122999188Y-138163482D01*
X123035498Y-138283180D01*
X123094463Y-138393494D01*
X123173815Y-138490185D01*
X123270506Y-138569537D01*
X123380820Y-138628502D01*
X123500518Y-138664812D01*
X123625000Y-138677072D01*
X124214250Y-138674000D01*
X124373000Y-138515250D01*
X124373000Y-137541000D01*
X123148750Y-137541000D01*
X122990000Y-137699750D01*
X122986928Y-138039000D01*
X121882072Y-138039000D01*
X121882072Y-136789000D01*
X122986928Y-136789000D01*
X122990000Y-137128250D01*
X123148750Y-137287000D01*
X124373000Y-137287000D01*
X124373000Y-136312750D01*
X124214250Y-136154000D01*
X123625000Y-136150928D01*
X123500518Y-136163188D01*
X123380820Y-136199498D01*
X123270506Y-136258463D01*
X123173815Y-136337815D01*
X123094463Y-136434506D01*
X123035498Y-136544820D01*
X122999188Y-136664518D01*
X122986928Y-136789000D01*
X121882072Y-136789000D01*
X121882072Y-136258993D01*
X123001734Y-135139331D01*
X123003992Y-135162254D01*
G36*
X126875820Y-123339530D02*
G01*
X126785750Y-123340000D01*
X126627000Y-123498750D01*
X126627000Y-124473000D01*
X127851250Y-124473000D01*
X127946519Y-124377731D01*
X128018309Y-124416104D01*
X128102007Y-124460841D01*
X128297105Y-124520024D01*
X128449162Y-124535000D01*
X128449171Y-124535000D01*
X128499999Y-124540006D01*
X128550827Y-124535000D01*
X130884082Y-124535000D01*
X132311009Y-125961928D01*
X130600000Y-125961928D01*
X130475518Y-125974188D01*
X130355820Y-126010498D01*
X130245506Y-126069463D01*
X130148815Y-126148815D01*
X130069463Y-126245506D01*
X130010498Y-126355820D01*
X129977379Y-126465000D01*
X127808737Y-126465000D01*
X127752962Y-126397038D01*
X127618386Y-126286595D01*
X127464850Y-126204528D01*
X127298254Y-126153992D01*
X127125000Y-126136928D01*
X125875000Y-126136928D01*
X125701746Y-126153992D01*
X125535150Y-126204528D01*
X125381614Y-126286595D01*
X125247038Y-126397038D01*
X125136595Y-126531614D01*
X125054528Y-126685150D01*
X125003992Y-126851746D01*
X124986928Y-127025000D01*
X124986928Y-127775000D01*
X125003992Y-127948254D01*
X125054528Y-128114850D01*
X125136595Y-128268386D01*
X125247038Y-128402962D01*
X125381614Y-128513405D01*
X125535150Y-128595472D01*
X125701746Y-128646008D01*
X125875000Y-128663072D01*
X127125000Y-128663072D01*
X127298254Y-128646008D01*
X127464850Y-128595472D01*
X127577985Y-128535000D01*
X129977379Y-128535000D01*
X130010498Y-128644180D01*
X130069463Y-128754494D01*
X130148815Y-128851185D01*
X130245506Y-128930537D01*
X130355820Y-128989502D01*
X130475518Y-129025812D01*
X130600000Y-129038072D01*
X132400000Y-129038072D01*
X132524482Y-129025812D01*
X132644180Y-128989502D01*
X132754494Y-128930537D01*
X132851185Y-128851185D01*
X132930537Y-128754494D01*
X132989502Y-128644180D01*
X132995056Y-128625873D01*
X133061495Y-128692312D01*
X133312905Y-128860299D01*
X133592257Y-128976011D01*
X133888816Y-129035000D01*
X133965935Y-129035000D01*
X133060935Y-129940000D01*
X126081067Y-129940000D01*
X123468353Y-127327288D01*
X123435159Y-127286841D01*
X123311259Y-127185158D01*
X123368215Y-126997400D01*
X123390612Y-126770000D01*
X123368215Y-126542600D01*
X123304907Y-126333902D01*
X123339502Y-126269180D01*
X123375812Y-126149482D01*
X123388072Y-126025000D01*
X123388072Y-125575638D01*
X123738710Y-125225000D01*
X124986928Y-125225000D01*
X124999188Y-125349482D01*
X125035498Y-125469180D01*
X125094463Y-125579494D01*
X125173815Y-125676185D01*
X125270506Y-125755537D01*
X125380820Y-125814502D01*
X125500518Y-125850812D01*
X125625000Y-125863072D01*
X126214250Y-125860000D01*
X126373000Y-125701250D01*
X126373000Y-124727000D01*
X126627000Y-124727000D01*
X126627000Y-125701250D01*
X126785750Y-125860000D01*
X127375000Y-125863072D01*
X127499482Y-125850812D01*
X127619180Y-125814502D01*
X127729494Y-125755537D01*
X127826185Y-125676185D01*
X127905537Y-125579494D01*
X127964502Y-125469180D01*
X128000812Y-125349482D01*
X128013072Y-125225000D01*
X128010000Y-124885750D01*
X127851250Y-124727000D01*
X126627000Y-124727000D01*
X126373000Y-124727000D01*
X125148750Y-124727000D01*
X124990000Y-124885750D01*
X124986928Y-125225000D01*
X123738710Y-125225000D01*
X124986944Y-123976767D01*
X124990000Y-124314250D01*
X125148750Y-124473000D01*
X126373000Y-124473000D01*
X126373000Y-123498750D01*
X126214250Y-123340000D01*
X125626774Y-123336937D01*
X125928711Y-123035000D01*
X126571290Y-123035000D01*
X126875820Y-123339530D01*
G37*
X126875820Y-123339530D02*
X126785750Y-123340000D01*
X126627000Y-123498750D01*
X126627000Y-124473000D01*
X127851250Y-124473000D01*
X127946519Y-124377731D01*
X128018309Y-124416104D01*
X128102007Y-124460841D01*
X128297105Y-124520024D01*
X128449162Y-124535000D01*
X128449171Y-124535000D01*
X128499999Y-124540006D01*
X128550827Y-124535000D01*
X130884082Y-124535000D01*
X132311009Y-125961928D01*
X130600000Y-125961928D01*
X130475518Y-125974188D01*
X130355820Y-126010498D01*
X130245506Y-126069463D01*
X130148815Y-126148815D01*
X130069463Y-126245506D01*
X130010498Y-126355820D01*
X129977379Y-126465000D01*
X127808737Y-126465000D01*
X127752962Y-126397038D01*
X127618386Y-126286595D01*
X127464850Y-126204528D01*
X127298254Y-126153992D01*
X127125000Y-126136928D01*
X125875000Y-126136928D01*
X125701746Y-126153992D01*
X125535150Y-126204528D01*
X125381614Y-126286595D01*
X125247038Y-126397038D01*
X125136595Y-126531614D01*
X125054528Y-126685150D01*
X125003992Y-126851746D01*
X124986928Y-127025000D01*
X124986928Y-127775000D01*
X125003992Y-127948254D01*
X125054528Y-128114850D01*
X125136595Y-128268386D01*
X125247038Y-128402962D01*
X125381614Y-128513405D01*
X125535150Y-128595472D01*
X125701746Y-128646008D01*
X125875000Y-128663072D01*
X127125000Y-128663072D01*
X127298254Y-128646008D01*
X127464850Y-128595472D01*
X127577985Y-128535000D01*
X129977379Y-128535000D01*
X130010498Y-128644180D01*
X130069463Y-128754494D01*
X130148815Y-128851185D01*
X130245506Y-128930537D01*
X130355820Y-128989502D01*
X130475518Y-129025812D01*
X130600000Y-129038072D01*
X132400000Y-129038072D01*
X132524482Y-129025812D01*
X132644180Y-128989502D01*
X132754494Y-128930537D01*
X132851185Y-128851185D01*
X132930537Y-128754494D01*
X132989502Y-128644180D01*
X132995056Y-128625873D01*
X133061495Y-128692312D01*
X133312905Y-128860299D01*
X133592257Y-128976011D01*
X133888816Y-129035000D01*
X133965935Y-129035000D01*
X133060935Y-129940000D01*
X126081067Y-129940000D01*
X123468353Y-127327288D01*
X123435159Y-127286841D01*
X123311259Y-127185158D01*
X123368215Y-126997400D01*
X123390612Y-126770000D01*
X123368215Y-126542600D01*
X123304907Y-126333902D01*
X123339502Y-126269180D01*
X123375812Y-126149482D01*
X123388072Y-126025000D01*
X123388072Y-125575638D01*
X123738710Y-125225000D01*
X124986928Y-125225000D01*
X124999188Y-125349482D01*
X125035498Y-125469180D01*
X125094463Y-125579494D01*
X125173815Y-125676185D01*
X125270506Y-125755537D01*
X125380820Y-125814502D01*
X125500518Y-125850812D01*
X125625000Y-125863072D01*
X126214250Y-125860000D01*
X126373000Y-125701250D01*
X126373000Y-124727000D01*
X126627000Y-124727000D01*
X126627000Y-125701250D01*
X126785750Y-125860000D01*
X127375000Y-125863072D01*
X127499482Y-125850812D01*
X127619180Y-125814502D01*
X127729494Y-125755537D01*
X127826185Y-125676185D01*
X127905537Y-125579494D01*
X127964502Y-125469180D01*
X128000812Y-125349482D01*
X128013072Y-125225000D01*
X128010000Y-124885750D01*
X127851250Y-124727000D01*
X126627000Y-124727000D01*
X126373000Y-124727000D01*
X125148750Y-124727000D01*
X124990000Y-124885750D01*
X124986928Y-125225000D01*
X123738710Y-125225000D01*
X124986944Y-123976767D01*
X124990000Y-124314250D01*
X125148750Y-124473000D01*
X126373000Y-124473000D01*
X126373000Y-123498750D01*
X126214250Y-123340000D01*
X125626774Y-123336937D01*
X125928711Y-123035000D01*
X126571290Y-123035000D01*
X126875820Y-123339530D01*
M02*
