G04 #@! TF.GenerationSoftware,KiCad,Pcbnew,(5.1.6)-1*
G04 #@! TF.CreationDate,2021-06-24T11:46:10+03:00*
G04 #@! TF.ProjectId,power supply,706f7765-7220-4737-9570-706c792e6b69,rev?*
G04 #@! TF.SameCoordinates,Original*
G04 #@! TF.FileFunction,Copper,L2,Bot*
G04 #@! TF.FilePolarity,Positive*
%FSLAX46Y46*%
G04 Gerber Fmt 4.6, Leading zero omitted, Abs format (unit mm)*
G04 Created by KiCad (PCBNEW (5.1.6)-1) date 2021-06-24 11:46:10*
%MOMM*%
%LPD*%
G01*
G04 APERTURE LIST*
G04 #@! TA.AperFunction,ComponentPad*
%ADD10C,5.400000*%
G04 #@! TD*
G04 #@! TA.AperFunction,ComponentPad*
%ADD11C,0.800000*%
G04 #@! TD*
G04 #@! TA.AperFunction,ComponentPad*
%ADD12C,2.000000*%
G04 #@! TD*
G04 #@! TA.AperFunction,ComponentPad*
%ADD13R,1.800000X1.800000*%
G04 #@! TD*
G04 #@! TA.AperFunction,ComponentPad*
%ADD14C,1.800000*%
G04 #@! TD*
G04 #@! TA.AperFunction,ComponentPad*
%ADD15C,3.000000*%
G04 #@! TD*
G04 #@! TA.AperFunction,ComponentPad*
%ADD16R,3.000000X3.000000*%
G04 #@! TD*
G04 #@! TA.AperFunction,ComponentPad*
%ADD17O,1.600000X1.600000*%
G04 #@! TD*
G04 #@! TA.AperFunction,ComponentPad*
%ADD18R,1.600000X1.600000*%
G04 #@! TD*
G04 #@! TA.AperFunction,ComponentPad*
%ADD19R,1.500000X1.050000*%
G04 #@! TD*
G04 #@! TA.AperFunction,ComponentPad*
%ADD20O,1.500000X1.050000*%
G04 #@! TD*
G04 #@! TA.AperFunction,ViaPad*
%ADD21C,0.800000*%
G04 #@! TD*
G04 #@! TA.AperFunction,Conductor*
%ADD22C,0.800000*%
G04 #@! TD*
G04 #@! TA.AperFunction,Conductor*
%ADD23C,0.254000*%
G04 #@! TD*
G04 APERTURE END LIST*
D10*
X148000000Y-146500000D03*
D11*
X150025000Y-146500000D03*
X149431891Y-147931891D03*
X148000000Y-148525000D03*
X146568109Y-147931891D03*
X145975000Y-146500000D03*
X146568109Y-145068109D03*
X148000000Y-144475000D03*
X149431891Y-145068109D03*
X86931891Y-144568109D03*
X85500000Y-143975000D03*
X84068109Y-144568109D03*
X83475000Y-146000000D03*
X84068109Y-147431891D03*
X85500000Y-148025000D03*
X86931891Y-147431891D03*
X87525000Y-146000000D03*
D10*
X85500000Y-146000000D03*
D12*
X131074000Y-116078000D03*
X131064000Y-121158000D03*
D13*
X131500000Y-127500000D03*
D14*
X134040000Y-127500000D03*
D12*
X106162000Y-137414000D03*
X101082000Y-137404000D03*
X103632000Y-116078000D03*
X103622000Y-121158000D03*
X131064000Y-139954000D03*
X131074000Y-134874000D03*
D15*
X90678000Y-121443000D03*
D16*
X90678000Y-116443000D03*
X90678000Y-135382000D03*
D15*
X90678000Y-140382000D03*
X143764000Y-135097000D03*
D16*
X143764000Y-140097000D03*
X144018000Y-121158000D03*
D15*
X144018000Y-116158000D03*
D17*
X95758000Y-128524000D03*
D18*
X88138000Y-128524000D03*
X88138000Y-109728000D03*
D17*
X95758000Y-109728000D03*
D13*
X132500000Y-111500000D03*
D14*
X132500000Y-108960000D03*
D19*
X122000000Y-125500000D03*
D20*
X122000000Y-128040000D03*
X122000000Y-126770000D03*
X123500000Y-110270000D03*
X123500000Y-111540000D03*
D19*
X123500000Y-109000000D03*
D21*
X110000000Y-130000000D03*
X120500000Y-113000000D03*
X110500000Y-113500000D03*
X113000000Y-113500000D03*
X117900000Y-122600000D03*
X126500000Y-125500000D03*
X122500000Y-121000000D03*
X140000000Y-110500000D03*
X113500000Y-129500000D03*
X124500000Y-138500000D03*
X120000000Y-143475010D03*
X112000000Y-133000000D03*
X98500000Y-143500000D03*
X137000000Y-117500000D03*
X136000000Y-131500000D03*
D22*
X114500000Y-143000000D02*
X118000000Y-143000000D01*
X110000000Y-130000000D02*
X110000000Y-138500000D01*
X110000000Y-138500000D02*
X114500000Y-143000000D01*
X120500000Y-113000000D02*
X120500000Y-115500000D01*
X120500000Y-115500000D02*
X124000000Y-119000000D01*
X118000000Y-143000000D02*
X119524990Y-143000000D01*
X119524990Y-143000000D02*
X120000000Y-143475010D01*
X137000000Y-116000000D02*
X132500000Y-111500000D01*
X137000000Y-117500000D02*
X137000000Y-116000000D01*
X122000000Y-126770000D02*
X123270000Y-126770000D01*
X123270000Y-126770000D02*
X126500000Y-130000000D01*
X126500000Y-130000000D02*
X130000000Y-130000000D01*
X130000000Y-130000000D02*
X132000000Y-132000000D01*
X132000000Y-132000000D02*
X135500000Y-132000000D01*
X135500000Y-132000000D02*
X136000000Y-131500000D01*
D23*
G36*
X150373000Y-106786773D02*
G01*
X150364288Y-106821607D01*
X150350554Y-106865669D01*
X150340266Y-106962557D01*
X150059287Y-143865000D01*
X149579715Y-143544561D01*
X148972784Y-143293162D01*
X148328469Y-143165000D01*
X147671531Y-143165000D01*
X147027216Y-143293162D01*
X146420285Y-143544561D01*
X145874061Y-143909536D01*
X145409536Y-144374061D01*
X145102871Y-144833017D01*
X88450820Y-144413373D01*
X88090464Y-143874061D01*
X87625939Y-143409536D01*
X87079715Y-143044561D01*
X86472784Y-142793162D01*
X85828469Y-142665000D01*
X85171531Y-142665000D01*
X84527216Y-142793162D01*
X83920285Y-143044561D01*
X83374061Y-143409536D01*
X83163019Y-143620578D01*
X83166840Y-141873653D01*
X89365952Y-141873653D01*
X89521962Y-142189214D01*
X89896745Y-142380020D01*
X90301551Y-142494044D01*
X90720824Y-142526902D01*
X91138451Y-142477334D01*
X91538383Y-142347243D01*
X91834038Y-142189214D01*
X91990048Y-141873653D01*
X90678000Y-140561605D01*
X89365952Y-141873653D01*
X83166840Y-141873653D01*
X83170010Y-140424824D01*
X88533098Y-140424824D01*
X88582666Y-140842451D01*
X88712757Y-141242383D01*
X88870786Y-141538038D01*
X89186347Y-141694048D01*
X90498395Y-140382000D01*
X90857605Y-140382000D01*
X92169653Y-141694048D01*
X92485214Y-141538038D01*
X92676020Y-141163255D01*
X92790044Y-140758449D01*
X92822902Y-140339176D01*
X92773334Y-139921549D01*
X92731509Y-139792967D01*
X129429000Y-139792967D01*
X129429000Y-140115033D01*
X129491832Y-140430912D01*
X129615082Y-140728463D01*
X129794013Y-140996252D01*
X130021748Y-141223987D01*
X130289537Y-141402918D01*
X130587088Y-141526168D01*
X130902967Y-141589000D01*
X131225033Y-141589000D01*
X131540912Y-141526168D01*
X131838463Y-141402918D01*
X132106252Y-141223987D01*
X132333987Y-140996252D01*
X132512918Y-140728463D01*
X132636168Y-140430912D01*
X132699000Y-140115033D01*
X132699000Y-139792967D01*
X132636168Y-139477088D01*
X132512918Y-139179537D01*
X132333987Y-138911748D01*
X132106252Y-138684013D01*
X131976028Y-138597000D01*
X141625928Y-138597000D01*
X141625928Y-141597000D01*
X141638188Y-141721482D01*
X141674498Y-141841180D01*
X141733463Y-141951494D01*
X141812815Y-142048185D01*
X141909506Y-142127537D01*
X142019820Y-142186502D01*
X142139518Y-142222812D01*
X142264000Y-142235072D01*
X145264000Y-142235072D01*
X145388482Y-142222812D01*
X145508180Y-142186502D01*
X145618494Y-142127537D01*
X145715185Y-142048185D01*
X145794537Y-141951494D01*
X145853502Y-141841180D01*
X145889812Y-141721482D01*
X145902072Y-141597000D01*
X145902072Y-138597000D01*
X145889812Y-138472518D01*
X145853502Y-138352820D01*
X145794537Y-138242506D01*
X145715185Y-138145815D01*
X145618494Y-138066463D01*
X145508180Y-138007498D01*
X145388482Y-137971188D01*
X145264000Y-137958928D01*
X142264000Y-137958928D01*
X142139518Y-137971188D01*
X142019820Y-138007498D01*
X141909506Y-138066463D01*
X141812815Y-138145815D01*
X141733463Y-138242506D01*
X141674498Y-138352820D01*
X141638188Y-138472518D01*
X141625928Y-138597000D01*
X131976028Y-138597000D01*
X131838463Y-138505082D01*
X131540912Y-138381832D01*
X131225033Y-138319000D01*
X130902967Y-138319000D01*
X130587088Y-138381832D01*
X130289537Y-138505082D01*
X130021748Y-138684013D01*
X129794013Y-138911748D01*
X129615082Y-139179537D01*
X129491832Y-139477088D01*
X129429000Y-139792967D01*
X92731509Y-139792967D01*
X92643243Y-139521617D01*
X92485214Y-139225962D01*
X92169653Y-139069952D01*
X90857605Y-140382000D01*
X90498395Y-140382000D01*
X89186347Y-139069952D01*
X88870786Y-139225962D01*
X88679980Y-139600745D01*
X88565956Y-140005551D01*
X88533098Y-140424824D01*
X83170010Y-140424824D01*
X83173367Y-138890347D01*
X89365952Y-138890347D01*
X90678000Y-140202395D01*
X91990048Y-138890347D01*
X91834038Y-138574786D01*
X91459255Y-138383980D01*
X91054449Y-138269956D01*
X90635176Y-138237098D01*
X90217549Y-138286666D01*
X89817617Y-138416757D01*
X89521962Y-138574786D01*
X89365952Y-138890347D01*
X83173367Y-138890347D01*
X83184325Y-133882000D01*
X88539928Y-133882000D01*
X88539928Y-136882000D01*
X88552188Y-137006482D01*
X88588498Y-137126180D01*
X88647463Y-137236494D01*
X88726815Y-137333185D01*
X88823506Y-137412537D01*
X88933820Y-137471502D01*
X89053518Y-137507812D01*
X89178000Y-137520072D01*
X92178000Y-137520072D01*
X92302482Y-137507812D01*
X92422180Y-137471502D01*
X92532494Y-137412537D01*
X92629185Y-137333185D01*
X92703224Y-137242967D01*
X99447000Y-137242967D01*
X99447000Y-137565033D01*
X99509832Y-137880912D01*
X99633082Y-138178463D01*
X99812013Y-138446252D01*
X100039748Y-138673987D01*
X100307537Y-138852918D01*
X100605088Y-138976168D01*
X100920967Y-139039000D01*
X101243033Y-139039000D01*
X101558912Y-138976168D01*
X101856463Y-138852918D01*
X102124252Y-138673987D01*
X102351987Y-138446252D01*
X102530918Y-138178463D01*
X102654168Y-137880912D01*
X102717000Y-137565033D01*
X102717000Y-137252967D01*
X104527000Y-137252967D01*
X104527000Y-137575033D01*
X104589832Y-137890912D01*
X104713082Y-138188463D01*
X104892013Y-138456252D01*
X105119748Y-138683987D01*
X105387537Y-138862918D01*
X105685088Y-138986168D01*
X106000967Y-139049000D01*
X106323033Y-139049000D01*
X106638912Y-138986168D01*
X106936463Y-138862918D01*
X107204252Y-138683987D01*
X107431987Y-138456252D01*
X107610918Y-138188463D01*
X107734168Y-137890912D01*
X107797000Y-137575033D01*
X107797000Y-137252967D01*
X107734168Y-136937088D01*
X107610918Y-136639537D01*
X107576919Y-136588653D01*
X142451952Y-136588653D01*
X142607962Y-136904214D01*
X142982745Y-137095020D01*
X143387551Y-137209044D01*
X143806824Y-137241902D01*
X144224451Y-137192334D01*
X144624383Y-137062243D01*
X144920038Y-136904214D01*
X145076048Y-136588653D01*
X143764000Y-135276605D01*
X142451952Y-136588653D01*
X107576919Y-136588653D01*
X107431987Y-136371748D01*
X107204252Y-136144013D01*
X106936463Y-135965082D01*
X106638912Y-135841832D01*
X106323033Y-135779000D01*
X106000967Y-135779000D01*
X105685088Y-135841832D01*
X105387537Y-135965082D01*
X105119748Y-136144013D01*
X104892013Y-136371748D01*
X104713082Y-136639537D01*
X104589832Y-136937088D01*
X104527000Y-137252967D01*
X102717000Y-137252967D01*
X102717000Y-137242967D01*
X102654168Y-136927088D01*
X102530918Y-136629537D01*
X102351987Y-136361748D01*
X102124252Y-136134013D01*
X101856463Y-135955082D01*
X101558912Y-135831832D01*
X101243033Y-135769000D01*
X100920967Y-135769000D01*
X100605088Y-135831832D01*
X100307537Y-135955082D01*
X100039748Y-136134013D01*
X99812013Y-136361748D01*
X99633082Y-136629537D01*
X99509832Y-136927088D01*
X99447000Y-137242967D01*
X92703224Y-137242967D01*
X92708537Y-137236494D01*
X92767502Y-137126180D01*
X92803812Y-137006482D01*
X92816072Y-136882000D01*
X92816072Y-134712967D01*
X129439000Y-134712967D01*
X129439000Y-135035033D01*
X129501832Y-135350912D01*
X129625082Y-135648463D01*
X129804013Y-135916252D01*
X130031748Y-136143987D01*
X130299537Y-136322918D01*
X130597088Y-136446168D01*
X130912967Y-136509000D01*
X131235033Y-136509000D01*
X131550912Y-136446168D01*
X131848463Y-136322918D01*
X132116252Y-136143987D01*
X132343987Y-135916252D01*
X132522918Y-135648463D01*
X132646168Y-135350912D01*
X132688155Y-135139824D01*
X141619098Y-135139824D01*
X141668666Y-135557451D01*
X141798757Y-135957383D01*
X141956786Y-136253038D01*
X142272347Y-136409048D01*
X143584395Y-135097000D01*
X143943605Y-135097000D01*
X145255653Y-136409048D01*
X145571214Y-136253038D01*
X145762020Y-135878255D01*
X145876044Y-135473449D01*
X145908902Y-135054176D01*
X145859334Y-134636549D01*
X145729243Y-134236617D01*
X145571214Y-133940962D01*
X145255653Y-133784952D01*
X143943605Y-135097000D01*
X143584395Y-135097000D01*
X142272347Y-133784952D01*
X141956786Y-133940962D01*
X141765980Y-134315745D01*
X141651956Y-134720551D01*
X141619098Y-135139824D01*
X132688155Y-135139824D01*
X132709000Y-135035033D01*
X132709000Y-134712967D01*
X132646168Y-134397088D01*
X132522918Y-134099537D01*
X132343987Y-133831748D01*
X132117586Y-133605347D01*
X142451952Y-133605347D01*
X143764000Y-134917395D01*
X145076048Y-133605347D01*
X144920038Y-133289786D01*
X144545255Y-133098980D01*
X144140449Y-132984956D01*
X143721176Y-132952098D01*
X143303549Y-133001666D01*
X142903617Y-133131757D01*
X142607962Y-133289786D01*
X142451952Y-133605347D01*
X132117586Y-133605347D01*
X132116252Y-133604013D01*
X131848463Y-133425082D01*
X131550912Y-133301832D01*
X131235033Y-133239000D01*
X130912967Y-133239000D01*
X130597088Y-133301832D01*
X130299537Y-133425082D01*
X130031748Y-133604013D01*
X129804013Y-133831748D01*
X129625082Y-134099537D01*
X129501832Y-134397088D01*
X129439000Y-134712967D01*
X92816072Y-134712967D01*
X92816072Y-133882000D01*
X92803812Y-133757518D01*
X92767502Y-133637820D01*
X92708537Y-133527506D01*
X92629185Y-133430815D01*
X92532494Y-133351463D01*
X92422180Y-133292498D01*
X92302482Y-133256188D01*
X92178000Y-133243928D01*
X89178000Y-133243928D01*
X89053518Y-133256188D01*
X88933820Y-133292498D01*
X88823506Y-133351463D01*
X88726815Y-133430815D01*
X88647463Y-133527506D01*
X88588498Y-133637820D01*
X88552188Y-133757518D01*
X88539928Y-133882000D01*
X83184325Y-133882000D01*
X83197799Y-127724000D01*
X86699928Y-127724000D01*
X86699928Y-129324000D01*
X86712188Y-129448482D01*
X86748498Y-129568180D01*
X86807463Y-129678494D01*
X86886815Y-129775185D01*
X86983506Y-129854537D01*
X87093820Y-129913502D01*
X87213518Y-129949812D01*
X87338000Y-129962072D01*
X88938000Y-129962072D01*
X89062482Y-129949812D01*
X89182180Y-129913502D01*
X89292494Y-129854537D01*
X89389185Y-129775185D01*
X89468537Y-129678494D01*
X89527502Y-129568180D01*
X89563812Y-129448482D01*
X89576072Y-129324000D01*
X89576072Y-128382665D01*
X94323000Y-128382665D01*
X94323000Y-128665335D01*
X94378147Y-128942574D01*
X94486320Y-129203727D01*
X94643363Y-129438759D01*
X94843241Y-129638637D01*
X95078273Y-129795680D01*
X95339426Y-129903853D01*
X95616665Y-129959000D01*
X95899335Y-129959000D01*
X96176574Y-129903853D01*
X96437727Y-129795680D01*
X96672759Y-129638637D01*
X96872637Y-129438759D01*
X97029680Y-129203727D01*
X97137853Y-128942574D01*
X97193000Y-128665335D01*
X97193000Y-128382665D01*
X97137853Y-128105426D01*
X97029680Y-127844273D01*
X96872637Y-127609241D01*
X96672759Y-127409363D01*
X96437727Y-127252320D01*
X96176574Y-127144147D01*
X95899335Y-127089000D01*
X95616665Y-127089000D01*
X95339426Y-127144147D01*
X95078273Y-127252320D01*
X94843241Y-127409363D01*
X94643363Y-127609241D01*
X94486320Y-127844273D01*
X94378147Y-128105426D01*
X94323000Y-128382665D01*
X89576072Y-128382665D01*
X89576072Y-127724000D01*
X89563812Y-127599518D01*
X89527502Y-127479820D01*
X89468537Y-127369506D01*
X89389185Y-127272815D01*
X89292494Y-127193463D01*
X89182180Y-127134498D01*
X89062482Y-127098188D01*
X88938000Y-127085928D01*
X87338000Y-127085928D01*
X87213518Y-127098188D01*
X87093820Y-127134498D01*
X86983506Y-127193463D01*
X86886815Y-127272815D01*
X86807463Y-127369506D01*
X86748498Y-127479820D01*
X86712188Y-127599518D01*
X86699928Y-127724000D01*
X83197799Y-127724000D01*
X83199886Y-126770000D01*
X120609388Y-126770000D01*
X120631785Y-126997400D01*
X120698115Y-127216060D01*
X120799105Y-127405000D01*
X120698115Y-127593940D01*
X120631785Y-127812600D01*
X120609388Y-128040000D01*
X120631785Y-128267400D01*
X120698115Y-128486060D01*
X120805829Y-128687579D01*
X120950788Y-128864212D01*
X121127421Y-129009171D01*
X121328940Y-129116885D01*
X121547600Y-129183215D01*
X121718021Y-129200000D01*
X122281979Y-129200000D01*
X122452400Y-129183215D01*
X122671060Y-129116885D01*
X122872579Y-129009171D01*
X123049212Y-128864212D01*
X123194171Y-128687579D01*
X123301885Y-128486060D01*
X123353197Y-128316907D01*
X125732196Y-130695907D01*
X125764604Y-130735396D01*
X125804092Y-130767803D01*
X125922202Y-130864734D01*
X126018309Y-130916104D01*
X126102007Y-130960841D01*
X126297105Y-131020024D01*
X126449162Y-131035000D01*
X126449165Y-131035000D01*
X126500000Y-131040007D01*
X126550835Y-131035000D01*
X129571290Y-131035000D01*
X131232197Y-132695908D01*
X131264604Y-132735396D01*
X131304092Y-132767803D01*
X131422202Y-132864734D01*
X131518309Y-132916104D01*
X131602007Y-132960841D01*
X131797105Y-133020024D01*
X131949162Y-133035000D01*
X131949171Y-133035000D01*
X131999999Y-133040006D01*
X132050827Y-133035000D01*
X135449172Y-133035000D01*
X135500000Y-133040006D01*
X135550828Y-133035000D01*
X135550838Y-133035000D01*
X135702895Y-133020024D01*
X135897993Y-132960841D01*
X136077797Y-132864734D01*
X136235396Y-132735396D01*
X136267807Y-132695903D01*
X136659771Y-132303939D01*
X136659774Y-132303937D01*
X136803937Y-132159774D01*
X136832329Y-132117283D01*
X136864734Y-132077797D01*
X136888814Y-132032747D01*
X136917205Y-131990256D01*
X136936763Y-131943039D01*
X136960840Y-131897994D01*
X136975666Y-131849120D01*
X136995226Y-131801898D01*
X137005197Y-131751768D01*
X137020023Y-131702895D01*
X137025030Y-131652064D01*
X137035000Y-131601939D01*
X137035000Y-131550835D01*
X137040007Y-131500000D01*
X137035000Y-131449165D01*
X137035000Y-131398061D01*
X137025030Y-131347936D01*
X137020023Y-131297105D01*
X137005197Y-131248232D01*
X136995226Y-131198102D01*
X136975665Y-131150878D01*
X136960840Y-131102007D01*
X136936764Y-131056964D01*
X136917205Y-131009744D01*
X136888813Y-130967252D01*
X136864734Y-130922203D01*
X136832328Y-130882716D01*
X136803937Y-130840226D01*
X136767803Y-130804092D01*
X136735396Y-130764604D01*
X136695908Y-130732197D01*
X136659774Y-130696063D01*
X136617284Y-130667672D01*
X136577797Y-130635266D01*
X136532748Y-130611187D01*
X136490256Y-130582795D01*
X136443036Y-130563236D01*
X136397993Y-130539160D01*
X136349122Y-130524335D01*
X136301898Y-130504774D01*
X136251768Y-130494803D01*
X136202895Y-130479977D01*
X136152064Y-130474970D01*
X136101939Y-130465000D01*
X136050835Y-130465000D01*
X136000000Y-130459993D01*
X135949165Y-130465000D01*
X135898061Y-130465000D01*
X135847936Y-130474970D01*
X135797105Y-130479977D01*
X135748232Y-130494803D01*
X135698102Y-130504774D01*
X135650880Y-130524334D01*
X135602006Y-130539160D01*
X135556961Y-130563237D01*
X135509744Y-130582795D01*
X135467253Y-130611186D01*
X135422203Y-130635266D01*
X135382717Y-130667671D01*
X135340226Y-130696063D01*
X135196063Y-130840226D01*
X135196061Y-130840229D01*
X135071290Y-130965000D01*
X132428711Y-130965000D01*
X130767807Y-129304097D01*
X130735396Y-129264604D01*
X130577797Y-129135266D01*
X130397993Y-129039159D01*
X130202895Y-128979976D01*
X130050838Y-128965000D01*
X130050828Y-128965000D01*
X130000000Y-128959994D01*
X129949172Y-128965000D01*
X126928711Y-128965000D01*
X124563711Y-126600000D01*
X129961928Y-126600000D01*
X129961928Y-128400000D01*
X129974188Y-128524482D01*
X130010498Y-128644180D01*
X130069463Y-128754494D01*
X130148815Y-128851185D01*
X130245506Y-128930537D01*
X130355820Y-128989502D01*
X130475518Y-129025812D01*
X130600000Y-129038072D01*
X132400000Y-129038072D01*
X132524482Y-129025812D01*
X132644180Y-128989502D01*
X132754494Y-128930537D01*
X132851185Y-128851185D01*
X132930537Y-128754494D01*
X132989502Y-128644180D01*
X132995056Y-128625873D01*
X133061495Y-128692312D01*
X133312905Y-128860299D01*
X133592257Y-128976011D01*
X133888816Y-129035000D01*
X134191184Y-129035000D01*
X134487743Y-128976011D01*
X134767095Y-128860299D01*
X135018505Y-128692312D01*
X135232312Y-128478505D01*
X135400299Y-128227095D01*
X135516011Y-127947743D01*
X135575000Y-127651184D01*
X135575000Y-127348816D01*
X135516011Y-127052257D01*
X135400299Y-126772905D01*
X135232312Y-126521495D01*
X135018505Y-126307688D01*
X134767095Y-126139701D01*
X134487743Y-126023989D01*
X134191184Y-125965000D01*
X133888816Y-125965000D01*
X133592257Y-126023989D01*
X133312905Y-126139701D01*
X133061495Y-126307688D01*
X132995056Y-126374127D01*
X132989502Y-126355820D01*
X132930537Y-126245506D01*
X132851185Y-126148815D01*
X132754494Y-126069463D01*
X132644180Y-126010498D01*
X132524482Y-125974188D01*
X132400000Y-125961928D01*
X130600000Y-125961928D01*
X130475518Y-125974188D01*
X130355820Y-126010498D01*
X130245506Y-126069463D01*
X130148815Y-126148815D01*
X130069463Y-126245506D01*
X130010498Y-126355820D01*
X129974188Y-126475518D01*
X129961928Y-126600000D01*
X124563711Y-126600000D01*
X124037807Y-126074097D01*
X124005396Y-126034604D01*
X123847797Y-125905266D01*
X123667993Y-125809159D01*
X123472895Y-125749976D01*
X123388072Y-125741622D01*
X123388072Y-124975000D01*
X123375812Y-124850518D01*
X123339502Y-124730820D01*
X123280537Y-124620506D01*
X123201185Y-124523815D01*
X123104494Y-124444463D01*
X122994180Y-124385498D01*
X122874482Y-124349188D01*
X122750000Y-124336928D01*
X121250000Y-124336928D01*
X121125518Y-124349188D01*
X121005820Y-124385498D01*
X120895506Y-124444463D01*
X120798815Y-124523815D01*
X120719463Y-124620506D01*
X120660498Y-124730820D01*
X120624188Y-124850518D01*
X120611928Y-124975000D01*
X120611928Y-126025000D01*
X120624188Y-126149482D01*
X120660498Y-126269180D01*
X120695093Y-126333902D01*
X120631785Y-126542600D01*
X120609388Y-126770000D01*
X83199886Y-126770000D01*
X83208277Y-122934653D01*
X89365952Y-122934653D01*
X89521962Y-123250214D01*
X89896745Y-123441020D01*
X90301551Y-123555044D01*
X90720824Y-123587902D01*
X91138451Y-123538334D01*
X91538383Y-123408243D01*
X91834038Y-123250214D01*
X91990048Y-122934653D01*
X90678000Y-121622605D01*
X89365952Y-122934653D01*
X83208277Y-122934653D01*
X83211447Y-121485824D01*
X88533098Y-121485824D01*
X88582666Y-121903451D01*
X88712757Y-122303383D01*
X88870786Y-122599038D01*
X89186347Y-122755048D01*
X90498395Y-121443000D01*
X90857605Y-121443000D01*
X92169653Y-122755048D01*
X92485214Y-122599038D01*
X92676020Y-122224255D01*
X92790044Y-121819449D01*
X92822902Y-121400176D01*
X92775046Y-120996967D01*
X101987000Y-120996967D01*
X101987000Y-121319033D01*
X102049832Y-121634912D01*
X102173082Y-121932463D01*
X102352013Y-122200252D01*
X102579748Y-122427987D01*
X102847537Y-122606918D01*
X103145088Y-122730168D01*
X103460967Y-122793000D01*
X103783033Y-122793000D01*
X104098912Y-122730168D01*
X104396463Y-122606918D01*
X104664252Y-122427987D01*
X104891987Y-122200252D01*
X105070918Y-121932463D01*
X105194168Y-121634912D01*
X105257000Y-121319033D01*
X105257000Y-120996967D01*
X129429000Y-120996967D01*
X129429000Y-121319033D01*
X129491832Y-121634912D01*
X129615082Y-121932463D01*
X129794013Y-122200252D01*
X130021748Y-122427987D01*
X130289537Y-122606918D01*
X130587088Y-122730168D01*
X130902967Y-122793000D01*
X131225033Y-122793000D01*
X131540912Y-122730168D01*
X131838463Y-122606918D01*
X132106252Y-122427987D01*
X132333987Y-122200252D01*
X132512918Y-121932463D01*
X132636168Y-121634912D01*
X132699000Y-121319033D01*
X132699000Y-120996967D01*
X132636168Y-120681088D01*
X132512918Y-120383537D01*
X132333987Y-120115748D01*
X132106252Y-119888013D01*
X131838463Y-119709082D01*
X131715141Y-119658000D01*
X141879928Y-119658000D01*
X141879928Y-122658000D01*
X141892188Y-122782482D01*
X141928498Y-122902180D01*
X141987463Y-123012494D01*
X142066815Y-123109185D01*
X142163506Y-123188537D01*
X142273820Y-123247502D01*
X142393518Y-123283812D01*
X142518000Y-123296072D01*
X145518000Y-123296072D01*
X145642482Y-123283812D01*
X145762180Y-123247502D01*
X145872494Y-123188537D01*
X145969185Y-123109185D01*
X146048537Y-123012494D01*
X146107502Y-122902180D01*
X146143812Y-122782482D01*
X146156072Y-122658000D01*
X146156072Y-119658000D01*
X146143812Y-119533518D01*
X146107502Y-119413820D01*
X146048537Y-119303506D01*
X145969185Y-119206815D01*
X145872494Y-119127463D01*
X145762180Y-119068498D01*
X145642482Y-119032188D01*
X145518000Y-119019928D01*
X142518000Y-119019928D01*
X142393518Y-119032188D01*
X142273820Y-119068498D01*
X142163506Y-119127463D01*
X142066815Y-119206815D01*
X141987463Y-119303506D01*
X141928498Y-119413820D01*
X141892188Y-119533518D01*
X141879928Y-119658000D01*
X131715141Y-119658000D01*
X131540912Y-119585832D01*
X131225033Y-119523000D01*
X130902967Y-119523000D01*
X130587088Y-119585832D01*
X130289537Y-119709082D01*
X130021748Y-119888013D01*
X129794013Y-120115748D01*
X129615082Y-120383537D01*
X129491832Y-120681088D01*
X129429000Y-120996967D01*
X105257000Y-120996967D01*
X105194168Y-120681088D01*
X105070918Y-120383537D01*
X104891987Y-120115748D01*
X104664252Y-119888013D01*
X104396463Y-119709082D01*
X104098912Y-119585832D01*
X103783033Y-119523000D01*
X103460967Y-119523000D01*
X103145088Y-119585832D01*
X102847537Y-119709082D01*
X102579748Y-119888013D01*
X102352013Y-120115748D01*
X102173082Y-120383537D01*
X102049832Y-120681088D01*
X101987000Y-120996967D01*
X92775046Y-120996967D01*
X92773334Y-120982549D01*
X92643243Y-120582617D01*
X92485214Y-120286962D01*
X92169653Y-120130952D01*
X90857605Y-121443000D01*
X90498395Y-121443000D01*
X89186347Y-120130952D01*
X88870786Y-120286962D01*
X88679980Y-120661745D01*
X88565956Y-121066551D01*
X88533098Y-121485824D01*
X83211447Y-121485824D01*
X83214804Y-119951347D01*
X89365952Y-119951347D01*
X90678000Y-121263395D01*
X91990048Y-119951347D01*
X91834038Y-119635786D01*
X91459255Y-119444980D01*
X91054449Y-119330956D01*
X90635176Y-119298098D01*
X90217549Y-119347666D01*
X89817617Y-119477757D01*
X89521962Y-119635786D01*
X89365952Y-119951347D01*
X83214804Y-119951347D01*
X83225762Y-114943000D01*
X88539928Y-114943000D01*
X88539928Y-117943000D01*
X88552188Y-118067482D01*
X88588498Y-118187180D01*
X88647463Y-118297494D01*
X88726815Y-118394185D01*
X88823506Y-118473537D01*
X88933820Y-118532502D01*
X89053518Y-118568812D01*
X89178000Y-118581072D01*
X92178000Y-118581072D01*
X92302482Y-118568812D01*
X92422180Y-118532502D01*
X92532494Y-118473537D01*
X92629185Y-118394185D01*
X92708537Y-118297494D01*
X92767502Y-118187180D01*
X92803812Y-118067482D01*
X92816072Y-117943000D01*
X92816072Y-115916967D01*
X101997000Y-115916967D01*
X101997000Y-116239033D01*
X102059832Y-116554912D01*
X102183082Y-116852463D01*
X102362013Y-117120252D01*
X102589748Y-117347987D01*
X102857537Y-117526918D01*
X103155088Y-117650168D01*
X103470967Y-117713000D01*
X103793033Y-117713000D01*
X104108912Y-117650168D01*
X104406463Y-117526918D01*
X104674252Y-117347987D01*
X104901987Y-117120252D01*
X105080918Y-116852463D01*
X105204168Y-116554912D01*
X105267000Y-116239033D01*
X105267000Y-115916967D01*
X129439000Y-115916967D01*
X129439000Y-116239033D01*
X129501832Y-116554912D01*
X129625082Y-116852463D01*
X129804013Y-117120252D01*
X130031748Y-117347987D01*
X130299537Y-117526918D01*
X130597088Y-117650168D01*
X130912967Y-117713000D01*
X131235033Y-117713000D01*
X131550912Y-117650168D01*
X131848463Y-117526918D01*
X132116252Y-117347987D01*
X132343987Y-117120252D01*
X132522918Y-116852463D01*
X132646168Y-116554912D01*
X132709000Y-116239033D01*
X132709000Y-115916967D01*
X132646168Y-115601088D01*
X132522918Y-115303537D01*
X132343987Y-115035748D01*
X132116252Y-114808013D01*
X131848463Y-114629082D01*
X131550912Y-114505832D01*
X131235033Y-114443000D01*
X130912967Y-114443000D01*
X130597088Y-114505832D01*
X130299537Y-114629082D01*
X130031748Y-114808013D01*
X129804013Y-115035748D01*
X129625082Y-115303537D01*
X129501832Y-115601088D01*
X129439000Y-115916967D01*
X105267000Y-115916967D01*
X105204168Y-115601088D01*
X105080918Y-115303537D01*
X104901987Y-115035748D01*
X104674252Y-114808013D01*
X104406463Y-114629082D01*
X104108912Y-114505832D01*
X103793033Y-114443000D01*
X103470967Y-114443000D01*
X103155088Y-114505832D01*
X102857537Y-114629082D01*
X102589748Y-114808013D01*
X102362013Y-115035748D01*
X102183082Y-115303537D01*
X102059832Y-115601088D01*
X101997000Y-115916967D01*
X92816072Y-115916967D01*
X92816072Y-114943000D01*
X92803812Y-114818518D01*
X92767502Y-114698820D01*
X92708537Y-114588506D01*
X92629185Y-114491815D01*
X92532494Y-114412463D01*
X92422180Y-114353498D01*
X92302482Y-114317188D01*
X92178000Y-114304928D01*
X89178000Y-114304928D01*
X89053518Y-114317188D01*
X88933820Y-114353498D01*
X88823506Y-114412463D01*
X88726815Y-114491815D01*
X88647463Y-114588506D01*
X88588498Y-114698820D01*
X88552188Y-114818518D01*
X88539928Y-114943000D01*
X83225762Y-114943000D01*
X83238923Y-108928000D01*
X86699928Y-108928000D01*
X86699928Y-110528000D01*
X86712188Y-110652482D01*
X86748498Y-110772180D01*
X86807463Y-110882494D01*
X86886815Y-110979185D01*
X86983506Y-111058537D01*
X87093820Y-111117502D01*
X87213518Y-111153812D01*
X87338000Y-111166072D01*
X88938000Y-111166072D01*
X89062482Y-111153812D01*
X89182180Y-111117502D01*
X89292494Y-111058537D01*
X89389185Y-110979185D01*
X89468537Y-110882494D01*
X89527502Y-110772180D01*
X89563812Y-110652482D01*
X89576072Y-110528000D01*
X89576072Y-109586665D01*
X94323000Y-109586665D01*
X94323000Y-109869335D01*
X94378147Y-110146574D01*
X94486320Y-110407727D01*
X94643363Y-110642759D01*
X94843241Y-110842637D01*
X95078273Y-110999680D01*
X95339426Y-111107853D01*
X95616665Y-111163000D01*
X95899335Y-111163000D01*
X96176574Y-111107853D01*
X96437727Y-110999680D01*
X96672759Y-110842637D01*
X96872637Y-110642759D01*
X97029680Y-110407727D01*
X97086728Y-110270000D01*
X122109388Y-110270000D01*
X122131785Y-110497400D01*
X122198115Y-110716060D01*
X122299105Y-110905000D01*
X122198115Y-111093940D01*
X122131785Y-111312600D01*
X122109388Y-111540000D01*
X122131785Y-111767400D01*
X122198115Y-111986060D01*
X122305829Y-112187579D01*
X122450788Y-112364212D01*
X122627421Y-112509171D01*
X122828940Y-112616885D01*
X123047600Y-112683215D01*
X123218021Y-112700000D01*
X123781979Y-112700000D01*
X123952400Y-112683215D01*
X124171060Y-112616885D01*
X124372579Y-112509171D01*
X124549212Y-112364212D01*
X124694171Y-112187579D01*
X124801885Y-111986060D01*
X124868215Y-111767400D01*
X124890612Y-111540000D01*
X124868215Y-111312600D01*
X124801885Y-111093940D01*
X124700895Y-110905000D01*
X124801885Y-110716060D01*
X124837091Y-110600000D01*
X130961928Y-110600000D01*
X130961928Y-112400000D01*
X130974188Y-112524482D01*
X131010498Y-112644180D01*
X131069463Y-112754494D01*
X131148815Y-112851185D01*
X131245506Y-112930537D01*
X131355820Y-112989502D01*
X131475518Y-113025812D01*
X131600000Y-113038072D01*
X132574362Y-113038072D01*
X135965001Y-116428712D01*
X135965000Y-117398061D01*
X135965000Y-117601939D01*
X135974969Y-117652058D01*
X135979976Y-117702894D01*
X135994804Y-117751774D01*
X136004774Y-117801898D01*
X136024332Y-117849116D01*
X136039159Y-117897992D01*
X136063237Y-117943039D01*
X136082795Y-117990256D01*
X136111186Y-118032747D01*
X136135266Y-118077797D01*
X136167672Y-118117284D01*
X136196063Y-118159774D01*
X136232197Y-118195908D01*
X136264604Y-118235396D01*
X136304092Y-118267803D01*
X136340226Y-118303937D01*
X136382716Y-118332328D01*
X136422203Y-118364734D01*
X136467254Y-118388814D01*
X136509744Y-118417205D01*
X136556958Y-118436762D01*
X136602007Y-118460841D01*
X136650887Y-118475669D01*
X136698102Y-118495226D01*
X136748223Y-118505196D01*
X136797105Y-118520024D01*
X136847943Y-118525031D01*
X136898061Y-118535000D01*
X136949162Y-118535000D01*
X137000000Y-118540007D01*
X137050838Y-118535000D01*
X137101939Y-118535000D01*
X137152058Y-118525031D01*
X137202894Y-118520024D01*
X137251774Y-118505196D01*
X137301898Y-118495226D01*
X137349116Y-118475668D01*
X137397992Y-118460841D01*
X137443039Y-118436763D01*
X137490256Y-118417205D01*
X137532747Y-118388814D01*
X137577797Y-118364734D01*
X137617284Y-118332328D01*
X137659774Y-118303937D01*
X137695908Y-118267803D01*
X137735396Y-118235396D01*
X137767803Y-118195908D01*
X137803937Y-118159774D01*
X137832328Y-118117284D01*
X137864734Y-118077797D01*
X137888814Y-118032746D01*
X137917205Y-117990256D01*
X137936762Y-117943042D01*
X137960841Y-117897993D01*
X137975669Y-117849113D01*
X137995226Y-117801898D01*
X138005196Y-117751777D01*
X138020024Y-117702895D01*
X138025031Y-117652057D01*
X138025509Y-117649653D01*
X142705952Y-117649653D01*
X142861962Y-117965214D01*
X143236745Y-118156020D01*
X143641551Y-118270044D01*
X144060824Y-118302902D01*
X144478451Y-118253334D01*
X144878383Y-118123243D01*
X145174038Y-117965214D01*
X145330048Y-117649653D01*
X144018000Y-116337605D01*
X142705952Y-117649653D01*
X138025509Y-117649653D01*
X138035000Y-117601939D01*
X138035000Y-116200824D01*
X141873098Y-116200824D01*
X141922666Y-116618451D01*
X142052757Y-117018383D01*
X142210786Y-117314038D01*
X142526347Y-117470048D01*
X143838395Y-116158000D01*
X144197605Y-116158000D01*
X145509653Y-117470048D01*
X145825214Y-117314038D01*
X146016020Y-116939255D01*
X146130044Y-116534449D01*
X146162902Y-116115176D01*
X146113334Y-115697549D01*
X145983243Y-115297617D01*
X145825214Y-115001962D01*
X145509653Y-114845952D01*
X144197605Y-116158000D01*
X143838395Y-116158000D01*
X142526347Y-114845952D01*
X142210786Y-115001962D01*
X142019980Y-115376745D01*
X141905956Y-115781551D01*
X141873098Y-116200824D01*
X138035000Y-116200824D01*
X138035000Y-116050827D01*
X138040006Y-115999999D01*
X138035000Y-115949171D01*
X138035000Y-115949162D01*
X138020024Y-115797105D01*
X137960841Y-115602007D01*
X137916104Y-115518309D01*
X137864734Y-115422202D01*
X137767803Y-115304092D01*
X137735396Y-115264604D01*
X137695908Y-115232197D01*
X137130058Y-114666347D01*
X142705952Y-114666347D01*
X144018000Y-115978395D01*
X145330048Y-114666347D01*
X145174038Y-114350786D01*
X144799255Y-114159980D01*
X144394449Y-114045956D01*
X143975176Y-114013098D01*
X143557549Y-114062666D01*
X143157617Y-114192757D01*
X142861962Y-114350786D01*
X142705952Y-114666347D01*
X137130058Y-114666347D01*
X134038072Y-111574362D01*
X134038072Y-110600000D01*
X134025812Y-110475518D01*
X133989502Y-110355820D01*
X133930537Y-110245506D01*
X133851185Y-110148815D01*
X133754494Y-110069463D01*
X133644180Y-110010498D01*
X133625873Y-110004944D01*
X133692312Y-109938505D01*
X133860299Y-109687095D01*
X133976011Y-109407743D01*
X134035000Y-109111184D01*
X134035000Y-108808816D01*
X133976011Y-108512257D01*
X133860299Y-108232905D01*
X133692312Y-107981495D01*
X133478505Y-107767688D01*
X133227095Y-107599701D01*
X132947743Y-107483989D01*
X132651184Y-107425000D01*
X132348816Y-107425000D01*
X132052257Y-107483989D01*
X131772905Y-107599701D01*
X131521495Y-107767688D01*
X131307688Y-107981495D01*
X131139701Y-108232905D01*
X131023989Y-108512257D01*
X130965000Y-108808816D01*
X130965000Y-109111184D01*
X131023989Y-109407743D01*
X131139701Y-109687095D01*
X131307688Y-109938505D01*
X131374127Y-110004944D01*
X131355820Y-110010498D01*
X131245506Y-110069463D01*
X131148815Y-110148815D01*
X131069463Y-110245506D01*
X131010498Y-110355820D01*
X130974188Y-110475518D01*
X130961928Y-110600000D01*
X124837091Y-110600000D01*
X124868215Y-110497400D01*
X124890612Y-110270000D01*
X124868215Y-110042600D01*
X124804907Y-109833902D01*
X124839502Y-109769180D01*
X124875812Y-109649482D01*
X124888072Y-109525000D01*
X124888072Y-108475000D01*
X124875812Y-108350518D01*
X124839502Y-108230820D01*
X124780537Y-108120506D01*
X124701185Y-108023815D01*
X124604494Y-107944463D01*
X124494180Y-107885498D01*
X124374482Y-107849188D01*
X124250000Y-107836928D01*
X122750000Y-107836928D01*
X122625518Y-107849188D01*
X122505820Y-107885498D01*
X122395506Y-107944463D01*
X122298815Y-108023815D01*
X122219463Y-108120506D01*
X122160498Y-108230820D01*
X122124188Y-108350518D01*
X122111928Y-108475000D01*
X122111928Y-109525000D01*
X122124188Y-109649482D01*
X122160498Y-109769180D01*
X122195093Y-109833902D01*
X122131785Y-110042600D01*
X122109388Y-110270000D01*
X97086728Y-110270000D01*
X97137853Y-110146574D01*
X97193000Y-109869335D01*
X97193000Y-109586665D01*
X97137853Y-109309426D01*
X97029680Y-109048273D01*
X96872637Y-108813241D01*
X96672759Y-108613363D01*
X96437727Y-108456320D01*
X96176574Y-108348147D01*
X95899335Y-108293000D01*
X95616665Y-108293000D01*
X95339426Y-108348147D01*
X95078273Y-108456320D01*
X94843241Y-108613363D01*
X94643363Y-108813241D01*
X94486320Y-109048273D01*
X94378147Y-109309426D01*
X94323000Y-109586665D01*
X89576072Y-109586665D01*
X89576072Y-108928000D01*
X89563812Y-108803518D01*
X89527502Y-108683820D01*
X89468537Y-108573506D01*
X89389185Y-108476815D01*
X89292494Y-108397463D01*
X89182180Y-108338498D01*
X89062482Y-108302188D01*
X88938000Y-108289928D01*
X87338000Y-108289928D01*
X87213518Y-108302188D01*
X87093820Y-108338498D01*
X86983506Y-108397463D01*
X86886815Y-108476815D01*
X86807463Y-108573506D01*
X86748498Y-108683820D01*
X86712188Y-108803518D01*
X86699928Y-108928000D01*
X83238923Y-108928000D01*
X83240237Y-108327890D01*
X83230899Y-108230906D01*
X83193431Y-108106413D01*
X83132397Y-107991623D01*
X83127000Y-107985017D01*
X83127000Y-107292793D01*
X83298382Y-107464175D01*
X83607118Y-107670466D01*
X83950166Y-107812561D01*
X84314344Y-107885000D01*
X84685656Y-107885000D01*
X85049834Y-107812561D01*
X85392882Y-107670466D01*
X85701618Y-107464175D01*
X85964175Y-107201618D01*
X86059440Y-107059044D01*
X87112216Y-107035649D01*
X87130589Y-107050781D01*
X87245139Y-107112266D01*
X87369483Y-107150223D01*
X87466430Y-107159942D01*
X143940739Y-107258476D01*
X144037720Y-107249095D01*
X144162195Y-107211572D01*
X144276959Y-107150488D01*
X144377601Y-107068186D01*
X144460253Y-106967832D01*
X144521738Y-106853282D01*
X144559695Y-106728938D01*
X144572664Y-106599578D01*
X144567328Y-106544417D01*
X144524479Y-105909729D01*
X144543838Y-105759391D01*
X145630735Y-105735238D01*
X145615000Y-105814344D01*
X145615000Y-106185656D01*
X145687439Y-106549834D01*
X145829534Y-106892882D01*
X146035825Y-107201618D01*
X146298382Y-107464175D01*
X146607118Y-107670466D01*
X146950166Y-107812561D01*
X147314344Y-107885000D01*
X147685656Y-107885000D01*
X148049834Y-107812561D01*
X148392882Y-107670466D01*
X148701618Y-107464175D01*
X148964175Y-107201618D01*
X149170466Y-106892882D01*
X149312561Y-106549834D01*
X149385000Y-106185656D01*
X149385000Y-105814344D01*
X149352812Y-105652525D01*
X150373000Y-105629854D01*
X150373000Y-106786773D01*
G37*
X150373000Y-106786773D02*
X150364288Y-106821607D01*
X150350554Y-106865669D01*
X150340266Y-106962557D01*
X150059287Y-143865000D01*
X149579715Y-143544561D01*
X148972784Y-143293162D01*
X148328469Y-143165000D01*
X147671531Y-143165000D01*
X147027216Y-143293162D01*
X146420285Y-143544561D01*
X145874061Y-143909536D01*
X145409536Y-144374061D01*
X145102871Y-144833017D01*
X88450820Y-144413373D01*
X88090464Y-143874061D01*
X87625939Y-143409536D01*
X87079715Y-143044561D01*
X86472784Y-142793162D01*
X85828469Y-142665000D01*
X85171531Y-142665000D01*
X84527216Y-142793162D01*
X83920285Y-143044561D01*
X83374061Y-143409536D01*
X83163019Y-143620578D01*
X83166840Y-141873653D01*
X89365952Y-141873653D01*
X89521962Y-142189214D01*
X89896745Y-142380020D01*
X90301551Y-142494044D01*
X90720824Y-142526902D01*
X91138451Y-142477334D01*
X91538383Y-142347243D01*
X91834038Y-142189214D01*
X91990048Y-141873653D01*
X90678000Y-140561605D01*
X89365952Y-141873653D01*
X83166840Y-141873653D01*
X83170010Y-140424824D01*
X88533098Y-140424824D01*
X88582666Y-140842451D01*
X88712757Y-141242383D01*
X88870786Y-141538038D01*
X89186347Y-141694048D01*
X90498395Y-140382000D01*
X90857605Y-140382000D01*
X92169653Y-141694048D01*
X92485214Y-141538038D01*
X92676020Y-141163255D01*
X92790044Y-140758449D01*
X92822902Y-140339176D01*
X92773334Y-139921549D01*
X92731509Y-139792967D01*
X129429000Y-139792967D01*
X129429000Y-140115033D01*
X129491832Y-140430912D01*
X129615082Y-140728463D01*
X129794013Y-140996252D01*
X130021748Y-141223987D01*
X130289537Y-141402918D01*
X130587088Y-141526168D01*
X130902967Y-141589000D01*
X131225033Y-141589000D01*
X131540912Y-141526168D01*
X131838463Y-141402918D01*
X132106252Y-141223987D01*
X132333987Y-140996252D01*
X132512918Y-140728463D01*
X132636168Y-140430912D01*
X132699000Y-140115033D01*
X132699000Y-139792967D01*
X132636168Y-139477088D01*
X132512918Y-139179537D01*
X132333987Y-138911748D01*
X132106252Y-138684013D01*
X131976028Y-138597000D01*
X141625928Y-138597000D01*
X141625928Y-141597000D01*
X141638188Y-141721482D01*
X141674498Y-141841180D01*
X141733463Y-141951494D01*
X141812815Y-142048185D01*
X141909506Y-142127537D01*
X142019820Y-142186502D01*
X142139518Y-142222812D01*
X142264000Y-142235072D01*
X145264000Y-142235072D01*
X145388482Y-142222812D01*
X145508180Y-142186502D01*
X145618494Y-142127537D01*
X145715185Y-142048185D01*
X145794537Y-141951494D01*
X145853502Y-141841180D01*
X145889812Y-141721482D01*
X145902072Y-141597000D01*
X145902072Y-138597000D01*
X145889812Y-138472518D01*
X145853502Y-138352820D01*
X145794537Y-138242506D01*
X145715185Y-138145815D01*
X145618494Y-138066463D01*
X145508180Y-138007498D01*
X145388482Y-137971188D01*
X145264000Y-137958928D01*
X142264000Y-137958928D01*
X142139518Y-137971188D01*
X142019820Y-138007498D01*
X141909506Y-138066463D01*
X141812815Y-138145815D01*
X141733463Y-138242506D01*
X141674498Y-138352820D01*
X141638188Y-138472518D01*
X141625928Y-138597000D01*
X131976028Y-138597000D01*
X131838463Y-138505082D01*
X131540912Y-138381832D01*
X131225033Y-138319000D01*
X130902967Y-138319000D01*
X130587088Y-138381832D01*
X130289537Y-138505082D01*
X130021748Y-138684013D01*
X129794013Y-138911748D01*
X129615082Y-139179537D01*
X129491832Y-139477088D01*
X129429000Y-139792967D01*
X92731509Y-139792967D01*
X92643243Y-139521617D01*
X92485214Y-139225962D01*
X92169653Y-139069952D01*
X90857605Y-140382000D01*
X90498395Y-140382000D01*
X89186347Y-139069952D01*
X88870786Y-139225962D01*
X88679980Y-139600745D01*
X88565956Y-140005551D01*
X88533098Y-140424824D01*
X83170010Y-140424824D01*
X83173367Y-138890347D01*
X89365952Y-138890347D01*
X90678000Y-140202395D01*
X91990048Y-138890347D01*
X91834038Y-138574786D01*
X91459255Y-138383980D01*
X91054449Y-138269956D01*
X90635176Y-138237098D01*
X90217549Y-138286666D01*
X89817617Y-138416757D01*
X89521962Y-138574786D01*
X89365952Y-138890347D01*
X83173367Y-138890347D01*
X83184325Y-133882000D01*
X88539928Y-133882000D01*
X88539928Y-136882000D01*
X88552188Y-137006482D01*
X88588498Y-137126180D01*
X88647463Y-137236494D01*
X88726815Y-137333185D01*
X88823506Y-137412537D01*
X88933820Y-137471502D01*
X89053518Y-137507812D01*
X89178000Y-137520072D01*
X92178000Y-137520072D01*
X92302482Y-137507812D01*
X92422180Y-137471502D01*
X92532494Y-137412537D01*
X92629185Y-137333185D01*
X92703224Y-137242967D01*
X99447000Y-137242967D01*
X99447000Y-137565033D01*
X99509832Y-137880912D01*
X99633082Y-138178463D01*
X99812013Y-138446252D01*
X100039748Y-138673987D01*
X100307537Y-138852918D01*
X100605088Y-138976168D01*
X100920967Y-139039000D01*
X101243033Y-139039000D01*
X101558912Y-138976168D01*
X101856463Y-138852918D01*
X102124252Y-138673987D01*
X102351987Y-138446252D01*
X102530918Y-138178463D01*
X102654168Y-137880912D01*
X102717000Y-137565033D01*
X102717000Y-137252967D01*
X104527000Y-137252967D01*
X104527000Y-137575033D01*
X104589832Y-137890912D01*
X104713082Y-138188463D01*
X104892013Y-138456252D01*
X105119748Y-138683987D01*
X105387537Y-138862918D01*
X105685088Y-138986168D01*
X106000967Y-139049000D01*
X106323033Y-139049000D01*
X106638912Y-138986168D01*
X106936463Y-138862918D01*
X107204252Y-138683987D01*
X107431987Y-138456252D01*
X107610918Y-138188463D01*
X107734168Y-137890912D01*
X107797000Y-137575033D01*
X107797000Y-137252967D01*
X107734168Y-136937088D01*
X107610918Y-136639537D01*
X107576919Y-136588653D01*
X142451952Y-136588653D01*
X142607962Y-136904214D01*
X142982745Y-137095020D01*
X143387551Y-137209044D01*
X143806824Y-137241902D01*
X144224451Y-137192334D01*
X144624383Y-137062243D01*
X144920038Y-136904214D01*
X145076048Y-136588653D01*
X143764000Y-135276605D01*
X142451952Y-136588653D01*
X107576919Y-136588653D01*
X107431987Y-136371748D01*
X107204252Y-136144013D01*
X106936463Y-135965082D01*
X106638912Y-135841832D01*
X106323033Y-135779000D01*
X106000967Y-135779000D01*
X105685088Y-135841832D01*
X105387537Y-135965082D01*
X105119748Y-136144013D01*
X104892013Y-136371748D01*
X104713082Y-136639537D01*
X104589832Y-136937088D01*
X104527000Y-137252967D01*
X102717000Y-137252967D01*
X102717000Y-137242967D01*
X102654168Y-136927088D01*
X102530918Y-136629537D01*
X102351987Y-136361748D01*
X102124252Y-136134013D01*
X101856463Y-135955082D01*
X101558912Y-135831832D01*
X101243033Y-135769000D01*
X100920967Y-135769000D01*
X100605088Y-135831832D01*
X100307537Y-135955082D01*
X100039748Y-136134013D01*
X99812013Y-136361748D01*
X99633082Y-136629537D01*
X99509832Y-136927088D01*
X99447000Y-137242967D01*
X92703224Y-137242967D01*
X92708537Y-137236494D01*
X92767502Y-137126180D01*
X92803812Y-137006482D01*
X92816072Y-136882000D01*
X92816072Y-134712967D01*
X129439000Y-134712967D01*
X129439000Y-135035033D01*
X129501832Y-135350912D01*
X129625082Y-135648463D01*
X129804013Y-135916252D01*
X130031748Y-136143987D01*
X130299537Y-136322918D01*
X130597088Y-136446168D01*
X130912967Y-136509000D01*
X131235033Y-136509000D01*
X131550912Y-136446168D01*
X131848463Y-136322918D01*
X132116252Y-136143987D01*
X132343987Y-135916252D01*
X132522918Y-135648463D01*
X132646168Y-135350912D01*
X132688155Y-135139824D01*
X141619098Y-135139824D01*
X141668666Y-135557451D01*
X141798757Y-135957383D01*
X141956786Y-136253038D01*
X142272347Y-136409048D01*
X143584395Y-135097000D01*
X143943605Y-135097000D01*
X145255653Y-136409048D01*
X145571214Y-136253038D01*
X145762020Y-135878255D01*
X145876044Y-135473449D01*
X145908902Y-135054176D01*
X145859334Y-134636549D01*
X145729243Y-134236617D01*
X145571214Y-133940962D01*
X145255653Y-133784952D01*
X143943605Y-135097000D01*
X143584395Y-135097000D01*
X142272347Y-133784952D01*
X141956786Y-133940962D01*
X141765980Y-134315745D01*
X141651956Y-134720551D01*
X141619098Y-135139824D01*
X132688155Y-135139824D01*
X132709000Y-135035033D01*
X132709000Y-134712967D01*
X132646168Y-134397088D01*
X132522918Y-134099537D01*
X132343987Y-133831748D01*
X132117586Y-133605347D01*
X142451952Y-133605347D01*
X143764000Y-134917395D01*
X145076048Y-133605347D01*
X144920038Y-133289786D01*
X144545255Y-133098980D01*
X144140449Y-132984956D01*
X143721176Y-132952098D01*
X143303549Y-133001666D01*
X142903617Y-133131757D01*
X142607962Y-133289786D01*
X142451952Y-133605347D01*
X132117586Y-133605347D01*
X132116252Y-133604013D01*
X131848463Y-133425082D01*
X131550912Y-133301832D01*
X131235033Y-133239000D01*
X130912967Y-133239000D01*
X130597088Y-133301832D01*
X130299537Y-133425082D01*
X130031748Y-133604013D01*
X129804013Y-133831748D01*
X129625082Y-134099537D01*
X129501832Y-134397088D01*
X129439000Y-134712967D01*
X92816072Y-134712967D01*
X92816072Y-133882000D01*
X92803812Y-133757518D01*
X92767502Y-133637820D01*
X92708537Y-133527506D01*
X92629185Y-133430815D01*
X92532494Y-133351463D01*
X92422180Y-133292498D01*
X92302482Y-133256188D01*
X92178000Y-133243928D01*
X89178000Y-133243928D01*
X89053518Y-133256188D01*
X88933820Y-133292498D01*
X88823506Y-133351463D01*
X88726815Y-133430815D01*
X88647463Y-133527506D01*
X88588498Y-133637820D01*
X88552188Y-133757518D01*
X88539928Y-133882000D01*
X83184325Y-133882000D01*
X83197799Y-127724000D01*
X86699928Y-127724000D01*
X86699928Y-129324000D01*
X86712188Y-129448482D01*
X86748498Y-129568180D01*
X86807463Y-129678494D01*
X86886815Y-129775185D01*
X86983506Y-129854537D01*
X87093820Y-129913502D01*
X87213518Y-129949812D01*
X87338000Y-129962072D01*
X88938000Y-129962072D01*
X89062482Y-129949812D01*
X89182180Y-129913502D01*
X89292494Y-129854537D01*
X89389185Y-129775185D01*
X89468537Y-129678494D01*
X89527502Y-129568180D01*
X89563812Y-129448482D01*
X89576072Y-129324000D01*
X89576072Y-128382665D01*
X94323000Y-128382665D01*
X94323000Y-128665335D01*
X94378147Y-128942574D01*
X94486320Y-129203727D01*
X94643363Y-129438759D01*
X94843241Y-129638637D01*
X95078273Y-129795680D01*
X95339426Y-129903853D01*
X95616665Y-129959000D01*
X95899335Y-129959000D01*
X96176574Y-129903853D01*
X96437727Y-129795680D01*
X96672759Y-129638637D01*
X96872637Y-129438759D01*
X97029680Y-129203727D01*
X97137853Y-128942574D01*
X97193000Y-128665335D01*
X97193000Y-128382665D01*
X97137853Y-128105426D01*
X97029680Y-127844273D01*
X96872637Y-127609241D01*
X96672759Y-127409363D01*
X96437727Y-127252320D01*
X96176574Y-127144147D01*
X95899335Y-127089000D01*
X95616665Y-127089000D01*
X95339426Y-127144147D01*
X95078273Y-127252320D01*
X94843241Y-127409363D01*
X94643363Y-127609241D01*
X94486320Y-127844273D01*
X94378147Y-128105426D01*
X94323000Y-128382665D01*
X89576072Y-128382665D01*
X89576072Y-127724000D01*
X89563812Y-127599518D01*
X89527502Y-127479820D01*
X89468537Y-127369506D01*
X89389185Y-127272815D01*
X89292494Y-127193463D01*
X89182180Y-127134498D01*
X89062482Y-127098188D01*
X88938000Y-127085928D01*
X87338000Y-127085928D01*
X87213518Y-127098188D01*
X87093820Y-127134498D01*
X86983506Y-127193463D01*
X86886815Y-127272815D01*
X86807463Y-127369506D01*
X86748498Y-127479820D01*
X86712188Y-127599518D01*
X86699928Y-127724000D01*
X83197799Y-127724000D01*
X83199886Y-126770000D01*
X120609388Y-126770000D01*
X120631785Y-126997400D01*
X120698115Y-127216060D01*
X120799105Y-127405000D01*
X120698115Y-127593940D01*
X120631785Y-127812600D01*
X120609388Y-128040000D01*
X120631785Y-128267400D01*
X120698115Y-128486060D01*
X120805829Y-128687579D01*
X120950788Y-128864212D01*
X121127421Y-129009171D01*
X121328940Y-129116885D01*
X121547600Y-129183215D01*
X121718021Y-129200000D01*
X122281979Y-129200000D01*
X122452400Y-129183215D01*
X122671060Y-129116885D01*
X122872579Y-129009171D01*
X123049212Y-128864212D01*
X123194171Y-128687579D01*
X123301885Y-128486060D01*
X123353197Y-128316907D01*
X125732196Y-130695907D01*
X125764604Y-130735396D01*
X125804092Y-130767803D01*
X125922202Y-130864734D01*
X126018309Y-130916104D01*
X126102007Y-130960841D01*
X126297105Y-131020024D01*
X126449162Y-131035000D01*
X126449165Y-131035000D01*
X126500000Y-131040007D01*
X126550835Y-131035000D01*
X129571290Y-131035000D01*
X131232197Y-132695908D01*
X131264604Y-132735396D01*
X131304092Y-132767803D01*
X131422202Y-132864734D01*
X131518309Y-132916104D01*
X131602007Y-132960841D01*
X131797105Y-133020024D01*
X131949162Y-133035000D01*
X131949171Y-133035000D01*
X131999999Y-133040006D01*
X132050827Y-133035000D01*
X135449172Y-133035000D01*
X135500000Y-133040006D01*
X135550828Y-133035000D01*
X135550838Y-133035000D01*
X135702895Y-133020024D01*
X135897993Y-132960841D01*
X136077797Y-132864734D01*
X136235396Y-132735396D01*
X136267807Y-132695903D01*
X136659771Y-132303939D01*
X136659774Y-132303937D01*
X136803937Y-132159774D01*
X136832329Y-132117283D01*
X136864734Y-132077797D01*
X136888814Y-132032747D01*
X136917205Y-131990256D01*
X136936763Y-131943039D01*
X136960840Y-131897994D01*
X136975666Y-131849120D01*
X136995226Y-131801898D01*
X137005197Y-131751768D01*
X137020023Y-131702895D01*
X137025030Y-131652064D01*
X137035000Y-131601939D01*
X137035000Y-131550835D01*
X137040007Y-131500000D01*
X137035000Y-131449165D01*
X137035000Y-131398061D01*
X137025030Y-131347936D01*
X137020023Y-131297105D01*
X137005197Y-131248232D01*
X136995226Y-131198102D01*
X136975665Y-131150878D01*
X136960840Y-131102007D01*
X136936764Y-131056964D01*
X136917205Y-131009744D01*
X136888813Y-130967252D01*
X136864734Y-130922203D01*
X136832328Y-130882716D01*
X136803937Y-130840226D01*
X136767803Y-130804092D01*
X136735396Y-130764604D01*
X136695908Y-130732197D01*
X136659774Y-130696063D01*
X136617284Y-130667672D01*
X136577797Y-130635266D01*
X136532748Y-130611187D01*
X136490256Y-130582795D01*
X136443036Y-130563236D01*
X136397993Y-130539160D01*
X136349122Y-130524335D01*
X136301898Y-130504774D01*
X136251768Y-130494803D01*
X136202895Y-130479977D01*
X136152064Y-130474970D01*
X136101939Y-130465000D01*
X136050835Y-130465000D01*
X136000000Y-130459993D01*
X135949165Y-130465000D01*
X135898061Y-130465000D01*
X135847936Y-130474970D01*
X135797105Y-130479977D01*
X135748232Y-130494803D01*
X135698102Y-130504774D01*
X135650880Y-130524334D01*
X135602006Y-130539160D01*
X135556961Y-130563237D01*
X135509744Y-130582795D01*
X135467253Y-130611186D01*
X135422203Y-130635266D01*
X135382717Y-130667671D01*
X135340226Y-130696063D01*
X135196063Y-130840226D01*
X135196061Y-130840229D01*
X135071290Y-130965000D01*
X132428711Y-130965000D01*
X130767807Y-129304097D01*
X130735396Y-129264604D01*
X130577797Y-129135266D01*
X130397993Y-129039159D01*
X130202895Y-128979976D01*
X130050838Y-128965000D01*
X130050828Y-128965000D01*
X130000000Y-128959994D01*
X129949172Y-128965000D01*
X126928711Y-128965000D01*
X124563711Y-126600000D01*
X129961928Y-126600000D01*
X129961928Y-128400000D01*
X129974188Y-128524482D01*
X130010498Y-128644180D01*
X130069463Y-128754494D01*
X130148815Y-128851185D01*
X130245506Y-128930537D01*
X130355820Y-128989502D01*
X130475518Y-129025812D01*
X130600000Y-129038072D01*
X132400000Y-129038072D01*
X132524482Y-129025812D01*
X132644180Y-128989502D01*
X132754494Y-128930537D01*
X132851185Y-128851185D01*
X132930537Y-128754494D01*
X132989502Y-128644180D01*
X132995056Y-128625873D01*
X133061495Y-128692312D01*
X133312905Y-128860299D01*
X133592257Y-128976011D01*
X133888816Y-129035000D01*
X134191184Y-129035000D01*
X134487743Y-128976011D01*
X134767095Y-128860299D01*
X135018505Y-128692312D01*
X135232312Y-128478505D01*
X135400299Y-128227095D01*
X135516011Y-127947743D01*
X135575000Y-127651184D01*
X135575000Y-127348816D01*
X135516011Y-127052257D01*
X135400299Y-126772905D01*
X135232312Y-126521495D01*
X135018505Y-126307688D01*
X134767095Y-126139701D01*
X134487743Y-126023989D01*
X134191184Y-125965000D01*
X133888816Y-125965000D01*
X133592257Y-126023989D01*
X133312905Y-126139701D01*
X133061495Y-126307688D01*
X132995056Y-126374127D01*
X132989502Y-126355820D01*
X132930537Y-126245506D01*
X132851185Y-126148815D01*
X132754494Y-126069463D01*
X132644180Y-126010498D01*
X132524482Y-125974188D01*
X132400000Y-125961928D01*
X130600000Y-125961928D01*
X130475518Y-125974188D01*
X130355820Y-126010498D01*
X130245506Y-126069463D01*
X130148815Y-126148815D01*
X130069463Y-126245506D01*
X130010498Y-126355820D01*
X129974188Y-126475518D01*
X129961928Y-126600000D01*
X124563711Y-126600000D01*
X124037807Y-126074097D01*
X124005396Y-126034604D01*
X123847797Y-125905266D01*
X123667993Y-125809159D01*
X123472895Y-125749976D01*
X123388072Y-125741622D01*
X123388072Y-124975000D01*
X123375812Y-124850518D01*
X123339502Y-124730820D01*
X123280537Y-124620506D01*
X123201185Y-124523815D01*
X123104494Y-124444463D01*
X122994180Y-124385498D01*
X122874482Y-124349188D01*
X122750000Y-124336928D01*
X121250000Y-124336928D01*
X121125518Y-124349188D01*
X121005820Y-124385498D01*
X120895506Y-124444463D01*
X120798815Y-124523815D01*
X120719463Y-124620506D01*
X120660498Y-124730820D01*
X120624188Y-124850518D01*
X120611928Y-124975000D01*
X120611928Y-126025000D01*
X120624188Y-126149482D01*
X120660498Y-126269180D01*
X120695093Y-126333902D01*
X120631785Y-126542600D01*
X120609388Y-126770000D01*
X83199886Y-126770000D01*
X83208277Y-122934653D01*
X89365952Y-122934653D01*
X89521962Y-123250214D01*
X89896745Y-123441020D01*
X90301551Y-123555044D01*
X90720824Y-123587902D01*
X91138451Y-123538334D01*
X91538383Y-123408243D01*
X91834038Y-123250214D01*
X91990048Y-122934653D01*
X90678000Y-121622605D01*
X89365952Y-122934653D01*
X83208277Y-122934653D01*
X83211447Y-121485824D01*
X88533098Y-121485824D01*
X88582666Y-121903451D01*
X88712757Y-122303383D01*
X88870786Y-122599038D01*
X89186347Y-122755048D01*
X90498395Y-121443000D01*
X90857605Y-121443000D01*
X92169653Y-122755048D01*
X92485214Y-122599038D01*
X92676020Y-122224255D01*
X92790044Y-121819449D01*
X92822902Y-121400176D01*
X92775046Y-120996967D01*
X101987000Y-120996967D01*
X101987000Y-121319033D01*
X102049832Y-121634912D01*
X102173082Y-121932463D01*
X102352013Y-122200252D01*
X102579748Y-122427987D01*
X102847537Y-122606918D01*
X103145088Y-122730168D01*
X103460967Y-122793000D01*
X103783033Y-122793000D01*
X104098912Y-122730168D01*
X104396463Y-122606918D01*
X104664252Y-122427987D01*
X104891987Y-122200252D01*
X105070918Y-121932463D01*
X105194168Y-121634912D01*
X105257000Y-121319033D01*
X105257000Y-120996967D01*
X129429000Y-120996967D01*
X129429000Y-121319033D01*
X129491832Y-121634912D01*
X129615082Y-121932463D01*
X129794013Y-122200252D01*
X130021748Y-122427987D01*
X130289537Y-122606918D01*
X130587088Y-122730168D01*
X130902967Y-122793000D01*
X131225033Y-122793000D01*
X131540912Y-122730168D01*
X131838463Y-122606918D01*
X132106252Y-122427987D01*
X132333987Y-122200252D01*
X132512918Y-121932463D01*
X132636168Y-121634912D01*
X132699000Y-121319033D01*
X132699000Y-120996967D01*
X132636168Y-120681088D01*
X132512918Y-120383537D01*
X132333987Y-120115748D01*
X132106252Y-119888013D01*
X131838463Y-119709082D01*
X131715141Y-119658000D01*
X141879928Y-119658000D01*
X141879928Y-122658000D01*
X141892188Y-122782482D01*
X141928498Y-122902180D01*
X141987463Y-123012494D01*
X142066815Y-123109185D01*
X142163506Y-123188537D01*
X142273820Y-123247502D01*
X142393518Y-123283812D01*
X142518000Y-123296072D01*
X145518000Y-123296072D01*
X145642482Y-123283812D01*
X145762180Y-123247502D01*
X145872494Y-123188537D01*
X145969185Y-123109185D01*
X146048537Y-123012494D01*
X146107502Y-122902180D01*
X146143812Y-122782482D01*
X146156072Y-122658000D01*
X146156072Y-119658000D01*
X146143812Y-119533518D01*
X146107502Y-119413820D01*
X146048537Y-119303506D01*
X145969185Y-119206815D01*
X145872494Y-119127463D01*
X145762180Y-119068498D01*
X145642482Y-119032188D01*
X145518000Y-119019928D01*
X142518000Y-119019928D01*
X142393518Y-119032188D01*
X142273820Y-119068498D01*
X142163506Y-119127463D01*
X142066815Y-119206815D01*
X141987463Y-119303506D01*
X141928498Y-119413820D01*
X141892188Y-119533518D01*
X141879928Y-119658000D01*
X131715141Y-119658000D01*
X131540912Y-119585832D01*
X131225033Y-119523000D01*
X130902967Y-119523000D01*
X130587088Y-119585832D01*
X130289537Y-119709082D01*
X130021748Y-119888013D01*
X129794013Y-120115748D01*
X129615082Y-120383537D01*
X129491832Y-120681088D01*
X129429000Y-120996967D01*
X105257000Y-120996967D01*
X105194168Y-120681088D01*
X105070918Y-120383537D01*
X104891987Y-120115748D01*
X104664252Y-119888013D01*
X104396463Y-119709082D01*
X104098912Y-119585832D01*
X103783033Y-119523000D01*
X103460967Y-119523000D01*
X103145088Y-119585832D01*
X102847537Y-119709082D01*
X102579748Y-119888013D01*
X102352013Y-120115748D01*
X102173082Y-120383537D01*
X102049832Y-120681088D01*
X101987000Y-120996967D01*
X92775046Y-120996967D01*
X92773334Y-120982549D01*
X92643243Y-120582617D01*
X92485214Y-120286962D01*
X92169653Y-120130952D01*
X90857605Y-121443000D01*
X90498395Y-121443000D01*
X89186347Y-120130952D01*
X88870786Y-120286962D01*
X88679980Y-120661745D01*
X88565956Y-121066551D01*
X88533098Y-121485824D01*
X83211447Y-121485824D01*
X83214804Y-119951347D01*
X89365952Y-119951347D01*
X90678000Y-121263395D01*
X91990048Y-119951347D01*
X91834038Y-119635786D01*
X91459255Y-119444980D01*
X91054449Y-119330956D01*
X90635176Y-119298098D01*
X90217549Y-119347666D01*
X89817617Y-119477757D01*
X89521962Y-119635786D01*
X89365952Y-119951347D01*
X83214804Y-119951347D01*
X83225762Y-114943000D01*
X88539928Y-114943000D01*
X88539928Y-117943000D01*
X88552188Y-118067482D01*
X88588498Y-118187180D01*
X88647463Y-118297494D01*
X88726815Y-118394185D01*
X88823506Y-118473537D01*
X88933820Y-118532502D01*
X89053518Y-118568812D01*
X89178000Y-118581072D01*
X92178000Y-118581072D01*
X92302482Y-118568812D01*
X92422180Y-118532502D01*
X92532494Y-118473537D01*
X92629185Y-118394185D01*
X92708537Y-118297494D01*
X92767502Y-118187180D01*
X92803812Y-118067482D01*
X92816072Y-117943000D01*
X92816072Y-115916967D01*
X101997000Y-115916967D01*
X101997000Y-116239033D01*
X102059832Y-116554912D01*
X102183082Y-116852463D01*
X102362013Y-117120252D01*
X102589748Y-117347987D01*
X102857537Y-117526918D01*
X103155088Y-117650168D01*
X103470967Y-117713000D01*
X103793033Y-117713000D01*
X104108912Y-117650168D01*
X104406463Y-117526918D01*
X104674252Y-117347987D01*
X104901987Y-117120252D01*
X105080918Y-116852463D01*
X105204168Y-116554912D01*
X105267000Y-116239033D01*
X105267000Y-115916967D01*
X129439000Y-115916967D01*
X129439000Y-116239033D01*
X129501832Y-116554912D01*
X129625082Y-116852463D01*
X129804013Y-117120252D01*
X130031748Y-117347987D01*
X130299537Y-117526918D01*
X130597088Y-117650168D01*
X130912967Y-117713000D01*
X131235033Y-117713000D01*
X131550912Y-117650168D01*
X131848463Y-117526918D01*
X132116252Y-117347987D01*
X132343987Y-117120252D01*
X132522918Y-116852463D01*
X132646168Y-116554912D01*
X132709000Y-116239033D01*
X132709000Y-115916967D01*
X132646168Y-115601088D01*
X132522918Y-115303537D01*
X132343987Y-115035748D01*
X132116252Y-114808013D01*
X131848463Y-114629082D01*
X131550912Y-114505832D01*
X131235033Y-114443000D01*
X130912967Y-114443000D01*
X130597088Y-114505832D01*
X130299537Y-114629082D01*
X130031748Y-114808013D01*
X129804013Y-115035748D01*
X129625082Y-115303537D01*
X129501832Y-115601088D01*
X129439000Y-115916967D01*
X105267000Y-115916967D01*
X105204168Y-115601088D01*
X105080918Y-115303537D01*
X104901987Y-115035748D01*
X104674252Y-114808013D01*
X104406463Y-114629082D01*
X104108912Y-114505832D01*
X103793033Y-114443000D01*
X103470967Y-114443000D01*
X103155088Y-114505832D01*
X102857537Y-114629082D01*
X102589748Y-114808013D01*
X102362013Y-115035748D01*
X102183082Y-115303537D01*
X102059832Y-115601088D01*
X101997000Y-115916967D01*
X92816072Y-115916967D01*
X92816072Y-114943000D01*
X92803812Y-114818518D01*
X92767502Y-114698820D01*
X92708537Y-114588506D01*
X92629185Y-114491815D01*
X92532494Y-114412463D01*
X92422180Y-114353498D01*
X92302482Y-114317188D01*
X92178000Y-114304928D01*
X89178000Y-114304928D01*
X89053518Y-114317188D01*
X88933820Y-114353498D01*
X88823506Y-114412463D01*
X88726815Y-114491815D01*
X88647463Y-114588506D01*
X88588498Y-114698820D01*
X88552188Y-114818518D01*
X88539928Y-114943000D01*
X83225762Y-114943000D01*
X83238923Y-108928000D01*
X86699928Y-108928000D01*
X86699928Y-110528000D01*
X86712188Y-110652482D01*
X86748498Y-110772180D01*
X86807463Y-110882494D01*
X86886815Y-110979185D01*
X86983506Y-111058537D01*
X87093820Y-111117502D01*
X87213518Y-111153812D01*
X87338000Y-111166072D01*
X88938000Y-111166072D01*
X89062482Y-111153812D01*
X89182180Y-111117502D01*
X89292494Y-111058537D01*
X89389185Y-110979185D01*
X89468537Y-110882494D01*
X89527502Y-110772180D01*
X89563812Y-110652482D01*
X89576072Y-110528000D01*
X89576072Y-109586665D01*
X94323000Y-109586665D01*
X94323000Y-109869335D01*
X94378147Y-110146574D01*
X94486320Y-110407727D01*
X94643363Y-110642759D01*
X94843241Y-110842637D01*
X95078273Y-110999680D01*
X95339426Y-111107853D01*
X95616665Y-111163000D01*
X95899335Y-111163000D01*
X96176574Y-111107853D01*
X96437727Y-110999680D01*
X96672759Y-110842637D01*
X96872637Y-110642759D01*
X97029680Y-110407727D01*
X97086728Y-110270000D01*
X122109388Y-110270000D01*
X122131785Y-110497400D01*
X122198115Y-110716060D01*
X122299105Y-110905000D01*
X122198115Y-111093940D01*
X122131785Y-111312600D01*
X122109388Y-111540000D01*
X122131785Y-111767400D01*
X122198115Y-111986060D01*
X122305829Y-112187579D01*
X122450788Y-112364212D01*
X122627421Y-112509171D01*
X122828940Y-112616885D01*
X123047600Y-112683215D01*
X123218021Y-112700000D01*
X123781979Y-112700000D01*
X123952400Y-112683215D01*
X124171060Y-112616885D01*
X124372579Y-112509171D01*
X124549212Y-112364212D01*
X124694171Y-112187579D01*
X124801885Y-111986060D01*
X124868215Y-111767400D01*
X124890612Y-111540000D01*
X124868215Y-111312600D01*
X124801885Y-111093940D01*
X124700895Y-110905000D01*
X124801885Y-110716060D01*
X124837091Y-110600000D01*
X130961928Y-110600000D01*
X130961928Y-112400000D01*
X130974188Y-112524482D01*
X131010498Y-112644180D01*
X131069463Y-112754494D01*
X131148815Y-112851185D01*
X131245506Y-112930537D01*
X131355820Y-112989502D01*
X131475518Y-113025812D01*
X131600000Y-113038072D01*
X132574362Y-113038072D01*
X135965001Y-116428712D01*
X135965000Y-117398061D01*
X135965000Y-117601939D01*
X135974969Y-117652058D01*
X135979976Y-117702894D01*
X135994804Y-117751774D01*
X136004774Y-117801898D01*
X136024332Y-117849116D01*
X136039159Y-117897992D01*
X136063237Y-117943039D01*
X136082795Y-117990256D01*
X136111186Y-118032747D01*
X136135266Y-118077797D01*
X136167672Y-118117284D01*
X136196063Y-118159774D01*
X136232197Y-118195908D01*
X136264604Y-118235396D01*
X136304092Y-118267803D01*
X136340226Y-118303937D01*
X136382716Y-118332328D01*
X136422203Y-118364734D01*
X136467254Y-118388814D01*
X136509744Y-118417205D01*
X136556958Y-118436762D01*
X136602007Y-118460841D01*
X136650887Y-118475669D01*
X136698102Y-118495226D01*
X136748223Y-118505196D01*
X136797105Y-118520024D01*
X136847943Y-118525031D01*
X136898061Y-118535000D01*
X136949162Y-118535000D01*
X137000000Y-118540007D01*
X137050838Y-118535000D01*
X137101939Y-118535000D01*
X137152058Y-118525031D01*
X137202894Y-118520024D01*
X137251774Y-118505196D01*
X137301898Y-118495226D01*
X137349116Y-118475668D01*
X137397992Y-118460841D01*
X137443039Y-118436763D01*
X137490256Y-118417205D01*
X137532747Y-118388814D01*
X137577797Y-118364734D01*
X137617284Y-118332328D01*
X137659774Y-118303937D01*
X137695908Y-118267803D01*
X137735396Y-118235396D01*
X137767803Y-118195908D01*
X137803937Y-118159774D01*
X137832328Y-118117284D01*
X137864734Y-118077797D01*
X137888814Y-118032746D01*
X137917205Y-117990256D01*
X137936762Y-117943042D01*
X137960841Y-117897993D01*
X137975669Y-117849113D01*
X137995226Y-117801898D01*
X138005196Y-117751777D01*
X138020024Y-117702895D01*
X138025031Y-117652057D01*
X138025509Y-117649653D01*
X142705952Y-117649653D01*
X142861962Y-117965214D01*
X143236745Y-118156020D01*
X143641551Y-118270044D01*
X144060824Y-118302902D01*
X144478451Y-118253334D01*
X144878383Y-118123243D01*
X145174038Y-117965214D01*
X145330048Y-117649653D01*
X144018000Y-116337605D01*
X142705952Y-117649653D01*
X138025509Y-117649653D01*
X138035000Y-117601939D01*
X138035000Y-116200824D01*
X141873098Y-116200824D01*
X141922666Y-116618451D01*
X142052757Y-117018383D01*
X142210786Y-117314038D01*
X142526347Y-117470048D01*
X143838395Y-116158000D01*
X144197605Y-116158000D01*
X145509653Y-117470048D01*
X145825214Y-117314038D01*
X146016020Y-116939255D01*
X146130044Y-116534449D01*
X146162902Y-116115176D01*
X146113334Y-115697549D01*
X145983243Y-115297617D01*
X145825214Y-115001962D01*
X145509653Y-114845952D01*
X144197605Y-116158000D01*
X143838395Y-116158000D01*
X142526347Y-114845952D01*
X142210786Y-115001962D01*
X142019980Y-115376745D01*
X141905956Y-115781551D01*
X141873098Y-116200824D01*
X138035000Y-116200824D01*
X138035000Y-116050827D01*
X138040006Y-115999999D01*
X138035000Y-115949171D01*
X138035000Y-115949162D01*
X138020024Y-115797105D01*
X137960841Y-115602007D01*
X137916104Y-115518309D01*
X137864734Y-115422202D01*
X137767803Y-115304092D01*
X137735396Y-115264604D01*
X137695908Y-115232197D01*
X137130058Y-114666347D01*
X142705952Y-114666347D01*
X144018000Y-115978395D01*
X145330048Y-114666347D01*
X145174038Y-114350786D01*
X144799255Y-114159980D01*
X144394449Y-114045956D01*
X143975176Y-114013098D01*
X143557549Y-114062666D01*
X143157617Y-114192757D01*
X142861962Y-114350786D01*
X142705952Y-114666347D01*
X137130058Y-114666347D01*
X134038072Y-111574362D01*
X134038072Y-110600000D01*
X134025812Y-110475518D01*
X133989502Y-110355820D01*
X133930537Y-110245506D01*
X133851185Y-110148815D01*
X133754494Y-110069463D01*
X133644180Y-110010498D01*
X133625873Y-110004944D01*
X133692312Y-109938505D01*
X133860299Y-109687095D01*
X133976011Y-109407743D01*
X134035000Y-109111184D01*
X134035000Y-108808816D01*
X133976011Y-108512257D01*
X133860299Y-108232905D01*
X133692312Y-107981495D01*
X133478505Y-107767688D01*
X133227095Y-107599701D01*
X132947743Y-107483989D01*
X132651184Y-107425000D01*
X132348816Y-107425000D01*
X132052257Y-107483989D01*
X131772905Y-107599701D01*
X131521495Y-107767688D01*
X131307688Y-107981495D01*
X131139701Y-108232905D01*
X131023989Y-108512257D01*
X130965000Y-108808816D01*
X130965000Y-109111184D01*
X131023989Y-109407743D01*
X131139701Y-109687095D01*
X131307688Y-109938505D01*
X131374127Y-110004944D01*
X131355820Y-110010498D01*
X131245506Y-110069463D01*
X131148815Y-110148815D01*
X131069463Y-110245506D01*
X131010498Y-110355820D01*
X130974188Y-110475518D01*
X130961928Y-110600000D01*
X124837091Y-110600000D01*
X124868215Y-110497400D01*
X124890612Y-110270000D01*
X124868215Y-110042600D01*
X124804907Y-109833902D01*
X124839502Y-109769180D01*
X124875812Y-109649482D01*
X124888072Y-109525000D01*
X124888072Y-108475000D01*
X124875812Y-108350518D01*
X124839502Y-108230820D01*
X124780537Y-108120506D01*
X124701185Y-108023815D01*
X124604494Y-107944463D01*
X124494180Y-107885498D01*
X124374482Y-107849188D01*
X124250000Y-107836928D01*
X122750000Y-107836928D01*
X122625518Y-107849188D01*
X122505820Y-107885498D01*
X122395506Y-107944463D01*
X122298815Y-108023815D01*
X122219463Y-108120506D01*
X122160498Y-108230820D01*
X122124188Y-108350518D01*
X122111928Y-108475000D01*
X122111928Y-109525000D01*
X122124188Y-109649482D01*
X122160498Y-109769180D01*
X122195093Y-109833902D01*
X122131785Y-110042600D01*
X122109388Y-110270000D01*
X97086728Y-110270000D01*
X97137853Y-110146574D01*
X97193000Y-109869335D01*
X97193000Y-109586665D01*
X97137853Y-109309426D01*
X97029680Y-109048273D01*
X96872637Y-108813241D01*
X96672759Y-108613363D01*
X96437727Y-108456320D01*
X96176574Y-108348147D01*
X95899335Y-108293000D01*
X95616665Y-108293000D01*
X95339426Y-108348147D01*
X95078273Y-108456320D01*
X94843241Y-108613363D01*
X94643363Y-108813241D01*
X94486320Y-109048273D01*
X94378147Y-109309426D01*
X94323000Y-109586665D01*
X89576072Y-109586665D01*
X89576072Y-108928000D01*
X89563812Y-108803518D01*
X89527502Y-108683820D01*
X89468537Y-108573506D01*
X89389185Y-108476815D01*
X89292494Y-108397463D01*
X89182180Y-108338498D01*
X89062482Y-108302188D01*
X88938000Y-108289928D01*
X87338000Y-108289928D01*
X87213518Y-108302188D01*
X87093820Y-108338498D01*
X86983506Y-108397463D01*
X86886815Y-108476815D01*
X86807463Y-108573506D01*
X86748498Y-108683820D01*
X86712188Y-108803518D01*
X86699928Y-108928000D01*
X83238923Y-108928000D01*
X83240237Y-108327890D01*
X83230899Y-108230906D01*
X83193431Y-108106413D01*
X83132397Y-107991623D01*
X83127000Y-107985017D01*
X83127000Y-107292793D01*
X83298382Y-107464175D01*
X83607118Y-107670466D01*
X83950166Y-107812561D01*
X84314344Y-107885000D01*
X84685656Y-107885000D01*
X85049834Y-107812561D01*
X85392882Y-107670466D01*
X85701618Y-107464175D01*
X85964175Y-107201618D01*
X86059440Y-107059044D01*
X87112216Y-107035649D01*
X87130589Y-107050781D01*
X87245139Y-107112266D01*
X87369483Y-107150223D01*
X87466430Y-107159942D01*
X143940739Y-107258476D01*
X144037720Y-107249095D01*
X144162195Y-107211572D01*
X144276959Y-107150488D01*
X144377601Y-107068186D01*
X144460253Y-106967832D01*
X144521738Y-106853282D01*
X144559695Y-106728938D01*
X144572664Y-106599578D01*
X144567328Y-106544417D01*
X144524479Y-105909729D01*
X144543838Y-105759391D01*
X145630735Y-105735238D01*
X145615000Y-105814344D01*
X145615000Y-106185656D01*
X145687439Y-106549834D01*
X145829534Y-106892882D01*
X146035825Y-107201618D01*
X146298382Y-107464175D01*
X146607118Y-107670466D01*
X146950166Y-107812561D01*
X147314344Y-107885000D01*
X147685656Y-107885000D01*
X148049834Y-107812561D01*
X148392882Y-107670466D01*
X148701618Y-107464175D01*
X148964175Y-107201618D01*
X149170466Y-106892882D01*
X149312561Y-106549834D01*
X149385000Y-106185656D01*
X149385000Y-105814344D01*
X149352812Y-105652525D01*
X150373000Y-105629854D01*
X150373000Y-106786773D01*
M02*
