G04 #@! TF.GenerationSoftware,KiCad,Pcbnew,(5.1.6)-1*
G04 #@! TF.CreationDate,2021-06-24T11:46:10+03:00*
G04 #@! TF.ProjectId,power supply,706f7765-7220-4737-9570-706c792e6b69,rev?*
G04 #@! TF.SameCoordinates,Original*
G04 #@! TF.FileFunction,Paste,Top*
G04 #@! TF.FilePolarity,Positive*
%FSLAX46Y46*%
G04 Gerber Fmt 4.6, Leading zero omitted, Abs format (unit mm)*
G04 Created by KiCad (PCBNEW (5.1.6)-1) date 2021-06-24 11:46:10*
%MOMM*%
%LPD*%
G01*
G04 APERTURE LIST*
%ADD10R,2.000000X3.800000*%
%ADD11R,2.000000X1.500000*%
G04 APERTURE END LIST*
G36*
G01*
X127125000Y-125225000D02*
X125875000Y-125225000D01*
G75*
G02*
X125625000Y-124975000I0J250000D01*
G01*
X125625000Y-124225000D01*
G75*
G02*
X125875000Y-123975000I250000J0D01*
G01*
X127125000Y-123975000D01*
G75*
G02*
X127375000Y-124225000I0J-250000D01*
G01*
X127375000Y-124975000D01*
G75*
G02*
X127125000Y-125225000I-250000J0D01*
G01*
G37*
G36*
G01*
X127125000Y-128025000D02*
X125875000Y-128025000D01*
G75*
G02*
X125625000Y-127775000I0J250000D01*
G01*
X125625000Y-127025000D01*
G75*
G02*
X125875000Y-126775000I250000J0D01*
G01*
X127125000Y-126775000D01*
G75*
G02*
X127375000Y-127025000I0J-250000D01*
G01*
X127375000Y-127775000D01*
G75*
G02*
X127125000Y-128025000I-250000J0D01*
G01*
G37*
G36*
G01*
X114475000Y-143625000D02*
X114475000Y-142375000D01*
G75*
G02*
X114725000Y-142125000I250000J0D01*
G01*
X115475000Y-142125000D01*
G75*
G02*
X115725000Y-142375000I0J-250000D01*
G01*
X115725000Y-143625000D01*
G75*
G02*
X115475000Y-143875000I-250000J0D01*
G01*
X114725000Y-143875000D01*
G75*
G02*
X114475000Y-143625000I0J250000D01*
G01*
G37*
G36*
G01*
X117275000Y-143625000D02*
X117275000Y-142375000D01*
G75*
G02*
X117525000Y-142125000I250000J0D01*
G01*
X118275000Y-142125000D01*
G75*
G02*
X118525000Y-142375000I0J-250000D01*
G01*
X118525000Y-143625000D01*
G75*
G02*
X118275000Y-143875000I-250000J0D01*
G01*
X117525000Y-143875000D01*
G75*
G02*
X117275000Y-143625000I0J250000D01*
G01*
G37*
G36*
G01*
X114475000Y-125625000D02*
X114475000Y-124375000D01*
G75*
G02*
X114725000Y-124125000I250000J0D01*
G01*
X115475000Y-124125000D01*
G75*
G02*
X115725000Y-124375000I0J-250000D01*
G01*
X115725000Y-125625000D01*
G75*
G02*
X115475000Y-125875000I-250000J0D01*
G01*
X114725000Y-125875000D01*
G75*
G02*
X114475000Y-125625000I0J250000D01*
G01*
G37*
G36*
G01*
X117275000Y-125625000D02*
X117275000Y-124375000D01*
G75*
G02*
X117525000Y-124125000I250000J0D01*
G01*
X118275000Y-124125000D01*
G75*
G02*
X118525000Y-124375000I0J-250000D01*
G01*
X118525000Y-125625000D01*
G75*
G02*
X118275000Y-125875000I-250000J0D01*
G01*
X117525000Y-125875000D01*
G75*
G02*
X117275000Y-125625000I0J250000D01*
G01*
G37*
G36*
G01*
X123875000Y-136789000D02*
X125125000Y-136789000D01*
G75*
G02*
X125375000Y-137039000I0J-250000D01*
G01*
X125375000Y-137789000D01*
G75*
G02*
X125125000Y-138039000I-250000J0D01*
G01*
X123875000Y-138039000D01*
G75*
G02*
X123625000Y-137789000I0J250000D01*
G01*
X123625000Y-137039000D01*
G75*
G02*
X123875000Y-136789000I250000J0D01*
G01*
G37*
G36*
G01*
X123875000Y-133989000D02*
X125125000Y-133989000D01*
G75*
G02*
X125375000Y-134239000I0J-250000D01*
G01*
X125375000Y-134989000D01*
G75*
G02*
X125125000Y-135239000I-250000J0D01*
G01*
X123875000Y-135239000D01*
G75*
G02*
X123625000Y-134989000I0J250000D01*
G01*
X123625000Y-134239000D01*
G75*
G02*
X123875000Y-133989000I250000J0D01*
G01*
G37*
G36*
G01*
X111125000Y-116825000D02*
X109875000Y-116825000D01*
G75*
G02*
X109625000Y-116575000I0J250000D01*
G01*
X109625000Y-115825000D01*
G75*
G02*
X109875000Y-115575000I250000J0D01*
G01*
X111125000Y-115575000D01*
G75*
G02*
X111375000Y-115825000I0J-250000D01*
G01*
X111375000Y-116575000D01*
G75*
G02*
X111125000Y-116825000I-250000J0D01*
G01*
G37*
G36*
G01*
X111125000Y-119625000D02*
X109875000Y-119625000D01*
G75*
G02*
X109625000Y-119375000I0J250000D01*
G01*
X109625000Y-118625000D01*
G75*
G02*
X109875000Y-118375000I250000J0D01*
G01*
X111125000Y-118375000D01*
G75*
G02*
X111375000Y-118625000I0J-250000D01*
G01*
X111375000Y-119375000D01*
G75*
G02*
X111125000Y-119625000I-250000J0D01*
G01*
G37*
G36*
G01*
X117275000Y-131181000D02*
X117275000Y-129931000D01*
G75*
G02*
X117525000Y-129681000I250000J0D01*
G01*
X118275000Y-129681000D01*
G75*
G02*
X118525000Y-129931000I0J-250000D01*
G01*
X118525000Y-131181000D01*
G75*
G02*
X118275000Y-131431000I-250000J0D01*
G01*
X117525000Y-131431000D01*
G75*
G02*
X117275000Y-131181000I0J250000D01*
G01*
G37*
G36*
G01*
X114475000Y-131181000D02*
X114475000Y-129931000D01*
G75*
G02*
X114725000Y-129681000I250000J0D01*
G01*
X115475000Y-129681000D01*
G75*
G02*
X115725000Y-129931000I0J-250000D01*
G01*
X115725000Y-131181000D01*
G75*
G02*
X115475000Y-131431000I-250000J0D01*
G01*
X114725000Y-131431000D01*
G75*
G02*
X114475000Y-131181000I0J250000D01*
G01*
G37*
G36*
G01*
X124625000Y-116825000D02*
X123375000Y-116825000D01*
G75*
G02*
X123125000Y-116575000I0J250000D01*
G01*
X123125000Y-115825000D01*
G75*
G02*
X123375000Y-115575000I250000J0D01*
G01*
X124625000Y-115575000D01*
G75*
G02*
X124875000Y-115825000I0J-250000D01*
G01*
X124875000Y-116575000D01*
G75*
G02*
X124625000Y-116825000I-250000J0D01*
G01*
G37*
G36*
G01*
X124625000Y-119625000D02*
X123375000Y-119625000D01*
G75*
G02*
X123125000Y-119375000I0J250000D01*
G01*
X123125000Y-118625000D01*
G75*
G02*
X123375000Y-118375000I250000J0D01*
G01*
X124625000Y-118375000D01*
G75*
G02*
X124875000Y-118625000I0J-250000D01*
G01*
X124875000Y-119375000D01*
G75*
G02*
X124625000Y-119625000I-250000J0D01*
G01*
G37*
G36*
G01*
X110119000Y-133989000D02*
X111369000Y-133989000D01*
G75*
G02*
X111619000Y-134239000I0J-250000D01*
G01*
X111619000Y-134989000D01*
G75*
G02*
X111369000Y-135239000I-250000J0D01*
G01*
X110119000Y-135239000D01*
G75*
G02*
X109869000Y-134989000I0J250000D01*
G01*
X109869000Y-134239000D01*
G75*
G02*
X110119000Y-133989000I250000J0D01*
G01*
G37*
G36*
G01*
X110119000Y-136789000D02*
X111369000Y-136789000D01*
G75*
G02*
X111619000Y-137039000I0J-250000D01*
G01*
X111619000Y-137789000D01*
G75*
G02*
X111369000Y-138039000I-250000J0D01*
G01*
X110119000Y-138039000D01*
G75*
G02*
X109869000Y-137789000I0J250000D01*
G01*
X109869000Y-137039000D01*
G75*
G02*
X110119000Y-136789000I250000J0D01*
G01*
G37*
G36*
G01*
X141475000Y-110625000D02*
X141475000Y-109375000D01*
G75*
G02*
X141725000Y-109125000I250000J0D01*
G01*
X142475000Y-109125000D01*
G75*
G02*
X142725000Y-109375000I0J-250000D01*
G01*
X142725000Y-110625000D01*
G75*
G02*
X142475000Y-110875000I-250000J0D01*
G01*
X141725000Y-110875000D01*
G75*
G02*
X141475000Y-110625000I0J250000D01*
G01*
G37*
G36*
G01*
X144275000Y-110625000D02*
X144275000Y-109375000D01*
G75*
G02*
X144525000Y-109125000I250000J0D01*
G01*
X145275000Y-109125000D01*
G75*
G02*
X145525000Y-109375000I0J-250000D01*
G01*
X145525000Y-110625000D01*
G75*
G02*
X145275000Y-110875000I-250000J0D01*
G01*
X144525000Y-110875000D01*
G75*
G02*
X144275000Y-110625000I0J250000D01*
G01*
G37*
D10*
X120244000Y-136398000D03*
D11*
X113944000Y-136398000D03*
X113944000Y-138698000D03*
X113944000Y-134098000D03*
X114452000Y-115048000D03*
X114452000Y-119648000D03*
X114452000Y-117348000D03*
D10*
X120752000Y-117348000D03*
G36*
G01*
X140125000Y-130625000D02*
X138875000Y-130625000D01*
G75*
G02*
X138625000Y-130375000I0J250000D01*
G01*
X138625000Y-129625000D01*
G75*
G02*
X138875000Y-129375000I250000J0D01*
G01*
X140125000Y-129375000D01*
G75*
G02*
X140375000Y-129625000I0J-250000D01*
G01*
X140375000Y-130375000D01*
G75*
G02*
X140125000Y-130625000I-250000J0D01*
G01*
G37*
G36*
G01*
X140125000Y-127825000D02*
X138875000Y-127825000D01*
G75*
G02*
X138625000Y-127575000I0J250000D01*
G01*
X138625000Y-126825000D01*
G75*
G02*
X138875000Y-126575000I250000J0D01*
G01*
X140125000Y-126575000D01*
G75*
G02*
X140375000Y-126825000I0J-250000D01*
G01*
X140375000Y-127575000D01*
G75*
G02*
X140125000Y-127825000I-250000J0D01*
G01*
G37*
G36*
G01*
X117125000Y-108875000D02*
X117125000Y-110125000D01*
G75*
G02*
X116875000Y-110375000I-250000J0D01*
G01*
X116125000Y-110375000D01*
G75*
G02*
X115875000Y-110125000I0J250000D01*
G01*
X115875000Y-108875000D01*
G75*
G02*
X116125000Y-108625000I250000J0D01*
G01*
X116875000Y-108625000D01*
G75*
G02*
X117125000Y-108875000I0J-250000D01*
G01*
G37*
G36*
G01*
X114325000Y-108875000D02*
X114325000Y-110125000D01*
G75*
G02*
X114075000Y-110375000I-250000J0D01*
G01*
X113325000Y-110375000D01*
G75*
G02*
X113075000Y-110125000I0J250000D01*
G01*
X113075000Y-108875000D01*
G75*
G02*
X113325000Y-108625000I250000J0D01*
G01*
X114075000Y-108625000D01*
G75*
G02*
X114325000Y-108875000I0J-250000D01*
G01*
G37*
G36*
G01*
X143375000Y-129375000D02*
X144625000Y-129375000D01*
G75*
G02*
X144875000Y-129625000I0J-250000D01*
G01*
X144875000Y-130375000D01*
G75*
G02*
X144625000Y-130625000I-250000J0D01*
G01*
X143375000Y-130625000D01*
G75*
G02*
X143125000Y-130375000I0J250000D01*
G01*
X143125000Y-129625000D01*
G75*
G02*
X143375000Y-129375000I250000J0D01*
G01*
G37*
G36*
G01*
X143375000Y-126575000D02*
X144625000Y-126575000D01*
G75*
G02*
X144875000Y-126825000I0J-250000D01*
G01*
X144875000Y-127575000D01*
G75*
G02*
X144625000Y-127825000I-250000J0D01*
G01*
X143375000Y-127825000D01*
G75*
G02*
X143125000Y-127575000I0J250000D01*
G01*
X143125000Y-126825000D01*
G75*
G02*
X143375000Y-126575000I250000J0D01*
G01*
G37*
M02*
