G04 #@! TF.GenerationSoftware,KiCad,Pcbnew,(5.1.5)-3*
G04 #@! TF.CreationDate,2020-12-01T08:40:21+03:00*
G04 #@! TF.ProjectId,project3_2layer,70726f6a-6563-4743-935f-326c61796572,1*
G04 #@! TF.SameCoordinates,Original*
G04 #@! TF.FileFunction,Soldermask,Bot*
G04 #@! TF.FilePolarity,Negative*
%FSLAX46Y46*%
G04 Gerber Fmt 4.6, Leading zero omitted, Abs format (unit mm)*
G04 Created by KiCad (PCBNEW (5.1.5)-3) date 2020-12-01 08:40:21*
%MOMM*%
%LPD*%
G04 APERTURE LIST*
%ADD10C,0.100000*%
G04 APERTURE END LIST*
D10*
G36*
X134343512Y-151387927D02*
G01*
X134492812Y-151417624D01*
X134656784Y-151485544D01*
X134804354Y-151584147D01*
X134929853Y-151709646D01*
X135028456Y-151857216D01*
X135096376Y-152021188D01*
X135131000Y-152195259D01*
X135131000Y-152372741D01*
X135096376Y-152546812D01*
X135028456Y-152710784D01*
X134929853Y-152858354D01*
X134804354Y-152983853D01*
X134656784Y-153082456D01*
X134492812Y-153150376D01*
X134343512Y-153180073D01*
X134318742Y-153185000D01*
X134141258Y-153185000D01*
X134116488Y-153180073D01*
X133967188Y-153150376D01*
X133803216Y-153082456D01*
X133655646Y-152983853D01*
X133530147Y-152858354D01*
X133431544Y-152710784D01*
X133363624Y-152546812D01*
X133329000Y-152372741D01*
X133329000Y-152195259D01*
X133363624Y-152021188D01*
X133431544Y-151857216D01*
X133530147Y-151709646D01*
X133655646Y-151584147D01*
X133803216Y-151485544D01*
X133967188Y-151417624D01*
X134116488Y-151387927D01*
X134141258Y-151383000D01*
X134318742Y-151383000D01*
X134343512Y-151387927D01*
G37*
G36*
X129263512Y-151387927D02*
G01*
X129412812Y-151417624D01*
X129576784Y-151485544D01*
X129724354Y-151584147D01*
X129849853Y-151709646D01*
X129948456Y-151857216D01*
X130016376Y-152021188D01*
X130051000Y-152195259D01*
X130051000Y-152372741D01*
X130016376Y-152546812D01*
X129948456Y-152710784D01*
X129849853Y-152858354D01*
X129724354Y-152983853D01*
X129576784Y-153082456D01*
X129412812Y-153150376D01*
X129263512Y-153180073D01*
X129238742Y-153185000D01*
X129061258Y-153185000D01*
X129036488Y-153180073D01*
X128887188Y-153150376D01*
X128723216Y-153082456D01*
X128575646Y-152983853D01*
X128450147Y-152858354D01*
X128351544Y-152710784D01*
X128283624Y-152546812D01*
X128249000Y-152372741D01*
X128249000Y-152195259D01*
X128283624Y-152021188D01*
X128351544Y-151857216D01*
X128450147Y-151709646D01*
X128575646Y-151584147D01*
X128723216Y-151485544D01*
X128887188Y-151417624D01*
X129036488Y-151387927D01*
X129061258Y-151383000D01*
X129238742Y-151383000D01*
X129263512Y-151387927D01*
G37*
G36*
X126723512Y-151387927D02*
G01*
X126872812Y-151417624D01*
X127036784Y-151485544D01*
X127184354Y-151584147D01*
X127309853Y-151709646D01*
X127408456Y-151857216D01*
X127476376Y-152021188D01*
X127511000Y-152195259D01*
X127511000Y-152372741D01*
X127476376Y-152546812D01*
X127408456Y-152710784D01*
X127309853Y-152858354D01*
X127184354Y-152983853D01*
X127036784Y-153082456D01*
X126872812Y-153150376D01*
X126723512Y-153180073D01*
X126698742Y-153185000D01*
X126521258Y-153185000D01*
X126496488Y-153180073D01*
X126347188Y-153150376D01*
X126183216Y-153082456D01*
X126035646Y-152983853D01*
X125910147Y-152858354D01*
X125811544Y-152710784D01*
X125743624Y-152546812D01*
X125709000Y-152372741D01*
X125709000Y-152195259D01*
X125743624Y-152021188D01*
X125811544Y-151857216D01*
X125910147Y-151709646D01*
X126035646Y-151584147D01*
X126183216Y-151485544D01*
X126347188Y-151417624D01*
X126496488Y-151387927D01*
X126521258Y-151383000D01*
X126698742Y-151383000D01*
X126723512Y-151387927D01*
G37*
G36*
X124183512Y-151387927D02*
G01*
X124332812Y-151417624D01*
X124496784Y-151485544D01*
X124644354Y-151584147D01*
X124769853Y-151709646D01*
X124868456Y-151857216D01*
X124936376Y-152021188D01*
X124971000Y-152195259D01*
X124971000Y-152372741D01*
X124936376Y-152546812D01*
X124868456Y-152710784D01*
X124769853Y-152858354D01*
X124644354Y-152983853D01*
X124496784Y-153082456D01*
X124332812Y-153150376D01*
X124183512Y-153180073D01*
X124158742Y-153185000D01*
X123981258Y-153185000D01*
X123956488Y-153180073D01*
X123807188Y-153150376D01*
X123643216Y-153082456D01*
X123495646Y-152983853D01*
X123370147Y-152858354D01*
X123271544Y-152710784D01*
X123203624Y-152546812D01*
X123169000Y-152372741D01*
X123169000Y-152195259D01*
X123203624Y-152021188D01*
X123271544Y-151857216D01*
X123370147Y-151709646D01*
X123495646Y-151584147D01*
X123643216Y-151485544D01*
X123807188Y-151417624D01*
X123956488Y-151387927D01*
X123981258Y-151383000D01*
X124158742Y-151383000D01*
X124183512Y-151387927D01*
G37*
G36*
X121643512Y-151387927D02*
G01*
X121792812Y-151417624D01*
X121956784Y-151485544D01*
X122104354Y-151584147D01*
X122229853Y-151709646D01*
X122328456Y-151857216D01*
X122396376Y-152021188D01*
X122431000Y-152195259D01*
X122431000Y-152372741D01*
X122396376Y-152546812D01*
X122328456Y-152710784D01*
X122229853Y-152858354D01*
X122104354Y-152983853D01*
X121956784Y-153082456D01*
X121792812Y-153150376D01*
X121643512Y-153180073D01*
X121618742Y-153185000D01*
X121441258Y-153185000D01*
X121416488Y-153180073D01*
X121267188Y-153150376D01*
X121103216Y-153082456D01*
X120955646Y-152983853D01*
X120830147Y-152858354D01*
X120731544Y-152710784D01*
X120663624Y-152546812D01*
X120629000Y-152372741D01*
X120629000Y-152195259D01*
X120663624Y-152021188D01*
X120731544Y-151857216D01*
X120830147Y-151709646D01*
X120955646Y-151584147D01*
X121103216Y-151485544D01*
X121267188Y-151417624D01*
X121416488Y-151387927D01*
X121441258Y-151383000D01*
X121618742Y-151383000D01*
X121643512Y-151387927D01*
G37*
G36*
X119103512Y-151387927D02*
G01*
X119252812Y-151417624D01*
X119416784Y-151485544D01*
X119564354Y-151584147D01*
X119689853Y-151709646D01*
X119788456Y-151857216D01*
X119856376Y-152021188D01*
X119891000Y-152195259D01*
X119891000Y-152372741D01*
X119856376Y-152546812D01*
X119788456Y-152710784D01*
X119689853Y-152858354D01*
X119564354Y-152983853D01*
X119416784Y-153082456D01*
X119252812Y-153150376D01*
X119103512Y-153180073D01*
X119078742Y-153185000D01*
X118901258Y-153185000D01*
X118876488Y-153180073D01*
X118727188Y-153150376D01*
X118563216Y-153082456D01*
X118415646Y-152983853D01*
X118290147Y-152858354D01*
X118191544Y-152710784D01*
X118123624Y-152546812D01*
X118089000Y-152372741D01*
X118089000Y-152195259D01*
X118123624Y-152021188D01*
X118191544Y-151857216D01*
X118290147Y-151709646D01*
X118415646Y-151584147D01*
X118563216Y-151485544D01*
X118727188Y-151417624D01*
X118876488Y-151387927D01*
X118901258Y-151383000D01*
X119078742Y-151383000D01*
X119103512Y-151387927D01*
G37*
G36*
X116563512Y-151387927D02*
G01*
X116712812Y-151417624D01*
X116876784Y-151485544D01*
X117024354Y-151584147D01*
X117149853Y-151709646D01*
X117248456Y-151857216D01*
X117316376Y-152021188D01*
X117351000Y-152195259D01*
X117351000Y-152372741D01*
X117316376Y-152546812D01*
X117248456Y-152710784D01*
X117149853Y-152858354D01*
X117024354Y-152983853D01*
X116876784Y-153082456D01*
X116712812Y-153150376D01*
X116563512Y-153180073D01*
X116538742Y-153185000D01*
X116361258Y-153185000D01*
X116336488Y-153180073D01*
X116187188Y-153150376D01*
X116023216Y-153082456D01*
X115875646Y-152983853D01*
X115750147Y-152858354D01*
X115651544Y-152710784D01*
X115583624Y-152546812D01*
X115549000Y-152372741D01*
X115549000Y-152195259D01*
X115583624Y-152021188D01*
X115651544Y-151857216D01*
X115750147Y-151709646D01*
X115875646Y-151584147D01*
X116023216Y-151485544D01*
X116187188Y-151417624D01*
X116336488Y-151387927D01*
X116361258Y-151383000D01*
X116538742Y-151383000D01*
X116563512Y-151387927D01*
G37*
G36*
X114811000Y-153185000D02*
G01*
X113009000Y-153185000D01*
X113009000Y-151383000D01*
X114811000Y-151383000D01*
X114811000Y-153185000D01*
G37*
G36*
X131803512Y-151387927D02*
G01*
X131952812Y-151417624D01*
X132116784Y-151485544D01*
X132264354Y-151584147D01*
X132389853Y-151709646D01*
X132488456Y-151857216D01*
X132556376Y-152021188D01*
X132591000Y-152195259D01*
X132591000Y-152372741D01*
X132556376Y-152546812D01*
X132488456Y-152710784D01*
X132389853Y-152858354D01*
X132264354Y-152983853D01*
X132116784Y-153082456D01*
X131952812Y-153150376D01*
X131803512Y-153180073D01*
X131778742Y-153185000D01*
X131601258Y-153185000D01*
X131576488Y-153180073D01*
X131427188Y-153150376D01*
X131263216Y-153082456D01*
X131115646Y-152983853D01*
X130990147Y-152858354D01*
X130891544Y-152710784D01*
X130823624Y-152546812D01*
X130789000Y-152372741D01*
X130789000Y-152195259D01*
X130823624Y-152021188D01*
X130891544Y-151857216D01*
X130990147Y-151709646D01*
X131115646Y-151584147D01*
X131263216Y-151485544D01*
X131427188Y-151417624D01*
X131576488Y-151387927D01*
X131601258Y-151383000D01*
X131778742Y-151383000D01*
X131803512Y-151387927D01*
G37*
G36*
X97103512Y-127373927D02*
G01*
X97252812Y-127403624D01*
X97416784Y-127471544D01*
X97564354Y-127570147D01*
X97689853Y-127695646D01*
X97788456Y-127843216D01*
X97856376Y-128007188D01*
X97891000Y-128181259D01*
X97891000Y-128358741D01*
X97856376Y-128532812D01*
X97788456Y-128696784D01*
X97689853Y-128844354D01*
X97564354Y-128969853D01*
X97416784Y-129068456D01*
X97252812Y-129136376D01*
X97103512Y-129166073D01*
X97078742Y-129171000D01*
X96901258Y-129171000D01*
X96876488Y-129166073D01*
X96727188Y-129136376D01*
X96563216Y-129068456D01*
X96415646Y-128969853D01*
X96290147Y-128844354D01*
X96191544Y-128696784D01*
X96123624Y-128532812D01*
X96089000Y-128358741D01*
X96089000Y-128181259D01*
X96123624Y-128007188D01*
X96191544Y-127843216D01*
X96290147Y-127695646D01*
X96415646Y-127570147D01*
X96563216Y-127471544D01*
X96727188Y-127403624D01*
X96876488Y-127373927D01*
X96901258Y-127369000D01*
X97078742Y-127369000D01*
X97103512Y-127373927D01*
G37*
G36*
X112280000Y-127647000D02*
G01*
X110478000Y-127647000D01*
X110478000Y-125845000D01*
X112280000Y-125845000D01*
X112280000Y-127647000D01*
G37*
G36*
X106412512Y-125849927D02*
G01*
X106561812Y-125879624D01*
X106725784Y-125947544D01*
X106873354Y-126046147D01*
X106998853Y-126171646D01*
X107097456Y-126319216D01*
X107165376Y-126483188D01*
X107200000Y-126657259D01*
X107200000Y-126834741D01*
X107165376Y-127008812D01*
X107097456Y-127172784D01*
X106998853Y-127320354D01*
X106873354Y-127445853D01*
X106725784Y-127544456D01*
X106561812Y-127612376D01*
X106412512Y-127642073D01*
X106387742Y-127647000D01*
X106210258Y-127647000D01*
X106185488Y-127642073D01*
X106036188Y-127612376D01*
X105872216Y-127544456D01*
X105724646Y-127445853D01*
X105599147Y-127320354D01*
X105500544Y-127172784D01*
X105432624Y-127008812D01*
X105398000Y-126834741D01*
X105398000Y-126657259D01*
X105432624Y-126483188D01*
X105500544Y-126319216D01*
X105599147Y-126171646D01*
X105724646Y-126046147D01*
X105872216Y-125947544D01*
X106036188Y-125879624D01*
X106185488Y-125849927D01*
X106210258Y-125845000D01*
X106387742Y-125845000D01*
X106412512Y-125849927D01*
G37*
G36*
X108952512Y-125849927D02*
G01*
X109101812Y-125879624D01*
X109265784Y-125947544D01*
X109413354Y-126046147D01*
X109538853Y-126171646D01*
X109637456Y-126319216D01*
X109705376Y-126483188D01*
X109740000Y-126657259D01*
X109740000Y-126834741D01*
X109705376Y-127008812D01*
X109637456Y-127172784D01*
X109538853Y-127320354D01*
X109413354Y-127445853D01*
X109265784Y-127544456D01*
X109101812Y-127612376D01*
X108952512Y-127642073D01*
X108927742Y-127647000D01*
X108750258Y-127647000D01*
X108725488Y-127642073D01*
X108576188Y-127612376D01*
X108412216Y-127544456D01*
X108264646Y-127445853D01*
X108139147Y-127320354D01*
X108040544Y-127172784D01*
X107972624Y-127008812D01*
X107938000Y-126834741D01*
X107938000Y-126657259D01*
X107972624Y-126483188D01*
X108040544Y-126319216D01*
X108139147Y-126171646D01*
X108264646Y-126046147D01*
X108412216Y-125947544D01*
X108576188Y-125879624D01*
X108725488Y-125849927D01*
X108750258Y-125845000D01*
X108927742Y-125845000D01*
X108952512Y-125849927D01*
G37*
G36*
X97891000Y-126631000D02*
G01*
X96089000Y-126631000D01*
X96089000Y-124829000D01*
X97891000Y-124829000D01*
X97891000Y-126631000D01*
G37*
G36*
X106412512Y-123309927D02*
G01*
X106561812Y-123339624D01*
X106725784Y-123407544D01*
X106873354Y-123506147D01*
X106998853Y-123631646D01*
X107097456Y-123779216D01*
X107165376Y-123943188D01*
X107200000Y-124117259D01*
X107200000Y-124294741D01*
X107165376Y-124468812D01*
X107097456Y-124632784D01*
X106998853Y-124780354D01*
X106873354Y-124905853D01*
X106725784Y-125004456D01*
X106561812Y-125072376D01*
X106412512Y-125102073D01*
X106387742Y-125107000D01*
X106210258Y-125107000D01*
X106185488Y-125102073D01*
X106036188Y-125072376D01*
X105872216Y-125004456D01*
X105724646Y-124905853D01*
X105599147Y-124780354D01*
X105500544Y-124632784D01*
X105432624Y-124468812D01*
X105398000Y-124294741D01*
X105398000Y-124117259D01*
X105432624Y-123943188D01*
X105500544Y-123779216D01*
X105599147Y-123631646D01*
X105724646Y-123506147D01*
X105872216Y-123407544D01*
X106036188Y-123339624D01*
X106185488Y-123309927D01*
X106210258Y-123305000D01*
X106387742Y-123305000D01*
X106412512Y-123309927D01*
G37*
G36*
X111492512Y-123309927D02*
G01*
X111641812Y-123339624D01*
X111805784Y-123407544D01*
X111953354Y-123506147D01*
X112078853Y-123631646D01*
X112177456Y-123779216D01*
X112245376Y-123943188D01*
X112280000Y-124117259D01*
X112280000Y-124294741D01*
X112245376Y-124468812D01*
X112177456Y-124632784D01*
X112078853Y-124780354D01*
X111953354Y-124905853D01*
X111805784Y-125004456D01*
X111641812Y-125072376D01*
X111492512Y-125102073D01*
X111467742Y-125107000D01*
X111290258Y-125107000D01*
X111265488Y-125102073D01*
X111116188Y-125072376D01*
X110952216Y-125004456D01*
X110804646Y-124905853D01*
X110679147Y-124780354D01*
X110580544Y-124632784D01*
X110512624Y-124468812D01*
X110478000Y-124294741D01*
X110478000Y-124117259D01*
X110512624Y-123943188D01*
X110580544Y-123779216D01*
X110679147Y-123631646D01*
X110804646Y-123506147D01*
X110952216Y-123407544D01*
X111116188Y-123339624D01*
X111265488Y-123309927D01*
X111290258Y-123305000D01*
X111467742Y-123305000D01*
X111492512Y-123309927D01*
G37*
G36*
X108952512Y-123309927D02*
G01*
X109101812Y-123339624D01*
X109265784Y-123407544D01*
X109413354Y-123506147D01*
X109538853Y-123631646D01*
X109637456Y-123779216D01*
X109705376Y-123943188D01*
X109740000Y-124117259D01*
X109740000Y-124294741D01*
X109705376Y-124468812D01*
X109637456Y-124632784D01*
X109538853Y-124780354D01*
X109413354Y-124905853D01*
X109265784Y-125004456D01*
X109101812Y-125072376D01*
X108952512Y-125102073D01*
X108927742Y-125107000D01*
X108750258Y-125107000D01*
X108725488Y-125102073D01*
X108576188Y-125072376D01*
X108412216Y-125004456D01*
X108264646Y-124905853D01*
X108139147Y-124780354D01*
X108040544Y-124632784D01*
X107972624Y-124468812D01*
X107938000Y-124294741D01*
X107938000Y-124117259D01*
X107972624Y-123943188D01*
X108040544Y-123779216D01*
X108139147Y-123631646D01*
X108264646Y-123506147D01*
X108412216Y-123407544D01*
X108576188Y-123339624D01*
X108725488Y-123309927D01*
X108750258Y-123305000D01*
X108927742Y-123305000D01*
X108952512Y-123309927D01*
G37*
G36*
X121525512Y-123105927D02*
G01*
X121674812Y-123135624D01*
X121838784Y-123203544D01*
X121986354Y-123302147D01*
X122111853Y-123427646D01*
X122210456Y-123575216D01*
X122278376Y-123739188D01*
X122313000Y-123913259D01*
X122313000Y-124090741D01*
X122278376Y-124264812D01*
X122210456Y-124428784D01*
X122111853Y-124576354D01*
X121986354Y-124701853D01*
X121838784Y-124800456D01*
X121674812Y-124868376D01*
X121525512Y-124898073D01*
X121500742Y-124903000D01*
X121323258Y-124903000D01*
X121298488Y-124898073D01*
X121149188Y-124868376D01*
X120985216Y-124800456D01*
X120837646Y-124701853D01*
X120712147Y-124576354D01*
X120613544Y-124428784D01*
X120545624Y-124264812D01*
X120511000Y-124090741D01*
X120511000Y-123913259D01*
X120545624Y-123739188D01*
X120613544Y-123575216D01*
X120712147Y-123427646D01*
X120837646Y-123302147D01*
X120985216Y-123203544D01*
X121149188Y-123135624D01*
X121298488Y-123105927D01*
X121323258Y-123101000D01*
X121500742Y-123101000D01*
X121525512Y-123105927D01*
G37*
G36*
X116445512Y-123105927D02*
G01*
X116594812Y-123135624D01*
X116758784Y-123203544D01*
X116906354Y-123302147D01*
X117031853Y-123427646D01*
X117130456Y-123575216D01*
X117198376Y-123739188D01*
X117233000Y-123913259D01*
X117233000Y-124090741D01*
X117198376Y-124264812D01*
X117130456Y-124428784D01*
X117031853Y-124576354D01*
X116906354Y-124701853D01*
X116758784Y-124800456D01*
X116594812Y-124868376D01*
X116445512Y-124898073D01*
X116420742Y-124903000D01*
X116243258Y-124903000D01*
X116218488Y-124898073D01*
X116069188Y-124868376D01*
X115905216Y-124800456D01*
X115757646Y-124701853D01*
X115632147Y-124576354D01*
X115533544Y-124428784D01*
X115465624Y-124264812D01*
X115431000Y-124090741D01*
X115431000Y-123913259D01*
X115465624Y-123739188D01*
X115533544Y-123575216D01*
X115632147Y-123427646D01*
X115757646Y-123302147D01*
X115905216Y-123203544D01*
X116069188Y-123135624D01*
X116218488Y-123105927D01*
X116243258Y-123101000D01*
X116420742Y-123101000D01*
X116445512Y-123105927D01*
G37*
G36*
X124853000Y-124903000D02*
G01*
X123051000Y-124903000D01*
X123051000Y-123101000D01*
X124853000Y-123101000D01*
X124853000Y-124903000D01*
G37*
G36*
X118985512Y-123105927D02*
G01*
X119134812Y-123135624D01*
X119298784Y-123203544D01*
X119446354Y-123302147D01*
X119571853Y-123427646D01*
X119670456Y-123575216D01*
X119738376Y-123739188D01*
X119773000Y-123913259D01*
X119773000Y-124090741D01*
X119738376Y-124264812D01*
X119670456Y-124428784D01*
X119571853Y-124576354D01*
X119446354Y-124701853D01*
X119298784Y-124800456D01*
X119134812Y-124868376D01*
X118985512Y-124898073D01*
X118960742Y-124903000D01*
X118783258Y-124903000D01*
X118758488Y-124898073D01*
X118609188Y-124868376D01*
X118445216Y-124800456D01*
X118297646Y-124701853D01*
X118172147Y-124576354D01*
X118073544Y-124428784D01*
X118005624Y-124264812D01*
X117971000Y-124090741D01*
X117971000Y-123913259D01*
X118005624Y-123739188D01*
X118073544Y-123575216D01*
X118172147Y-123427646D01*
X118297646Y-123302147D01*
X118445216Y-123203544D01*
X118609188Y-123135624D01*
X118758488Y-123105927D01*
X118783258Y-123101000D01*
X118960742Y-123101000D01*
X118985512Y-123105927D01*
G37*
G36*
X133844512Y-123055927D02*
G01*
X133993812Y-123085624D01*
X134157784Y-123153544D01*
X134305354Y-123252147D01*
X134430853Y-123377646D01*
X134529456Y-123525216D01*
X134597376Y-123689188D01*
X134632000Y-123863259D01*
X134632000Y-124040741D01*
X134597376Y-124214812D01*
X134529456Y-124378784D01*
X134430853Y-124526354D01*
X134305354Y-124651853D01*
X134157784Y-124750456D01*
X133993812Y-124818376D01*
X133844512Y-124848073D01*
X133819742Y-124853000D01*
X133642258Y-124853000D01*
X133617488Y-124848073D01*
X133468188Y-124818376D01*
X133304216Y-124750456D01*
X133156646Y-124651853D01*
X133031147Y-124526354D01*
X132932544Y-124378784D01*
X132864624Y-124214812D01*
X132830000Y-124040741D01*
X132830000Y-123863259D01*
X132864624Y-123689188D01*
X132932544Y-123525216D01*
X133031147Y-123377646D01*
X133156646Y-123252147D01*
X133304216Y-123153544D01*
X133468188Y-123085624D01*
X133617488Y-123055927D01*
X133642258Y-123051000D01*
X133819742Y-123051000D01*
X133844512Y-123055927D01*
G37*
G36*
X136384512Y-123055927D02*
G01*
X136533812Y-123085624D01*
X136697784Y-123153544D01*
X136845354Y-123252147D01*
X136970853Y-123377646D01*
X137069456Y-123525216D01*
X137137376Y-123689188D01*
X137172000Y-123863259D01*
X137172000Y-124040741D01*
X137137376Y-124214812D01*
X137069456Y-124378784D01*
X136970853Y-124526354D01*
X136845354Y-124651853D01*
X136697784Y-124750456D01*
X136533812Y-124818376D01*
X136384512Y-124848073D01*
X136359742Y-124853000D01*
X136182258Y-124853000D01*
X136157488Y-124848073D01*
X136008188Y-124818376D01*
X135844216Y-124750456D01*
X135696646Y-124651853D01*
X135571147Y-124526354D01*
X135472544Y-124378784D01*
X135404624Y-124214812D01*
X135370000Y-124040741D01*
X135370000Y-123863259D01*
X135404624Y-123689188D01*
X135472544Y-123525216D01*
X135571147Y-123377646D01*
X135696646Y-123252147D01*
X135844216Y-123153544D01*
X136008188Y-123085624D01*
X136157488Y-123055927D01*
X136182258Y-123051000D01*
X136359742Y-123051000D01*
X136384512Y-123055927D01*
G37*
G36*
X131304512Y-123055927D02*
G01*
X131453812Y-123085624D01*
X131617784Y-123153544D01*
X131765354Y-123252147D01*
X131890853Y-123377646D01*
X131989456Y-123525216D01*
X132057376Y-123689188D01*
X132092000Y-123863259D01*
X132092000Y-124040741D01*
X132057376Y-124214812D01*
X131989456Y-124378784D01*
X131890853Y-124526354D01*
X131765354Y-124651853D01*
X131617784Y-124750456D01*
X131453812Y-124818376D01*
X131304512Y-124848073D01*
X131279742Y-124853000D01*
X131102258Y-124853000D01*
X131077488Y-124848073D01*
X130928188Y-124818376D01*
X130764216Y-124750456D01*
X130616646Y-124651853D01*
X130491147Y-124526354D01*
X130392544Y-124378784D01*
X130324624Y-124214812D01*
X130290000Y-124040741D01*
X130290000Y-123863259D01*
X130324624Y-123689188D01*
X130392544Y-123525216D01*
X130491147Y-123377646D01*
X130616646Y-123252147D01*
X130764216Y-123153544D01*
X130928188Y-123085624D01*
X131077488Y-123055927D01*
X131102258Y-123051000D01*
X131279742Y-123051000D01*
X131304512Y-123055927D01*
G37*
G36*
X129552000Y-124853000D02*
G01*
X127750000Y-124853000D01*
X127750000Y-123051000D01*
X129552000Y-123051000D01*
X129552000Y-124853000D01*
G37*
M02*
