M48
; DRILL file {KiCad (5.1.5)-3} date 12/01/20 08:40:27
; FORMAT={-:-/ absolute / inch / decimal}
; #@! TF.CreationDate,2020-12-01T08:40:27+03:00
; #@! TF.GenerationSoftware,Kicad,Pcbnew,(5.1.5)-3
; #@! TF.FileFunction,Plated,1,2,PTH
FMAT,2
INCH
T1C0.0157
T2C0.0394
%
G90
G05
T1
X4.0598Y-5.8566
X4.4712Y-5.2503
X4.5112Y-5.3751
X4.5139Y-5.3032
X4.5235Y-5.767
X4.5525Y-5.8225
X4.6596Y-5.5971
X4.7111Y-5.5971
X4.7737Y-5.3601
X4.8029Y-5.3074
X5.6976Y-5.1752
T2
X4.58Y-4.882
X4.68Y-4.882
X4.78Y-4.882
X4.88Y-4.882
X4.4846Y-5.9954
X4.5846Y-5.9954
X4.6846Y-5.9954
X4.7846Y-5.9954
X4.8846Y-5.9954
X4.9846Y-5.9954
X5.0846Y-5.9954
X5.1846Y-5.9954
X5.2846Y-5.9954
X4.185Y-4.89
X4.185Y-4.99
X4.285Y-4.89
X4.285Y-4.99
X4.385Y-4.89
X4.385Y-4.99
X5.065Y-4.88
X5.165Y-4.88
X5.265Y-4.88
X5.365Y-4.88
X3.8185Y-4.95
X3.8185Y-5.05
T0
M30
