G04 #@! TF.GenerationSoftware,KiCad,Pcbnew,(5.1.5)-3*
G04 #@! TF.CreationDate,2020-12-01T08:40:21+03:00*
G04 #@! TF.ProjectId,project3_2layer,70726f6a-6563-4743-935f-326c61796572,1*
G04 #@! TF.SameCoordinates,Original*
G04 #@! TF.FileFunction,Legend,Top*
G04 #@! TF.FilePolarity,Positive*
%FSLAX46Y46*%
G04 Gerber Fmt 4.6, Leading zero omitted, Abs format (unit mm)*
G04 Created by KiCad (PCBNEW (5.1.5)-3) date 2020-12-01 08:40:21*
%MOMM*%
%LPD*%
G04 APERTURE LIST*
%ADD10C,0.150000*%
%ADD11C,0.120000*%
%ADD12C,0.100000*%
G04 APERTURE END LIST*
D10*
X117546928Y-126050000D02*
X118023119Y-126050000D01*
X117451690Y-126221428D02*
X117785023Y-125621428D01*
X118118357Y-126221428D01*
X118451690Y-126221428D02*
X118451690Y-125821428D01*
X118451690Y-125935714D02*
X118499309Y-125878571D01*
X118546928Y-125850000D01*
X118642166Y-125821428D01*
X118737404Y-125821428D01*
X119213595Y-126221428D02*
X119118357Y-126192857D01*
X119070738Y-126164285D01*
X119023119Y-126107142D01*
X119023119Y-125935714D01*
X119070738Y-125878571D01*
X119118357Y-125850000D01*
X119213595Y-125821428D01*
X119356452Y-125821428D01*
X119451690Y-125850000D01*
X119499309Y-125878571D01*
X119546928Y-125935714D01*
X119546928Y-126107142D01*
X119499309Y-126164285D01*
X119451690Y-126192857D01*
X119356452Y-126221428D01*
X119213595Y-126221428D01*
X119975500Y-125821428D02*
X119975500Y-126221428D01*
X119975500Y-125878571D02*
X120023119Y-125850000D01*
X120118357Y-125821428D01*
X120261214Y-125821428D01*
X120356452Y-125850000D01*
X120404071Y-125907142D01*
X120404071Y-126221428D01*
X121594547Y-126050000D02*
X122070738Y-126050000D01*
X121499309Y-126221428D02*
X121832642Y-125621428D01*
X122165976Y-126221428D01*
X122404071Y-125821428D02*
X122642166Y-126221428D01*
X122880261Y-125821428D02*
X122642166Y-126221428D01*
X122546928Y-126364285D01*
X122499309Y-126392857D01*
X122404071Y-126421428D01*
X123689785Y-125821428D02*
X123689785Y-126221428D01*
X123261214Y-125821428D02*
X123261214Y-126135714D01*
X123308833Y-126192857D01*
X123404071Y-126221428D01*
X123546928Y-126221428D01*
X123642166Y-126192857D01*
X123689785Y-126164285D01*
X124165976Y-126221428D02*
X124165976Y-125621428D01*
X124165976Y-125850000D02*
X124261214Y-125821428D01*
X124451690Y-125821428D01*
X124546928Y-125850000D01*
X124594547Y-125878571D01*
X124642166Y-125935714D01*
X124642166Y-126107142D01*
X124594547Y-126164285D01*
X124546928Y-126192857D01*
X124451690Y-126221428D01*
X124261214Y-126221428D01*
X124165976Y-126192857D01*
X114118357Y-127242857D02*
X114023119Y-127271428D01*
X113832642Y-127271428D01*
X113737404Y-127242857D01*
X113689785Y-127185714D01*
X113689785Y-126957142D01*
X113737404Y-126900000D01*
X113832642Y-126871428D01*
X114023119Y-126871428D01*
X114118357Y-126900000D01*
X114165976Y-126957142D01*
X114165976Y-127014285D01*
X113689785Y-127071428D01*
X114594547Y-126871428D02*
X114594547Y-127271428D01*
X114594547Y-126928571D02*
X114642166Y-126900000D01*
X114737404Y-126871428D01*
X114880261Y-126871428D01*
X114975500Y-126900000D01*
X115023119Y-126957142D01*
X115023119Y-127271428D01*
X115927880Y-126871428D02*
X115927880Y-127357142D01*
X115880261Y-127414285D01*
X115832642Y-127442857D01*
X115737404Y-127471428D01*
X115594547Y-127471428D01*
X115499309Y-127442857D01*
X115927880Y-127242857D02*
X115832642Y-127271428D01*
X115642166Y-127271428D01*
X115546928Y-127242857D01*
X115499309Y-127214285D01*
X115451690Y-127157142D01*
X115451690Y-126985714D01*
X115499309Y-126928571D01*
X115546928Y-126900000D01*
X115642166Y-126871428D01*
X115832642Y-126871428D01*
X115927880Y-126900000D01*
X116832642Y-127271428D02*
X116832642Y-126957142D01*
X116785023Y-126900000D01*
X116689785Y-126871428D01*
X116499309Y-126871428D01*
X116404071Y-126900000D01*
X116832642Y-127242857D02*
X116737404Y-127271428D01*
X116499309Y-127271428D01*
X116404071Y-127242857D01*
X116356452Y-127185714D01*
X116356452Y-127128571D01*
X116404071Y-127071428D01*
X116499309Y-127042857D01*
X116737404Y-127042857D01*
X116832642Y-127014285D01*
X117308833Y-127271428D02*
X117308833Y-126871428D01*
X117308833Y-126985714D02*
X117356452Y-126928571D01*
X117404071Y-126900000D01*
X117499309Y-126871428D01*
X117594547Y-126871428D01*
X118070738Y-127271428D02*
X117975500Y-127242857D01*
X117927880Y-127214285D01*
X117880261Y-127157142D01*
X117880261Y-126985714D01*
X117927880Y-126928571D01*
X117975500Y-126900000D01*
X118070738Y-126871428D01*
X118213595Y-126871428D01*
X118308833Y-126900000D01*
X118356452Y-126928571D01*
X118404071Y-126985714D01*
X118404071Y-127157142D01*
X118356452Y-127214285D01*
X118308833Y-127242857D01*
X118213595Y-127271428D01*
X118070738Y-127271428D01*
X118832642Y-126871428D02*
X118832642Y-127271428D01*
X118832642Y-126928571D02*
X118880261Y-126900000D01*
X118975500Y-126871428D01*
X119118357Y-126871428D01*
X119213595Y-126900000D01*
X119261214Y-126957142D01*
X119261214Y-127271428D01*
X119880261Y-126928571D02*
X119785023Y-126900000D01*
X119737404Y-126871428D01*
X119689785Y-126814285D01*
X119689785Y-126785714D01*
X119737404Y-126728571D01*
X119785023Y-126700000D01*
X119880261Y-126671428D01*
X120070738Y-126671428D01*
X120165976Y-126700000D01*
X120213595Y-126728571D01*
X120261214Y-126785714D01*
X120261214Y-126814285D01*
X120213595Y-126871428D01*
X120165976Y-126900000D01*
X120070738Y-126928571D01*
X119880261Y-126928571D01*
X119785023Y-126957142D01*
X119737404Y-126985714D01*
X119689785Y-127042857D01*
X119689785Y-127157142D01*
X119737404Y-127214285D01*
X119785023Y-127242857D01*
X119880261Y-127271428D01*
X120070738Y-127271428D01*
X120165976Y-127242857D01*
X120213595Y-127214285D01*
X120261214Y-127157142D01*
X120261214Y-127042857D01*
X120213595Y-126985714D01*
X120165976Y-126957142D01*
X120070738Y-126928571D01*
X121308833Y-126985714D02*
X121261214Y-126957142D01*
X121165976Y-126928571D01*
X121070738Y-126928571D01*
X120975500Y-126957142D01*
X120927880Y-126985714D01*
X120880261Y-127042857D01*
X120880261Y-127100000D01*
X120927880Y-127157142D01*
X120975500Y-127185714D01*
X121070738Y-127214285D01*
X121165976Y-127214285D01*
X121261214Y-127185714D01*
X121308833Y-127157142D01*
X121308833Y-126928571D02*
X121308833Y-127157142D01*
X121356452Y-127185714D01*
X121404071Y-127185714D01*
X121499309Y-127157142D01*
X121546928Y-127100000D01*
X121546928Y-126957142D01*
X121451690Y-126871428D01*
X121308833Y-126814285D01*
X121118357Y-126785714D01*
X120927880Y-126814285D01*
X120785023Y-126871428D01*
X120689785Y-126957142D01*
X120642166Y-127071428D01*
X120689785Y-127185714D01*
X120785023Y-127271428D01*
X120927880Y-127328571D01*
X121118357Y-127357142D01*
X121308833Y-127328571D01*
X121451690Y-127271428D01*
X122404071Y-126871428D02*
X122404071Y-127357142D01*
X122356452Y-127414285D01*
X122308833Y-127442857D01*
X122213595Y-127471428D01*
X122070738Y-127471428D01*
X121975500Y-127442857D01*
X122404071Y-127242857D02*
X122308833Y-127271428D01*
X122118357Y-127271428D01*
X122023119Y-127242857D01*
X121975500Y-127214285D01*
X121927880Y-127157142D01*
X121927880Y-126985714D01*
X121975500Y-126928571D01*
X122023119Y-126900000D01*
X122118357Y-126871428D01*
X122308833Y-126871428D01*
X122404071Y-126900000D01*
X122880261Y-127271428D02*
X122880261Y-126871428D01*
X122880261Y-126928571D02*
X122927880Y-126900000D01*
X123023119Y-126871428D01*
X123165976Y-126871428D01*
X123261214Y-126900000D01*
X123308833Y-126957142D01*
X123308833Y-127271428D01*
X123308833Y-126957142D02*
X123356452Y-126900000D01*
X123451690Y-126871428D01*
X123594547Y-126871428D01*
X123689785Y-126900000D01*
X123737404Y-126957142D01*
X123737404Y-127271428D01*
X124642166Y-127271428D02*
X124642166Y-126957142D01*
X124594547Y-126900000D01*
X124499309Y-126871428D01*
X124308833Y-126871428D01*
X124213595Y-126900000D01*
X124642166Y-127242857D02*
X124546928Y-127271428D01*
X124308833Y-127271428D01*
X124213595Y-127242857D01*
X124165976Y-127185714D01*
X124165976Y-127128571D01*
X124213595Y-127071428D01*
X124308833Y-127042857D01*
X124546928Y-127042857D01*
X124642166Y-127014285D01*
X125118357Y-127271428D02*
X125118357Y-126871428D01*
X125118357Y-126671428D02*
X125070738Y-126700000D01*
X125118357Y-126728571D01*
X125165976Y-126700000D01*
X125118357Y-126671428D01*
X125118357Y-126728571D01*
X125737404Y-127271428D02*
X125642166Y-127242857D01*
X125594547Y-127185714D01*
X125594547Y-126671428D01*
X126118357Y-127214285D02*
X126165976Y-127242857D01*
X126118357Y-127271428D01*
X126070738Y-127242857D01*
X126118357Y-127214285D01*
X126118357Y-127271428D01*
X127023119Y-127242857D02*
X126927880Y-127271428D01*
X126737404Y-127271428D01*
X126642166Y-127242857D01*
X126594547Y-127214285D01*
X126546928Y-127157142D01*
X126546928Y-126985714D01*
X126594547Y-126928571D01*
X126642166Y-126900000D01*
X126737404Y-126871428D01*
X126927880Y-126871428D01*
X127023119Y-126900000D01*
X127594547Y-127271428D02*
X127499309Y-127242857D01*
X127451690Y-127214285D01*
X127404071Y-127157142D01*
X127404071Y-126985714D01*
X127451690Y-126928571D01*
X127499309Y-126900000D01*
X127594547Y-126871428D01*
X127737404Y-126871428D01*
X127832642Y-126900000D01*
X127880261Y-126928571D01*
X127927880Y-126985714D01*
X127927880Y-127157142D01*
X127880261Y-127214285D01*
X127832642Y-127242857D01*
X127737404Y-127271428D01*
X127594547Y-127271428D01*
X128356452Y-127271428D02*
X128356452Y-126871428D01*
X128356452Y-126928571D02*
X128404071Y-126900000D01*
X128499309Y-126871428D01*
X128642166Y-126871428D01*
X128737404Y-126900000D01*
X128785023Y-126957142D01*
X128785023Y-127271428D01*
X128785023Y-126957142D02*
X128832642Y-126900000D01*
X128927880Y-126871428D01*
X129070738Y-126871428D01*
X129165976Y-126900000D01*
X129213595Y-126957142D01*
X129213595Y-127271428D01*
X115380261Y-128092857D02*
X116142166Y-128092857D01*
X115761214Y-128321428D02*
X115761214Y-127864285D01*
X116570738Y-127778571D02*
X116618357Y-127750000D01*
X116713595Y-127721428D01*
X116951690Y-127721428D01*
X117046928Y-127750000D01*
X117094547Y-127778571D01*
X117142166Y-127835714D01*
X117142166Y-127892857D01*
X117094547Y-127978571D01*
X116523119Y-128321428D01*
X117142166Y-128321428D01*
X118046928Y-127721428D02*
X117570738Y-127721428D01*
X117523119Y-128007142D01*
X117570738Y-127978571D01*
X117665976Y-127950000D01*
X117904071Y-127950000D01*
X117999309Y-127978571D01*
X118046928Y-128007142D01*
X118094547Y-128064285D01*
X118094547Y-128207142D01*
X118046928Y-128264285D01*
X117999309Y-128292857D01*
X117904071Y-128321428D01*
X117665976Y-128321428D01*
X117570738Y-128292857D01*
X117523119Y-128264285D01*
X118951690Y-127921428D02*
X118951690Y-128321428D01*
X118713595Y-127692857D02*
X118475500Y-128121428D01*
X119094547Y-128121428D01*
X119380261Y-127721428D02*
X120046928Y-127721428D01*
X119618357Y-128321428D01*
X120618357Y-127721428D02*
X120713595Y-127721428D01*
X120808833Y-127750000D01*
X120856452Y-127778571D01*
X120904071Y-127835714D01*
X120951690Y-127950000D01*
X120951690Y-128092857D01*
X120904071Y-128207142D01*
X120856452Y-128264285D01*
X120808833Y-128292857D01*
X120713595Y-128321428D01*
X120618357Y-128321428D01*
X120523119Y-128292857D01*
X120475500Y-128264285D01*
X120427880Y-128207142D01*
X120380261Y-128092857D01*
X120380261Y-127950000D01*
X120427880Y-127835714D01*
X120475500Y-127778571D01*
X120523119Y-127750000D01*
X120618357Y-127721428D01*
X121285023Y-127721428D02*
X121904071Y-127721428D01*
X121570738Y-127950000D01*
X121713595Y-127950000D01*
X121808833Y-127978571D01*
X121856452Y-128007142D01*
X121904071Y-128064285D01*
X121904071Y-128207142D01*
X121856452Y-128264285D01*
X121808833Y-128292857D01*
X121713595Y-128321428D01*
X121427880Y-128321428D01*
X121332642Y-128292857D01*
X121285023Y-128264285D01*
X122380261Y-128321428D02*
X122570738Y-128321428D01*
X122665976Y-128292857D01*
X122713595Y-128264285D01*
X122808833Y-128178571D01*
X122856452Y-128064285D01*
X122856452Y-127835714D01*
X122808833Y-127778571D01*
X122761214Y-127750000D01*
X122665976Y-127721428D01*
X122475500Y-127721428D01*
X122380261Y-127750000D01*
X122332642Y-127778571D01*
X122285023Y-127835714D01*
X122285023Y-127978571D01*
X122332642Y-128035714D01*
X122380261Y-128064285D01*
X122475500Y-128092857D01*
X122665976Y-128092857D01*
X122761214Y-128064285D01*
X122808833Y-128035714D01*
X122856452Y-127978571D01*
X123475500Y-127721428D02*
X123570738Y-127721428D01*
X123665976Y-127750000D01*
X123713595Y-127778571D01*
X123761214Y-127835714D01*
X123808833Y-127950000D01*
X123808833Y-128092857D01*
X123761214Y-128207142D01*
X123713595Y-128264285D01*
X123665976Y-128292857D01*
X123570738Y-128321428D01*
X123475500Y-128321428D01*
X123380261Y-128292857D01*
X123332642Y-128264285D01*
X123285023Y-128207142D01*
X123237404Y-128092857D01*
X123237404Y-127950000D01*
X123285023Y-127835714D01*
X123332642Y-127778571D01*
X123380261Y-127750000D01*
X123475500Y-127721428D01*
X124285023Y-128321428D02*
X124475500Y-128321428D01*
X124570738Y-128292857D01*
X124618357Y-128264285D01*
X124713595Y-128178571D01*
X124761214Y-128064285D01*
X124761214Y-127835714D01*
X124713595Y-127778571D01*
X124665976Y-127750000D01*
X124570738Y-127721428D01*
X124380261Y-127721428D01*
X124285023Y-127750000D01*
X124237404Y-127778571D01*
X124189785Y-127835714D01*
X124189785Y-127978571D01*
X124237404Y-128035714D01*
X124285023Y-128064285D01*
X124380261Y-128092857D01*
X124570738Y-128092857D01*
X124665976Y-128064285D01*
X124713595Y-128035714D01*
X124761214Y-127978571D01*
X125665976Y-127721428D02*
X125189785Y-127721428D01*
X125142166Y-128007142D01*
X125189785Y-127978571D01*
X125285023Y-127950000D01*
X125523119Y-127950000D01*
X125618357Y-127978571D01*
X125665976Y-128007142D01*
X125713595Y-128064285D01*
X125713595Y-128207142D01*
X125665976Y-128264285D01*
X125618357Y-128292857D01*
X125523119Y-128321428D01*
X125285023Y-128321428D01*
X125189785Y-128292857D01*
X125142166Y-128264285D01*
X126570738Y-127721428D02*
X126380261Y-127721428D01*
X126285023Y-127750000D01*
X126237404Y-127778571D01*
X126142166Y-127864285D01*
X126094547Y-127978571D01*
X126094547Y-128207142D01*
X126142166Y-128264285D01*
X126189785Y-128292857D01*
X126285023Y-128321428D01*
X126475500Y-128321428D01*
X126570738Y-128292857D01*
X126618357Y-128264285D01*
X126665976Y-128207142D01*
X126665976Y-128064285D01*
X126618357Y-128007142D01*
X126570738Y-127978571D01*
X126475500Y-127950000D01*
X126285023Y-127950000D01*
X126189785Y-127978571D01*
X126142166Y-128007142D01*
X126094547Y-128064285D01*
X126999309Y-127721428D02*
X127665976Y-127721428D01*
X127237404Y-128321428D01*
X133693000Y-149404428D02*
X133893000Y-150004428D01*
X134093000Y-149404428D01*
X134635857Y-149947285D02*
X134607285Y-149975857D01*
X134521571Y-150004428D01*
X134464428Y-150004428D01*
X134378714Y-149975857D01*
X134321571Y-149918714D01*
X134293000Y-149861571D01*
X134264428Y-149747285D01*
X134264428Y-149661571D01*
X134293000Y-149547285D01*
X134321571Y-149490142D01*
X134378714Y-149433000D01*
X134464428Y-149404428D01*
X134521571Y-149404428D01*
X134607285Y-149433000D01*
X134635857Y-149461571D01*
X135235857Y-149947285D02*
X135207285Y-149975857D01*
X135121571Y-150004428D01*
X135064428Y-150004428D01*
X134978714Y-149975857D01*
X134921571Y-149918714D01*
X134893000Y-149861571D01*
X134864428Y-149747285D01*
X134864428Y-149661571D01*
X134893000Y-149547285D01*
X134921571Y-149490142D01*
X134978714Y-149433000D01*
X135064428Y-149404428D01*
X135121571Y-149404428D01*
X135207285Y-149433000D01*
X135235857Y-149461571D01*
X131178357Y-149623500D02*
X131121214Y-149594928D01*
X131035500Y-149594928D01*
X130949785Y-149623500D01*
X130892642Y-149680642D01*
X130864071Y-149737785D01*
X130835500Y-149852071D01*
X130835500Y-149937785D01*
X130864071Y-150052071D01*
X130892642Y-150109214D01*
X130949785Y-150166357D01*
X131035500Y-150194928D01*
X131092642Y-150194928D01*
X131178357Y-150166357D01*
X131206928Y-150137785D01*
X131206928Y-149937785D01*
X131092642Y-149937785D01*
X131464071Y-150194928D02*
X131464071Y-149594928D01*
X131806928Y-150194928D01*
X131806928Y-149594928D01*
X132092642Y-150194928D02*
X132092642Y-149594928D01*
X132235500Y-149594928D01*
X132321214Y-149623500D01*
X132378357Y-149680642D01*
X132406928Y-149737785D01*
X132435500Y-149852071D01*
X132435500Y-149937785D01*
X132406928Y-150052071D01*
X132378357Y-150109214D01*
X132321214Y-150166357D01*
X132235500Y-150194928D01*
X132092642Y-150194928D01*
X128652642Y-150258428D02*
X128652642Y-149658428D01*
X128795500Y-149658428D01*
X128881214Y-149687000D01*
X128938357Y-149744142D01*
X128966928Y-149801285D01*
X128995500Y-149915571D01*
X128995500Y-150001285D01*
X128966928Y-150115571D01*
X128938357Y-150172714D01*
X128881214Y-150229857D01*
X128795500Y-150258428D01*
X128652642Y-150258428D01*
X129338357Y-149915571D02*
X129281214Y-149887000D01*
X129252642Y-149858428D01*
X129224071Y-149801285D01*
X129224071Y-149772714D01*
X129252642Y-149715571D01*
X129281214Y-149687000D01*
X129338357Y-149658428D01*
X129452642Y-149658428D01*
X129509785Y-149687000D01*
X129538357Y-149715571D01*
X129566928Y-149772714D01*
X129566928Y-149801285D01*
X129538357Y-149858428D01*
X129509785Y-149887000D01*
X129452642Y-149915571D01*
X129338357Y-149915571D01*
X129281214Y-149944142D01*
X129252642Y-149972714D01*
X129224071Y-150029857D01*
X129224071Y-150144142D01*
X129252642Y-150201285D01*
X129281214Y-150229857D01*
X129338357Y-150258428D01*
X129452642Y-150258428D01*
X129509785Y-150229857D01*
X129538357Y-150201285D01*
X129566928Y-150144142D01*
X129566928Y-150029857D01*
X129538357Y-149972714D01*
X129509785Y-149944142D01*
X129452642Y-149915571D01*
X126049142Y-150258428D02*
X126049142Y-149658428D01*
X126192000Y-149658428D01*
X126277714Y-149687000D01*
X126334857Y-149744142D01*
X126363428Y-149801285D01*
X126392000Y-149915571D01*
X126392000Y-150001285D01*
X126363428Y-150115571D01*
X126334857Y-150172714D01*
X126277714Y-150229857D01*
X126192000Y-150258428D01*
X126049142Y-150258428D01*
X126592000Y-149658428D02*
X126992000Y-149658428D01*
X126734857Y-150258428D01*
X123445642Y-150258428D02*
X123445642Y-149658428D01*
X123588500Y-149658428D01*
X123674214Y-149687000D01*
X123731357Y-149744142D01*
X123759928Y-149801285D01*
X123788500Y-149915571D01*
X123788500Y-150001285D01*
X123759928Y-150115571D01*
X123731357Y-150172714D01*
X123674214Y-150229857D01*
X123588500Y-150258428D01*
X123445642Y-150258428D01*
X124302785Y-149658428D02*
X124188500Y-149658428D01*
X124131357Y-149687000D01*
X124102785Y-149715571D01*
X124045642Y-149801285D01*
X124017071Y-149915571D01*
X124017071Y-150144142D01*
X124045642Y-150201285D01*
X124074214Y-150229857D01*
X124131357Y-150258428D01*
X124245642Y-150258428D01*
X124302785Y-150229857D01*
X124331357Y-150201285D01*
X124359928Y-150144142D01*
X124359928Y-150001285D01*
X124331357Y-149944142D01*
X124302785Y-149915571D01*
X124245642Y-149887000D01*
X124131357Y-149887000D01*
X124074214Y-149915571D01*
X124045642Y-149944142D01*
X124017071Y-150001285D01*
X121032642Y-150385428D02*
X121032642Y-149785428D01*
X121175500Y-149785428D01*
X121261214Y-149814000D01*
X121318357Y-149871142D01*
X121346928Y-149928285D01*
X121375500Y-150042571D01*
X121375500Y-150128285D01*
X121346928Y-150242571D01*
X121318357Y-150299714D01*
X121261214Y-150356857D01*
X121175500Y-150385428D01*
X121032642Y-150385428D01*
X121918357Y-149785428D02*
X121632642Y-149785428D01*
X121604071Y-150071142D01*
X121632642Y-150042571D01*
X121689785Y-150014000D01*
X121832642Y-150014000D01*
X121889785Y-150042571D01*
X121918357Y-150071142D01*
X121946928Y-150128285D01*
X121946928Y-150271142D01*
X121918357Y-150328285D01*
X121889785Y-150356857D01*
X121832642Y-150385428D01*
X121689785Y-150385428D01*
X121632642Y-150356857D01*
X121604071Y-150328285D01*
X118492642Y-150448928D02*
X118492642Y-149848928D01*
X118635500Y-149848928D01*
X118721214Y-149877500D01*
X118778357Y-149934642D01*
X118806928Y-149991785D01*
X118835500Y-150106071D01*
X118835500Y-150191785D01*
X118806928Y-150306071D01*
X118778357Y-150363214D01*
X118721214Y-150420357D01*
X118635500Y-150448928D01*
X118492642Y-150448928D01*
X119349785Y-150048928D02*
X119349785Y-150448928D01*
X119206928Y-149820357D02*
X119064071Y-150248928D01*
X119435500Y-150248928D01*
X115698642Y-150448928D02*
X115698642Y-149848928D01*
X115841500Y-149848928D01*
X115927214Y-149877500D01*
X115984357Y-149934642D01*
X116012928Y-149991785D01*
X116041500Y-150106071D01*
X116041500Y-150191785D01*
X116012928Y-150306071D01*
X115984357Y-150363214D01*
X115927214Y-150420357D01*
X115841500Y-150448928D01*
X115698642Y-150448928D01*
X116241500Y-149848928D02*
X116612928Y-149848928D01*
X116412928Y-150077500D01*
X116498642Y-150077500D01*
X116555785Y-150106071D01*
X116584357Y-150134642D01*
X116612928Y-150191785D01*
X116612928Y-150334642D01*
X116584357Y-150391785D01*
X116555785Y-150420357D01*
X116498642Y-150448928D01*
X116327214Y-150448928D01*
X116270071Y-150420357D01*
X116241500Y-150391785D01*
X113349142Y-150448928D02*
X113349142Y-149848928D01*
X113492000Y-149848928D01*
X113577714Y-149877500D01*
X113634857Y-149934642D01*
X113663428Y-149991785D01*
X113692000Y-150106071D01*
X113692000Y-150191785D01*
X113663428Y-150306071D01*
X113634857Y-150363214D01*
X113577714Y-150420357D01*
X113492000Y-150448928D01*
X113349142Y-150448928D01*
X113920571Y-149906071D02*
X113949142Y-149877500D01*
X114006285Y-149848928D01*
X114149142Y-149848928D01*
X114206285Y-149877500D01*
X114234857Y-149906071D01*
X114263428Y-149963214D01*
X114263428Y-150020357D01*
X114234857Y-150106071D01*
X113892000Y-150448928D01*
X114263428Y-150448928D01*
D11*
X112709000Y-126746000D02*
X112709000Y-128076000D01*
X112709000Y-128076000D02*
X111379000Y-128076000D01*
X112709000Y-125476000D02*
X110109000Y-125476000D01*
X110109000Y-125476000D02*
X110109000Y-128076000D01*
X110109000Y-128076000D02*
X104969000Y-128076000D01*
X104969000Y-122876000D02*
X104969000Y-128076000D01*
X112709000Y-122876000D02*
X104969000Y-122876000D01*
X112709000Y-122876000D02*
X112709000Y-125476000D01*
X125282000Y-124002000D02*
X125282000Y-125332000D01*
X125282000Y-125332000D02*
X123952000Y-125332000D01*
X122682000Y-125332000D02*
X115002000Y-125332000D01*
X115002000Y-122672000D02*
X115002000Y-125332000D01*
X122682000Y-122672000D02*
X115002000Y-122672000D01*
X122682000Y-122672000D02*
X122682000Y-125332000D01*
X127321000Y-123952000D02*
X127321000Y-122622000D01*
X127321000Y-122622000D02*
X128651000Y-122622000D01*
X129921000Y-122622000D02*
X137601000Y-122622000D01*
X137601000Y-125282000D02*
X137601000Y-122622000D01*
X129921000Y-125282000D02*
X137601000Y-125282000D01*
X129921000Y-125282000D02*
X129921000Y-122622000D01*
X112580000Y-152284000D02*
X112580000Y-150954000D01*
X112580000Y-150954000D02*
X113910000Y-150954000D01*
X115180000Y-150954000D02*
X135560000Y-150954000D01*
X135560000Y-153614000D02*
X135560000Y-150954000D01*
X115180000Y-153614000D02*
X135560000Y-153614000D01*
X115180000Y-153614000D02*
X115180000Y-150954000D01*
X100340000Y-145638000D02*
X100340000Y-133038000D01*
X95240000Y-145638000D02*
X100340000Y-145638000D01*
X95240000Y-133038000D02*
X95240000Y-145638000D01*
X133975000Y-133762000D02*
X133975000Y-146362000D01*
X139075000Y-133762000D02*
X133975000Y-133762000D01*
X139075000Y-146362000D02*
X139075000Y-133762000D01*
D10*
X99779000Y-148809000D02*
X99779000Y-148859000D01*
X103929000Y-148809000D02*
X103929000Y-148954000D01*
X103929000Y-153959000D02*
X103929000Y-153814000D01*
X99779000Y-153959000D02*
X99779000Y-153814000D01*
X99779000Y-148809000D02*
X103929000Y-148809000D01*
X99779000Y-153959000D02*
X103929000Y-153959000D01*
X99779000Y-148859000D02*
X98379000Y-148859000D01*
D11*
X142694500Y-128218000D02*
X141042000Y-128218000D01*
X142694500Y-127935500D02*
X142694500Y-128218000D01*
X145442000Y-127935500D02*
X142694500Y-127935500D01*
X148189500Y-127935500D02*
X148189500Y-128218000D01*
X145442000Y-127935500D02*
X148189500Y-127935500D01*
X142694500Y-133430500D02*
X142694500Y-133148000D01*
X145442000Y-133430500D02*
X142694500Y-133430500D01*
X148189500Y-133430500D02*
X148189500Y-133148000D01*
X145442000Y-133430500D02*
X148189500Y-133430500D01*
D10*
X142792000Y-138928000D02*
X141042000Y-138928000D01*
X142792000Y-144233000D02*
X148292000Y-144233000D01*
X142792000Y-138723000D02*
X148292000Y-138723000D01*
X142792000Y-144233000D02*
X142792000Y-143933000D01*
X148292000Y-144233000D02*
X148292000Y-143933000D01*
X148292000Y-138723000D02*
X148292000Y-139023000D01*
X142792000Y-138723000D02*
X142792000Y-138928000D01*
D12*
X124799000Y-144865000D02*
X124799000Y-143215000D01*
X123149000Y-144865000D02*
X124799000Y-144865000D01*
X111929000Y-144865000D02*
X111929000Y-143215000D01*
X113579000Y-144865000D02*
X111929000Y-144865000D01*
X124799000Y-131995000D02*
X124799000Y-133645000D01*
X123149000Y-131995000D02*
X124799000Y-131995000D01*
X111929000Y-133145000D02*
X111929000Y-133645000D01*
X113079000Y-131995000D02*
X111929000Y-133145000D01*
X113579000Y-131995000D02*
X113079000Y-131995000D01*
D11*
X127604000Y-129190000D02*
X119364000Y-129190000D01*
X127604000Y-147670000D02*
X127604000Y-129190000D01*
X109124000Y-147670000D02*
X127604000Y-147670000D01*
X109124000Y-130190000D02*
X109124000Y-147670000D01*
X110124000Y-129190000D02*
X109124000Y-130190000D01*
X117364000Y-129190000D02*
X110124000Y-129190000D01*
X130399748Y-140791000D02*
X130922252Y-140791000D01*
X130399748Y-139371000D02*
X130922252Y-139371000D01*
X130922252Y-134799000D02*
X130399748Y-134799000D01*
X130922252Y-136219000D02*
X130399748Y-136219000D01*
X145486000Y-153273000D02*
X145486000Y-150413000D01*
X145486000Y-150413000D02*
X143566000Y-150413000D01*
X143566000Y-150413000D02*
X143566000Y-153273000D01*
X104573000Y-140581748D02*
X104573000Y-141104252D01*
X105993000Y-140581748D02*
X105993000Y-141104252D01*
X105993000Y-134745252D02*
X105993000Y-134222748D01*
X104573000Y-134745252D02*
X104573000Y-134222748D01*
X133795000Y-130309252D02*
X133795000Y-129786748D01*
X132375000Y-130309252D02*
X132375000Y-129786748D01*
X95660000Y-124400000D02*
X96990000Y-124400000D01*
X95660000Y-125730000D02*
X95660000Y-124400000D01*
X95660000Y-127000000D02*
X98320000Y-127000000D01*
X98320000Y-127000000D02*
X98320000Y-129600000D01*
X95660000Y-127000000D02*
X95660000Y-129600000D01*
X95660000Y-129600000D02*
X98320000Y-129600000D01*
D10*
X105521166Y-128611380D02*
X105521166Y-129325666D01*
X105473547Y-129468523D01*
X105378309Y-129563761D01*
X105235452Y-129611380D01*
X105140214Y-129611380D01*
X105902119Y-128611380D02*
X106521166Y-128611380D01*
X106187833Y-128992333D01*
X106330690Y-128992333D01*
X106425928Y-129039952D01*
X106473547Y-129087571D01*
X106521166Y-129182809D01*
X106521166Y-129420904D01*
X106473547Y-129516142D01*
X106425928Y-129563761D01*
X106330690Y-129611380D01*
X106044976Y-129611380D01*
X105949738Y-129563761D01*
X105902119Y-129516142D01*
X104401880Y-126698190D02*
X103401880Y-126698190D01*
X104306642Y-125650571D02*
X104354261Y-125698190D01*
X104401880Y-125841047D01*
X104401880Y-125936285D01*
X104354261Y-126079142D01*
X104259023Y-126174380D01*
X104163785Y-126222000D01*
X103973309Y-126269619D01*
X103830452Y-126269619D01*
X103639976Y-126222000D01*
X103544738Y-126174380D01*
X103449500Y-126079142D01*
X103401880Y-125936285D01*
X103401880Y-125841047D01*
X103449500Y-125698190D01*
X103497119Y-125650571D01*
X104354261Y-125269619D02*
X104401880Y-125126761D01*
X104401880Y-124888666D01*
X104354261Y-124793428D01*
X104306642Y-124745809D01*
X104211404Y-124698190D01*
X104116166Y-124698190D01*
X104020928Y-124745809D01*
X103973309Y-124793428D01*
X103925690Y-124888666D01*
X103878071Y-125079142D01*
X103830452Y-125174380D01*
X103782833Y-125222000D01*
X103687595Y-125269619D01*
X103592357Y-125269619D01*
X103497119Y-125222000D01*
X103449500Y-125174380D01*
X103401880Y-125079142D01*
X103401880Y-124841047D01*
X103449500Y-124698190D01*
X104401880Y-124269619D02*
X103401880Y-124269619D01*
X103401880Y-123888666D01*
X103449500Y-123793428D01*
X103497119Y-123745809D01*
X103592357Y-123698190D01*
X103735214Y-123698190D01*
X103830452Y-123745809D01*
X103878071Y-123793428D01*
X103925690Y-123888666D01*
X103925690Y-124269619D01*
X124063166Y-121118380D02*
X124063166Y-121832666D01*
X124015547Y-121975523D01*
X123920309Y-122070761D01*
X123777452Y-122118380D01*
X123682214Y-122118380D01*
X124967928Y-121451714D02*
X124967928Y-122118380D01*
X124729833Y-121070761D02*
X124491738Y-121785047D01*
X125110785Y-121785047D01*
X115570238Y-122070761D02*
X115665476Y-122118380D01*
X115855952Y-122118380D01*
X115951190Y-122070761D01*
X115998809Y-121975523D01*
X115998809Y-121927904D01*
X115951190Y-121832666D01*
X115855952Y-121785047D01*
X115713095Y-121785047D01*
X115617857Y-121737428D01*
X115570238Y-121642190D01*
X115570238Y-121594571D01*
X115617857Y-121499333D01*
X115713095Y-121451714D01*
X115855952Y-121451714D01*
X115951190Y-121499333D01*
X116808333Y-122070761D02*
X116713095Y-122118380D01*
X116522619Y-122118380D01*
X116427380Y-122070761D01*
X116379761Y-121975523D01*
X116379761Y-121594571D01*
X116427380Y-121499333D01*
X116522619Y-121451714D01*
X116713095Y-121451714D01*
X116808333Y-121499333D01*
X116855952Y-121594571D01*
X116855952Y-121689809D01*
X116379761Y-121785047D01*
X117284523Y-122118380D02*
X117284523Y-121451714D01*
X117284523Y-121642190D02*
X117332142Y-121546952D01*
X117379761Y-121499333D01*
X117475000Y-121451714D01*
X117570238Y-121451714D01*
X117903571Y-122118380D02*
X117903571Y-121451714D01*
X117903571Y-121118380D02*
X117855952Y-121166000D01*
X117903571Y-121213619D01*
X117951190Y-121166000D01*
X117903571Y-121118380D01*
X117903571Y-121213619D01*
X118808333Y-122118380D02*
X118808333Y-121594571D01*
X118760714Y-121499333D01*
X118665476Y-121451714D01*
X118475000Y-121451714D01*
X118379761Y-121499333D01*
X118808333Y-122070761D02*
X118713095Y-122118380D01*
X118475000Y-122118380D01*
X118379761Y-122070761D01*
X118332142Y-121975523D01*
X118332142Y-121880285D01*
X118379761Y-121785047D01*
X118475000Y-121737428D01*
X118713095Y-121737428D01*
X118808333Y-121689809D01*
X119427380Y-122118380D02*
X119332142Y-122070761D01*
X119284523Y-121975523D01*
X119284523Y-121118380D01*
X128825666Y-121245380D02*
X128825666Y-121959666D01*
X128778047Y-122102523D01*
X128682809Y-122197761D01*
X128539952Y-122245380D01*
X128444714Y-122245380D01*
X129254238Y-121340619D02*
X129301857Y-121293000D01*
X129397095Y-121245380D01*
X129635190Y-121245380D01*
X129730428Y-121293000D01*
X129778047Y-121340619D01*
X129825666Y-121435857D01*
X129825666Y-121531095D01*
X129778047Y-121673952D01*
X129206619Y-122245380D01*
X129825666Y-122245380D01*
X139463428Y-124664714D02*
X138863428Y-124664714D01*
X138920571Y-124407571D02*
X138892000Y-124379000D01*
X138863428Y-124321857D01*
X138863428Y-124179000D01*
X138892000Y-124121857D01*
X138920571Y-124093285D01*
X138977714Y-124064714D01*
X139034857Y-124064714D01*
X139120571Y-124093285D01*
X139463428Y-124436142D01*
X139463428Y-124064714D01*
X139406285Y-123464714D02*
X139434857Y-123493285D01*
X139463428Y-123579000D01*
X139463428Y-123636142D01*
X139434857Y-123721857D01*
X139377714Y-123779000D01*
X139320571Y-123807571D01*
X139206285Y-123836142D01*
X139120571Y-123836142D01*
X139006285Y-123807571D01*
X138949142Y-123779000D01*
X138892000Y-123721857D01*
X138863428Y-123636142D01*
X138863428Y-123579000D01*
X138892000Y-123493285D01*
X138920571Y-123464714D01*
X111032380Y-152617333D02*
X111746666Y-152617333D01*
X111889523Y-152664952D01*
X111984761Y-152760190D01*
X112032380Y-152903047D01*
X112032380Y-152998285D01*
X112032380Y-151617333D02*
X112032380Y-152188761D01*
X112032380Y-151903047D02*
X111032380Y-151903047D01*
X111175238Y-151998285D01*
X111270476Y-152093523D01*
X111318095Y-152188761D01*
X98909190Y-147034190D02*
X99385380Y-147034190D01*
X98385380Y-147367523D02*
X98909190Y-147034190D01*
X98385380Y-146700857D01*
X98480619Y-146415142D02*
X98433000Y-146367523D01*
X98385380Y-146272285D01*
X98385380Y-146034190D01*
X98433000Y-145938952D01*
X98480619Y-145891333D01*
X98575857Y-145843714D01*
X98671095Y-145843714D01*
X98813952Y-145891333D01*
X99385380Y-146462761D01*
X99385380Y-145843714D01*
X140051190Y-140938190D02*
X140527380Y-140938190D01*
X139527380Y-141271523D02*
X140051190Y-140938190D01*
X139527380Y-140604857D01*
X140527380Y-139747714D02*
X140527380Y-140319142D01*
X140527380Y-140033428D02*
X139527380Y-140033428D01*
X139670238Y-140128666D01*
X139765476Y-140223904D01*
X139813095Y-140319142D01*
X133189285Y-143233428D02*
X133217857Y-143262000D01*
X133246428Y-143347714D01*
X133246428Y-143404857D01*
X133217857Y-143490571D01*
X133160714Y-143547714D01*
X133103571Y-143576285D01*
X132989285Y-143604857D01*
X132903571Y-143604857D01*
X132789285Y-143576285D01*
X132732142Y-143547714D01*
X132675000Y-143490571D01*
X132646428Y-143404857D01*
X132646428Y-143347714D01*
X132675000Y-143262000D01*
X132703571Y-143233428D01*
X133246428Y-142976285D02*
X132846428Y-142976285D01*
X132960714Y-142976285D02*
X132903571Y-142947714D01*
X132875000Y-142919142D01*
X132846428Y-142862000D01*
X132846428Y-142804857D01*
X132846428Y-142662000D02*
X133246428Y-142519142D01*
X132846428Y-142376285D02*
X133246428Y-142519142D01*
X133389285Y-142576285D01*
X133417857Y-142604857D01*
X133446428Y-142662000D01*
X133217857Y-142176285D02*
X133246428Y-142119142D01*
X133246428Y-142004857D01*
X133217857Y-141947714D01*
X133160714Y-141919142D01*
X133132142Y-141919142D01*
X133075000Y-141947714D01*
X133046428Y-142004857D01*
X133046428Y-142090571D01*
X133017857Y-142147714D01*
X132960714Y-142176285D01*
X132932142Y-142176285D01*
X132875000Y-142147714D01*
X132846428Y-142090571D01*
X132846428Y-142004857D01*
X132875000Y-141947714D01*
X132846428Y-141747714D02*
X132846428Y-141519142D01*
X132646428Y-141662000D02*
X133160714Y-141662000D01*
X133217857Y-141633428D01*
X133246428Y-141576285D01*
X133246428Y-141519142D01*
X133246428Y-141062000D02*
X132932142Y-141062000D01*
X132875000Y-141090571D01*
X132846428Y-141147714D01*
X132846428Y-141262000D01*
X132875000Y-141319142D01*
X133217857Y-141062000D02*
X133246428Y-141119142D01*
X133246428Y-141262000D01*
X133217857Y-141319142D01*
X133160714Y-141347714D01*
X133103571Y-141347714D01*
X133046428Y-141319142D01*
X133017857Y-141262000D01*
X133017857Y-141119142D01*
X132989285Y-141062000D01*
X133246428Y-140690571D02*
X133217857Y-140747714D01*
X133160714Y-140776285D01*
X132646428Y-140776285D01*
X132646428Y-140062000D02*
X132646428Y-139690571D01*
X132875000Y-139890571D01*
X132875000Y-139804857D01*
X132903571Y-139747714D01*
X132932142Y-139719142D01*
X132989285Y-139690571D01*
X133132142Y-139690571D01*
X133189285Y-139719142D01*
X133217857Y-139747714D01*
X133246428Y-139804857D01*
X133246428Y-139976285D01*
X133217857Y-140033428D01*
X133189285Y-140062000D01*
X132703571Y-139462000D02*
X132675000Y-139433428D01*
X132646428Y-139376285D01*
X132646428Y-139233428D01*
X132675000Y-139176285D01*
X132703571Y-139147714D01*
X132760714Y-139119142D01*
X132817857Y-139119142D01*
X132903571Y-139147714D01*
X133246428Y-139490571D01*
X133246428Y-139119142D01*
X133246428Y-138862000D02*
X132646428Y-138862000D01*
X133075000Y-138662000D01*
X132646428Y-138462000D01*
X133246428Y-138462000D01*
X133246428Y-138176285D02*
X132646428Y-138176285D01*
X132932142Y-138176285D02*
X132932142Y-137833428D01*
X133246428Y-137833428D02*
X132646428Y-137833428D01*
X132846428Y-137604857D02*
X132846428Y-137290571D01*
X133246428Y-137604857D01*
X133246428Y-137290571D01*
X106045095Y-152677880D02*
X106045095Y-153487404D01*
X106092714Y-153582642D01*
X106140333Y-153630261D01*
X106235571Y-153677880D01*
X106426047Y-153677880D01*
X106521285Y-153630261D01*
X106568904Y-153582642D01*
X106616523Y-153487404D01*
X106616523Y-152677880D01*
X107568904Y-152677880D02*
X107092714Y-152677880D01*
X107045095Y-153154071D01*
X107092714Y-153106452D01*
X107187952Y-153058833D01*
X107426047Y-153058833D01*
X107521285Y-153106452D01*
X107568904Y-153154071D01*
X107616523Y-153249309D01*
X107616523Y-153487404D01*
X107568904Y-153582642D01*
X107521285Y-153630261D01*
X107426047Y-153677880D01*
X107187952Y-153677880D01*
X107092714Y-153630261D01*
X107045095Y-153582642D01*
X98536571Y-147747071D02*
X98584190Y-147718500D01*
X98679428Y-147689928D01*
X98917523Y-147689928D01*
X99012761Y-147718500D01*
X99060380Y-147747071D01*
X99108000Y-147804214D01*
X99108000Y-147861357D01*
X99060380Y-147947071D01*
X98488952Y-148289928D01*
X99108000Y-148289928D01*
X99965142Y-147889928D02*
X99965142Y-148289928D01*
X99727047Y-147661357D02*
X99488952Y-148089928D01*
X100108000Y-148089928D01*
X100965142Y-148289928D02*
X100488952Y-148289928D01*
X100488952Y-147689928D01*
X101869904Y-148232785D02*
X101822285Y-148261357D01*
X101679428Y-148289928D01*
X101584190Y-148289928D01*
X101441333Y-148261357D01*
X101346095Y-148204214D01*
X101298476Y-148147071D01*
X101250857Y-148032785D01*
X101250857Y-147947071D01*
X101298476Y-147832785D01*
X101346095Y-147775642D01*
X101441333Y-147718500D01*
X101584190Y-147689928D01*
X101679428Y-147689928D01*
X101822285Y-147718500D01*
X101869904Y-147747071D01*
X102822285Y-148289928D02*
X102250857Y-148289928D01*
X102536571Y-148289928D02*
X102536571Y-147689928D01*
X102441333Y-147775642D01*
X102346095Y-147832785D01*
X102250857Y-147861357D01*
X103441333Y-147689928D02*
X103536571Y-147689928D01*
X103631809Y-147718500D01*
X103679428Y-147747071D01*
X103727047Y-147804214D01*
X103774666Y-147918500D01*
X103774666Y-148061357D01*
X103727047Y-148175642D01*
X103679428Y-148232785D01*
X103631809Y-148261357D01*
X103536571Y-148289928D01*
X103441333Y-148289928D01*
X103346095Y-148261357D01*
X103298476Y-148232785D01*
X103250857Y-148175642D01*
X103203238Y-148061357D01*
X103203238Y-147918500D01*
X103250857Y-147804214D01*
X103298476Y-147747071D01*
X103346095Y-147718500D01*
X103441333Y-147689928D01*
X104155619Y-147747071D02*
X104203238Y-147718500D01*
X104298476Y-147689928D01*
X104536571Y-147689928D01*
X104631809Y-147718500D01*
X104679428Y-147747071D01*
X104727047Y-147804214D01*
X104727047Y-147861357D01*
X104679428Y-147947071D01*
X104108000Y-148289928D01*
X104727047Y-148289928D01*
X105631809Y-147689928D02*
X105155619Y-147689928D01*
X105108000Y-147975642D01*
X105155619Y-147947071D01*
X105250857Y-147918500D01*
X105488952Y-147918500D01*
X105584190Y-147947071D01*
X105631809Y-147975642D01*
X105679428Y-148032785D01*
X105679428Y-148175642D01*
X105631809Y-148232785D01*
X105584190Y-148261357D01*
X105488952Y-148289928D01*
X105250857Y-148289928D01*
X105155619Y-148261357D01*
X105108000Y-148232785D01*
X144680095Y-126545380D02*
X144680095Y-127354904D01*
X144727714Y-127450142D01*
X144775333Y-127497761D01*
X144870571Y-127545380D01*
X145061047Y-127545380D01*
X145156285Y-127497761D01*
X145203904Y-127450142D01*
X145251523Y-127354904D01*
X145251523Y-126545380D01*
X146156285Y-126878714D02*
X146156285Y-127545380D01*
X145918190Y-126497761D02*
X145680095Y-127212047D01*
X146299142Y-127212047D01*
X143299142Y-134001571D02*
X143327714Y-133973000D01*
X143384857Y-133944428D01*
X143527714Y-133944428D01*
X143584857Y-133973000D01*
X143613428Y-134001571D01*
X143642000Y-134058714D01*
X143642000Y-134115857D01*
X143613428Y-134201571D01*
X143270571Y-134544428D01*
X143642000Y-134544428D01*
X144156285Y-134144428D02*
X144156285Y-134544428D01*
X144013428Y-133915857D02*
X143870571Y-134344428D01*
X144242000Y-134344428D01*
X144756285Y-134544428D02*
X144470571Y-134544428D01*
X144470571Y-133944428D01*
X145299142Y-134487285D02*
X145270571Y-134515857D01*
X145184857Y-134544428D01*
X145127714Y-134544428D01*
X145042000Y-134515857D01*
X144984857Y-134458714D01*
X144956285Y-134401571D01*
X144927714Y-134287285D01*
X144927714Y-134201571D01*
X144956285Y-134087285D01*
X144984857Y-134030142D01*
X145042000Y-133973000D01*
X145127714Y-133944428D01*
X145184857Y-133944428D01*
X145270571Y-133973000D01*
X145299142Y-134001571D01*
X145870571Y-134544428D02*
X145527714Y-134544428D01*
X145699142Y-134544428D02*
X145699142Y-133944428D01*
X145642000Y-134030142D01*
X145584857Y-134087285D01*
X145527714Y-134115857D01*
X146242000Y-133944428D02*
X146299142Y-133944428D01*
X146356285Y-133973000D01*
X146384857Y-134001571D01*
X146413428Y-134058714D01*
X146442000Y-134173000D01*
X146442000Y-134315857D01*
X146413428Y-134430142D01*
X146384857Y-134487285D01*
X146356285Y-134515857D01*
X146299142Y-134544428D01*
X146242000Y-134544428D01*
X146184857Y-134515857D01*
X146156285Y-134487285D01*
X146127714Y-134430142D01*
X146099142Y-134315857D01*
X146099142Y-134173000D01*
X146127714Y-134058714D01*
X146156285Y-134001571D01*
X146184857Y-133973000D01*
X146242000Y-133944428D01*
X146670571Y-134001571D02*
X146699142Y-133973000D01*
X146756285Y-133944428D01*
X146899142Y-133944428D01*
X146956285Y-133973000D01*
X146984857Y-134001571D01*
X147013428Y-134058714D01*
X147013428Y-134115857D01*
X146984857Y-134201571D01*
X146642000Y-134544428D01*
X147013428Y-134544428D01*
X147556285Y-133944428D02*
X147270571Y-133944428D01*
X147242000Y-134230142D01*
X147270571Y-134201571D01*
X147327714Y-134173000D01*
X147470571Y-134173000D01*
X147527714Y-134201571D01*
X147556285Y-134230142D01*
X147584857Y-134287285D01*
X147584857Y-134430142D01*
X147556285Y-134487285D01*
X147527714Y-134515857D01*
X147470571Y-134544428D01*
X147327714Y-134544428D01*
X147270571Y-134515857D01*
X147242000Y-134487285D01*
X144780095Y-137250380D02*
X144780095Y-138059904D01*
X144827714Y-138155142D01*
X144875333Y-138202761D01*
X144970571Y-138250380D01*
X145161047Y-138250380D01*
X145256285Y-138202761D01*
X145303904Y-138155142D01*
X145351523Y-138059904D01*
X145351523Y-137250380D01*
X145732476Y-137250380D02*
X146351523Y-137250380D01*
X146018190Y-137631333D01*
X146161047Y-137631333D01*
X146256285Y-137678952D01*
X146303904Y-137726571D01*
X146351523Y-137821809D01*
X146351523Y-138059904D01*
X146303904Y-138155142D01*
X146256285Y-138202761D01*
X146161047Y-138250380D01*
X145875333Y-138250380D01*
X145780095Y-138202761D01*
X145732476Y-138155142D01*
X142613428Y-145429428D02*
X142613428Y-144829428D01*
X142756285Y-144829428D01*
X142842000Y-144858000D01*
X142899142Y-144915142D01*
X142927714Y-144972285D01*
X142956285Y-145086571D01*
X142956285Y-145172285D01*
X142927714Y-145286571D01*
X142899142Y-145343714D01*
X142842000Y-145400857D01*
X142756285Y-145429428D01*
X142613428Y-145429428D01*
X143184857Y-145400857D02*
X143270571Y-145429428D01*
X143413428Y-145429428D01*
X143470571Y-145400857D01*
X143499142Y-145372285D01*
X143527714Y-145315142D01*
X143527714Y-145258000D01*
X143499142Y-145200857D01*
X143470571Y-145172285D01*
X143413428Y-145143714D01*
X143299142Y-145115142D01*
X143242000Y-145086571D01*
X143213428Y-145058000D01*
X143184857Y-145000857D01*
X143184857Y-144943714D01*
X143213428Y-144886571D01*
X143242000Y-144858000D01*
X143299142Y-144829428D01*
X143442000Y-144829428D01*
X143527714Y-144858000D01*
X144099142Y-145429428D02*
X143756285Y-145429428D01*
X143927714Y-145429428D02*
X143927714Y-144829428D01*
X143870571Y-144915142D01*
X143813428Y-144972285D01*
X143756285Y-145000857D01*
X144299142Y-144829428D02*
X144670571Y-144829428D01*
X144470571Y-145058000D01*
X144556285Y-145058000D01*
X144613428Y-145086571D01*
X144642000Y-145115142D01*
X144670571Y-145172285D01*
X144670571Y-145315142D01*
X144642000Y-145372285D01*
X144613428Y-145400857D01*
X144556285Y-145429428D01*
X144384857Y-145429428D01*
X144327714Y-145400857D01*
X144299142Y-145372285D01*
X144870571Y-144829428D02*
X145242000Y-144829428D01*
X145042000Y-145058000D01*
X145127714Y-145058000D01*
X145184857Y-145086571D01*
X145213428Y-145115142D01*
X145242000Y-145172285D01*
X145242000Y-145315142D01*
X145213428Y-145372285D01*
X145184857Y-145400857D01*
X145127714Y-145429428D01*
X144956285Y-145429428D01*
X144899142Y-145400857D01*
X144870571Y-145372285D01*
X145442000Y-144829428D02*
X145842000Y-144829428D01*
X145584857Y-145429428D01*
X145927714Y-145486571D02*
X146384857Y-145486571D01*
X146527714Y-145429428D02*
X146527714Y-144829428D01*
X146756285Y-144829428D01*
X146813428Y-144858000D01*
X146842000Y-144886571D01*
X146870571Y-144943714D01*
X146870571Y-145029428D01*
X146842000Y-145086571D01*
X146813428Y-145115142D01*
X146756285Y-145143714D01*
X146527714Y-145143714D01*
X147127714Y-145429428D02*
X147127714Y-144829428D01*
X147270571Y-144829428D01*
X147356285Y-144858000D01*
X147413428Y-144915142D01*
X147442000Y-144972285D01*
X147470571Y-145086571D01*
X147470571Y-145172285D01*
X147442000Y-145286571D01*
X147413428Y-145343714D01*
X147356285Y-145400857D01*
X147270571Y-145429428D01*
X147127714Y-145429428D01*
X147670571Y-145029428D02*
X147813428Y-145429428D01*
X147956285Y-145029428D01*
X148156285Y-144886571D02*
X148184857Y-144858000D01*
X148242000Y-144829428D01*
X148384857Y-144829428D01*
X148442000Y-144858000D01*
X148470571Y-144886571D01*
X148499142Y-144943714D01*
X148499142Y-145000857D01*
X148470571Y-145086571D01*
X148127714Y-145429428D01*
X148499142Y-145429428D01*
X127889095Y-130579880D02*
X127889095Y-131389404D01*
X127936714Y-131484642D01*
X127984333Y-131532261D01*
X128079571Y-131579880D01*
X128270047Y-131579880D01*
X128365285Y-131532261D01*
X128412904Y-131484642D01*
X128460523Y-131389404D01*
X128460523Y-130579880D01*
X128889095Y-130675119D02*
X128936714Y-130627500D01*
X129031952Y-130579880D01*
X129270047Y-130579880D01*
X129365285Y-130627500D01*
X129412904Y-130675119D01*
X129460523Y-130770357D01*
X129460523Y-130865595D01*
X129412904Y-131008452D01*
X128841476Y-131579880D01*
X129460523Y-131579880D01*
X112173523Y-148686666D02*
X112649714Y-148686666D01*
X112078285Y-148972380D02*
X112411619Y-147972380D01*
X112744952Y-148972380D01*
X112935428Y-147972380D02*
X113506857Y-147972380D01*
X113221142Y-148972380D02*
X113221142Y-147972380D01*
X113840190Y-148972380D02*
X113840190Y-148305714D01*
X113840190Y-148400952D02*
X113887809Y-148353333D01*
X113983047Y-148305714D01*
X114125904Y-148305714D01*
X114221142Y-148353333D01*
X114268761Y-148448571D01*
X114268761Y-148972380D01*
X114268761Y-148448571D02*
X114316380Y-148353333D01*
X114411619Y-148305714D01*
X114554476Y-148305714D01*
X114649714Y-148353333D01*
X114697333Y-148448571D01*
X114697333Y-148972380D01*
X115554476Y-148924761D02*
X115459238Y-148972380D01*
X115268761Y-148972380D01*
X115173523Y-148924761D01*
X115125904Y-148829523D01*
X115125904Y-148448571D01*
X115173523Y-148353333D01*
X115268761Y-148305714D01*
X115459238Y-148305714D01*
X115554476Y-148353333D01*
X115602095Y-148448571D01*
X115602095Y-148543809D01*
X115125904Y-148639047D01*
X116459238Y-148305714D02*
X116459238Y-149115238D01*
X116411619Y-149210476D01*
X116364000Y-149258095D01*
X116268761Y-149305714D01*
X116125904Y-149305714D01*
X116030666Y-149258095D01*
X116459238Y-148924761D02*
X116364000Y-148972380D01*
X116173523Y-148972380D01*
X116078285Y-148924761D01*
X116030666Y-148877142D01*
X115983047Y-148781904D01*
X115983047Y-148496190D01*
X116030666Y-148400952D01*
X116078285Y-148353333D01*
X116173523Y-148305714D01*
X116364000Y-148305714D01*
X116459238Y-148353333D01*
X117364000Y-148972380D02*
X117364000Y-148448571D01*
X117316380Y-148353333D01*
X117221142Y-148305714D01*
X117030666Y-148305714D01*
X116935428Y-148353333D01*
X117364000Y-148924761D02*
X117268761Y-148972380D01*
X117030666Y-148972380D01*
X116935428Y-148924761D01*
X116887809Y-148829523D01*
X116887809Y-148734285D01*
X116935428Y-148639047D01*
X117030666Y-148591428D01*
X117268761Y-148591428D01*
X117364000Y-148543809D01*
X117744952Y-147972380D02*
X118364000Y-147972380D01*
X118030666Y-148353333D01*
X118173523Y-148353333D01*
X118268761Y-148400952D01*
X118316380Y-148448571D01*
X118364000Y-148543809D01*
X118364000Y-148781904D01*
X118316380Y-148877142D01*
X118268761Y-148924761D01*
X118173523Y-148972380D01*
X117887809Y-148972380D01*
X117792571Y-148924761D01*
X117744952Y-148877142D01*
X118744952Y-148067619D02*
X118792571Y-148020000D01*
X118887809Y-147972380D01*
X119125904Y-147972380D01*
X119221142Y-148020000D01*
X119268761Y-148067619D01*
X119316380Y-148162857D01*
X119316380Y-148258095D01*
X119268761Y-148400952D01*
X118697333Y-148972380D01*
X119316380Y-148972380D01*
X119887809Y-148400952D02*
X119792571Y-148353333D01*
X119744952Y-148305714D01*
X119697333Y-148210476D01*
X119697333Y-148162857D01*
X119744952Y-148067619D01*
X119792571Y-148020000D01*
X119887809Y-147972380D01*
X120078285Y-147972380D01*
X120173523Y-148020000D01*
X120221142Y-148067619D01*
X120268761Y-148162857D01*
X120268761Y-148210476D01*
X120221142Y-148305714D01*
X120173523Y-148353333D01*
X120078285Y-148400952D01*
X119887809Y-148400952D01*
X119792571Y-148448571D01*
X119744952Y-148496190D01*
X119697333Y-148591428D01*
X119697333Y-148781904D01*
X119744952Y-148877142D01*
X119792571Y-148924761D01*
X119887809Y-148972380D01*
X120078285Y-148972380D01*
X120173523Y-148924761D01*
X120221142Y-148877142D01*
X120268761Y-148781904D01*
X120268761Y-148591428D01*
X120221142Y-148496190D01*
X120173523Y-148448571D01*
X120078285Y-148400952D01*
X120697333Y-148972380D02*
X120697333Y-147972380D01*
X121078285Y-147972380D01*
X121173523Y-148020000D01*
X121221142Y-148067619D01*
X121268761Y-148162857D01*
X121268761Y-148305714D01*
X121221142Y-148400952D01*
X121173523Y-148448571D01*
X121078285Y-148496190D01*
X120697333Y-148496190D01*
X121697333Y-148591428D02*
X122459238Y-148591428D01*
X122935428Y-148972380D02*
X122935428Y-147972380D01*
X123316380Y-147972380D01*
X123411619Y-148020000D01*
X123459238Y-148067619D01*
X123506857Y-148162857D01*
X123506857Y-148305714D01*
X123459238Y-148400952D01*
X123411619Y-148448571D01*
X123316380Y-148496190D01*
X122935428Y-148496190D01*
X123935428Y-147972380D02*
X123935428Y-148781904D01*
X123983047Y-148877142D01*
X124030666Y-148924761D01*
X124125904Y-148972380D01*
X124316380Y-148972380D01*
X124411619Y-148924761D01*
X124459238Y-148877142D01*
X124506857Y-148781904D01*
X124506857Y-147972380D01*
X132996000Y-140352428D02*
X132796000Y-140066714D01*
X132653142Y-140352428D02*
X132653142Y-139752428D01*
X132881714Y-139752428D01*
X132938857Y-139781000D01*
X132967428Y-139809571D01*
X132996000Y-139866714D01*
X132996000Y-139952428D01*
X132967428Y-140009571D01*
X132938857Y-140038142D01*
X132881714Y-140066714D01*
X132653142Y-140066714D01*
X133224571Y-139809571D02*
X133253142Y-139781000D01*
X133310285Y-139752428D01*
X133453142Y-139752428D01*
X133510285Y-139781000D01*
X133538857Y-139809571D01*
X133567428Y-139866714D01*
X133567428Y-139923857D01*
X133538857Y-140009571D01*
X133196000Y-140352428D01*
X133567428Y-140352428D01*
X128968714Y-138101428D02*
X129340142Y-138101428D01*
X129140142Y-138330000D01*
X129225857Y-138330000D01*
X129283000Y-138358571D01*
X129311571Y-138387142D01*
X129340142Y-138444285D01*
X129340142Y-138587142D01*
X129311571Y-138644285D01*
X129283000Y-138672857D01*
X129225857Y-138701428D01*
X129054428Y-138701428D01*
X128997285Y-138672857D01*
X128968714Y-138644285D01*
X129540142Y-138101428D02*
X129911571Y-138101428D01*
X129711571Y-138330000D01*
X129797285Y-138330000D01*
X129854428Y-138358571D01*
X129883000Y-138387142D01*
X129911571Y-138444285D01*
X129911571Y-138587142D01*
X129883000Y-138644285D01*
X129854428Y-138672857D01*
X129797285Y-138701428D01*
X129625857Y-138701428D01*
X129568714Y-138672857D01*
X129540142Y-138644285D01*
X130283000Y-138101428D02*
X130340142Y-138101428D01*
X130397285Y-138130000D01*
X130425857Y-138158571D01*
X130454428Y-138215714D01*
X130483000Y-138330000D01*
X130483000Y-138472857D01*
X130454428Y-138587142D01*
X130425857Y-138644285D01*
X130397285Y-138672857D01*
X130340142Y-138701428D01*
X130283000Y-138701428D01*
X130225857Y-138672857D01*
X130197285Y-138644285D01*
X130168714Y-138587142D01*
X130140142Y-138472857D01*
X130140142Y-138330000D01*
X130168714Y-138215714D01*
X130197285Y-138158571D01*
X130225857Y-138130000D01*
X130283000Y-138101428D01*
X130825857Y-138701428D02*
X130768714Y-138672857D01*
X130740142Y-138644285D01*
X130711571Y-138587142D01*
X130711571Y-138415714D01*
X130740142Y-138358571D01*
X130768714Y-138330000D01*
X130825857Y-138301428D01*
X130911571Y-138301428D01*
X130968714Y-138330000D01*
X130997285Y-138358571D01*
X131025857Y-138415714D01*
X131025857Y-138587142D01*
X130997285Y-138644285D01*
X130968714Y-138672857D01*
X130911571Y-138701428D01*
X130825857Y-138701428D01*
X131283000Y-138701428D02*
X131283000Y-138101428D01*
X131540142Y-138701428D02*
X131540142Y-138387142D01*
X131511571Y-138330000D01*
X131454428Y-138301428D01*
X131368714Y-138301428D01*
X131311571Y-138330000D01*
X131283000Y-138358571D01*
X131825857Y-138701428D02*
X131825857Y-138301428D01*
X131825857Y-138358571D02*
X131854428Y-138330000D01*
X131911571Y-138301428D01*
X131997285Y-138301428D01*
X132054428Y-138330000D01*
X132083000Y-138387142D01*
X132083000Y-138701428D01*
X132083000Y-138387142D02*
X132111571Y-138330000D01*
X132168714Y-138301428D01*
X132254428Y-138301428D01*
X132311571Y-138330000D01*
X132340142Y-138387142D01*
X132340142Y-138701428D01*
X133059500Y-135399428D02*
X132859500Y-135113714D01*
X132716642Y-135399428D02*
X132716642Y-134799428D01*
X132945214Y-134799428D01*
X133002357Y-134828000D01*
X133030928Y-134856571D01*
X133059500Y-134913714D01*
X133059500Y-134999428D01*
X133030928Y-135056571D01*
X133002357Y-135085142D01*
X132945214Y-135113714D01*
X132716642Y-135113714D01*
X133630928Y-135399428D02*
X133288071Y-135399428D01*
X133459500Y-135399428D02*
X133459500Y-134799428D01*
X133402357Y-134885142D01*
X133345214Y-134942285D01*
X133288071Y-134970857D01*
X129303857Y-134130428D02*
X128961000Y-134130428D01*
X129132428Y-134130428D02*
X129132428Y-133530428D01*
X129075285Y-133616142D01*
X129018142Y-133673285D01*
X128961000Y-133701857D01*
X129675285Y-133530428D02*
X129732428Y-133530428D01*
X129789571Y-133559000D01*
X129818142Y-133587571D01*
X129846714Y-133644714D01*
X129875285Y-133759000D01*
X129875285Y-133901857D01*
X129846714Y-134016142D01*
X129818142Y-134073285D01*
X129789571Y-134101857D01*
X129732428Y-134130428D01*
X129675285Y-134130428D01*
X129618142Y-134101857D01*
X129589571Y-134073285D01*
X129561000Y-134016142D01*
X129532428Y-133901857D01*
X129532428Y-133759000D01*
X129561000Y-133644714D01*
X129589571Y-133587571D01*
X129618142Y-133559000D01*
X129675285Y-133530428D01*
X130132428Y-134130428D02*
X130132428Y-133530428D01*
X130475285Y-134130428D02*
X130218142Y-133787571D01*
X130475285Y-133530428D02*
X130132428Y-133873285D01*
X130818142Y-134130428D02*
X130761000Y-134101857D01*
X130732428Y-134073285D01*
X130703857Y-134016142D01*
X130703857Y-133844714D01*
X130732428Y-133787571D01*
X130761000Y-133759000D01*
X130818142Y-133730428D01*
X130903857Y-133730428D01*
X130961000Y-133759000D01*
X130989571Y-133787571D01*
X131018142Y-133844714D01*
X131018142Y-134016142D01*
X130989571Y-134073285D01*
X130961000Y-134101857D01*
X130903857Y-134130428D01*
X130818142Y-134130428D01*
X131275285Y-134130428D02*
X131275285Y-133530428D01*
X131532428Y-134130428D02*
X131532428Y-133816142D01*
X131503857Y-133759000D01*
X131446714Y-133730428D01*
X131361000Y-133730428D01*
X131303857Y-133759000D01*
X131275285Y-133787571D01*
X131818142Y-134130428D02*
X131818142Y-133730428D01*
X131818142Y-133787571D02*
X131846714Y-133759000D01*
X131903857Y-133730428D01*
X131989571Y-133730428D01*
X132046714Y-133759000D01*
X132075285Y-133816142D01*
X132075285Y-134130428D01*
X132075285Y-133816142D02*
X132103857Y-133759000D01*
X132161000Y-133730428D01*
X132246714Y-133730428D01*
X132303857Y-133759000D01*
X132332428Y-133816142D01*
X132332428Y-134130428D01*
X146628380Y-153011095D02*
X145628380Y-153011095D01*
X145628380Y-152773000D01*
X145676000Y-152630142D01*
X145771238Y-152534904D01*
X145866476Y-152487285D01*
X146056952Y-152439666D01*
X146199809Y-152439666D01*
X146390285Y-152487285D01*
X146485523Y-152534904D01*
X146580761Y-152630142D01*
X146628380Y-152773000D01*
X146628380Y-153011095D01*
X146628380Y-151487285D02*
X146628380Y-152058714D01*
X146628380Y-151773000D02*
X145628380Y-151773000D01*
X145771238Y-151868238D01*
X145866476Y-151963476D01*
X145914095Y-152058714D01*
X104862333Y-143803642D02*
X104814714Y-143851261D01*
X104671857Y-143898880D01*
X104576619Y-143898880D01*
X104433761Y-143851261D01*
X104338523Y-143756023D01*
X104290904Y-143660785D01*
X104243285Y-143470309D01*
X104243285Y-143327452D01*
X104290904Y-143136976D01*
X104338523Y-143041738D01*
X104433761Y-142946500D01*
X104576619Y-142898880D01*
X104671857Y-142898880D01*
X104814714Y-142946500D01*
X104862333Y-142994119D01*
X105719476Y-143232214D02*
X105719476Y-143898880D01*
X105481380Y-142851261D02*
X105243285Y-143565547D01*
X105862333Y-143565547D01*
X103830642Y-137850619D02*
X103878261Y-137803000D01*
X103973500Y-137755380D01*
X104211595Y-137755380D01*
X104306833Y-137803000D01*
X104354452Y-137850619D01*
X104402071Y-137945857D01*
X104402071Y-138041095D01*
X104354452Y-138183952D01*
X103783023Y-138755380D01*
X104402071Y-138755380D01*
X104783023Y-137850619D02*
X104830642Y-137803000D01*
X104925880Y-137755380D01*
X105163976Y-137755380D01*
X105259214Y-137803000D01*
X105306833Y-137850619D01*
X105354452Y-137945857D01*
X105354452Y-138041095D01*
X105306833Y-138183952D01*
X104735404Y-138755380D01*
X105354452Y-138755380D01*
X105783023Y-138088714D02*
X105783023Y-139088714D01*
X105783023Y-138136333D02*
X105878261Y-138088714D01*
X106068738Y-138088714D01*
X106163976Y-138136333D01*
X106211595Y-138183952D01*
X106259214Y-138279190D01*
X106259214Y-138564904D01*
X106211595Y-138660142D01*
X106163976Y-138707761D01*
X106068738Y-138755380D01*
X105878261Y-138755380D01*
X105783023Y-138707761D01*
X107021119Y-138231571D02*
X106687785Y-138231571D01*
X106687785Y-138755380D02*
X106687785Y-137755380D01*
X107163976Y-137755380D01*
X103990142Y-134650666D02*
X104037761Y-134698285D01*
X104085380Y-134841142D01*
X104085380Y-134936380D01*
X104037761Y-135079238D01*
X103942523Y-135174476D01*
X103847285Y-135222095D01*
X103656809Y-135269714D01*
X103513952Y-135269714D01*
X103323476Y-135222095D01*
X103228238Y-135174476D01*
X103133000Y-135079238D01*
X103085380Y-134936380D01*
X103085380Y-134841142D01*
X103133000Y-134698285D01*
X103180619Y-134650666D01*
X103085380Y-134317333D02*
X103085380Y-133698285D01*
X103466333Y-134031619D01*
X103466333Y-133888761D01*
X103513952Y-133793523D01*
X103561571Y-133745904D01*
X103656809Y-133698285D01*
X103894904Y-133698285D01*
X103990142Y-133745904D01*
X104037761Y-133793523D01*
X104085380Y-133888761D01*
X104085380Y-134174476D01*
X104037761Y-134269714D01*
X103990142Y-134317333D01*
X104021142Y-131246619D02*
X104068761Y-131199000D01*
X104164000Y-131151380D01*
X104402095Y-131151380D01*
X104497333Y-131199000D01*
X104544952Y-131246619D01*
X104592571Y-131341857D01*
X104592571Y-131437095D01*
X104544952Y-131579952D01*
X103973523Y-132151380D01*
X104592571Y-132151380D01*
X104973523Y-131246619D02*
X105021142Y-131199000D01*
X105116380Y-131151380D01*
X105354476Y-131151380D01*
X105449714Y-131199000D01*
X105497333Y-131246619D01*
X105544952Y-131341857D01*
X105544952Y-131437095D01*
X105497333Y-131579952D01*
X104925904Y-132151380D01*
X105544952Y-132151380D01*
X105973523Y-131484714D02*
X105973523Y-132484714D01*
X105973523Y-131532333D02*
X106068761Y-131484714D01*
X106259238Y-131484714D01*
X106354476Y-131532333D01*
X106402095Y-131579952D01*
X106449714Y-131675190D01*
X106449714Y-131960904D01*
X106402095Y-132056142D01*
X106354476Y-132103761D01*
X106259238Y-132151380D01*
X106068761Y-132151380D01*
X105973523Y-132103761D01*
X107211619Y-131627571D02*
X106878285Y-131627571D01*
X106878285Y-132151380D02*
X106878285Y-131151380D01*
X107354476Y-131151380D01*
X131792142Y-130214666D02*
X131839761Y-130262285D01*
X131887380Y-130405142D01*
X131887380Y-130500380D01*
X131839761Y-130643238D01*
X131744523Y-130738476D01*
X131649285Y-130786095D01*
X131458809Y-130833714D01*
X131315952Y-130833714D01*
X131125476Y-130786095D01*
X131030238Y-130738476D01*
X130935000Y-130643238D01*
X130887380Y-130500380D01*
X130887380Y-130405142D01*
X130935000Y-130262285D01*
X130982619Y-130214666D01*
X130982619Y-129833714D02*
X130935000Y-129786095D01*
X130887380Y-129690857D01*
X130887380Y-129452761D01*
X130935000Y-129357523D01*
X130982619Y-129309904D01*
X131077857Y-129262285D01*
X131173095Y-129262285D01*
X131315952Y-129309904D01*
X131887380Y-129881333D01*
X131887380Y-129262285D01*
X135006428Y-130690857D02*
X135006428Y-131033714D01*
X135006428Y-130862285D02*
X134406428Y-130862285D01*
X134492142Y-130919428D01*
X134549285Y-130976571D01*
X134577857Y-131033714D01*
X134406428Y-130319428D02*
X134406428Y-130262285D01*
X134435000Y-130205142D01*
X134463571Y-130176571D01*
X134520714Y-130148000D01*
X134635000Y-130119428D01*
X134777857Y-130119428D01*
X134892142Y-130148000D01*
X134949285Y-130176571D01*
X134977857Y-130205142D01*
X135006428Y-130262285D01*
X135006428Y-130319428D01*
X134977857Y-130376571D01*
X134949285Y-130405142D01*
X134892142Y-130433714D01*
X134777857Y-130462285D01*
X134635000Y-130462285D01*
X134520714Y-130433714D01*
X134463571Y-130405142D01*
X134435000Y-130376571D01*
X134406428Y-130319428D01*
X134606428Y-129605142D02*
X135006428Y-129605142D01*
X134606428Y-129862285D02*
X134920714Y-129862285D01*
X134977857Y-129833714D01*
X135006428Y-129776571D01*
X135006428Y-129690857D01*
X134977857Y-129633714D01*
X134949285Y-129605142D01*
X134692142Y-129119428D02*
X134692142Y-129319428D01*
X135006428Y-129319428D02*
X134406428Y-129319428D01*
X134406428Y-129033714D01*
X96204285Y-123328571D02*
X96347142Y-123376190D01*
X96394761Y-123423809D01*
X96442380Y-123519047D01*
X96442380Y-123661904D01*
X96394761Y-123757142D01*
X96347142Y-123804761D01*
X96251904Y-123852380D01*
X95870952Y-123852380D01*
X95870952Y-122852380D01*
X96204285Y-122852380D01*
X96299523Y-122900000D01*
X96347142Y-122947619D01*
X96394761Y-123042857D01*
X96394761Y-123138095D01*
X96347142Y-123233333D01*
X96299523Y-123280952D01*
X96204285Y-123328571D01*
X95870952Y-123328571D01*
X96728095Y-122852380D02*
X97299523Y-122852380D01*
X97013809Y-123852380D02*
X97013809Y-122852380D01*
X98156666Y-123852380D02*
X97585238Y-123852380D01*
X97870952Y-123852380D02*
X97870952Y-122852380D01*
X97775714Y-122995238D01*
X97680476Y-123090476D01*
X97585238Y-123138095D01*
M02*
