G04 #@! TF.GenerationSoftware,KiCad,Pcbnew,(5.1.5)-3*
G04 #@! TF.CreationDate,2020-12-01T08:40:21+03:00*
G04 #@! TF.ProjectId,project3_2layer,70726f6a-6563-4743-935f-326c61796572,1*
G04 #@! TF.SameCoordinates,Original*
G04 #@! TF.FileFunction,Paste,Top*
G04 #@! TF.FilePolarity,Positive*
%FSLAX46Y46*%
G04 Gerber Fmt 4.6, Leading zero omitted, Abs format (unit mm)*
G04 Created by KiCad (PCBNEW (5.1.5)-3) date 2020-12-01 08:40:21*
%MOMM*%
%LPD*%
G04 APERTURE LIST*
%ADD10R,2.000000X4.500000*%
%ADD11R,2.000000X0.600000*%
%ADD12C,0.100000*%
%ADD13R,1.700000X0.650000*%
%ADD14R,1.925000X0.700000*%
%ADD15R,0.700000X1.925000*%
G04 APERTURE END LIST*
D10*
X97790000Y-134688000D03*
X97790000Y-143188000D03*
X136525000Y-144712000D03*
X136525000Y-136212000D03*
D11*
X99129000Y-149479000D03*
X99129000Y-150749000D03*
X99129000Y-152019000D03*
X99129000Y-153289000D03*
X104579000Y-153289000D03*
X104579000Y-152019000D03*
X104579000Y-150749000D03*
X104579000Y-149479000D03*
D12*
G36*
X149706703Y-128478722D02*
G01*
X149721264Y-128480882D01*
X149735543Y-128484459D01*
X149749403Y-128489418D01*
X149762710Y-128495712D01*
X149775336Y-128503280D01*
X149787159Y-128512048D01*
X149798066Y-128521934D01*
X149807952Y-128532841D01*
X149816720Y-128544664D01*
X149824288Y-128557290D01*
X149830582Y-128570597D01*
X149835541Y-128584457D01*
X149839118Y-128598736D01*
X149841278Y-128613297D01*
X149842000Y-128628000D01*
X149842000Y-128928000D01*
X149841278Y-128942703D01*
X149839118Y-128957264D01*
X149835541Y-128971543D01*
X149830582Y-128985403D01*
X149824288Y-128998710D01*
X149816720Y-129011336D01*
X149807952Y-129023159D01*
X149798066Y-129034066D01*
X149787159Y-129043952D01*
X149775336Y-129052720D01*
X149762710Y-129060288D01*
X149749403Y-129066582D01*
X149735543Y-129071541D01*
X149721264Y-129075118D01*
X149706703Y-129077278D01*
X149692000Y-129078000D01*
X148392000Y-129078000D01*
X148377297Y-129077278D01*
X148362736Y-129075118D01*
X148348457Y-129071541D01*
X148334597Y-129066582D01*
X148321290Y-129060288D01*
X148308664Y-129052720D01*
X148296841Y-129043952D01*
X148285934Y-129034066D01*
X148276048Y-129023159D01*
X148267280Y-129011336D01*
X148259712Y-128998710D01*
X148253418Y-128985403D01*
X148248459Y-128971543D01*
X148244882Y-128957264D01*
X148242722Y-128942703D01*
X148242000Y-128928000D01*
X148242000Y-128628000D01*
X148242722Y-128613297D01*
X148244882Y-128598736D01*
X148248459Y-128584457D01*
X148253418Y-128570597D01*
X148259712Y-128557290D01*
X148267280Y-128544664D01*
X148276048Y-128532841D01*
X148285934Y-128521934D01*
X148296841Y-128512048D01*
X148308664Y-128503280D01*
X148321290Y-128495712D01*
X148334597Y-128489418D01*
X148348457Y-128484459D01*
X148362736Y-128480882D01*
X148377297Y-128478722D01*
X148392000Y-128478000D01*
X149692000Y-128478000D01*
X149706703Y-128478722D01*
G37*
G36*
X149706703Y-129748722D02*
G01*
X149721264Y-129750882D01*
X149735543Y-129754459D01*
X149749403Y-129759418D01*
X149762710Y-129765712D01*
X149775336Y-129773280D01*
X149787159Y-129782048D01*
X149798066Y-129791934D01*
X149807952Y-129802841D01*
X149816720Y-129814664D01*
X149824288Y-129827290D01*
X149830582Y-129840597D01*
X149835541Y-129854457D01*
X149839118Y-129868736D01*
X149841278Y-129883297D01*
X149842000Y-129898000D01*
X149842000Y-130198000D01*
X149841278Y-130212703D01*
X149839118Y-130227264D01*
X149835541Y-130241543D01*
X149830582Y-130255403D01*
X149824288Y-130268710D01*
X149816720Y-130281336D01*
X149807952Y-130293159D01*
X149798066Y-130304066D01*
X149787159Y-130313952D01*
X149775336Y-130322720D01*
X149762710Y-130330288D01*
X149749403Y-130336582D01*
X149735543Y-130341541D01*
X149721264Y-130345118D01*
X149706703Y-130347278D01*
X149692000Y-130348000D01*
X148392000Y-130348000D01*
X148377297Y-130347278D01*
X148362736Y-130345118D01*
X148348457Y-130341541D01*
X148334597Y-130336582D01*
X148321290Y-130330288D01*
X148308664Y-130322720D01*
X148296841Y-130313952D01*
X148285934Y-130304066D01*
X148276048Y-130293159D01*
X148267280Y-130281336D01*
X148259712Y-130268710D01*
X148253418Y-130255403D01*
X148248459Y-130241543D01*
X148244882Y-130227264D01*
X148242722Y-130212703D01*
X148242000Y-130198000D01*
X148242000Y-129898000D01*
X148242722Y-129883297D01*
X148244882Y-129868736D01*
X148248459Y-129854457D01*
X148253418Y-129840597D01*
X148259712Y-129827290D01*
X148267280Y-129814664D01*
X148276048Y-129802841D01*
X148285934Y-129791934D01*
X148296841Y-129782048D01*
X148308664Y-129773280D01*
X148321290Y-129765712D01*
X148334597Y-129759418D01*
X148348457Y-129754459D01*
X148362736Y-129750882D01*
X148377297Y-129748722D01*
X148392000Y-129748000D01*
X149692000Y-129748000D01*
X149706703Y-129748722D01*
G37*
G36*
X149706703Y-131018722D02*
G01*
X149721264Y-131020882D01*
X149735543Y-131024459D01*
X149749403Y-131029418D01*
X149762710Y-131035712D01*
X149775336Y-131043280D01*
X149787159Y-131052048D01*
X149798066Y-131061934D01*
X149807952Y-131072841D01*
X149816720Y-131084664D01*
X149824288Y-131097290D01*
X149830582Y-131110597D01*
X149835541Y-131124457D01*
X149839118Y-131138736D01*
X149841278Y-131153297D01*
X149842000Y-131168000D01*
X149842000Y-131468000D01*
X149841278Y-131482703D01*
X149839118Y-131497264D01*
X149835541Y-131511543D01*
X149830582Y-131525403D01*
X149824288Y-131538710D01*
X149816720Y-131551336D01*
X149807952Y-131563159D01*
X149798066Y-131574066D01*
X149787159Y-131583952D01*
X149775336Y-131592720D01*
X149762710Y-131600288D01*
X149749403Y-131606582D01*
X149735543Y-131611541D01*
X149721264Y-131615118D01*
X149706703Y-131617278D01*
X149692000Y-131618000D01*
X148392000Y-131618000D01*
X148377297Y-131617278D01*
X148362736Y-131615118D01*
X148348457Y-131611541D01*
X148334597Y-131606582D01*
X148321290Y-131600288D01*
X148308664Y-131592720D01*
X148296841Y-131583952D01*
X148285934Y-131574066D01*
X148276048Y-131563159D01*
X148267280Y-131551336D01*
X148259712Y-131538710D01*
X148253418Y-131525403D01*
X148248459Y-131511543D01*
X148244882Y-131497264D01*
X148242722Y-131482703D01*
X148242000Y-131468000D01*
X148242000Y-131168000D01*
X148242722Y-131153297D01*
X148244882Y-131138736D01*
X148248459Y-131124457D01*
X148253418Y-131110597D01*
X148259712Y-131097290D01*
X148267280Y-131084664D01*
X148276048Y-131072841D01*
X148285934Y-131061934D01*
X148296841Y-131052048D01*
X148308664Y-131043280D01*
X148321290Y-131035712D01*
X148334597Y-131029418D01*
X148348457Y-131024459D01*
X148362736Y-131020882D01*
X148377297Y-131018722D01*
X148392000Y-131018000D01*
X149692000Y-131018000D01*
X149706703Y-131018722D01*
G37*
G36*
X149706703Y-132288722D02*
G01*
X149721264Y-132290882D01*
X149735543Y-132294459D01*
X149749403Y-132299418D01*
X149762710Y-132305712D01*
X149775336Y-132313280D01*
X149787159Y-132322048D01*
X149798066Y-132331934D01*
X149807952Y-132342841D01*
X149816720Y-132354664D01*
X149824288Y-132367290D01*
X149830582Y-132380597D01*
X149835541Y-132394457D01*
X149839118Y-132408736D01*
X149841278Y-132423297D01*
X149842000Y-132438000D01*
X149842000Y-132738000D01*
X149841278Y-132752703D01*
X149839118Y-132767264D01*
X149835541Y-132781543D01*
X149830582Y-132795403D01*
X149824288Y-132808710D01*
X149816720Y-132821336D01*
X149807952Y-132833159D01*
X149798066Y-132844066D01*
X149787159Y-132853952D01*
X149775336Y-132862720D01*
X149762710Y-132870288D01*
X149749403Y-132876582D01*
X149735543Y-132881541D01*
X149721264Y-132885118D01*
X149706703Y-132887278D01*
X149692000Y-132888000D01*
X148392000Y-132888000D01*
X148377297Y-132887278D01*
X148362736Y-132885118D01*
X148348457Y-132881541D01*
X148334597Y-132876582D01*
X148321290Y-132870288D01*
X148308664Y-132862720D01*
X148296841Y-132853952D01*
X148285934Y-132844066D01*
X148276048Y-132833159D01*
X148267280Y-132821336D01*
X148259712Y-132808710D01*
X148253418Y-132795403D01*
X148248459Y-132781543D01*
X148244882Y-132767264D01*
X148242722Y-132752703D01*
X148242000Y-132738000D01*
X148242000Y-132438000D01*
X148242722Y-132423297D01*
X148244882Y-132408736D01*
X148248459Y-132394457D01*
X148253418Y-132380597D01*
X148259712Y-132367290D01*
X148267280Y-132354664D01*
X148276048Y-132342841D01*
X148285934Y-132331934D01*
X148296841Y-132322048D01*
X148308664Y-132313280D01*
X148321290Y-132305712D01*
X148334597Y-132299418D01*
X148348457Y-132294459D01*
X148362736Y-132290882D01*
X148377297Y-132288722D01*
X148392000Y-132288000D01*
X149692000Y-132288000D01*
X149706703Y-132288722D01*
G37*
G36*
X142506703Y-132288722D02*
G01*
X142521264Y-132290882D01*
X142535543Y-132294459D01*
X142549403Y-132299418D01*
X142562710Y-132305712D01*
X142575336Y-132313280D01*
X142587159Y-132322048D01*
X142598066Y-132331934D01*
X142607952Y-132342841D01*
X142616720Y-132354664D01*
X142624288Y-132367290D01*
X142630582Y-132380597D01*
X142635541Y-132394457D01*
X142639118Y-132408736D01*
X142641278Y-132423297D01*
X142642000Y-132438000D01*
X142642000Y-132738000D01*
X142641278Y-132752703D01*
X142639118Y-132767264D01*
X142635541Y-132781543D01*
X142630582Y-132795403D01*
X142624288Y-132808710D01*
X142616720Y-132821336D01*
X142607952Y-132833159D01*
X142598066Y-132844066D01*
X142587159Y-132853952D01*
X142575336Y-132862720D01*
X142562710Y-132870288D01*
X142549403Y-132876582D01*
X142535543Y-132881541D01*
X142521264Y-132885118D01*
X142506703Y-132887278D01*
X142492000Y-132888000D01*
X141192000Y-132888000D01*
X141177297Y-132887278D01*
X141162736Y-132885118D01*
X141148457Y-132881541D01*
X141134597Y-132876582D01*
X141121290Y-132870288D01*
X141108664Y-132862720D01*
X141096841Y-132853952D01*
X141085934Y-132844066D01*
X141076048Y-132833159D01*
X141067280Y-132821336D01*
X141059712Y-132808710D01*
X141053418Y-132795403D01*
X141048459Y-132781543D01*
X141044882Y-132767264D01*
X141042722Y-132752703D01*
X141042000Y-132738000D01*
X141042000Y-132438000D01*
X141042722Y-132423297D01*
X141044882Y-132408736D01*
X141048459Y-132394457D01*
X141053418Y-132380597D01*
X141059712Y-132367290D01*
X141067280Y-132354664D01*
X141076048Y-132342841D01*
X141085934Y-132331934D01*
X141096841Y-132322048D01*
X141108664Y-132313280D01*
X141121290Y-132305712D01*
X141134597Y-132299418D01*
X141148457Y-132294459D01*
X141162736Y-132290882D01*
X141177297Y-132288722D01*
X141192000Y-132288000D01*
X142492000Y-132288000D01*
X142506703Y-132288722D01*
G37*
G36*
X142506703Y-131018722D02*
G01*
X142521264Y-131020882D01*
X142535543Y-131024459D01*
X142549403Y-131029418D01*
X142562710Y-131035712D01*
X142575336Y-131043280D01*
X142587159Y-131052048D01*
X142598066Y-131061934D01*
X142607952Y-131072841D01*
X142616720Y-131084664D01*
X142624288Y-131097290D01*
X142630582Y-131110597D01*
X142635541Y-131124457D01*
X142639118Y-131138736D01*
X142641278Y-131153297D01*
X142642000Y-131168000D01*
X142642000Y-131468000D01*
X142641278Y-131482703D01*
X142639118Y-131497264D01*
X142635541Y-131511543D01*
X142630582Y-131525403D01*
X142624288Y-131538710D01*
X142616720Y-131551336D01*
X142607952Y-131563159D01*
X142598066Y-131574066D01*
X142587159Y-131583952D01*
X142575336Y-131592720D01*
X142562710Y-131600288D01*
X142549403Y-131606582D01*
X142535543Y-131611541D01*
X142521264Y-131615118D01*
X142506703Y-131617278D01*
X142492000Y-131618000D01*
X141192000Y-131618000D01*
X141177297Y-131617278D01*
X141162736Y-131615118D01*
X141148457Y-131611541D01*
X141134597Y-131606582D01*
X141121290Y-131600288D01*
X141108664Y-131592720D01*
X141096841Y-131583952D01*
X141085934Y-131574066D01*
X141076048Y-131563159D01*
X141067280Y-131551336D01*
X141059712Y-131538710D01*
X141053418Y-131525403D01*
X141048459Y-131511543D01*
X141044882Y-131497264D01*
X141042722Y-131482703D01*
X141042000Y-131468000D01*
X141042000Y-131168000D01*
X141042722Y-131153297D01*
X141044882Y-131138736D01*
X141048459Y-131124457D01*
X141053418Y-131110597D01*
X141059712Y-131097290D01*
X141067280Y-131084664D01*
X141076048Y-131072841D01*
X141085934Y-131061934D01*
X141096841Y-131052048D01*
X141108664Y-131043280D01*
X141121290Y-131035712D01*
X141134597Y-131029418D01*
X141148457Y-131024459D01*
X141162736Y-131020882D01*
X141177297Y-131018722D01*
X141192000Y-131018000D01*
X142492000Y-131018000D01*
X142506703Y-131018722D01*
G37*
G36*
X142506703Y-129748722D02*
G01*
X142521264Y-129750882D01*
X142535543Y-129754459D01*
X142549403Y-129759418D01*
X142562710Y-129765712D01*
X142575336Y-129773280D01*
X142587159Y-129782048D01*
X142598066Y-129791934D01*
X142607952Y-129802841D01*
X142616720Y-129814664D01*
X142624288Y-129827290D01*
X142630582Y-129840597D01*
X142635541Y-129854457D01*
X142639118Y-129868736D01*
X142641278Y-129883297D01*
X142642000Y-129898000D01*
X142642000Y-130198000D01*
X142641278Y-130212703D01*
X142639118Y-130227264D01*
X142635541Y-130241543D01*
X142630582Y-130255403D01*
X142624288Y-130268710D01*
X142616720Y-130281336D01*
X142607952Y-130293159D01*
X142598066Y-130304066D01*
X142587159Y-130313952D01*
X142575336Y-130322720D01*
X142562710Y-130330288D01*
X142549403Y-130336582D01*
X142535543Y-130341541D01*
X142521264Y-130345118D01*
X142506703Y-130347278D01*
X142492000Y-130348000D01*
X141192000Y-130348000D01*
X141177297Y-130347278D01*
X141162736Y-130345118D01*
X141148457Y-130341541D01*
X141134597Y-130336582D01*
X141121290Y-130330288D01*
X141108664Y-130322720D01*
X141096841Y-130313952D01*
X141085934Y-130304066D01*
X141076048Y-130293159D01*
X141067280Y-130281336D01*
X141059712Y-130268710D01*
X141053418Y-130255403D01*
X141048459Y-130241543D01*
X141044882Y-130227264D01*
X141042722Y-130212703D01*
X141042000Y-130198000D01*
X141042000Y-129898000D01*
X141042722Y-129883297D01*
X141044882Y-129868736D01*
X141048459Y-129854457D01*
X141053418Y-129840597D01*
X141059712Y-129827290D01*
X141067280Y-129814664D01*
X141076048Y-129802841D01*
X141085934Y-129791934D01*
X141096841Y-129782048D01*
X141108664Y-129773280D01*
X141121290Y-129765712D01*
X141134597Y-129759418D01*
X141148457Y-129754459D01*
X141162736Y-129750882D01*
X141177297Y-129748722D01*
X141192000Y-129748000D01*
X142492000Y-129748000D01*
X142506703Y-129748722D01*
G37*
G36*
X142506703Y-128478722D02*
G01*
X142521264Y-128480882D01*
X142535543Y-128484459D01*
X142549403Y-128489418D01*
X142562710Y-128495712D01*
X142575336Y-128503280D01*
X142587159Y-128512048D01*
X142598066Y-128521934D01*
X142607952Y-128532841D01*
X142616720Y-128544664D01*
X142624288Y-128557290D01*
X142630582Y-128570597D01*
X142635541Y-128584457D01*
X142639118Y-128598736D01*
X142641278Y-128613297D01*
X142642000Y-128628000D01*
X142642000Y-128928000D01*
X142641278Y-128942703D01*
X142639118Y-128957264D01*
X142635541Y-128971543D01*
X142630582Y-128985403D01*
X142624288Y-128998710D01*
X142616720Y-129011336D01*
X142607952Y-129023159D01*
X142598066Y-129034066D01*
X142587159Y-129043952D01*
X142575336Y-129052720D01*
X142562710Y-129060288D01*
X142549403Y-129066582D01*
X142535543Y-129071541D01*
X142521264Y-129075118D01*
X142506703Y-129077278D01*
X142492000Y-129078000D01*
X141192000Y-129078000D01*
X141177297Y-129077278D01*
X141162736Y-129075118D01*
X141148457Y-129071541D01*
X141134597Y-129066582D01*
X141121290Y-129060288D01*
X141108664Y-129052720D01*
X141096841Y-129043952D01*
X141085934Y-129034066D01*
X141076048Y-129023159D01*
X141067280Y-129011336D01*
X141059712Y-128998710D01*
X141053418Y-128985403D01*
X141048459Y-128971543D01*
X141044882Y-128957264D01*
X141042722Y-128942703D01*
X141042000Y-128928000D01*
X141042000Y-128628000D01*
X141042722Y-128613297D01*
X141044882Y-128598736D01*
X141048459Y-128584457D01*
X141053418Y-128570597D01*
X141059712Y-128557290D01*
X141067280Y-128544664D01*
X141076048Y-128532841D01*
X141085934Y-128521934D01*
X141096841Y-128512048D01*
X141108664Y-128503280D01*
X141121290Y-128495712D01*
X141134597Y-128489418D01*
X141148457Y-128484459D01*
X141162736Y-128480882D01*
X141177297Y-128478722D01*
X141192000Y-128478000D01*
X142492000Y-128478000D01*
X142506703Y-128478722D01*
G37*
D13*
X149192000Y-139573000D03*
X149192000Y-140843000D03*
X149192000Y-142113000D03*
X149192000Y-143383000D03*
X141892000Y-143383000D03*
X141892000Y-142113000D03*
X141892000Y-140843000D03*
X141892000Y-139573000D03*
D14*
X123686500Y-134620000D03*
X123686500Y-135890000D03*
X123686500Y-137160000D03*
X123686500Y-138430000D03*
X123686500Y-139700000D03*
X123686500Y-140970000D03*
X123686500Y-142240000D03*
D15*
X122174000Y-143752500D03*
X120904000Y-143752500D03*
X119634000Y-143752500D03*
X118364000Y-143752500D03*
X117094000Y-143752500D03*
X115824000Y-143752500D03*
X114554000Y-143752500D03*
D14*
X113041500Y-142240000D03*
X113041500Y-140970000D03*
X113041500Y-139700000D03*
X113041500Y-138430000D03*
X113041500Y-137160000D03*
X113041500Y-135890000D03*
X113041500Y-134620000D03*
D15*
X122174000Y-133107500D03*
X120904000Y-133107500D03*
X119634000Y-133107500D03*
X114554000Y-133107500D03*
X115824000Y-133107500D03*
X117094000Y-133107500D03*
X118364000Y-133107500D03*
D12*
G36*
X132035505Y-139382204D02*
G01*
X132059773Y-139385804D01*
X132083572Y-139391765D01*
X132106671Y-139400030D01*
X132128850Y-139410520D01*
X132149893Y-139423132D01*
X132169599Y-139437747D01*
X132187777Y-139454223D01*
X132204253Y-139472401D01*
X132218868Y-139492107D01*
X132231480Y-139513150D01*
X132241970Y-139535329D01*
X132250235Y-139558428D01*
X132256196Y-139582227D01*
X132259796Y-139606495D01*
X132261000Y-139630999D01*
X132261000Y-140531001D01*
X132259796Y-140555505D01*
X132256196Y-140579773D01*
X132250235Y-140603572D01*
X132241970Y-140626671D01*
X132231480Y-140648850D01*
X132218868Y-140669893D01*
X132204253Y-140689599D01*
X132187777Y-140707777D01*
X132169599Y-140724253D01*
X132149893Y-140738868D01*
X132128850Y-140751480D01*
X132106671Y-140761970D01*
X132083572Y-140770235D01*
X132059773Y-140776196D01*
X132035505Y-140779796D01*
X132011001Y-140781000D01*
X131360999Y-140781000D01*
X131336495Y-140779796D01*
X131312227Y-140776196D01*
X131288428Y-140770235D01*
X131265329Y-140761970D01*
X131243150Y-140751480D01*
X131222107Y-140738868D01*
X131202401Y-140724253D01*
X131184223Y-140707777D01*
X131167747Y-140689599D01*
X131153132Y-140669893D01*
X131140520Y-140648850D01*
X131130030Y-140626671D01*
X131121765Y-140603572D01*
X131115804Y-140579773D01*
X131112204Y-140555505D01*
X131111000Y-140531001D01*
X131111000Y-139630999D01*
X131112204Y-139606495D01*
X131115804Y-139582227D01*
X131121765Y-139558428D01*
X131130030Y-139535329D01*
X131140520Y-139513150D01*
X131153132Y-139492107D01*
X131167747Y-139472401D01*
X131184223Y-139454223D01*
X131202401Y-139437747D01*
X131222107Y-139423132D01*
X131243150Y-139410520D01*
X131265329Y-139400030D01*
X131288428Y-139391765D01*
X131312227Y-139385804D01*
X131336495Y-139382204D01*
X131360999Y-139381000D01*
X132011001Y-139381000D01*
X132035505Y-139382204D01*
G37*
G36*
X129985505Y-139382204D02*
G01*
X130009773Y-139385804D01*
X130033572Y-139391765D01*
X130056671Y-139400030D01*
X130078850Y-139410520D01*
X130099893Y-139423132D01*
X130119599Y-139437747D01*
X130137777Y-139454223D01*
X130154253Y-139472401D01*
X130168868Y-139492107D01*
X130181480Y-139513150D01*
X130191970Y-139535329D01*
X130200235Y-139558428D01*
X130206196Y-139582227D01*
X130209796Y-139606495D01*
X130211000Y-139630999D01*
X130211000Y-140531001D01*
X130209796Y-140555505D01*
X130206196Y-140579773D01*
X130200235Y-140603572D01*
X130191970Y-140626671D01*
X130181480Y-140648850D01*
X130168868Y-140669893D01*
X130154253Y-140689599D01*
X130137777Y-140707777D01*
X130119599Y-140724253D01*
X130099893Y-140738868D01*
X130078850Y-140751480D01*
X130056671Y-140761970D01*
X130033572Y-140770235D01*
X130009773Y-140776196D01*
X129985505Y-140779796D01*
X129961001Y-140781000D01*
X129310999Y-140781000D01*
X129286495Y-140779796D01*
X129262227Y-140776196D01*
X129238428Y-140770235D01*
X129215329Y-140761970D01*
X129193150Y-140751480D01*
X129172107Y-140738868D01*
X129152401Y-140724253D01*
X129134223Y-140707777D01*
X129117747Y-140689599D01*
X129103132Y-140669893D01*
X129090520Y-140648850D01*
X129080030Y-140626671D01*
X129071765Y-140603572D01*
X129065804Y-140579773D01*
X129062204Y-140555505D01*
X129061000Y-140531001D01*
X129061000Y-139630999D01*
X129062204Y-139606495D01*
X129065804Y-139582227D01*
X129071765Y-139558428D01*
X129080030Y-139535329D01*
X129090520Y-139513150D01*
X129103132Y-139492107D01*
X129117747Y-139472401D01*
X129134223Y-139454223D01*
X129152401Y-139437747D01*
X129172107Y-139423132D01*
X129193150Y-139410520D01*
X129215329Y-139400030D01*
X129238428Y-139391765D01*
X129262227Y-139385804D01*
X129286495Y-139382204D01*
X129310999Y-139381000D01*
X129961001Y-139381000D01*
X129985505Y-139382204D01*
G37*
G36*
X129985505Y-134810204D02*
G01*
X130009773Y-134813804D01*
X130033572Y-134819765D01*
X130056671Y-134828030D01*
X130078850Y-134838520D01*
X130099893Y-134851132D01*
X130119599Y-134865747D01*
X130137777Y-134882223D01*
X130154253Y-134900401D01*
X130168868Y-134920107D01*
X130181480Y-134941150D01*
X130191970Y-134963329D01*
X130200235Y-134986428D01*
X130206196Y-135010227D01*
X130209796Y-135034495D01*
X130211000Y-135058999D01*
X130211000Y-135959001D01*
X130209796Y-135983505D01*
X130206196Y-136007773D01*
X130200235Y-136031572D01*
X130191970Y-136054671D01*
X130181480Y-136076850D01*
X130168868Y-136097893D01*
X130154253Y-136117599D01*
X130137777Y-136135777D01*
X130119599Y-136152253D01*
X130099893Y-136166868D01*
X130078850Y-136179480D01*
X130056671Y-136189970D01*
X130033572Y-136198235D01*
X130009773Y-136204196D01*
X129985505Y-136207796D01*
X129961001Y-136209000D01*
X129310999Y-136209000D01*
X129286495Y-136207796D01*
X129262227Y-136204196D01*
X129238428Y-136198235D01*
X129215329Y-136189970D01*
X129193150Y-136179480D01*
X129172107Y-136166868D01*
X129152401Y-136152253D01*
X129134223Y-136135777D01*
X129117747Y-136117599D01*
X129103132Y-136097893D01*
X129090520Y-136076850D01*
X129080030Y-136054671D01*
X129071765Y-136031572D01*
X129065804Y-136007773D01*
X129062204Y-135983505D01*
X129061000Y-135959001D01*
X129061000Y-135058999D01*
X129062204Y-135034495D01*
X129065804Y-135010227D01*
X129071765Y-134986428D01*
X129080030Y-134963329D01*
X129090520Y-134941150D01*
X129103132Y-134920107D01*
X129117747Y-134900401D01*
X129134223Y-134882223D01*
X129152401Y-134865747D01*
X129172107Y-134851132D01*
X129193150Y-134838520D01*
X129215329Y-134828030D01*
X129238428Y-134819765D01*
X129262227Y-134813804D01*
X129286495Y-134810204D01*
X129310999Y-134809000D01*
X129961001Y-134809000D01*
X129985505Y-134810204D01*
G37*
G36*
X132035505Y-134810204D02*
G01*
X132059773Y-134813804D01*
X132083572Y-134819765D01*
X132106671Y-134828030D01*
X132128850Y-134838520D01*
X132149893Y-134851132D01*
X132169599Y-134865747D01*
X132187777Y-134882223D01*
X132204253Y-134900401D01*
X132218868Y-134920107D01*
X132231480Y-134941150D01*
X132241970Y-134963329D01*
X132250235Y-134986428D01*
X132256196Y-135010227D01*
X132259796Y-135034495D01*
X132261000Y-135058999D01*
X132261000Y-135959001D01*
X132259796Y-135983505D01*
X132256196Y-136007773D01*
X132250235Y-136031572D01*
X132241970Y-136054671D01*
X132231480Y-136076850D01*
X132218868Y-136097893D01*
X132204253Y-136117599D01*
X132187777Y-136135777D01*
X132169599Y-136152253D01*
X132149893Y-136166868D01*
X132128850Y-136179480D01*
X132106671Y-136189970D01*
X132083572Y-136198235D01*
X132059773Y-136204196D01*
X132035505Y-136207796D01*
X132011001Y-136209000D01*
X131360999Y-136209000D01*
X131336495Y-136207796D01*
X131312227Y-136204196D01*
X131288428Y-136198235D01*
X131265329Y-136189970D01*
X131243150Y-136179480D01*
X131222107Y-136166868D01*
X131202401Y-136152253D01*
X131184223Y-136135777D01*
X131167747Y-136117599D01*
X131153132Y-136097893D01*
X131140520Y-136076850D01*
X131130030Y-136054671D01*
X131121765Y-136031572D01*
X131115804Y-136007773D01*
X131112204Y-135983505D01*
X131111000Y-135959001D01*
X131111000Y-135058999D01*
X131112204Y-135034495D01*
X131115804Y-135010227D01*
X131121765Y-134986428D01*
X131130030Y-134963329D01*
X131140520Y-134941150D01*
X131153132Y-134920107D01*
X131167747Y-134900401D01*
X131184223Y-134882223D01*
X131202401Y-134865747D01*
X131222107Y-134851132D01*
X131243150Y-134838520D01*
X131265329Y-134828030D01*
X131288428Y-134819765D01*
X131312227Y-134813804D01*
X131336495Y-134810204D01*
X131360999Y-134809000D01*
X132011001Y-134809000D01*
X132035505Y-134810204D01*
G37*
G36*
X145000505Y-150674204D02*
G01*
X145024773Y-150677804D01*
X145048572Y-150683765D01*
X145071671Y-150692030D01*
X145093850Y-150702520D01*
X145114893Y-150715132D01*
X145134599Y-150729747D01*
X145152777Y-150746223D01*
X145169253Y-150764401D01*
X145183868Y-150784107D01*
X145196480Y-150805150D01*
X145206970Y-150827329D01*
X145215235Y-150850428D01*
X145221196Y-150874227D01*
X145224796Y-150898495D01*
X145226000Y-150922999D01*
X145226000Y-151573001D01*
X145224796Y-151597505D01*
X145221196Y-151621773D01*
X145215235Y-151645572D01*
X145206970Y-151668671D01*
X145196480Y-151690850D01*
X145183868Y-151711893D01*
X145169253Y-151731599D01*
X145152777Y-151749777D01*
X145134599Y-151766253D01*
X145114893Y-151780868D01*
X145093850Y-151793480D01*
X145071671Y-151803970D01*
X145048572Y-151812235D01*
X145024773Y-151818196D01*
X145000505Y-151821796D01*
X144976001Y-151823000D01*
X144075999Y-151823000D01*
X144051495Y-151821796D01*
X144027227Y-151818196D01*
X144003428Y-151812235D01*
X143980329Y-151803970D01*
X143958150Y-151793480D01*
X143937107Y-151780868D01*
X143917401Y-151766253D01*
X143899223Y-151749777D01*
X143882747Y-151731599D01*
X143868132Y-151711893D01*
X143855520Y-151690850D01*
X143845030Y-151668671D01*
X143836765Y-151645572D01*
X143830804Y-151621773D01*
X143827204Y-151597505D01*
X143826000Y-151573001D01*
X143826000Y-150922999D01*
X143827204Y-150898495D01*
X143830804Y-150874227D01*
X143836765Y-150850428D01*
X143845030Y-150827329D01*
X143855520Y-150805150D01*
X143868132Y-150784107D01*
X143882747Y-150764401D01*
X143899223Y-150746223D01*
X143917401Y-150729747D01*
X143937107Y-150715132D01*
X143958150Y-150702520D01*
X143980329Y-150692030D01*
X144003428Y-150683765D01*
X144027227Y-150677804D01*
X144051495Y-150674204D01*
X144075999Y-150673000D01*
X144976001Y-150673000D01*
X145000505Y-150674204D01*
G37*
G36*
X145000505Y-152724204D02*
G01*
X145024773Y-152727804D01*
X145048572Y-152733765D01*
X145071671Y-152742030D01*
X145093850Y-152752520D01*
X145114893Y-152765132D01*
X145134599Y-152779747D01*
X145152777Y-152796223D01*
X145169253Y-152814401D01*
X145183868Y-152834107D01*
X145196480Y-152855150D01*
X145206970Y-152877329D01*
X145215235Y-152900428D01*
X145221196Y-152924227D01*
X145224796Y-152948495D01*
X145226000Y-152972999D01*
X145226000Y-153623001D01*
X145224796Y-153647505D01*
X145221196Y-153671773D01*
X145215235Y-153695572D01*
X145206970Y-153718671D01*
X145196480Y-153740850D01*
X145183868Y-153761893D01*
X145169253Y-153781599D01*
X145152777Y-153799777D01*
X145134599Y-153816253D01*
X145114893Y-153830868D01*
X145093850Y-153843480D01*
X145071671Y-153853970D01*
X145048572Y-153862235D01*
X145024773Y-153868196D01*
X145000505Y-153871796D01*
X144976001Y-153873000D01*
X144075999Y-153873000D01*
X144051495Y-153871796D01*
X144027227Y-153868196D01*
X144003428Y-153862235D01*
X143980329Y-153853970D01*
X143958150Y-153843480D01*
X143937107Y-153830868D01*
X143917401Y-153816253D01*
X143899223Y-153799777D01*
X143882747Y-153781599D01*
X143868132Y-153761893D01*
X143855520Y-153740850D01*
X143845030Y-153718671D01*
X143836765Y-153695572D01*
X143830804Y-153671773D01*
X143827204Y-153647505D01*
X143826000Y-153623001D01*
X143826000Y-152972999D01*
X143827204Y-152948495D01*
X143830804Y-152924227D01*
X143836765Y-152900428D01*
X143845030Y-152877329D01*
X143855520Y-152855150D01*
X143868132Y-152834107D01*
X143882747Y-152814401D01*
X143899223Y-152796223D01*
X143917401Y-152779747D01*
X143937107Y-152765132D01*
X143958150Y-152752520D01*
X143980329Y-152742030D01*
X144003428Y-152733765D01*
X144027227Y-152727804D01*
X144051495Y-152724204D01*
X144075999Y-152723000D01*
X144976001Y-152723000D01*
X145000505Y-152724204D01*
G37*
G36*
X105757505Y-141294204D02*
G01*
X105781773Y-141297804D01*
X105805572Y-141303765D01*
X105828671Y-141312030D01*
X105850850Y-141322520D01*
X105871893Y-141335132D01*
X105891599Y-141349747D01*
X105909777Y-141366223D01*
X105926253Y-141384401D01*
X105940868Y-141404107D01*
X105953480Y-141425150D01*
X105963970Y-141447329D01*
X105972235Y-141470428D01*
X105978196Y-141494227D01*
X105981796Y-141518495D01*
X105983000Y-141542999D01*
X105983000Y-142193001D01*
X105981796Y-142217505D01*
X105978196Y-142241773D01*
X105972235Y-142265572D01*
X105963970Y-142288671D01*
X105953480Y-142310850D01*
X105940868Y-142331893D01*
X105926253Y-142351599D01*
X105909777Y-142369777D01*
X105891599Y-142386253D01*
X105871893Y-142400868D01*
X105850850Y-142413480D01*
X105828671Y-142423970D01*
X105805572Y-142432235D01*
X105781773Y-142438196D01*
X105757505Y-142441796D01*
X105733001Y-142443000D01*
X104832999Y-142443000D01*
X104808495Y-142441796D01*
X104784227Y-142438196D01*
X104760428Y-142432235D01*
X104737329Y-142423970D01*
X104715150Y-142413480D01*
X104694107Y-142400868D01*
X104674401Y-142386253D01*
X104656223Y-142369777D01*
X104639747Y-142351599D01*
X104625132Y-142331893D01*
X104612520Y-142310850D01*
X104602030Y-142288671D01*
X104593765Y-142265572D01*
X104587804Y-142241773D01*
X104584204Y-142217505D01*
X104583000Y-142193001D01*
X104583000Y-141542999D01*
X104584204Y-141518495D01*
X104587804Y-141494227D01*
X104593765Y-141470428D01*
X104602030Y-141447329D01*
X104612520Y-141425150D01*
X104625132Y-141404107D01*
X104639747Y-141384401D01*
X104656223Y-141366223D01*
X104674401Y-141349747D01*
X104694107Y-141335132D01*
X104715150Y-141322520D01*
X104737329Y-141312030D01*
X104760428Y-141303765D01*
X104784227Y-141297804D01*
X104808495Y-141294204D01*
X104832999Y-141293000D01*
X105733001Y-141293000D01*
X105757505Y-141294204D01*
G37*
G36*
X105757505Y-139244204D02*
G01*
X105781773Y-139247804D01*
X105805572Y-139253765D01*
X105828671Y-139262030D01*
X105850850Y-139272520D01*
X105871893Y-139285132D01*
X105891599Y-139299747D01*
X105909777Y-139316223D01*
X105926253Y-139334401D01*
X105940868Y-139354107D01*
X105953480Y-139375150D01*
X105963970Y-139397329D01*
X105972235Y-139420428D01*
X105978196Y-139444227D01*
X105981796Y-139468495D01*
X105983000Y-139492999D01*
X105983000Y-140143001D01*
X105981796Y-140167505D01*
X105978196Y-140191773D01*
X105972235Y-140215572D01*
X105963970Y-140238671D01*
X105953480Y-140260850D01*
X105940868Y-140281893D01*
X105926253Y-140301599D01*
X105909777Y-140319777D01*
X105891599Y-140336253D01*
X105871893Y-140350868D01*
X105850850Y-140363480D01*
X105828671Y-140373970D01*
X105805572Y-140382235D01*
X105781773Y-140388196D01*
X105757505Y-140391796D01*
X105733001Y-140393000D01*
X104832999Y-140393000D01*
X104808495Y-140391796D01*
X104784227Y-140388196D01*
X104760428Y-140382235D01*
X104737329Y-140373970D01*
X104715150Y-140363480D01*
X104694107Y-140350868D01*
X104674401Y-140336253D01*
X104656223Y-140319777D01*
X104639747Y-140301599D01*
X104625132Y-140281893D01*
X104612520Y-140260850D01*
X104602030Y-140238671D01*
X104593765Y-140215572D01*
X104587804Y-140191773D01*
X104584204Y-140167505D01*
X104583000Y-140143001D01*
X104583000Y-139492999D01*
X104584204Y-139468495D01*
X104587804Y-139444227D01*
X104593765Y-139420428D01*
X104602030Y-139397329D01*
X104612520Y-139375150D01*
X104625132Y-139354107D01*
X104639747Y-139334401D01*
X104656223Y-139316223D01*
X104674401Y-139299747D01*
X104694107Y-139285132D01*
X104715150Y-139272520D01*
X104737329Y-139262030D01*
X104760428Y-139253765D01*
X104784227Y-139247804D01*
X104808495Y-139244204D01*
X104832999Y-139243000D01*
X105733001Y-139243000D01*
X105757505Y-139244204D01*
G37*
G36*
X105757505Y-132885204D02*
G01*
X105781773Y-132888804D01*
X105805572Y-132894765D01*
X105828671Y-132903030D01*
X105850850Y-132913520D01*
X105871893Y-132926132D01*
X105891599Y-132940747D01*
X105909777Y-132957223D01*
X105926253Y-132975401D01*
X105940868Y-132995107D01*
X105953480Y-133016150D01*
X105963970Y-133038329D01*
X105972235Y-133061428D01*
X105978196Y-133085227D01*
X105981796Y-133109495D01*
X105983000Y-133133999D01*
X105983000Y-133784001D01*
X105981796Y-133808505D01*
X105978196Y-133832773D01*
X105972235Y-133856572D01*
X105963970Y-133879671D01*
X105953480Y-133901850D01*
X105940868Y-133922893D01*
X105926253Y-133942599D01*
X105909777Y-133960777D01*
X105891599Y-133977253D01*
X105871893Y-133991868D01*
X105850850Y-134004480D01*
X105828671Y-134014970D01*
X105805572Y-134023235D01*
X105781773Y-134029196D01*
X105757505Y-134032796D01*
X105733001Y-134034000D01*
X104832999Y-134034000D01*
X104808495Y-134032796D01*
X104784227Y-134029196D01*
X104760428Y-134023235D01*
X104737329Y-134014970D01*
X104715150Y-134004480D01*
X104694107Y-133991868D01*
X104674401Y-133977253D01*
X104656223Y-133960777D01*
X104639747Y-133942599D01*
X104625132Y-133922893D01*
X104612520Y-133901850D01*
X104602030Y-133879671D01*
X104593765Y-133856572D01*
X104587804Y-133832773D01*
X104584204Y-133808505D01*
X104583000Y-133784001D01*
X104583000Y-133133999D01*
X104584204Y-133109495D01*
X104587804Y-133085227D01*
X104593765Y-133061428D01*
X104602030Y-133038329D01*
X104612520Y-133016150D01*
X104625132Y-132995107D01*
X104639747Y-132975401D01*
X104656223Y-132957223D01*
X104674401Y-132940747D01*
X104694107Y-132926132D01*
X104715150Y-132913520D01*
X104737329Y-132903030D01*
X104760428Y-132894765D01*
X104784227Y-132888804D01*
X104808495Y-132885204D01*
X104832999Y-132884000D01*
X105733001Y-132884000D01*
X105757505Y-132885204D01*
G37*
G36*
X105757505Y-134935204D02*
G01*
X105781773Y-134938804D01*
X105805572Y-134944765D01*
X105828671Y-134953030D01*
X105850850Y-134963520D01*
X105871893Y-134976132D01*
X105891599Y-134990747D01*
X105909777Y-135007223D01*
X105926253Y-135025401D01*
X105940868Y-135045107D01*
X105953480Y-135066150D01*
X105963970Y-135088329D01*
X105972235Y-135111428D01*
X105978196Y-135135227D01*
X105981796Y-135159495D01*
X105983000Y-135183999D01*
X105983000Y-135834001D01*
X105981796Y-135858505D01*
X105978196Y-135882773D01*
X105972235Y-135906572D01*
X105963970Y-135929671D01*
X105953480Y-135951850D01*
X105940868Y-135972893D01*
X105926253Y-135992599D01*
X105909777Y-136010777D01*
X105891599Y-136027253D01*
X105871893Y-136041868D01*
X105850850Y-136054480D01*
X105828671Y-136064970D01*
X105805572Y-136073235D01*
X105781773Y-136079196D01*
X105757505Y-136082796D01*
X105733001Y-136084000D01*
X104832999Y-136084000D01*
X104808495Y-136082796D01*
X104784227Y-136079196D01*
X104760428Y-136073235D01*
X104737329Y-136064970D01*
X104715150Y-136054480D01*
X104694107Y-136041868D01*
X104674401Y-136027253D01*
X104656223Y-136010777D01*
X104639747Y-135992599D01*
X104625132Y-135972893D01*
X104612520Y-135951850D01*
X104602030Y-135929671D01*
X104593765Y-135906572D01*
X104587804Y-135882773D01*
X104584204Y-135858505D01*
X104583000Y-135834001D01*
X104583000Y-135183999D01*
X104584204Y-135159495D01*
X104587804Y-135135227D01*
X104593765Y-135111428D01*
X104602030Y-135088329D01*
X104612520Y-135066150D01*
X104625132Y-135045107D01*
X104639747Y-135025401D01*
X104656223Y-135007223D01*
X104674401Y-134990747D01*
X104694107Y-134976132D01*
X104715150Y-134963520D01*
X104737329Y-134953030D01*
X104760428Y-134944765D01*
X104784227Y-134938804D01*
X104808495Y-134935204D01*
X104832999Y-134934000D01*
X105733001Y-134934000D01*
X105757505Y-134935204D01*
G37*
G36*
X133559505Y-128449204D02*
G01*
X133583773Y-128452804D01*
X133607572Y-128458765D01*
X133630671Y-128467030D01*
X133652850Y-128477520D01*
X133673893Y-128490132D01*
X133693599Y-128504747D01*
X133711777Y-128521223D01*
X133728253Y-128539401D01*
X133742868Y-128559107D01*
X133755480Y-128580150D01*
X133765970Y-128602329D01*
X133774235Y-128625428D01*
X133780196Y-128649227D01*
X133783796Y-128673495D01*
X133785000Y-128697999D01*
X133785000Y-129348001D01*
X133783796Y-129372505D01*
X133780196Y-129396773D01*
X133774235Y-129420572D01*
X133765970Y-129443671D01*
X133755480Y-129465850D01*
X133742868Y-129486893D01*
X133728253Y-129506599D01*
X133711777Y-129524777D01*
X133693599Y-129541253D01*
X133673893Y-129555868D01*
X133652850Y-129568480D01*
X133630671Y-129578970D01*
X133607572Y-129587235D01*
X133583773Y-129593196D01*
X133559505Y-129596796D01*
X133535001Y-129598000D01*
X132634999Y-129598000D01*
X132610495Y-129596796D01*
X132586227Y-129593196D01*
X132562428Y-129587235D01*
X132539329Y-129578970D01*
X132517150Y-129568480D01*
X132496107Y-129555868D01*
X132476401Y-129541253D01*
X132458223Y-129524777D01*
X132441747Y-129506599D01*
X132427132Y-129486893D01*
X132414520Y-129465850D01*
X132404030Y-129443671D01*
X132395765Y-129420572D01*
X132389804Y-129396773D01*
X132386204Y-129372505D01*
X132385000Y-129348001D01*
X132385000Y-128697999D01*
X132386204Y-128673495D01*
X132389804Y-128649227D01*
X132395765Y-128625428D01*
X132404030Y-128602329D01*
X132414520Y-128580150D01*
X132427132Y-128559107D01*
X132441747Y-128539401D01*
X132458223Y-128521223D01*
X132476401Y-128504747D01*
X132496107Y-128490132D01*
X132517150Y-128477520D01*
X132539329Y-128467030D01*
X132562428Y-128458765D01*
X132586227Y-128452804D01*
X132610495Y-128449204D01*
X132634999Y-128448000D01*
X133535001Y-128448000D01*
X133559505Y-128449204D01*
G37*
G36*
X133559505Y-130499204D02*
G01*
X133583773Y-130502804D01*
X133607572Y-130508765D01*
X133630671Y-130517030D01*
X133652850Y-130527520D01*
X133673893Y-130540132D01*
X133693599Y-130554747D01*
X133711777Y-130571223D01*
X133728253Y-130589401D01*
X133742868Y-130609107D01*
X133755480Y-130630150D01*
X133765970Y-130652329D01*
X133774235Y-130675428D01*
X133780196Y-130699227D01*
X133783796Y-130723495D01*
X133785000Y-130747999D01*
X133785000Y-131398001D01*
X133783796Y-131422505D01*
X133780196Y-131446773D01*
X133774235Y-131470572D01*
X133765970Y-131493671D01*
X133755480Y-131515850D01*
X133742868Y-131536893D01*
X133728253Y-131556599D01*
X133711777Y-131574777D01*
X133693599Y-131591253D01*
X133673893Y-131605868D01*
X133652850Y-131618480D01*
X133630671Y-131628970D01*
X133607572Y-131637235D01*
X133583773Y-131643196D01*
X133559505Y-131646796D01*
X133535001Y-131648000D01*
X132634999Y-131648000D01*
X132610495Y-131646796D01*
X132586227Y-131643196D01*
X132562428Y-131637235D01*
X132539329Y-131628970D01*
X132517150Y-131618480D01*
X132496107Y-131605868D01*
X132476401Y-131591253D01*
X132458223Y-131574777D01*
X132441747Y-131556599D01*
X132427132Y-131536893D01*
X132414520Y-131515850D01*
X132404030Y-131493671D01*
X132395765Y-131470572D01*
X132389804Y-131446773D01*
X132386204Y-131422505D01*
X132385000Y-131398001D01*
X132385000Y-130747999D01*
X132386204Y-130723495D01*
X132389804Y-130699227D01*
X132395765Y-130675428D01*
X132404030Y-130652329D01*
X132414520Y-130630150D01*
X132427132Y-130609107D01*
X132441747Y-130589401D01*
X132458223Y-130571223D01*
X132476401Y-130554747D01*
X132496107Y-130540132D01*
X132517150Y-130527520D01*
X132539329Y-130517030D01*
X132562428Y-130508765D01*
X132586227Y-130502804D01*
X132610495Y-130499204D01*
X132634999Y-130498000D01*
X133535001Y-130498000D01*
X133559505Y-130499204D01*
G37*
M02*
