M48
; DRILL file {KiCad (5.1.5)-3} date 11/6/2020 5:52:10 PM
; FORMAT={-:-/ absolute / inch / decimal}
; #@! TF.CreationDate,2020-11-06T17:52:10+03:00
; #@! TF.GenerationSoftware,Kicad,Pcbnew,(5.1.5)-3
; #@! TF.FileFunction,Plated,1,2,PTH
FMAT,2
INCH
T1C0.0315
T2C0.0354
T3C0.0394
T4C0.0433
T5C0.0472
%
G90
G05
T1
X3.75Y-3.7
X3.75Y-4.0
X3.715Y-2.205
X3.8134Y-2.205
X3.619Y-2.358
X3.619Y-2.658
T2
X3.88Y-2.55
X3.88Y-2.65
X3.8Y-2.885
X3.8Y-3.0425
X3.8Y-3.2
X3.885Y-3.405
X3.885Y-3.505
X3.885Y-3.605
T3
X4.095Y-3.92
X4.095Y-4.02
X4.195Y-3.92
X4.195Y-4.02
X4.05Y-2.15
X4.05Y-2.25
X4.15Y-2.15
X4.15Y-2.25
X3.31Y-2.175
X3.31Y-2.3719
T4
X3.17Y-3.08
X3.57Y-3.08
X3.175Y-2.88
X3.575Y-2.88
X3.175Y-3.445
X3.575Y-3.445
X3.215Y-2.655
X3.315Y-2.655
X3.415Y-2.655
X3.175Y-3.27
X3.575Y-3.27
T5
X3.7311Y-2.8063
X3.7311Y-3.2787
X3.9673Y-2.8063
X3.9673Y-3.2787
T3
G00X3.3539Y-3.6228
M15
G01X3.2949Y-3.6228
M16
G05
G00X3.3539Y-3.9772
M15
G01X3.2949Y-3.9772
M16
G05
G00X3.3638Y-3.7744
M15
G01X3.3638Y-3.8256
M16
G05
G00X3.6Y-3.7606
M15
G01X3.6Y-3.8394
M16
G05
T0
M30
