G04 #@! TF.GenerationSoftware,KiCad,Pcbnew,(5.1.5)-3*
G04 #@! TF.CreationDate,2020-11-06T17:50:15+03:00*
G04 #@! TF.ProjectId,P_supply,505f7375-7070-46c7-992e-6b696361645f,rev?*
G04 #@! TF.SameCoordinates,Original*
G04 #@! TF.FileFunction,Copper,L2,Bot*
G04 #@! TF.FilePolarity,Positive*
%FSLAX46Y46*%
G04 Gerber Fmt 4.6, Leading zero omitted, Abs format (unit mm)*
G04 Created by KiCad (PCBNEW (5.1.5)-3) date 2020-11-06 17:50:15*
%MOMM*%
%LPD*%
G04 APERTURE LIST*
%ADD10O,1.600000X1.600000*%
%ADD11C,1.600000*%
%ADD12R,1.600000X1.600000*%
%ADD13C,2.000000*%
%ADD14C,1.700000*%
%ADD15R,1.800000X1.800000*%
%ADD16C,1.800000*%
%ADD17R,1.700000X1.700000*%
%ADD18O,1.700000X1.700000*%
%ADD19R,2.000000X2.000000*%
%ADD20O,2.200000X2.200000*%
%ADD21R,2.200000X2.200000*%
%ADD22R,2.000000X4.000000*%
%ADD23O,2.000000X3.300000*%
%ADD24O,3.500000X2.000000*%
%ADD25R,1.905000X2.000000*%
%ADD26O,1.905000X2.000000*%
%ADD27C,0.250000*%
%ADD28C,0.254000*%
G04 APERTURE END LIST*
D10*
X91922600Y-67513200D03*
D11*
X91922600Y-59893200D03*
D12*
X94361000Y-56007000D03*
D11*
X96861000Y-56007000D03*
D13*
X94770000Y-83280000D03*
X94770000Y-71280000D03*
X100770000Y-71280000D03*
X100770000Y-83280000D03*
D14*
X96520000Y-81280000D03*
X96520000Y-77280000D03*
X96520000Y-73280000D03*
D15*
X98679000Y-91567000D03*
D16*
X98679000Y-89027000D03*
X98679000Y-86487000D03*
D17*
X104013000Y-99568000D03*
D18*
X106553000Y-99568000D03*
X104013000Y-102108000D03*
X106553000Y-102108000D03*
D19*
X84074000Y-55245000D03*
D13*
X84074000Y-60245000D03*
D20*
X90805000Y-83058000D03*
D21*
X80645000Y-83058000D03*
X80518000Y-78232000D03*
D20*
X90678000Y-78232000D03*
D21*
X80645000Y-87503000D03*
D20*
X90805000Y-87503000D03*
X90805000Y-73152000D03*
D21*
X80645000Y-73152000D03*
D16*
X98552000Y-67310000D03*
D15*
X98552000Y-64770000D03*
D22*
X91440000Y-96520000D03*
D23*
X85440000Y-96520000D03*
D24*
X84440000Y-92020000D03*
X84440000Y-101020000D03*
D18*
X105410000Y-57150000D03*
X102870000Y-57150000D03*
X105410000Y-54610000D03*
D17*
X102870000Y-54610000D03*
D11*
X95250000Y-101600000D03*
D10*
X95250000Y-93980000D03*
D25*
X81661000Y-67437000D03*
D26*
X84201000Y-67437000D03*
X86741000Y-67437000D03*
D27*
X86741000Y-66187000D02*
X86360000Y-65806000D01*
X86741000Y-67437000D02*
X86741000Y-66187000D01*
X86360000Y-65806000D02*
X86360000Y-65405000D01*
X94361000Y-56007000D02*
X94361000Y-57404000D01*
X94361000Y-57404000D02*
X92075000Y-59690000D01*
X91871800Y-59791600D02*
X91897200Y-59817000D01*
X86360000Y-65405000D02*
X91897200Y-59817000D01*
X91897200Y-59817000D02*
X92075000Y-59690000D01*
X97402000Y-64770000D02*
X98552000Y-64770000D01*
X96861000Y-64229000D02*
X97402000Y-64770000D01*
X96861000Y-56007000D02*
X96861000Y-64229000D01*
X98552000Y-65405000D02*
X90805000Y-73152000D01*
X98552000Y-64770000D02*
X98552000Y-65405000D01*
X84201000Y-68687000D02*
X84201000Y-67437000D01*
X87566001Y-72052001D02*
X84201000Y-68687000D01*
X89705001Y-72052001D02*
X87566001Y-72052001D01*
X90805000Y-73152000D02*
X89705001Y-72052001D01*
X84201000Y-60372000D02*
X84074000Y-60245000D01*
X84201000Y-67437000D02*
X84201000Y-60372000D01*
X90805000Y-78105000D02*
X90678000Y-78232000D01*
X90805000Y-73152000D02*
X90805000Y-78105000D01*
X98679000Y-91567000D02*
X98679000Y-92964000D01*
X98679000Y-92964000D02*
X99060000Y-93345000D01*
X99060000Y-93345000D02*
X99060000Y-101600000D01*
X99568000Y-102108000D02*
X104013000Y-102108000D01*
X99060000Y-101600000D02*
X99568000Y-102108000D01*
X102870000Y-57150000D02*
X105410000Y-57150000D01*
X98004000Y-57150000D02*
X96861000Y-56007000D01*
X102870000Y-57150000D02*
X98004000Y-57150000D01*
X104013000Y-102108000D02*
X106553000Y-102108000D01*
X97529000Y-91567000D02*
X98679000Y-91567000D01*
X94615000Y-88653000D02*
X97529000Y-91567000D01*
X90678000Y-79787634D02*
X93091000Y-82200634D01*
X93091000Y-82200634D02*
X93091000Y-84937600D01*
X90678000Y-78232000D02*
X90678000Y-79787634D01*
X93091000Y-84937600D02*
X94615000Y-86461600D01*
X94615000Y-86461600D02*
X94615000Y-88653000D01*
X86995000Y-75565000D02*
X86995000Y-83693000D01*
X86995000Y-83693000D02*
X90805000Y-87503000D01*
X81995000Y-73152000D02*
X82122000Y-73279000D01*
X82122000Y-73279000D02*
X84658200Y-73279000D01*
X80645000Y-73152000D02*
X81995000Y-73152000D01*
X84582000Y-73152000D02*
X84658200Y-73279000D01*
X84658200Y-73279000D02*
X86995000Y-75565000D01*
D28*
G36*
X107823000Y-58649000D02*
G01*
X102394419Y-58649000D01*
X102362000Y-58645807D01*
X102329581Y-58649000D01*
X102232617Y-58658550D01*
X102108207Y-58696290D01*
X101993550Y-58757575D01*
X101893052Y-58840052D01*
X101810575Y-58940550D01*
X101749290Y-59055207D01*
X101711550Y-59179617D01*
X101698807Y-59309000D01*
X101702001Y-59341429D01*
X101702001Y-69936345D01*
X101544463Y-69831082D01*
X101246912Y-69707832D01*
X100931033Y-69645000D01*
X100608967Y-69645000D01*
X100293088Y-69707832D01*
X99995537Y-69831082D01*
X99727748Y-70010013D01*
X99500013Y-70237748D01*
X99321082Y-70505537D01*
X99197832Y-70803088D01*
X99135000Y-71118967D01*
X99135000Y-71441033D01*
X99197832Y-71756912D01*
X99321082Y-72054463D01*
X99500013Y-72322252D01*
X99727748Y-72549987D01*
X99995537Y-72728918D01*
X100293088Y-72852168D01*
X100608967Y-72915000D01*
X100931033Y-72915000D01*
X101246912Y-72852168D01*
X101544463Y-72728918D01*
X101702001Y-72623655D01*
X101702000Y-81936345D01*
X101544463Y-81831082D01*
X101246912Y-81707832D01*
X100931033Y-81645000D01*
X100608967Y-81645000D01*
X100293088Y-81707832D01*
X99995537Y-81831082D01*
X99727748Y-82010013D01*
X99500013Y-82237748D01*
X99321082Y-82505537D01*
X99197832Y-82803088D01*
X99135000Y-83118967D01*
X99135000Y-83441033D01*
X99197832Y-83756912D01*
X99321082Y-84054463D01*
X99500013Y-84322252D01*
X99727748Y-84549987D01*
X99995537Y-84728918D01*
X100293088Y-84852168D01*
X100608967Y-84915000D01*
X100931033Y-84915000D01*
X101246912Y-84852168D01*
X101544463Y-84728918D01*
X101688679Y-84632556D01*
X101473017Y-97787918D01*
X101475051Y-97812731D01*
X101481886Y-97836671D01*
X101493261Y-97858817D01*
X101508738Y-97878319D01*
X101527721Y-97894426D01*
X101549483Y-97906520D01*
X101573185Y-97914137D01*
X101600000Y-97917000D01*
X101940637Y-97917000D01*
X101993550Y-97960425D01*
X102108207Y-98021710D01*
X102232617Y-98059450D01*
X102362000Y-98072193D01*
X102394419Y-98069000D01*
X107925001Y-98069000D01*
X107925001Y-98999812D01*
X107868990Y-98864589D01*
X107706475Y-98621368D01*
X107499632Y-98414525D01*
X107256411Y-98252010D01*
X106986158Y-98140068D01*
X106699260Y-98083000D01*
X106406740Y-98083000D01*
X106119842Y-98140068D01*
X105849589Y-98252010D01*
X105606368Y-98414525D01*
X105474513Y-98546380D01*
X105452502Y-98473820D01*
X105393537Y-98363506D01*
X105314185Y-98266815D01*
X105217494Y-98187463D01*
X105107180Y-98128498D01*
X104987482Y-98092188D01*
X104863000Y-98079928D01*
X103163000Y-98079928D01*
X103038518Y-98092188D01*
X102918820Y-98128498D01*
X102808506Y-98187463D01*
X102711815Y-98266815D01*
X102632463Y-98363506D01*
X102573498Y-98473820D01*
X102537188Y-98593518D01*
X102524928Y-98718000D01*
X102524928Y-100418000D01*
X102537188Y-100542482D01*
X102573498Y-100662180D01*
X102632463Y-100772494D01*
X102711815Y-100869185D01*
X102808506Y-100948537D01*
X102918820Y-101007502D01*
X102999466Y-101031966D01*
X102915412Y-101107731D01*
X102741359Y-101341080D01*
X102616175Y-101603901D01*
X102571524Y-101751110D01*
X102692845Y-101981000D01*
X103886000Y-101981000D01*
X103886000Y-101961000D01*
X104140000Y-101961000D01*
X104140000Y-101981000D01*
X106426000Y-101981000D01*
X106426000Y-101961000D01*
X106680000Y-101961000D01*
X106680000Y-101981000D01*
X106700000Y-101981000D01*
X106700000Y-102235000D01*
X106680000Y-102235000D01*
X106680000Y-103428814D01*
X106909891Y-103549481D01*
X107184252Y-103452157D01*
X107434355Y-103303178D01*
X107650588Y-103108269D01*
X107824641Y-102874920D01*
X107925000Y-102664218D01*
X107925000Y-103734000D01*
X79146000Y-103734000D01*
X79146000Y-101020000D01*
X82047089Y-101020000D01*
X82078657Y-101340516D01*
X82172148Y-101648715D01*
X82323969Y-101932752D01*
X82528286Y-102181714D01*
X82777248Y-102386031D01*
X83061285Y-102537852D01*
X83369484Y-102631343D01*
X83609678Y-102655000D01*
X85270322Y-102655000D01*
X85510516Y-102631343D01*
X85818715Y-102537852D01*
X86102752Y-102386031D01*
X86351714Y-102181714D01*
X86556031Y-101932752D01*
X86707852Y-101648715D01*
X86765502Y-101458665D01*
X93815000Y-101458665D01*
X93815000Y-101741335D01*
X93870147Y-102018574D01*
X93978320Y-102279727D01*
X94135363Y-102514759D01*
X94335241Y-102714637D01*
X94570273Y-102871680D01*
X94831426Y-102979853D01*
X95108665Y-103035000D01*
X95391335Y-103035000D01*
X95668574Y-102979853D01*
X95929727Y-102871680D01*
X96164759Y-102714637D01*
X96364637Y-102514759D01*
X96397958Y-102464890D01*
X102571524Y-102464890D01*
X102616175Y-102612099D01*
X102741359Y-102874920D01*
X102915412Y-103108269D01*
X103131645Y-103303178D01*
X103381748Y-103452157D01*
X103656109Y-103549481D01*
X103886000Y-103428814D01*
X103886000Y-102235000D01*
X104140000Y-102235000D01*
X104140000Y-103428814D01*
X104369891Y-103549481D01*
X104644252Y-103452157D01*
X104894355Y-103303178D01*
X105110588Y-103108269D01*
X105283000Y-102877120D01*
X105455412Y-103108269D01*
X105671645Y-103303178D01*
X105921748Y-103452157D01*
X106196109Y-103549481D01*
X106426000Y-103428814D01*
X106426000Y-102235000D01*
X104140000Y-102235000D01*
X103886000Y-102235000D01*
X102692845Y-102235000D01*
X102571524Y-102464890D01*
X96397958Y-102464890D01*
X96521680Y-102279727D01*
X96629853Y-102018574D01*
X96685000Y-101741335D01*
X96685000Y-101458665D01*
X96629853Y-101181426D01*
X96521680Y-100920273D01*
X96364637Y-100685241D01*
X96164759Y-100485363D01*
X95929727Y-100328320D01*
X95668574Y-100220147D01*
X95391335Y-100165000D01*
X95108665Y-100165000D01*
X94831426Y-100220147D01*
X94570273Y-100328320D01*
X94335241Y-100485363D01*
X94135363Y-100685241D01*
X93978320Y-100920273D01*
X93870147Y-101181426D01*
X93815000Y-101458665D01*
X86765502Y-101458665D01*
X86801343Y-101340516D01*
X86832911Y-101020000D01*
X86801343Y-100699484D01*
X86707852Y-100391285D01*
X86556031Y-100107248D01*
X86351714Y-99858286D01*
X86102752Y-99653969D01*
X85818715Y-99502148D01*
X85510516Y-99408657D01*
X85270322Y-99385000D01*
X83609678Y-99385000D01*
X83369484Y-99408657D01*
X83061285Y-99502148D01*
X82777248Y-99653969D01*
X82528286Y-99858286D01*
X82323969Y-100107248D01*
X82172148Y-100391285D01*
X82078657Y-100699484D01*
X82047089Y-101020000D01*
X79146000Y-101020000D01*
X79146000Y-96378665D01*
X81005000Y-96378665D01*
X81005000Y-96661335D01*
X81060147Y-96938574D01*
X81168320Y-97199727D01*
X81325363Y-97434759D01*
X81525241Y-97634637D01*
X81760273Y-97791680D01*
X82021426Y-97899853D01*
X82298665Y-97955000D01*
X82581335Y-97955000D01*
X82858574Y-97899853D01*
X83119727Y-97791680D01*
X83354759Y-97634637D01*
X83554637Y-97434759D01*
X83711680Y-97199727D01*
X83805000Y-96974432D01*
X83805000Y-97250321D01*
X83828657Y-97490515D01*
X83922148Y-97798714D01*
X84073969Y-98082751D01*
X84278286Y-98331714D01*
X84527248Y-98536031D01*
X84811285Y-98687852D01*
X85119484Y-98781343D01*
X85440000Y-98812911D01*
X85760515Y-98781343D01*
X86068714Y-98687852D01*
X86352751Y-98536031D01*
X86601714Y-98331714D01*
X86806031Y-98082752D01*
X86957852Y-97798715D01*
X87051343Y-97490516D01*
X87075000Y-97250322D01*
X87075000Y-95789678D01*
X87051343Y-95549484D01*
X86957852Y-95241285D01*
X86806031Y-94957248D01*
X86601714Y-94708286D01*
X86372286Y-94520000D01*
X89801928Y-94520000D01*
X89801928Y-98520000D01*
X89814188Y-98644482D01*
X89850498Y-98764180D01*
X89909463Y-98874494D01*
X89988815Y-98971185D01*
X90085506Y-99050537D01*
X90195820Y-99109502D01*
X90315518Y-99145812D01*
X90440000Y-99158072D01*
X92440000Y-99158072D01*
X92564482Y-99145812D01*
X92684180Y-99109502D01*
X92794494Y-99050537D01*
X92891185Y-98971185D01*
X92970537Y-98874494D01*
X93029502Y-98764180D01*
X93065812Y-98644482D01*
X93078072Y-98520000D01*
X93078072Y-94520000D01*
X93065812Y-94395518D01*
X93029502Y-94275820D01*
X92970537Y-94165506D01*
X92891185Y-94068815D01*
X92794494Y-93989463D01*
X92684180Y-93930498D01*
X92564482Y-93894188D01*
X92440000Y-93881928D01*
X90440000Y-93881928D01*
X90315518Y-93894188D01*
X90195820Y-93930498D01*
X90085506Y-93989463D01*
X89988815Y-94068815D01*
X89909463Y-94165506D01*
X89850498Y-94275820D01*
X89814188Y-94395518D01*
X89801928Y-94520000D01*
X86372286Y-94520000D01*
X86352752Y-94503969D01*
X86068715Y-94352148D01*
X85760516Y-94258657D01*
X85440000Y-94227089D01*
X85119485Y-94258657D01*
X84811286Y-94352148D01*
X84527249Y-94503969D01*
X84278287Y-94708286D01*
X84073970Y-94957248D01*
X83922149Y-95241285D01*
X83828657Y-95549484D01*
X83805000Y-95789678D01*
X83805000Y-96065568D01*
X83711680Y-95840273D01*
X83554637Y-95605241D01*
X83354759Y-95405363D01*
X83119727Y-95248320D01*
X82858574Y-95140147D01*
X82581335Y-95085000D01*
X82298665Y-95085000D01*
X82021426Y-95140147D01*
X81760273Y-95248320D01*
X81525241Y-95405363D01*
X81325363Y-95605241D01*
X81168320Y-95840273D01*
X81060147Y-96101426D01*
X81005000Y-96378665D01*
X79146000Y-96378665D01*
X79146000Y-93838665D01*
X93815000Y-93838665D01*
X93815000Y-94121335D01*
X93870147Y-94398574D01*
X93978320Y-94659727D01*
X94135363Y-94894759D01*
X94335241Y-95094637D01*
X94570273Y-95251680D01*
X94831426Y-95359853D01*
X95108665Y-95415000D01*
X95391335Y-95415000D01*
X95668574Y-95359853D01*
X95929727Y-95251680D01*
X96164759Y-95094637D01*
X96364637Y-94894759D01*
X96521680Y-94659727D01*
X96629853Y-94398574D01*
X96685000Y-94121335D01*
X96685000Y-93838665D01*
X96629853Y-93561426D01*
X96521680Y-93300273D01*
X96364637Y-93065241D01*
X96164759Y-92865363D01*
X95929727Y-92708320D01*
X95668574Y-92600147D01*
X95391335Y-92545000D01*
X95108665Y-92545000D01*
X94831426Y-92600147D01*
X94570273Y-92708320D01*
X94335241Y-92865363D01*
X94135363Y-93065241D01*
X93978320Y-93300273D01*
X93870147Y-93561426D01*
X93815000Y-93838665D01*
X79146000Y-93838665D01*
X79146000Y-92020000D01*
X82047089Y-92020000D01*
X82078657Y-92340516D01*
X82172148Y-92648715D01*
X82323969Y-92932752D01*
X82528286Y-93181714D01*
X82777248Y-93386031D01*
X83061285Y-93537852D01*
X83369484Y-93631343D01*
X83609678Y-93655000D01*
X85270322Y-93655000D01*
X85510516Y-93631343D01*
X85818715Y-93537852D01*
X86102752Y-93386031D01*
X86351714Y-93181714D01*
X86556031Y-92932752D01*
X86707852Y-92648715D01*
X86762974Y-92467000D01*
X97140928Y-92467000D01*
X97153188Y-92591482D01*
X97189498Y-92711180D01*
X97248463Y-92821494D01*
X97327815Y-92918185D01*
X97424506Y-92997537D01*
X97534820Y-93056502D01*
X97654518Y-93092812D01*
X97779000Y-93105072D01*
X98393250Y-93102000D01*
X98552000Y-92943250D01*
X98552000Y-91694000D01*
X98806000Y-91694000D01*
X98806000Y-92943250D01*
X98964750Y-93102000D01*
X99579000Y-93105072D01*
X99703482Y-93092812D01*
X99823180Y-93056502D01*
X99933494Y-92997537D01*
X100030185Y-92918185D01*
X100109537Y-92821494D01*
X100168502Y-92711180D01*
X100204812Y-92591482D01*
X100217072Y-92467000D01*
X100214000Y-91852750D01*
X100055250Y-91694000D01*
X98806000Y-91694000D01*
X98552000Y-91694000D01*
X97302750Y-91694000D01*
X97144000Y-91852750D01*
X97140928Y-92467000D01*
X86762974Y-92467000D01*
X86801343Y-92340516D01*
X86832911Y-92020000D01*
X86801343Y-91699484D01*
X86707852Y-91391285D01*
X86556031Y-91107248D01*
X86351714Y-90858286D01*
X86118631Y-90667000D01*
X97140928Y-90667000D01*
X97144000Y-91281250D01*
X97302750Y-91440000D01*
X98552000Y-91440000D01*
X98552000Y-91420000D01*
X98806000Y-91420000D01*
X98806000Y-91440000D01*
X100055250Y-91440000D01*
X100214000Y-91281250D01*
X100217072Y-90667000D01*
X100204812Y-90542518D01*
X100168502Y-90422820D01*
X100109537Y-90312506D01*
X100030185Y-90215815D01*
X99933494Y-90136463D01*
X99823180Y-90077498D01*
X99804873Y-90071944D01*
X99871312Y-90005505D01*
X100039299Y-89754095D01*
X100155011Y-89474743D01*
X100214000Y-89178184D01*
X100214000Y-88875816D01*
X100155011Y-88579257D01*
X100039299Y-88299905D01*
X99871312Y-88048495D01*
X99657505Y-87834688D01*
X99541237Y-87757000D01*
X99657505Y-87679312D01*
X99871312Y-87465505D01*
X100039299Y-87214095D01*
X100155011Y-86934743D01*
X100214000Y-86638184D01*
X100214000Y-86335816D01*
X100155011Y-86039257D01*
X100039299Y-85759905D01*
X99871312Y-85508495D01*
X99657505Y-85294688D01*
X99406095Y-85126701D01*
X99126743Y-85010989D01*
X98830184Y-84952000D01*
X98527816Y-84952000D01*
X98231257Y-85010989D01*
X97951905Y-85126701D01*
X97700495Y-85294688D01*
X97486688Y-85508495D01*
X97318701Y-85759905D01*
X97202989Y-86039257D01*
X97144000Y-86335816D01*
X97144000Y-86638184D01*
X97202989Y-86934743D01*
X97318701Y-87214095D01*
X97486688Y-87465505D01*
X97700495Y-87679312D01*
X97816763Y-87757000D01*
X97700495Y-87834688D01*
X97486688Y-88048495D01*
X97318701Y-88299905D01*
X97202989Y-88579257D01*
X97144000Y-88875816D01*
X97144000Y-89178184D01*
X97202989Y-89474743D01*
X97318701Y-89754095D01*
X97486688Y-90005505D01*
X97553127Y-90071944D01*
X97534820Y-90077498D01*
X97424506Y-90136463D01*
X97327815Y-90215815D01*
X97248463Y-90312506D01*
X97189498Y-90422820D01*
X97153188Y-90542518D01*
X97140928Y-90667000D01*
X86118631Y-90667000D01*
X86102752Y-90653969D01*
X85818715Y-90502148D01*
X85510516Y-90408657D01*
X85270322Y-90385000D01*
X83609678Y-90385000D01*
X83369484Y-90408657D01*
X83061285Y-90502148D01*
X82777248Y-90653969D01*
X82528286Y-90858286D01*
X82323969Y-91107248D01*
X82172148Y-91391285D01*
X82078657Y-91699484D01*
X82047089Y-92020000D01*
X79146000Y-92020000D01*
X79146000Y-89097012D01*
X79190506Y-89133537D01*
X79300820Y-89192502D01*
X79420518Y-89228812D01*
X79545000Y-89241072D01*
X81745000Y-89241072D01*
X81869482Y-89228812D01*
X81989180Y-89192502D01*
X82099494Y-89133537D01*
X82196185Y-89054185D01*
X82275537Y-88957494D01*
X82334502Y-88847180D01*
X82370812Y-88727482D01*
X82383072Y-88603000D01*
X82383072Y-86403000D01*
X82370812Y-86278518D01*
X82334502Y-86158820D01*
X82275537Y-86048506D01*
X82196185Y-85951815D01*
X82099494Y-85872463D01*
X81989180Y-85813498D01*
X81869482Y-85777188D01*
X81745000Y-85764928D01*
X79545000Y-85764928D01*
X79420518Y-85777188D01*
X79300820Y-85813498D01*
X79190506Y-85872463D01*
X79146000Y-85908988D01*
X79146000Y-84652012D01*
X79190506Y-84688537D01*
X79300820Y-84747502D01*
X79420518Y-84783812D01*
X79545000Y-84796072D01*
X81745000Y-84796072D01*
X81869482Y-84783812D01*
X81989180Y-84747502D01*
X82099494Y-84688537D01*
X82196185Y-84609185D01*
X82275537Y-84512494D01*
X82334502Y-84402180D01*
X82370812Y-84282482D01*
X82383072Y-84158000D01*
X82383072Y-81958000D01*
X82370812Y-81833518D01*
X82334502Y-81713820D01*
X82275537Y-81603506D01*
X82196185Y-81506815D01*
X82099494Y-81427463D01*
X81989180Y-81368498D01*
X81869482Y-81332188D01*
X81745000Y-81319928D01*
X79545000Y-81319928D01*
X79420518Y-81332188D01*
X79300820Y-81368498D01*
X79190506Y-81427463D01*
X79146000Y-81463988D01*
X79146000Y-79906632D01*
X79173820Y-79921502D01*
X79293518Y-79957812D01*
X79418000Y-79970072D01*
X81618000Y-79970072D01*
X81742482Y-79957812D01*
X81862180Y-79921502D01*
X81972494Y-79862537D01*
X82069185Y-79783185D01*
X82148537Y-79686494D01*
X82207502Y-79576180D01*
X82243812Y-79456482D01*
X82256072Y-79332000D01*
X82256072Y-77132000D01*
X82243812Y-77007518D01*
X82207502Y-76887820D01*
X82148537Y-76777506D01*
X82069185Y-76680815D01*
X81972494Y-76601463D01*
X81862180Y-76542498D01*
X81742482Y-76506188D01*
X81618000Y-76493928D01*
X79418000Y-76493928D01*
X79293518Y-76506188D01*
X79173820Y-76542498D01*
X79146000Y-76557368D01*
X79146000Y-74746012D01*
X79190506Y-74782537D01*
X79300820Y-74841502D01*
X79420518Y-74877812D01*
X79545000Y-74890072D01*
X81745000Y-74890072D01*
X81869482Y-74877812D01*
X81989180Y-74841502D01*
X82099494Y-74782537D01*
X82196185Y-74703185D01*
X82275537Y-74606494D01*
X82334502Y-74496180D01*
X82370812Y-74376482D01*
X82383072Y-74252000D01*
X82383072Y-74039000D01*
X84348279Y-74039000D01*
X86235000Y-75884705D01*
X86235001Y-83655668D01*
X86231324Y-83693000D01*
X86245998Y-83841985D01*
X86289454Y-83985246D01*
X86360026Y-84117276D01*
X86431201Y-84204002D01*
X86455000Y-84233001D01*
X86483998Y-84256799D01*
X89162286Y-86935088D01*
X89136675Y-86996919D01*
X89070000Y-87332117D01*
X89070000Y-87673883D01*
X89136675Y-88009081D01*
X89267463Y-88324831D01*
X89457337Y-88608998D01*
X89699002Y-88850663D01*
X89983169Y-89040537D01*
X90298919Y-89171325D01*
X90634117Y-89238000D01*
X90975883Y-89238000D01*
X91311081Y-89171325D01*
X91626831Y-89040537D01*
X91910998Y-88850663D01*
X92152663Y-88608998D01*
X92342537Y-88324831D01*
X92473325Y-88009081D01*
X92540000Y-87673883D01*
X92540000Y-87332117D01*
X92473325Y-86996919D01*
X92342537Y-86681169D01*
X92152663Y-86397002D01*
X91910998Y-86155337D01*
X91626831Y-85965463D01*
X91311081Y-85834675D01*
X90975883Y-85768000D01*
X90634117Y-85768000D01*
X90298919Y-85834675D01*
X90237088Y-85860286D01*
X87755000Y-83378199D01*
X87755000Y-82887117D01*
X89070000Y-82887117D01*
X89070000Y-83228883D01*
X89136675Y-83564081D01*
X89267463Y-83879831D01*
X89457337Y-84163998D01*
X89699002Y-84405663D01*
X89983169Y-84595537D01*
X90298919Y-84726325D01*
X90634117Y-84793000D01*
X90975883Y-84793000D01*
X91311081Y-84726325D01*
X91626831Y-84595537D01*
X91910998Y-84405663D01*
X92152663Y-84163998D01*
X92342537Y-83879831D01*
X92473325Y-83564081D01*
X92540000Y-83228883D01*
X92540000Y-83118967D01*
X93135000Y-83118967D01*
X93135000Y-83441033D01*
X93197832Y-83756912D01*
X93321082Y-84054463D01*
X93500013Y-84322252D01*
X93727748Y-84549987D01*
X93995537Y-84728918D01*
X94293088Y-84852168D01*
X94608967Y-84915000D01*
X94931033Y-84915000D01*
X95246912Y-84852168D01*
X95544463Y-84728918D01*
X95812252Y-84549987D01*
X96039987Y-84322252D01*
X96218918Y-84054463D01*
X96342168Y-83756912D01*
X96405000Y-83441033D01*
X96405000Y-83118967D01*
X96342168Y-82803088D01*
X96322140Y-82754736D01*
X96373740Y-82765000D01*
X96666260Y-82765000D01*
X96953158Y-82707932D01*
X97223411Y-82595990D01*
X97466632Y-82433475D01*
X97673475Y-82226632D01*
X97835990Y-81983411D01*
X97947932Y-81713158D01*
X98005000Y-81426260D01*
X98005000Y-81133740D01*
X97947932Y-80846842D01*
X97835990Y-80576589D01*
X97673475Y-80333368D01*
X97466632Y-80126525D01*
X97223411Y-79964010D01*
X96953158Y-79852068D01*
X96666260Y-79795000D01*
X96373740Y-79795000D01*
X96086842Y-79852068D01*
X95816589Y-79964010D01*
X95573368Y-80126525D01*
X95366525Y-80333368D01*
X95204010Y-80576589D01*
X95092068Y-80846842D01*
X95035000Y-81133740D01*
X95035000Y-81426260D01*
X95084586Y-81675543D01*
X94931033Y-81645000D01*
X94608967Y-81645000D01*
X94293088Y-81707832D01*
X93995537Y-81831082D01*
X93727748Y-82010013D01*
X93500013Y-82237748D01*
X93321082Y-82505537D01*
X93197832Y-82803088D01*
X93135000Y-83118967D01*
X92540000Y-83118967D01*
X92540000Y-82887117D01*
X92473325Y-82551919D01*
X92342537Y-82236169D01*
X92152663Y-81952002D01*
X91910998Y-81710337D01*
X91626831Y-81520463D01*
X91311081Y-81389675D01*
X90975883Y-81323000D01*
X90634117Y-81323000D01*
X90298919Y-81389675D01*
X89983169Y-81520463D01*
X89699002Y-81710337D01*
X89457337Y-81952002D01*
X89267463Y-82236169D01*
X89136675Y-82551919D01*
X89070000Y-82887117D01*
X87755000Y-82887117D01*
X87755000Y-78628122D01*
X88988825Y-78628122D01*
X89053425Y-78841094D01*
X89203469Y-79146329D01*
X89410178Y-79416427D01*
X89665609Y-79641008D01*
X89959946Y-79811442D01*
X90281877Y-79921179D01*
X90551000Y-79803600D01*
X90551000Y-78359000D01*
X90805000Y-78359000D01*
X90805000Y-79803600D01*
X91074123Y-79921179D01*
X91396054Y-79811442D01*
X91690391Y-79641008D01*
X91945822Y-79416427D01*
X92152531Y-79146329D01*
X92302575Y-78841094D01*
X92367175Y-78628122D01*
X92249125Y-78359000D01*
X90805000Y-78359000D01*
X90551000Y-78359000D01*
X89106875Y-78359000D01*
X88988825Y-78628122D01*
X87755000Y-78628122D01*
X87755000Y-77835878D01*
X88988825Y-77835878D01*
X89106875Y-78105000D01*
X90551000Y-78105000D01*
X90551000Y-76660400D01*
X90805000Y-76660400D01*
X90805000Y-78105000D01*
X92249125Y-78105000D01*
X92367175Y-77835878D01*
X92302575Y-77622906D01*
X92152531Y-77317671D01*
X92011767Y-77133740D01*
X95035000Y-77133740D01*
X95035000Y-77426260D01*
X95092068Y-77713158D01*
X95204010Y-77983411D01*
X95366525Y-78226632D01*
X95573368Y-78433475D01*
X95816589Y-78595990D01*
X96086842Y-78707932D01*
X96373740Y-78765000D01*
X96666260Y-78765000D01*
X96953158Y-78707932D01*
X97223411Y-78595990D01*
X97466632Y-78433475D01*
X97673475Y-78226632D01*
X97835990Y-77983411D01*
X97947932Y-77713158D01*
X98005000Y-77426260D01*
X98005000Y-77133740D01*
X97947932Y-76846842D01*
X97835990Y-76576589D01*
X97673475Y-76333368D01*
X97466632Y-76126525D01*
X97223411Y-75964010D01*
X96953158Y-75852068D01*
X96666260Y-75795000D01*
X96373740Y-75795000D01*
X96086842Y-75852068D01*
X95816589Y-75964010D01*
X95573368Y-76126525D01*
X95366525Y-76333368D01*
X95204010Y-76576589D01*
X95092068Y-76846842D01*
X95035000Y-77133740D01*
X92011767Y-77133740D01*
X91945822Y-77047573D01*
X91690391Y-76822992D01*
X91396054Y-76652558D01*
X91074123Y-76542821D01*
X90805000Y-76660400D01*
X90551000Y-76660400D01*
X90281877Y-76542821D01*
X89959946Y-76652558D01*
X89665609Y-76822992D01*
X89410178Y-77047573D01*
X89203469Y-77317671D01*
X89053425Y-77622906D01*
X88988825Y-77835878D01*
X87755000Y-77835878D01*
X87755000Y-75598140D01*
X87758630Y-75556608D01*
X87750937Y-75486417D01*
X87744003Y-75416014D01*
X87742779Y-75411978D01*
X87742320Y-75407792D01*
X87721071Y-75340416D01*
X87700546Y-75272753D01*
X87698559Y-75269036D01*
X87697292Y-75265018D01*
X87663300Y-75203072D01*
X87629974Y-75140724D01*
X87627300Y-75137465D01*
X87625273Y-75133772D01*
X87579850Y-75079648D01*
X87535001Y-75024999D01*
X87502768Y-74998546D01*
X86020112Y-73548122D01*
X89115825Y-73548122D01*
X89180425Y-73761094D01*
X89330469Y-74066329D01*
X89537178Y-74336427D01*
X89792609Y-74561008D01*
X90086946Y-74731442D01*
X90408877Y-74841179D01*
X90678000Y-74723600D01*
X90678000Y-73279000D01*
X90932000Y-73279000D01*
X90932000Y-74723600D01*
X91201123Y-74841179D01*
X91523054Y-74731442D01*
X91817391Y-74561008D01*
X92072822Y-74336427D01*
X92279531Y-74066329D01*
X92429575Y-73761094D01*
X92494175Y-73548122D01*
X92376125Y-73279000D01*
X90932000Y-73279000D01*
X90678000Y-73279000D01*
X89233875Y-73279000D01*
X89115825Y-73548122D01*
X86020112Y-73548122D01*
X85259575Y-72804119D01*
X85230631Y-72755878D01*
X89115825Y-72755878D01*
X89233875Y-73025000D01*
X90678000Y-73025000D01*
X90678000Y-71580400D01*
X90932000Y-71580400D01*
X90932000Y-73025000D01*
X92376125Y-73025000D01*
X92494175Y-72755878D01*
X92429575Y-72542906D01*
X92279531Y-72237671D01*
X92072822Y-71967573D01*
X91817391Y-71742992D01*
X91523054Y-71572558D01*
X91201123Y-71462821D01*
X90932000Y-71580400D01*
X90678000Y-71580400D01*
X90408877Y-71462821D01*
X90086946Y-71572558D01*
X89792609Y-71742992D01*
X89537178Y-71967573D01*
X89330469Y-72237671D01*
X89180425Y-72542906D01*
X89115825Y-72755878D01*
X85230631Y-72755878D01*
X85214486Y-72728971D01*
X85147612Y-72638887D01*
X85036640Y-72538400D01*
X84908197Y-72461495D01*
X84767218Y-72411125D01*
X84619122Y-72389227D01*
X84469600Y-72396640D01*
X84324396Y-72433083D01*
X84189092Y-72497153D01*
X84159663Y-72519000D01*
X82421681Y-72519000D01*
X82419276Y-72517026D01*
X82383072Y-72497674D01*
X82383072Y-72052000D01*
X82370812Y-71927518D01*
X82334502Y-71807820D01*
X82275537Y-71697506D01*
X82196185Y-71600815D01*
X82099494Y-71521463D01*
X81989180Y-71462498D01*
X81869482Y-71426188D01*
X81745000Y-71413928D01*
X79545000Y-71413928D01*
X79420518Y-71426188D01*
X79300820Y-71462498D01*
X79190506Y-71521463D01*
X79146000Y-71557988D01*
X79146000Y-71118967D01*
X93135000Y-71118967D01*
X93135000Y-71441033D01*
X93197832Y-71756912D01*
X93321082Y-72054463D01*
X93500013Y-72322252D01*
X93727748Y-72549987D01*
X93995537Y-72728918D01*
X94293088Y-72852168D01*
X94608967Y-72915000D01*
X94931033Y-72915000D01*
X95084586Y-72884457D01*
X95035000Y-73133740D01*
X95035000Y-73426260D01*
X95092068Y-73713158D01*
X95204010Y-73983411D01*
X95366525Y-74226632D01*
X95573368Y-74433475D01*
X95816589Y-74595990D01*
X96086842Y-74707932D01*
X96373740Y-74765000D01*
X96666260Y-74765000D01*
X96953158Y-74707932D01*
X97223411Y-74595990D01*
X97466632Y-74433475D01*
X97673475Y-74226632D01*
X97835990Y-73983411D01*
X97947932Y-73713158D01*
X98005000Y-73426260D01*
X98005000Y-73133740D01*
X97947932Y-72846842D01*
X97835990Y-72576589D01*
X97673475Y-72333368D01*
X97466632Y-72126525D01*
X97223411Y-71964010D01*
X96953158Y-71852068D01*
X96666260Y-71795000D01*
X96373740Y-71795000D01*
X96322140Y-71805264D01*
X96342168Y-71756912D01*
X96405000Y-71441033D01*
X96405000Y-71118967D01*
X96342168Y-70803088D01*
X96218918Y-70505537D01*
X96039987Y-70237748D01*
X95812252Y-70010013D01*
X95544463Y-69831082D01*
X95246912Y-69707832D01*
X94931033Y-69645000D01*
X94608967Y-69645000D01*
X94293088Y-69707832D01*
X93995537Y-69831082D01*
X93727748Y-70010013D01*
X93500013Y-70237748D01*
X93321082Y-70505537D01*
X93197832Y-70803088D01*
X93135000Y-71118967D01*
X79146000Y-71118967D01*
X79146000Y-66437000D01*
X80070428Y-66437000D01*
X80070428Y-68437000D01*
X80082688Y-68561482D01*
X80118998Y-68681180D01*
X80177963Y-68791494D01*
X80257315Y-68888185D01*
X80354006Y-68967537D01*
X80464320Y-69026502D01*
X80584018Y-69062812D01*
X80708500Y-69075072D01*
X82613500Y-69075072D01*
X82737982Y-69062812D01*
X82857680Y-69026502D01*
X82967994Y-68967537D01*
X83064685Y-68888185D01*
X83144037Y-68791494D01*
X83193059Y-68699781D01*
X83334077Y-68812969D01*
X83609906Y-68956571D01*
X83828020Y-69027563D01*
X84074000Y-68907594D01*
X84074000Y-67564000D01*
X84054000Y-67564000D01*
X84054000Y-67310000D01*
X84074000Y-67310000D01*
X84074000Y-65966406D01*
X84328000Y-65966406D01*
X84328000Y-67310000D01*
X84348000Y-67310000D01*
X84348000Y-67564000D01*
X84328000Y-67564000D01*
X84328000Y-68907594D01*
X84573980Y-69027563D01*
X84792094Y-68956571D01*
X85067923Y-68812969D01*
X85310437Y-68618315D01*
X85465837Y-68433101D01*
X85613037Y-68612463D01*
X85854766Y-68810845D01*
X86130552Y-68958255D01*
X86429797Y-69049030D01*
X86741000Y-69079681D01*
X87052204Y-69049030D01*
X87351449Y-68958255D01*
X87627235Y-68810845D01*
X87868963Y-68612463D01*
X88067345Y-68370734D01*
X88214755Y-68094948D01*
X88305530Y-67795703D01*
X88328500Y-67562485D01*
X88328500Y-67371865D01*
X90487600Y-67371865D01*
X90487600Y-67654535D01*
X90542747Y-67931774D01*
X90650920Y-68192927D01*
X90807963Y-68427959D01*
X91007841Y-68627837D01*
X91242873Y-68784880D01*
X91504026Y-68893053D01*
X91781265Y-68948200D01*
X92063935Y-68948200D01*
X92341174Y-68893053D01*
X92602327Y-68784880D01*
X92837359Y-68627837D01*
X93037237Y-68427959D01*
X93194280Y-68192927D01*
X93302453Y-67931774D01*
X93357600Y-67654535D01*
X93357600Y-67371865D01*
X93302453Y-67094626D01*
X93194280Y-66833473D01*
X93037237Y-66598441D01*
X92837359Y-66398563D01*
X92602327Y-66241520D01*
X92341174Y-66133347D01*
X92063935Y-66078200D01*
X91781265Y-66078200D01*
X91504026Y-66133347D01*
X91242873Y-66241520D01*
X91007841Y-66398563D01*
X90807963Y-66598441D01*
X90650920Y-66833473D01*
X90542747Y-67094626D01*
X90487600Y-67371865D01*
X88328500Y-67371865D01*
X88328500Y-67311514D01*
X88305530Y-67078296D01*
X88214755Y-66779051D01*
X88067345Y-66503265D01*
X87868963Y-66261537D01*
X87627234Y-66063155D01*
X87472549Y-65980474D01*
X87446546Y-65894753D01*
X87375974Y-65762724D01*
X87299878Y-65670000D01*
X97013928Y-65670000D01*
X97026188Y-65794482D01*
X97062498Y-65914180D01*
X97121463Y-66024494D01*
X97200815Y-66121185D01*
X97297506Y-66200537D01*
X97407820Y-66259502D01*
X97426127Y-66265056D01*
X97359688Y-66331495D01*
X97191701Y-66582905D01*
X97075989Y-66862257D01*
X97017000Y-67158816D01*
X97017000Y-67461184D01*
X97075989Y-67757743D01*
X97191701Y-68037095D01*
X97359688Y-68288505D01*
X97573495Y-68502312D01*
X97824905Y-68670299D01*
X98104257Y-68786011D01*
X98400816Y-68845000D01*
X98703184Y-68845000D01*
X98999743Y-68786011D01*
X99279095Y-68670299D01*
X99530505Y-68502312D01*
X99744312Y-68288505D01*
X99912299Y-68037095D01*
X100028011Y-67757743D01*
X100087000Y-67461184D01*
X100087000Y-67158816D01*
X100028011Y-66862257D01*
X99912299Y-66582905D01*
X99744312Y-66331495D01*
X99677873Y-66265056D01*
X99696180Y-66259502D01*
X99806494Y-66200537D01*
X99903185Y-66121185D01*
X99982537Y-66024494D01*
X100041502Y-65914180D01*
X100077812Y-65794482D01*
X100090072Y-65670000D01*
X100087000Y-65055750D01*
X99928250Y-64897000D01*
X98679000Y-64897000D01*
X98679000Y-64917000D01*
X98425000Y-64917000D01*
X98425000Y-64897000D01*
X97175750Y-64897000D01*
X97017000Y-65055750D01*
X97013928Y-65670000D01*
X87299878Y-65670000D01*
X87281001Y-65646999D01*
X87251997Y-65623196D01*
X87232768Y-65603967D01*
X88950972Y-63870000D01*
X97013928Y-63870000D01*
X97017000Y-64484250D01*
X97175750Y-64643000D01*
X98425000Y-64643000D01*
X98425000Y-63393750D01*
X98679000Y-63393750D01*
X98679000Y-64643000D01*
X99928250Y-64643000D01*
X100087000Y-64484250D01*
X100090072Y-63870000D01*
X100077812Y-63745518D01*
X100041502Y-63625820D01*
X99982537Y-63515506D01*
X99903185Y-63418815D01*
X99806494Y-63339463D01*
X99696180Y-63280498D01*
X99576482Y-63244188D01*
X99452000Y-63231928D01*
X98837750Y-63235000D01*
X98679000Y-63393750D01*
X98425000Y-63393750D01*
X98266250Y-63235000D01*
X97652000Y-63231928D01*
X97527518Y-63244188D01*
X97407820Y-63280498D01*
X97297506Y-63339463D01*
X97200815Y-63418815D01*
X97121463Y-63515506D01*
X97062498Y-63625820D01*
X97026188Y-63745518D01*
X97013928Y-63870000D01*
X88950972Y-63870000D01*
X91520972Y-61276424D01*
X91781265Y-61328200D01*
X92063935Y-61328200D01*
X92341174Y-61273053D01*
X92602327Y-61164880D01*
X92837359Y-61007837D01*
X93037237Y-60807959D01*
X93194280Y-60572927D01*
X93302453Y-60311774D01*
X93357600Y-60034535D01*
X93357600Y-59751865D01*
X93312859Y-59526942D01*
X94872003Y-57967799D01*
X94901001Y-57944001D01*
X94995974Y-57828276D01*
X95066546Y-57696247D01*
X95110003Y-57552986D01*
X95114543Y-57506890D01*
X101428524Y-57506890D01*
X101473175Y-57654099D01*
X101598359Y-57916920D01*
X101772412Y-58150269D01*
X101988645Y-58345178D01*
X102238748Y-58494157D01*
X102513109Y-58591481D01*
X102743000Y-58470814D01*
X102743000Y-57277000D01*
X102997000Y-57277000D01*
X102997000Y-58470814D01*
X103226891Y-58591481D01*
X103501252Y-58494157D01*
X103751355Y-58345178D01*
X103967588Y-58150269D01*
X104140000Y-57919120D01*
X104312412Y-58150269D01*
X104528645Y-58345178D01*
X104778748Y-58494157D01*
X105053109Y-58591481D01*
X105283000Y-58470814D01*
X105283000Y-57277000D01*
X105537000Y-57277000D01*
X105537000Y-58470814D01*
X105766891Y-58591481D01*
X106041252Y-58494157D01*
X106291355Y-58345178D01*
X106507588Y-58150269D01*
X106681641Y-57916920D01*
X106806825Y-57654099D01*
X106851476Y-57506890D01*
X106730155Y-57277000D01*
X105537000Y-57277000D01*
X105283000Y-57277000D01*
X102997000Y-57277000D01*
X102743000Y-57277000D01*
X101549845Y-57277000D01*
X101428524Y-57506890D01*
X95114543Y-57506890D01*
X95120632Y-57445072D01*
X95161000Y-57445072D01*
X95285482Y-57432812D01*
X95405180Y-57396502D01*
X95515494Y-57337537D01*
X95612185Y-57258185D01*
X95691537Y-57161494D01*
X95750502Y-57051180D01*
X95766117Y-56999702D01*
X96047903Y-56999702D01*
X96119486Y-57243671D01*
X96374996Y-57364571D01*
X96649184Y-57433300D01*
X96931512Y-57447217D01*
X97211130Y-57405787D01*
X97477292Y-57310603D01*
X97602514Y-57243671D01*
X97674097Y-56999702D01*
X96861000Y-56186605D01*
X96047903Y-56999702D01*
X95766117Y-56999702D01*
X95786812Y-56931482D01*
X95799072Y-56807000D01*
X95799072Y-56799785D01*
X95868298Y-56820097D01*
X96681395Y-56007000D01*
X97040605Y-56007000D01*
X97853702Y-56820097D01*
X98097671Y-56748514D01*
X98218571Y-56493004D01*
X98287300Y-56218816D01*
X98301217Y-55936488D01*
X98259787Y-55656870D01*
X98164603Y-55390708D01*
X98097671Y-55265486D01*
X97853702Y-55193903D01*
X97040605Y-56007000D01*
X96681395Y-56007000D01*
X95868298Y-55193903D01*
X95799072Y-55214215D01*
X95799072Y-55207000D01*
X95786812Y-55082518D01*
X95766118Y-55014298D01*
X96047903Y-55014298D01*
X96861000Y-55827395D01*
X97674097Y-55014298D01*
X97602514Y-54770329D01*
X97347004Y-54649429D01*
X97072816Y-54580700D01*
X96790488Y-54566783D01*
X96510870Y-54608213D01*
X96244708Y-54703397D01*
X96119486Y-54770329D01*
X96047903Y-55014298D01*
X95766118Y-55014298D01*
X95750502Y-54962820D01*
X95691537Y-54852506D01*
X95612185Y-54755815D01*
X95515494Y-54676463D01*
X95405180Y-54617498D01*
X95285482Y-54581188D01*
X95161000Y-54568928D01*
X93561000Y-54568928D01*
X93436518Y-54581188D01*
X93316820Y-54617498D01*
X93206506Y-54676463D01*
X93109815Y-54755815D01*
X93030463Y-54852506D01*
X92971498Y-54962820D01*
X92935188Y-55082518D01*
X92922928Y-55207000D01*
X92922928Y-56807000D01*
X92935188Y-56931482D01*
X92971498Y-57051180D01*
X93030463Y-57161494D01*
X93109815Y-57258185D01*
X93206506Y-57337537D01*
X93301751Y-57388447D01*
X92204115Y-58486084D01*
X92063935Y-58458200D01*
X91781265Y-58458200D01*
X91504026Y-58513347D01*
X91242873Y-58621520D01*
X91007841Y-58778563D01*
X90807963Y-58978441D01*
X90650920Y-59213473D01*
X90542747Y-59474626D01*
X90487600Y-59751865D01*
X90487600Y-60034535D01*
X90508349Y-60138848D01*
X85847650Y-64842307D01*
X85819999Y-64864999D01*
X85795099Y-64895340D01*
X85793873Y-64896577D01*
X85771418Y-64924195D01*
X85725026Y-64980724D01*
X85724199Y-64982272D01*
X85723096Y-64983628D01*
X85688996Y-65048130D01*
X85654454Y-65112753D01*
X85653944Y-65114433D01*
X85653127Y-65115979D01*
X85632254Y-65185939D01*
X85610997Y-65256014D01*
X85610825Y-65257760D01*
X85610325Y-65259436D01*
X85603507Y-65332063D01*
X85600000Y-65367667D01*
X85600000Y-65369416D01*
X85596332Y-65408487D01*
X85600000Y-65444063D01*
X85600000Y-65768678D01*
X85596324Y-65806000D01*
X85600000Y-65843322D01*
X85600000Y-65843332D01*
X85610997Y-65954985D01*
X85654454Y-66098246D01*
X85702494Y-66188121D01*
X85613037Y-66261537D01*
X85465838Y-66440900D01*
X85310437Y-66255685D01*
X85067923Y-66061031D01*
X84792094Y-65917429D01*
X84573980Y-65846437D01*
X84328000Y-65966406D01*
X84074000Y-65966406D01*
X83828020Y-65846437D01*
X83609906Y-65917429D01*
X83334077Y-66061031D01*
X83193059Y-66174219D01*
X83144037Y-66082506D01*
X83064685Y-65985815D01*
X82967994Y-65906463D01*
X82857680Y-65847498D01*
X82737982Y-65811188D01*
X82613500Y-65798928D01*
X80708500Y-65798928D01*
X80584018Y-65811188D01*
X80464320Y-65847498D01*
X80354006Y-65906463D01*
X80257315Y-65985815D01*
X80177963Y-66082506D01*
X80118998Y-66192820D01*
X80082688Y-66312518D01*
X80070428Y-66437000D01*
X79146000Y-66437000D01*
X79146000Y-61380413D01*
X83118192Y-61380413D01*
X83213956Y-61644814D01*
X83503571Y-61785704D01*
X83815108Y-61867384D01*
X84136595Y-61886718D01*
X84455675Y-61842961D01*
X84760088Y-61737795D01*
X84934044Y-61644814D01*
X85029808Y-61380413D01*
X84074000Y-60424605D01*
X83118192Y-61380413D01*
X79146000Y-61380413D01*
X79146000Y-60307595D01*
X82432282Y-60307595D01*
X82476039Y-60626675D01*
X82581205Y-60931088D01*
X82674186Y-61105044D01*
X82938587Y-61200808D01*
X83894395Y-60245000D01*
X84253605Y-60245000D01*
X85209413Y-61200808D01*
X85473814Y-61105044D01*
X85614704Y-60815429D01*
X85696384Y-60503892D01*
X85715718Y-60182405D01*
X85671961Y-59863325D01*
X85566795Y-59558912D01*
X85473814Y-59384956D01*
X85209413Y-59289192D01*
X84253605Y-60245000D01*
X83894395Y-60245000D01*
X82938587Y-59289192D01*
X82674186Y-59384956D01*
X82533296Y-59674571D01*
X82451616Y-59986108D01*
X82432282Y-60307595D01*
X79146000Y-60307595D01*
X79146000Y-59109587D01*
X83118192Y-59109587D01*
X84074000Y-60065395D01*
X85029808Y-59109587D01*
X84934044Y-58845186D01*
X84644429Y-58704296D01*
X84332892Y-58622616D01*
X84011405Y-58603282D01*
X83692325Y-58647039D01*
X83387912Y-58752205D01*
X83213956Y-58845186D01*
X83118192Y-59109587D01*
X79146000Y-59109587D01*
X79146000Y-54245000D01*
X82435928Y-54245000D01*
X82435928Y-56245000D01*
X82448188Y-56369482D01*
X82484498Y-56489180D01*
X82543463Y-56599494D01*
X82622815Y-56696185D01*
X82719506Y-56775537D01*
X82829820Y-56834502D01*
X82949518Y-56870812D01*
X83074000Y-56883072D01*
X85074000Y-56883072D01*
X85198482Y-56870812D01*
X85318180Y-56834502D01*
X85428494Y-56775537D01*
X85525185Y-56696185D01*
X85604537Y-56599494D01*
X85663502Y-56489180D01*
X85699812Y-56369482D01*
X85712072Y-56245000D01*
X85712072Y-54245000D01*
X85699812Y-54120518D01*
X85663502Y-54000820D01*
X85604537Y-53890506D01*
X85525185Y-53793815D01*
X85483982Y-53760000D01*
X101381928Y-53760000D01*
X101381928Y-55460000D01*
X101394188Y-55584482D01*
X101430498Y-55704180D01*
X101489463Y-55814494D01*
X101568815Y-55911185D01*
X101665506Y-55990537D01*
X101775820Y-56049502D01*
X101856466Y-56073966D01*
X101772412Y-56149731D01*
X101598359Y-56383080D01*
X101473175Y-56645901D01*
X101428524Y-56793110D01*
X101549845Y-57023000D01*
X102743000Y-57023000D01*
X102743000Y-57003000D01*
X102997000Y-57003000D01*
X102997000Y-57023000D01*
X105283000Y-57023000D01*
X105283000Y-57003000D01*
X105537000Y-57003000D01*
X105537000Y-57023000D01*
X106730155Y-57023000D01*
X106851476Y-56793110D01*
X106806825Y-56645901D01*
X106681641Y-56383080D01*
X106507588Y-56149731D01*
X106291355Y-55954822D01*
X106174466Y-55885195D01*
X106356632Y-55763475D01*
X106563475Y-55556632D01*
X106725990Y-55313411D01*
X106837932Y-55043158D01*
X106895000Y-54756260D01*
X106895000Y-54463740D01*
X106837932Y-54176842D01*
X106725990Y-53906589D01*
X106563475Y-53663368D01*
X106356632Y-53456525D01*
X106113411Y-53294010D01*
X105843158Y-53182068D01*
X105556260Y-53125000D01*
X105263740Y-53125000D01*
X104976842Y-53182068D01*
X104706589Y-53294010D01*
X104463368Y-53456525D01*
X104331513Y-53588380D01*
X104309502Y-53515820D01*
X104250537Y-53405506D01*
X104171185Y-53308815D01*
X104074494Y-53229463D01*
X103964180Y-53170498D01*
X103844482Y-53134188D01*
X103720000Y-53121928D01*
X102020000Y-53121928D01*
X101895518Y-53134188D01*
X101775820Y-53170498D01*
X101665506Y-53229463D01*
X101568815Y-53308815D01*
X101489463Y-53405506D01*
X101430498Y-53515820D01*
X101394188Y-53635518D01*
X101381928Y-53760000D01*
X85483982Y-53760000D01*
X85428494Y-53714463D01*
X85318180Y-53655498D01*
X85198482Y-53619188D01*
X85074000Y-53606928D01*
X83074000Y-53606928D01*
X82949518Y-53619188D01*
X82829820Y-53655498D01*
X82719506Y-53714463D01*
X82622815Y-53793815D01*
X82543463Y-53890506D01*
X82484498Y-54000820D01*
X82448188Y-54120518D01*
X82435928Y-54245000D01*
X79146000Y-54245000D01*
X79146000Y-52984000D01*
X107823000Y-52984000D01*
X107823000Y-58649000D01*
G37*
X107823000Y-58649000D02*
X102394419Y-58649000D01*
X102362000Y-58645807D01*
X102329581Y-58649000D01*
X102232617Y-58658550D01*
X102108207Y-58696290D01*
X101993550Y-58757575D01*
X101893052Y-58840052D01*
X101810575Y-58940550D01*
X101749290Y-59055207D01*
X101711550Y-59179617D01*
X101698807Y-59309000D01*
X101702001Y-59341429D01*
X101702001Y-69936345D01*
X101544463Y-69831082D01*
X101246912Y-69707832D01*
X100931033Y-69645000D01*
X100608967Y-69645000D01*
X100293088Y-69707832D01*
X99995537Y-69831082D01*
X99727748Y-70010013D01*
X99500013Y-70237748D01*
X99321082Y-70505537D01*
X99197832Y-70803088D01*
X99135000Y-71118967D01*
X99135000Y-71441033D01*
X99197832Y-71756912D01*
X99321082Y-72054463D01*
X99500013Y-72322252D01*
X99727748Y-72549987D01*
X99995537Y-72728918D01*
X100293088Y-72852168D01*
X100608967Y-72915000D01*
X100931033Y-72915000D01*
X101246912Y-72852168D01*
X101544463Y-72728918D01*
X101702001Y-72623655D01*
X101702000Y-81936345D01*
X101544463Y-81831082D01*
X101246912Y-81707832D01*
X100931033Y-81645000D01*
X100608967Y-81645000D01*
X100293088Y-81707832D01*
X99995537Y-81831082D01*
X99727748Y-82010013D01*
X99500013Y-82237748D01*
X99321082Y-82505537D01*
X99197832Y-82803088D01*
X99135000Y-83118967D01*
X99135000Y-83441033D01*
X99197832Y-83756912D01*
X99321082Y-84054463D01*
X99500013Y-84322252D01*
X99727748Y-84549987D01*
X99995537Y-84728918D01*
X100293088Y-84852168D01*
X100608967Y-84915000D01*
X100931033Y-84915000D01*
X101246912Y-84852168D01*
X101544463Y-84728918D01*
X101688679Y-84632556D01*
X101473017Y-97787918D01*
X101475051Y-97812731D01*
X101481886Y-97836671D01*
X101493261Y-97858817D01*
X101508738Y-97878319D01*
X101527721Y-97894426D01*
X101549483Y-97906520D01*
X101573185Y-97914137D01*
X101600000Y-97917000D01*
X101940637Y-97917000D01*
X101993550Y-97960425D01*
X102108207Y-98021710D01*
X102232617Y-98059450D01*
X102362000Y-98072193D01*
X102394419Y-98069000D01*
X107925001Y-98069000D01*
X107925001Y-98999812D01*
X107868990Y-98864589D01*
X107706475Y-98621368D01*
X107499632Y-98414525D01*
X107256411Y-98252010D01*
X106986158Y-98140068D01*
X106699260Y-98083000D01*
X106406740Y-98083000D01*
X106119842Y-98140068D01*
X105849589Y-98252010D01*
X105606368Y-98414525D01*
X105474513Y-98546380D01*
X105452502Y-98473820D01*
X105393537Y-98363506D01*
X105314185Y-98266815D01*
X105217494Y-98187463D01*
X105107180Y-98128498D01*
X104987482Y-98092188D01*
X104863000Y-98079928D01*
X103163000Y-98079928D01*
X103038518Y-98092188D01*
X102918820Y-98128498D01*
X102808506Y-98187463D01*
X102711815Y-98266815D01*
X102632463Y-98363506D01*
X102573498Y-98473820D01*
X102537188Y-98593518D01*
X102524928Y-98718000D01*
X102524928Y-100418000D01*
X102537188Y-100542482D01*
X102573498Y-100662180D01*
X102632463Y-100772494D01*
X102711815Y-100869185D01*
X102808506Y-100948537D01*
X102918820Y-101007502D01*
X102999466Y-101031966D01*
X102915412Y-101107731D01*
X102741359Y-101341080D01*
X102616175Y-101603901D01*
X102571524Y-101751110D01*
X102692845Y-101981000D01*
X103886000Y-101981000D01*
X103886000Y-101961000D01*
X104140000Y-101961000D01*
X104140000Y-101981000D01*
X106426000Y-101981000D01*
X106426000Y-101961000D01*
X106680000Y-101961000D01*
X106680000Y-101981000D01*
X106700000Y-101981000D01*
X106700000Y-102235000D01*
X106680000Y-102235000D01*
X106680000Y-103428814D01*
X106909891Y-103549481D01*
X107184252Y-103452157D01*
X107434355Y-103303178D01*
X107650588Y-103108269D01*
X107824641Y-102874920D01*
X107925000Y-102664218D01*
X107925000Y-103734000D01*
X79146000Y-103734000D01*
X79146000Y-101020000D01*
X82047089Y-101020000D01*
X82078657Y-101340516D01*
X82172148Y-101648715D01*
X82323969Y-101932752D01*
X82528286Y-102181714D01*
X82777248Y-102386031D01*
X83061285Y-102537852D01*
X83369484Y-102631343D01*
X83609678Y-102655000D01*
X85270322Y-102655000D01*
X85510516Y-102631343D01*
X85818715Y-102537852D01*
X86102752Y-102386031D01*
X86351714Y-102181714D01*
X86556031Y-101932752D01*
X86707852Y-101648715D01*
X86765502Y-101458665D01*
X93815000Y-101458665D01*
X93815000Y-101741335D01*
X93870147Y-102018574D01*
X93978320Y-102279727D01*
X94135363Y-102514759D01*
X94335241Y-102714637D01*
X94570273Y-102871680D01*
X94831426Y-102979853D01*
X95108665Y-103035000D01*
X95391335Y-103035000D01*
X95668574Y-102979853D01*
X95929727Y-102871680D01*
X96164759Y-102714637D01*
X96364637Y-102514759D01*
X96397958Y-102464890D01*
X102571524Y-102464890D01*
X102616175Y-102612099D01*
X102741359Y-102874920D01*
X102915412Y-103108269D01*
X103131645Y-103303178D01*
X103381748Y-103452157D01*
X103656109Y-103549481D01*
X103886000Y-103428814D01*
X103886000Y-102235000D01*
X104140000Y-102235000D01*
X104140000Y-103428814D01*
X104369891Y-103549481D01*
X104644252Y-103452157D01*
X104894355Y-103303178D01*
X105110588Y-103108269D01*
X105283000Y-102877120D01*
X105455412Y-103108269D01*
X105671645Y-103303178D01*
X105921748Y-103452157D01*
X106196109Y-103549481D01*
X106426000Y-103428814D01*
X106426000Y-102235000D01*
X104140000Y-102235000D01*
X103886000Y-102235000D01*
X102692845Y-102235000D01*
X102571524Y-102464890D01*
X96397958Y-102464890D01*
X96521680Y-102279727D01*
X96629853Y-102018574D01*
X96685000Y-101741335D01*
X96685000Y-101458665D01*
X96629853Y-101181426D01*
X96521680Y-100920273D01*
X96364637Y-100685241D01*
X96164759Y-100485363D01*
X95929727Y-100328320D01*
X95668574Y-100220147D01*
X95391335Y-100165000D01*
X95108665Y-100165000D01*
X94831426Y-100220147D01*
X94570273Y-100328320D01*
X94335241Y-100485363D01*
X94135363Y-100685241D01*
X93978320Y-100920273D01*
X93870147Y-101181426D01*
X93815000Y-101458665D01*
X86765502Y-101458665D01*
X86801343Y-101340516D01*
X86832911Y-101020000D01*
X86801343Y-100699484D01*
X86707852Y-100391285D01*
X86556031Y-100107248D01*
X86351714Y-99858286D01*
X86102752Y-99653969D01*
X85818715Y-99502148D01*
X85510516Y-99408657D01*
X85270322Y-99385000D01*
X83609678Y-99385000D01*
X83369484Y-99408657D01*
X83061285Y-99502148D01*
X82777248Y-99653969D01*
X82528286Y-99858286D01*
X82323969Y-100107248D01*
X82172148Y-100391285D01*
X82078657Y-100699484D01*
X82047089Y-101020000D01*
X79146000Y-101020000D01*
X79146000Y-96378665D01*
X81005000Y-96378665D01*
X81005000Y-96661335D01*
X81060147Y-96938574D01*
X81168320Y-97199727D01*
X81325363Y-97434759D01*
X81525241Y-97634637D01*
X81760273Y-97791680D01*
X82021426Y-97899853D01*
X82298665Y-97955000D01*
X82581335Y-97955000D01*
X82858574Y-97899853D01*
X83119727Y-97791680D01*
X83354759Y-97634637D01*
X83554637Y-97434759D01*
X83711680Y-97199727D01*
X83805000Y-96974432D01*
X83805000Y-97250321D01*
X83828657Y-97490515D01*
X83922148Y-97798714D01*
X84073969Y-98082751D01*
X84278286Y-98331714D01*
X84527248Y-98536031D01*
X84811285Y-98687852D01*
X85119484Y-98781343D01*
X85440000Y-98812911D01*
X85760515Y-98781343D01*
X86068714Y-98687852D01*
X86352751Y-98536031D01*
X86601714Y-98331714D01*
X86806031Y-98082752D01*
X86957852Y-97798715D01*
X87051343Y-97490516D01*
X87075000Y-97250322D01*
X87075000Y-95789678D01*
X87051343Y-95549484D01*
X86957852Y-95241285D01*
X86806031Y-94957248D01*
X86601714Y-94708286D01*
X86372286Y-94520000D01*
X89801928Y-94520000D01*
X89801928Y-98520000D01*
X89814188Y-98644482D01*
X89850498Y-98764180D01*
X89909463Y-98874494D01*
X89988815Y-98971185D01*
X90085506Y-99050537D01*
X90195820Y-99109502D01*
X90315518Y-99145812D01*
X90440000Y-99158072D01*
X92440000Y-99158072D01*
X92564482Y-99145812D01*
X92684180Y-99109502D01*
X92794494Y-99050537D01*
X92891185Y-98971185D01*
X92970537Y-98874494D01*
X93029502Y-98764180D01*
X93065812Y-98644482D01*
X93078072Y-98520000D01*
X93078072Y-94520000D01*
X93065812Y-94395518D01*
X93029502Y-94275820D01*
X92970537Y-94165506D01*
X92891185Y-94068815D01*
X92794494Y-93989463D01*
X92684180Y-93930498D01*
X92564482Y-93894188D01*
X92440000Y-93881928D01*
X90440000Y-93881928D01*
X90315518Y-93894188D01*
X90195820Y-93930498D01*
X90085506Y-93989463D01*
X89988815Y-94068815D01*
X89909463Y-94165506D01*
X89850498Y-94275820D01*
X89814188Y-94395518D01*
X89801928Y-94520000D01*
X86372286Y-94520000D01*
X86352752Y-94503969D01*
X86068715Y-94352148D01*
X85760516Y-94258657D01*
X85440000Y-94227089D01*
X85119485Y-94258657D01*
X84811286Y-94352148D01*
X84527249Y-94503969D01*
X84278287Y-94708286D01*
X84073970Y-94957248D01*
X83922149Y-95241285D01*
X83828657Y-95549484D01*
X83805000Y-95789678D01*
X83805000Y-96065568D01*
X83711680Y-95840273D01*
X83554637Y-95605241D01*
X83354759Y-95405363D01*
X83119727Y-95248320D01*
X82858574Y-95140147D01*
X82581335Y-95085000D01*
X82298665Y-95085000D01*
X82021426Y-95140147D01*
X81760273Y-95248320D01*
X81525241Y-95405363D01*
X81325363Y-95605241D01*
X81168320Y-95840273D01*
X81060147Y-96101426D01*
X81005000Y-96378665D01*
X79146000Y-96378665D01*
X79146000Y-93838665D01*
X93815000Y-93838665D01*
X93815000Y-94121335D01*
X93870147Y-94398574D01*
X93978320Y-94659727D01*
X94135363Y-94894759D01*
X94335241Y-95094637D01*
X94570273Y-95251680D01*
X94831426Y-95359853D01*
X95108665Y-95415000D01*
X95391335Y-95415000D01*
X95668574Y-95359853D01*
X95929727Y-95251680D01*
X96164759Y-95094637D01*
X96364637Y-94894759D01*
X96521680Y-94659727D01*
X96629853Y-94398574D01*
X96685000Y-94121335D01*
X96685000Y-93838665D01*
X96629853Y-93561426D01*
X96521680Y-93300273D01*
X96364637Y-93065241D01*
X96164759Y-92865363D01*
X95929727Y-92708320D01*
X95668574Y-92600147D01*
X95391335Y-92545000D01*
X95108665Y-92545000D01*
X94831426Y-92600147D01*
X94570273Y-92708320D01*
X94335241Y-92865363D01*
X94135363Y-93065241D01*
X93978320Y-93300273D01*
X93870147Y-93561426D01*
X93815000Y-93838665D01*
X79146000Y-93838665D01*
X79146000Y-92020000D01*
X82047089Y-92020000D01*
X82078657Y-92340516D01*
X82172148Y-92648715D01*
X82323969Y-92932752D01*
X82528286Y-93181714D01*
X82777248Y-93386031D01*
X83061285Y-93537852D01*
X83369484Y-93631343D01*
X83609678Y-93655000D01*
X85270322Y-93655000D01*
X85510516Y-93631343D01*
X85818715Y-93537852D01*
X86102752Y-93386031D01*
X86351714Y-93181714D01*
X86556031Y-92932752D01*
X86707852Y-92648715D01*
X86762974Y-92467000D01*
X97140928Y-92467000D01*
X97153188Y-92591482D01*
X97189498Y-92711180D01*
X97248463Y-92821494D01*
X97327815Y-92918185D01*
X97424506Y-92997537D01*
X97534820Y-93056502D01*
X97654518Y-93092812D01*
X97779000Y-93105072D01*
X98393250Y-93102000D01*
X98552000Y-92943250D01*
X98552000Y-91694000D01*
X98806000Y-91694000D01*
X98806000Y-92943250D01*
X98964750Y-93102000D01*
X99579000Y-93105072D01*
X99703482Y-93092812D01*
X99823180Y-93056502D01*
X99933494Y-92997537D01*
X100030185Y-92918185D01*
X100109537Y-92821494D01*
X100168502Y-92711180D01*
X100204812Y-92591482D01*
X100217072Y-92467000D01*
X100214000Y-91852750D01*
X100055250Y-91694000D01*
X98806000Y-91694000D01*
X98552000Y-91694000D01*
X97302750Y-91694000D01*
X97144000Y-91852750D01*
X97140928Y-92467000D01*
X86762974Y-92467000D01*
X86801343Y-92340516D01*
X86832911Y-92020000D01*
X86801343Y-91699484D01*
X86707852Y-91391285D01*
X86556031Y-91107248D01*
X86351714Y-90858286D01*
X86118631Y-90667000D01*
X97140928Y-90667000D01*
X97144000Y-91281250D01*
X97302750Y-91440000D01*
X98552000Y-91440000D01*
X98552000Y-91420000D01*
X98806000Y-91420000D01*
X98806000Y-91440000D01*
X100055250Y-91440000D01*
X100214000Y-91281250D01*
X100217072Y-90667000D01*
X100204812Y-90542518D01*
X100168502Y-90422820D01*
X100109537Y-90312506D01*
X100030185Y-90215815D01*
X99933494Y-90136463D01*
X99823180Y-90077498D01*
X99804873Y-90071944D01*
X99871312Y-90005505D01*
X100039299Y-89754095D01*
X100155011Y-89474743D01*
X100214000Y-89178184D01*
X100214000Y-88875816D01*
X100155011Y-88579257D01*
X100039299Y-88299905D01*
X99871312Y-88048495D01*
X99657505Y-87834688D01*
X99541237Y-87757000D01*
X99657505Y-87679312D01*
X99871312Y-87465505D01*
X100039299Y-87214095D01*
X100155011Y-86934743D01*
X100214000Y-86638184D01*
X100214000Y-86335816D01*
X100155011Y-86039257D01*
X100039299Y-85759905D01*
X99871312Y-85508495D01*
X99657505Y-85294688D01*
X99406095Y-85126701D01*
X99126743Y-85010989D01*
X98830184Y-84952000D01*
X98527816Y-84952000D01*
X98231257Y-85010989D01*
X97951905Y-85126701D01*
X97700495Y-85294688D01*
X97486688Y-85508495D01*
X97318701Y-85759905D01*
X97202989Y-86039257D01*
X97144000Y-86335816D01*
X97144000Y-86638184D01*
X97202989Y-86934743D01*
X97318701Y-87214095D01*
X97486688Y-87465505D01*
X97700495Y-87679312D01*
X97816763Y-87757000D01*
X97700495Y-87834688D01*
X97486688Y-88048495D01*
X97318701Y-88299905D01*
X97202989Y-88579257D01*
X97144000Y-88875816D01*
X97144000Y-89178184D01*
X97202989Y-89474743D01*
X97318701Y-89754095D01*
X97486688Y-90005505D01*
X97553127Y-90071944D01*
X97534820Y-90077498D01*
X97424506Y-90136463D01*
X97327815Y-90215815D01*
X97248463Y-90312506D01*
X97189498Y-90422820D01*
X97153188Y-90542518D01*
X97140928Y-90667000D01*
X86118631Y-90667000D01*
X86102752Y-90653969D01*
X85818715Y-90502148D01*
X85510516Y-90408657D01*
X85270322Y-90385000D01*
X83609678Y-90385000D01*
X83369484Y-90408657D01*
X83061285Y-90502148D01*
X82777248Y-90653969D01*
X82528286Y-90858286D01*
X82323969Y-91107248D01*
X82172148Y-91391285D01*
X82078657Y-91699484D01*
X82047089Y-92020000D01*
X79146000Y-92020000D01*
X79146000Y-89097012D01*
X79190506Y-89133537D01*
X79300820Y-89192502D01*
X79420518Y-89228812D01*
X79545000Y-89241072D01*
X81745000Y-89241072D01*
X81869482Y-89228812D01*
X81989180Y-89192502D01*
X82099494Y-89133537D01*
X82196185Y-89054185D01*
X82275537Y-88957494D01*
X82334502Y-88847180D01*
X82370812Y-88727482D01*
X82383072Y-88603000D01*
X82383072Y-86403000D01*
X82370812Y-86278518D01*
X82334502Y-86158820D01*
X82275537Y-86048506D01*
X82196185Y-85951815D01*
X82099494Y-85872463D01*
X81989180Y-85813498D01*
X81869482Y-85777188D01*
X81745000Y-85764928D01*
X79545000Y-85764928D01*
X79420518Y-85777188D01*
X79300820Y-85813498D01*
X79190506Y-85872463D01*
X79146000Y-85908988D01*
X79146000Y-84652012D01*
X79190506Y-84688537D01*
X79300820Y-84747502D01*
X79420518Y-84783812D01*
X79545000Y-84796072D01*
X81745000Y-84796072D01*
X81869482Y-84783812D01*
X81989180Y-84747502D01*
X82099494Y-84688537D01*
X82196185Y-84609185D01*
X82275537Y-84512494D01*
X82334502Y-84402180D01*
X82370812Y-84282482D01*
X82383072Y-84158000D01*
X82383072Y-81958000D01*
X82370812Y-81833518D01*
X82334502Y-81713820D01*
X82275537Y-81603506D01*
X82196185Y-81506815D01*
X82099494Y-81427463D01*
X81989180Y-81368498D01*
X81869482Y-81332188D01*
X81745000Y-81319928D01*
X79545000Y-81319928D01*
X79420518Y-81332188D01*
X79300820Y-81368498D01*
X79190506Y-81427463D01*
X79146000Y-81463988D01*
X79146000Y-79906632D01*
X79173820Y-79921502D01*
X79293518Y-79957812D01*
X79418000Y-79970072D01*
X81618000Y-79970072D01*
X81742482Y-79957812D01*
X81862180Y-79921502D01*
X81972494Y-79862537D01*
X82069185Y-79783185D01*
X82148537Y-79686494D01*
X82207502Y-79576180D01*
X82243812Y-79456482D01*
X82256072Y-79332000D01*
X82256072Y-77132000D01*
X82243812Y-77007518D01*
X82207502Y-76887820D01*
X82148537Y-76777506D01*
X82069185Y-76680815D01*
X81972494Y-76601463D01*
X81862180Y-76542498D01*
X81742482Y-76506188D01*
X81618000Y-76493928D01*
X79418000Y-76493928D01*
X79293518Y-76506188D01*
X79173820Y-76542498D01*
X79146000Y-76557368D01*
X79146000Y-74746012D01*
X79190506Y-74782537D01*
X79300820Y-74841502D01*
X79420518Y-74877812D01*
X79545000Y-74890072D01*
X81745000Y-74890072D01*
X81869482Y-74877812D01*
X81989180Y-74841502D01*
X82099494Y-74782537D01*
X82196185Y-74703185D01*
X82275537Y-74606494D01*
X82334502Y-74496180D01*
X82370812Y-74376482D01*
X82383072Y-74252000D01*
X82383072Y-74039000D01*
X84348279Y-74039000D01*
X86235000Y-75884705D01*
X86235001Y-83655668D01*
X86231324Y-83693000D01*
X86245998Y-83841985D01*
X86289454Y-83985246D01*
X86360026Y-84117276D01*
X86431201Y-84204002D01*
X86455000Y-84233001D01*
X86483998Y-84256799D01*
X89162286Y-86935088D01*
X89136675Y-86996919D01*
X89070000Y-87332117D01*
X89070000Y-87673883D01*
X89136675Y-88009081D01*
X89267463Y-88324831D01*
X89457337Y-88608998D01*
X89699002Y-88850663D01*
X89983169Y-89040537D01*
X90298919Y-89171325D01*
X90634117Y-89238000D01*
X90975883Y-89238000D01*
X91311081Y-89171325D01*
X91626831Y-89040537D01*
X91910998Y-88850663D01*
X92152663Y-88608998D01*
X92342537Y-88324831D01*
X92473325Y-88009081D01*
X92540000Y-87673883D01*
X92540000Y-87332117D01*
X92473325Y-86996919D01*
X92342537Y-86681169D01*
X92152663Y-86397002D01*
X91910998Y-86155337D01*
X91626831Y-85965463D01*
X91311081Y-85834675D01*
X90975883Y-85768000D01*
X90634117Y-85768000D01*
X90298919Y-85834675D01*
X90237088Y-85860286D01*
X87755000Y-83378199D01*
X87755000Y-82887117D01*
X89070000Y-82887117D01*
X89070000Y-83228883D01*
X89136675Y-83564081D01*
X89267463Y-83879831D01*
X89457337Y-84163998D01*
X89699002Y-84405663D01*
X89983169Y-84595537D01*
X90298919Y-84726325D01*
X90634117Y-84793000D01*
X90975883Y-84793000D01*
X91311081Y-84726325D01*
X91626831Y-84595537D01*
X91910998Y-84405663D01*
X92152663Y-84163998D01*
X92342537Y-83879831D01*
X92473325Y-83564081D01*
X92540000Y-83228883D01*
X92540000Y-83118967D01*
X93135000Y-83118967D01*
X93135000Y-83441033D01*
X93197832Y-83756912D01*
X93321082Y-84054463D01*
X93500013Y-84322252D01*
X93727748Y-84549987D01*
X93995537Y-84728918D01*
X94293088Y-84852168D01*
X94608967Y-84915000D01*
X94931033Y-84915000D01*
X95246912Y-84852168D01*
X95544463Y-84728918D01*
X95812252Y-84549987D01*
X96039987Y-84322252D01*
X96218918Y-84054463D01*
X96342168Y-83756912D01*
X96405000Y-83441033D01*
X96405000Y-83118967D01*
X96342168Y-82803088D01*
X96322140Y-82754736D01*
X96373740Y-82765000D01*
X96666260Y-82765000D01*
X96953158Y-82707932D01*
X97223411Y-82595990D01*
X97466632Y-82433475D01*
X97673475Y-82226632D01*
X97835990Y-81983411D01*
X97947932Y-81713158D01*
X98005000Y-81426260D01*
X98005000Y-81133740D01*
X97947932Y-80846842D01*
X97835990Y-80576589D01*
X97673475Y-80333368D01*
X97466632Y-80126525D01*
X97223411Y-79964010D01*
X96953158Y-79852068D01*
X96666260Y-79795000D01*
X96373740Y-79795000D01*
X96086842Y-79852068D01*
X95816589Y-79964010D01*
X95573368Y-80126525D01*
X95366525Y-80333368D01*
X95204010Y-80576589D01*
X95092068Y-80846842D01*
X95035000Y-81133740D01*
X95035000Y-81426260D01*
X95084586Y-81675543D01*
X94931033Y-81645000D01*
X94608967Y-81645000D01*
X94293088Y-81707832D01*
X93995537Y-81831082D01*
X93727748Y-82010013D01*
X93500013Y-82237748D01*
X93321082Y-82505537D01*
X93197832Y-82803088D01*
X93135000Y-83118967D01*
X92540000Y-83118967D01*
X92540000Y-82887117D01*
X92473325Y-82551919D01*
X92342537Y-82236169D01*
X92152663Y-81952002D01*
X91910998Y-81710337D01*
X91626831Y-81520463D01*
X91311081Y-81389675D01*
X90975883Y-81323000D01*
X90634117Y-81323000D01*
X90298919Y-81389675D01*
X89983169Y-81520463D01*
X89699002Y-81710337D01*
X89457337Y-81952002D01*
X89267463Y-82236169D01*
X89136675Y-82551919D01*
X89070000Y-82887117D01*
X87755000Y-82887117D01*
X87755000Y-78628122D01*
X88988825Y-78628122D01*
X89053425Y-78841094D01*
X89203469Y-79146329D01*
X89410178Y-79416427D01*
X89665609Y-79641008D01*
X89959946Y-79811442D01*
X90281877Y-79921179D01*
X90551000Y-79803600D01*
X90551000Y-78359000D01*
X90805000Y-78359000D01*
X90805000Y-79803600D01*
X91074123Y-79921179D01*
X91396054Y-79811442D01*
X91690391Y-79641008D01*
X91945822Y-79416427D01*
X92152531Y-79146329D01*
X92302575Y-78841094D01*
X92367175Y-78628122D01*
X92249125Y-78359000D01*
X90805000Y-78359000D01*
X90551000Y-78359000D01*
X89106875Y-78359000D01*
X88988825Y-78628122D01*
X87755000Y-78628122D01*
X87755000Y-77835878D01*
X88988825Y-77835878D01*
X89106875Y-78105000D01*
X90551000Y-78105000D01*
X90551000Y-76660400D01*
X90805000Y-76660400D01*
X90805000Y-78105000D01*
X92249125Y-78105000D01*
X92367175Y-77835878D01*
X92302575Y-77622906D01*
X92152531Y-77317671D01*
X92011767Y-77133740D01*
X95035000Y-77133740D01*
X95035000Y-77426260D01*
X95092068Y-77713158D01*
X95204010Y-77983411D01*
X95366525Y-78226632D01*
X95573368Y-78433475D01*
X95816589Y-78595990D01*
X96086842Y-78707932D01*
X96373740Y-78765000D01*
X96666260Y-78765000D01*
X96953158Y-78707932D01*
X97223411Y-78595990D01*
X97466632Y-78433475D01*
X97673475Y-78226632D01*
X97835990Y-77983411D01*
X97947932Y-77713158D01*
X98005000Y-77426260D01*
X98005000Y-77133740D01*
X97947932Y-76846842D01*
X97835990Y-76576589D01*
X97673475Y-76333368D01*
X97466632Y-76126525D01*
X97223411Y-75964010D01*
X96953158Y-75852068D01*
X96666260Y-75795000D01*
X96373740Y-75795000D01*
X96086842Y-75852068D01*
X95816589Y-75964010D01*
X95573368Y-76126525D01*
X95366525Y-76333368D01*
X95204010Y-76576589D01*
X95092068Y-76846842D01*
X95035000Y-77133740D01*
X92011767Y-77133740D01*
X91945822Y-77047573D01*
X91690391Y-76822992D01*
X91396054Y-76652558D01*
X91074123Y-76542821D01*
X90805000Y-76660400D01*
X90551000Y-76660400D01*
X90281877Y-76542821D01*
X89959946Y-76652558D01*
X89665609Y-76822992D01*
X89410178Y-77047573D01*
X89203469Y-77317671D01*
X89053425Y-77622906D01*
X88988825Y-77835878D01*
X87755000Y-77835878D01*
X87755000Y-75598140D01*
X87758630Y-75556608D01*
X87750937Y-75486417D01*
X87744003Y-75416014D01*
X87742779Y-75411978D01*
X87742320Y-75407792D01*
X87721071Y-75340416D01*
X87700546Y-75272753D01*
X87698559Y-75269036D01*
X87697292Y-75265018D01*
X87663300Y-75203072D01*
X87629974Y-75140724D01*
X87627300Y-75137465D01*
X87625273Y-75133772D01*
X87579850Y-75079648D01*
X87535001Y-75024999D01*
X87502768Y-74998546D01*
X86020112Y-73548122D01*
X89115825Y-73548122D01*
X89180425Y-73761094D01*
X89330469Y-74066329D01*
X89537178Y-74336427D01*
X89792609Y-74561008D01*
X90086946Y-74731442D01*
X90408877Y-74841179D01*
X90678000Y-74723600D01*
X90678000Y-73279000D01*
X90932000Y-73279000D01*
X90932000Y-74723600D01*
X91201123Y-74841179D01*
X91523054Y-74731442D01*
X91817391Y-74561008D01*
X92072822Y-74336427D01*
X92279531Y-74066329D01*
X92429575Y-73761094D01*
X92494175Y-73548122D01*
X92376125Y-73279000D01*
X90932000Y-73279000D01*
X90678000Y-73279000D01*
X89233875Y-73279000D01*
X89115825Y-73548122D01*
X86020112Y-73548122D01*
X85259575Y-72804119D01*
X85230631Y-72755878D01*
X89115825Y-72755878D01*
X89233875Y-73025000D01*
X90678000Y-73025000D01*
X90678000Y-71580400D01*
X90932000Y-71580400D01*
X90932000Y-73025000D01*
X92376125Y-73025000D01*
X92494175Y-72755878D01*
X92429575Y-72542906D01*
X92279531Y-72237671D01*
X92072822Y-71967573D01*
X91817391Y-71742992D01*
X91523054Y-71572558D01*
X91201123Y-71462821D01*
X90932000Y-71580400D01*
X90678000Y-71580400D01*
X90408877Y-71462821D01*
X90086946Y-71572558D01*
X89792609Y-71742992D01*
X89537178Y-71967573D01*
X89330469Y-72237671D01*
X89180425Y-72542906D01*
X89115825Y-72755878D01*
X85230631Y-72755878D01*
X85214486Y-72728971D01*
X85147612Y-72638887D01*
X85036640Y-72538400D01*
X84908197Y-72461495D01*
X84767218Y-72411125D01*
X84619122Y-72389227D01*
X84469600Y-72396640D01*
X84324396Y-72433083D01*
X84189092Y-72497153D01*
X84159663Y-72519000D01*
X82421681Y-72519000D01*
X82419276Y-72517026D01*
X82383072Y-72497674D01*
X82383072Y-72052000D01*
X82370812Y-71927518D01*
X82334502Y-71807820D01*
X82275537Y-71697506D01*
X82196185Y-71600815D01*
X82099494Y-71521463D01*
X81989180Y-71462498D01*
X81869482Y-71426188D01*
X81745000Y-71413928D01*
X79545000Y-71413928D01*
X79420518Y-71426188D01*
X79300820Y-71462498D01*
X79190506Y-71521463D01*
X79146000Y-71557988D01*
X79146000Y-71118967D01*
X93135000Y-71118967D01*
X93135000Y-71441033D01*
X93197832Y-71756912D01*
X93321082Y-72054463D01*
X93500013Y-72322252D01*
X93727748Y-72549987D01*
X93995537Y-72728918D01*
X94293088Y-72852168D01*
X94608967Y-72915000D01*
X94931033Y-72915000D01*
X95084586Y-72884457D01*
X95035000Y-73133740D01*
X95035000Y-73426260D01*
X95092068Y-73713158D01*
X95204010Y-73983411D01*
X95366525Y-74226632D01*
X95573368Y-74433475D01*
X95816589Y-74595990D01*
X96086842Y-74707932D01*
X96373740Y-74765000D01*
X96666260Y-74765000D01*
X96953158Y-74707932D01*
X97223411Y-74595990D01*
X97466632Y-74433475D01*
X97673475Y-74226632D01*
X97835990Y-73983411D01*
X97947932Y-73713158D01*
X98005000Y-73426260D01*
X98005000Y-73133740D01*
X97947932Y-72846842D01*
X97835990Y-72576589D01*
X97673475Y-72333368D01*
X97466632Y-72126525D01*
X97223411Y-71964010D01*
X96953158Y-71852068D01*
X96666260Y-71795000D01*
X96373740Y-71795000D01*
X96322140Y-71805264D01*
X96342168Y-71756912D01*
X96405000Y-71441033D01*
X96405000Y-71118967D01*
X96342168Y-70803088D01*
X96218918Y-70505537D01*
X96039987Y-70237748D01*
X95812252Y-70010013D01*
X95544463Y-69831082D01*
X95246912Y-69707832D01*
X94931033Y-69645000D01*
X94608967Y-69645000D01*
X94293088Y-69707832D01*
X93995537Y-69831082D01*
X93727748Y-70010013D01*
X93500013Y-70237748D01*
X93321082Y-70505537D01*
X93197832Y-70803088D01*
X93135000Y-71118967D01*
X79146000Y-71118967D01*
X79146000Y-66437000D01*
X80070428Y-66437000D01*
X80070428Y-68437000D01*
X80082688Y-68561482D01*
X80118998Y-68681180D01*
X80177963Y-68791494D01*
X80257315Y-68888185D01*
X80354006Y-68967537D01*
X80464320Y-69026502D01*
X80584018Y-69062812D01*
X80708500Y-69075072D01*
X82613500Y-69075072D01*
X82737982Y-69062812D01*
X82857680Y-69026502D01*
X82967994Y-68967537D01*
X83064685Y-68888185D01*
X83144037Y-68791494D01*
X83193059Y-68699781D01*
X83334077Y-68812969D01*
X83609906Y-68956571D01*
X83828020Y-69027563D01*
X84074000Y-68907594D01*
X84074000Y-67564000D01*
X84054000Y-67564000D01*
X84054000Y-67310000D01*
X84074000Y-67310000D01*
X84074000Y-65966406D01*
X84328000Y-65966406D01*
X84328000Y-67310000D01*
X84348000Y-67310000D01*
X84348000Y-67564000D01*
X84328000Y-67564000D01*
X84328000Y-68907594D01*
X84573980Y-69027563D01*
X84792094Y-68956571D01*
X85067923Y-68812969D01*
X85310437Y-68618315D01*
X85465837Y-68433101D01*
X85613037Y-68612463D01*
X85854766Y-68810845D01*
X86130552Y-68958255D01*
X86429797Y-69049030D01*
X86741000Y-69079681D01*
X87052204Y-69049030D01*
X87351449Y-68958255D01*
X87627235Y-68810845D01*
X87868963Y-68612463D01*
X88067345Y-68370734D01*
X88214755Y-68094948D01*
X88305530Y-67795703D01*
X88328500Y-67562485D01*
X88328500Y-67371865D01*
X90487600Y-67371865D01*
X90487600Y-67654535D01*
X90542747Y-67931774D01*
X90650920Y-68192927D01*
X90807963Y-68427959D01*
X91007841Y-68627837D01*
X91242873Y-68784880D01*
X91504026Y-68893053D01*
X91781265Y-68948200D01*
X92063935Y-68948200D01*
X92341174Y-68893053D01*
X92602327Y-68784880D01*
X92837359Y-68627837D01*
X93037237Y-68427959D01*
X93194280Y-68192927D01*
X93302453Y-67931774D01*
X93357600Y-67654535D01*
X93357600Y-67371865D01*
X93302453Y-67094626D01*
X93194280Y-66833473D01*
X93037237Y-66598441D01*
X92837359Y-66398563D01*
X92602327Y-66241520D01*
X92341174Y-66133347D01*
X92063935Y-66078200D01*
X91781265Y-66078200D01*
X91504026Y-66133347D01*
X91242873Y-66241520D01*
X91007841Y-66398563D01*
X90807963Y-66598441D01*
X90650920Y-66833473D01*
X90542747Y-67094626D01*
X90487600Y-67371865D01*
X88328500Y-67371865D01*
X88328500Y-67311514D01*
X88305530Y-67078296D01*
X88214755Y-66779051D01*
X88067345Y-66503265D01*
X87868963Y-66261537D01*
X87627234Y-66063155D01*
X87472549Y-65980474D01*
X87446546Y-65894753D01*
X87375974Y-65762724D01*
X87299878Y-65670000D01*
X97013928Y-65670000D01*
X97026188Y-65794482D01*
X97062498Y-65914180D01*
X97121463Y-66024494D01*
X97200815Y-66121185D01*
X97297506Y-66200537D01*
X97407820Y-66259502D01*
X97426127Y-66265056D01*
X97359688Y-66331495D01*
X97191701Y-66582905D01*
X97075989Y-66862257D01*
X97017000Y-67158816D01*
X97017000Y-67461184D01*
X97075989Y-67757743D01*
X97191701Y-68037095D01*
X97359688Y-68288505D01*
X97573495Y-68502312D01*
X97824905Y-68670299D01*
X98104257Y-68786011D01*
X98400816Y-68845000D01*
X98703184Y-68845000D01*
X98999743Y-68786011D01*
X99279095Y-68670299D01*
X99530505Y-68502312D01*
X99744312Y-68288505D01*
X99912299Y-68037095D01*
X100028011Y-67757743D01*
X100087000Y-67461184D01*
X100087000Y-67158816D01*
X100028011Y-66862257D01*
X99912299Y-66582905D01*
X99744312Y-66331495D01*
X99677873Y-66265056D01*
X99696180Y-66259502D01*
X99806494Y-66200537D01*
X99903185Y-66121185D01*
X99982537Y-66024494D01*
X100041502Y-65914180D01*
X100077812Y-65794482D01*
X100090072Y-65670000D01*
X100087000Y-65055750D01*
X99928250Y-64897000D01*
X98679000Y-64897000D01*
X98679000Y-64917000D01*
X98425000Y-64917000D01*
X98425000Y-64897000D01*
X97175750Y-64897000D01*
X97017000Y-65055750D01*
X97013928Y-65670000D01*
X87299878Y-65670000D01*
X87281001Y-65646999D01*
X87251997Y-65623196D01*
X87232768Y-65603967D01*
X88950972Y-63870000D01*
X97013928Y-63870000D01*
X97017000Y-64484250D01*
X97175750Y-64643000D01*
X98425000Y-64643000D01*
X98425000Y-63393750D01*
X98679000Y-63393750D01*
X98679000Y-64643000D01*
X99928250Y-64643000D01*
X100087000Y-64484250D01*
X100090072Y-63870000D01*
X100077812Y-63745518D01*
X100041502Y-63625820D01*
X99982537Y-63515506D01*
X99903185Y-63418815D01*
X99806494Y-63339463D01*
X99696180Y-63280498D01*
X99576482Y-63244188D01*
X99452000Y-63231928D01*
X98837750Y-63235000D01*
X98679000Y-63393750D01*
X98425000Y-63393750D01*
X98266250Y-63235000D01*
X97652000Y-63231928D01*
X97527518Y-63244188D01*
X97407820Y-63280498D01*
X97297506Y-63339463D01*
X97200815Y-63418815D01*
X97121463Y-63515506D01*
X97062498Y-63625820D01*
X97026188Y-63745518D01*
X97013928Y-63870000D01*
X88950972Y-63870000D01*
X91520972Y-61276424D01*
X91781265Y-61328200D01*
X92063935Y-61328200D01*
X92341174Y-61273053D01*
X92602327Y-61164880D01*
X92837359Y-61007837D01*
X93037237Y-60807959D01*
X93194280Y-60572927D01*
X93302453Y-60311774D01*
X93357600Y-60034535D01*
X93357600Y-59751865D01*
X93312859Y-59526942D01*
X94872003Y-57967799D01*
X94901001Y-57944001D01*
X94995974Y-57828276D01*
X95066546Y-57696247D01*
X95110003Y-57552986D01*
X95114543Y-57506890D01*
X101428524Y-57506890D01*
X101473175Y-57654099D01*
X101598359Y-57916920D01*
X101772412Y-58150269D01*
X101988645Y-58345178D01*
X102238748Y-58494157D01*
X102513109Y-58591481D01*
X102743000Y-58470814D01*
X102743000Y-57277000D01*
X102997000Y-57277000D01*
X102997000Y-58470814D01*
X103226891Y-58591481D01*
X103501252Y-58494157D01*
X103751355Y-58345178D01*
X103967588Y-58150269D01*
X104140000Y-57919120D01*
X104312412Y-58150269D01*
X104528645Y-58345178D01*
X104778748Y-58494157D01*
X105053109Y-58591481D01*
X105283000Y-58470814D01*
X105283000Y-57277000D01*
X105537000Y-57277000D01*
X105537000Y-58470814D01*
X105766891Y-58591481D01*
X106041252Y-58494157D01*
X106291355Y-58345178D01*
X106507588Y-58150269D01*
X106681641Y-57916920D01*
X106806825Y-57654099D01*
X106851476Y-57506890D01*
X106730155Y-57277000D01*
X105537000Y-57277000D01*
X105283000Y-57277000D01*
X102997000Y-57277000D01*
X102743000Y-57277000D01*
X101549845Y-57277000D01*
X101428524Y-57506890D01*
X95114543Y-57506890D01*
X95120632Y-57445072D01*
X95161000Y-57445072D01*
X95285482Y-57432812D01*
X95405180Y-57396502D01*
X95515494Y-57337537D01*
X95612185Y-57258185D01*
X95691537Y-57161494D01*
X95750502Y-57051180D01*
X95766117Y-56999702D01*
X96047903Y-56999702D01*
X96119486Y-57243671D01*
X96374996Y-57364571D01*
X96649184Y-57433300D01*
X96931512Y-57447217D01*
X97211130Y-57405787D01*
X97477292Y-57310603D01*
X97602514Y-57243671D01*
X97674097Y-56999702D01*
X96861000Y-56186605D01*
X96047903Y-56999702D01*
X95766117Y-56999702D01*
X95786812Y-56931482D01*
X95799072Y-56807000D01*
X95799072Y-56799785D01*
X95868298Y-56820097D01*
X96681395Y-56007000D01*
X97040605Y-56007000D01*
X97853702Y-56820097D01*
X98097671Y-56748514D01*
X98218571Y-56493004D01*
X98287300Y-56218816D01*
X98301217Y-55936488D01*
X98259787Y-55656870D01*
X98164603Y-55390708D01*
X98097671Y-55265486D01*
X97853702Y-55193903D01*
X97040605Y-56007000D01*
X96681395Y-56007000D01*
X95868298Y-55193903D01*
X95799072Y-55214215D01*
X95799072Y-55207000D01*
X95786812Y-55082518D01*
X95766118Y-55014298D01*
X96047903Y-55014298D01*
X96861000Y-55827395D01*
X97674097Y-55014298D01*
X97602514Y-54770329D01*
X97347004Y-54649429D01*
X97072816Y-54580700D01*
X96790488Y-54566783D01*
X96510870Y-54608213D01*
X96244708Y-54703397D01*
X96119486Y-54770329D01*
X96047903Y-55014298D01*
X95766118Y-55014298D01*
X95750502Y-54962820D01*
X95691537Y-54852506D01*
X95612185Y-54755815D01*
X95515494Y-54676463D01*
X95405180Y-54617498D01*
X95285482Y-54581188D01*
X95161000Y-54568928D01*
X93561000Y-54568928D01*
X93436518Y-54581188D01*
X93316820Y-54617498D01*
X93206506Y-54676463D01*
X93109815Y-54755815D01*
X93030463Y-54852506D01*
X92971498Y-54962820D01*
X92935188Y-55082518D01*
X92922928Y-55207000D01*
X92922928Y-56807000D01*
X92935188Y-56931482D01*
X92971498Y-57051180D01*
X93030463Y-57161494D01*
X93109815Y-57258185D01*
X93206506Y-57337537D01*
X93301751Y-57388447D01*
X92204115Y-58486084D01*
X92063935Y-58458200D01*
X91781265Y-58458200D01*
X91504026Y-58513347D01*
X91242873Y-58621520D01*
X91007841Y-58778563D01*
X90807963Y-58978441D01*
X90650920Y-59213473D01*
X90542747Y-59474626D01*
X90487600Y-59751865D01*
X90487600Y-60034535D01*
X90508349Y-60138848D01*
X85847650Y-64842307D01*
X85819999Y-64864999D01*
X85795099Y-64895340D01*
X85793873Y-64896577D01*
X85771418Y-64924195D01*
X85725026Y-64980724D01*
X85724199Y-64982272D01*
X85723096Y-64983628D01*
X85688996Y-65048130D01*
X85654454Y-65112753D01*
X85653944Y-65114433D01*
X85653127Y-65115979D01*
X85632254Y-65185939D01*
X85610997Y-65256014D01*
X85610825Y-65257760D01*
X85610325Y-65259436D01*
X85603507Y-65332063D01*
X85600000Y-65367667D01*
X85600000Y-65369416D01*
X85596332Y-65408487D01*
X85600000Y-65444063D01*
X85600000Y-65768678D01*
X85596324Y-65806000D01*
X85600000Y-65843322D01*
X85600000Y-65843332D01*
X85610997Y-65954985D01*
X85654454Y-66098246D01*
X85702494Y-66188121D01*
X85613037Y-66261537D01*
X85465838Y-66440900D01*
X85310437Y-66255685D01*
X85067923Y-66061031D01*
X84792094Y-65917429D01*
X84573980Y-65846437D01*
X84328000Y-65966406D01*
X84074000Y-65966406D01*
X83828020Y-65846437D01*
X83609906Y-65917429D01*
X83334077Y-66061031D01*
X83193059Y-66174219D01*
X83144037Y-66082506D01*
X83064685Y-65985815D01*
X82967994Y-65906463D01*
X82857680Y-65847498D01*
X82737982Y-65811188D01*
X82613500Y-65798928D01*
X80708500Y-65798928D01*
X80584018Y-65811188D01*
X80464320Y-65847498D01*
X80354006Y-65906463D01*
X80257315Y-65985815D01*
X80177963Y-66082506D01*
X80118998Y-66192820D01*
X80082688Y-66312518D01*
X80070428Y-66437000D01*
X79146000Y-66437000D01*
X79146000Y-61380413D01*
X83118192Y-61380413D01*
X83213956Y-61644814D01*
X83503571Y-61785704D01*
X83815108Y-61867384D01*
X84136595Y-61886718D01*
X84455675Y-61842961D01*
X84760088Y-61737795D01*
X84934044Y-61644814D01*
X85029808Y-61380413D01*
X84074000Y-60424605D01*
X83118192Y-61380413D01*
X79146000Y-61380413D01*
X79146000Y-60307595D01*
X82432282Y-60307595D01*
X82476039Y-60626675D01*
X82581205Y-60931088D01*
X82674186Y-61105044D01*
X82938587Y-61200808D01*
X83894395Y-60245000D01*
X84253605Y-60245000D01*
X85209413Y-61200808D01*
X85473814Y-61105044D01*
X85614704Y-60815429D01*
X85696384Y-60503892D01*
X85715718Y-60182405D01*
X85671961Y-59863325D01*
X85566795Y-59558912D01*
X85473814Y-59384956D01*
X85209413Y-59289192D01*
X84253605Y-60245000D01*
X83894395Y-60245000D01*
X82938587Y-59289192D01*
X82674186Y-59384956D01*
X82533296Y-59674571D01*
X82451616Y-59986108D01*
X82432282Y-60307595D01*
X79146000Y-60307595D01*
X79146000Y-59109587D01*
X83118192Y-59109587D01*
X84074000Y-60065395D01*
X85029808Y-59109587D01*
X84934044Y-58845186D01*
X84644429Y-58704296D01*
X84332892Y-58622616D01*
X84011405Y-58603282D01*
X83692325Y-58647039D01*
X83387912Y-58752205D01*
X83213956Y-58845186D01*
X83118192Y-59109587D01*
X79146000Y-59109587D01*
X79146000Y-54245000D01*
X82435928Y-54245000D01*
X82435928Y-56245000D01*
X82448188Y-56369482D01*
X82484498Y-56489180D01*
X82543463Y-56599494D01*
X82622815Y-56696185D01*
X82719506Y-56775537D01*
X82829820Y-56834502D01*
X82949518Y-56870812D01*
X83074000Y-56883072D01*
X85074000Y-56883072D01*
X85198482Y-56870812D01*
X85318180Y-56834502D01*
X85428494Y-56775537D01*
X85525185Y-56696185D01*
X85604537Y-56599494D01*
X85663502Y-56489180D01*
X85699812Y-56369482D01*
X85712072Y-56245000D01*
X85712072Y-54245000D01*
X85699812Y-54120518D01*
X85663502Y-54000820D01*
X85604537Y-53890506D01*
X85525185Y-53793815D01*
X85483982Y-53760000D01*
X101381928Y-53760000D01*
X101381928Y-55460000D01*
X101394188Y-55584482D01*
X101430498Y-55704180D01*
X101489463Y-55814494D01*
X101568815Y-55911185D01*
X101665506Y-55990537D01*
X101775820Y-56049502D01*
X101856466Y-56073966D01*
X101772412Y-56149731D01*
X101598359Y-56383080D01*
X101473175Y-56645901D01*
X101428524Y-56793110D01*
X101549845Y-57023000D01*
X102743000Y-57023000D01*
X102743000Y-57003000D01*
X102997000Y-57003000D01*
X102997000Y-57023000D01*
X105283000Y-57023000D01*
X105283000Y-57003000D01*
X105537000Y-57003000D01*
X105537000Y-57023000D01*
X106730155Y-57023000D01*
X106851476Y-56793110D01*
X106806825Y-56645901D01*
X106681641Y-56383080D01*
X106507588Y-56149731D01*
X106291355Y-55954822D01*
X106174466Y-55885195D01*
X106356632Y-55763475D01*
X106563475Y-55556632D01*
X106725990Y-55313411D01*
X106837932Y-55043158D01*
X106895000Y-54756260D01*
X106895000Y-54463740D01*
X106837932Y-54176842D01*
X106725990Y-53906589D01*
X106563475Y-53663368D01*
X106356632Y-53456525D01*
X106113411Y-53294010D01*
X105843158Y-53182068D01*
X105556260Y-53125000D01*
X105263740Y-53125000D01*
X104976842Y-53182068D01*
X104706589Y-53294010D01*
X104463368Y-53456525D01*
X104331513Y-53588380D01*
X104309502Y-53515820D01*
X104250537Y-53405506D01*
X104171185Y-53308815D01*
X104074494Y-53229463D01*
X103964180Y-53170498D01*
X103844482Y-53134188D01*
X103720000Y-53121928D01*
X102020000Y-53121928D01*
X101895518Y-53134188D01*
X101775820Y-53170498D01*
X101665506Y-53229463D01*
X101568815Y-53308815D01*
X101489463Y-53405506D01*
X101430498Y-53515820D01*
X101394188Y-53635518D01*
X101381928Y-53760000D01*
X85483982Y-53760000D01*
X85428494Y-53714463D01*
X85318180Y-53655498D01*
X85198482Y-53619188D01*
X85074000Y-53606928D01*
X83074000Y-53606928D01*
X82949518Y-53619188D01*
X82829820Y-53655498D01*
X82719506Y-53714463D01*
X82622815Y-53793815D01*
X82543463Y-53890506D01*
X82484498Y-54000820D01*
X82448188Y-54120518D01*
X82435928Y-54245000D01*
X79146000Y-54245000D01*
X79146000Y-52984000D01*
X107823000Y-52984000D01*
X107823000Y-58649000D01*
M02*
