G04 #@! TF.GenerationSoftware,KiCad,Pcbnew,(5.1.5)-3*
G04 #@! TF.CreationDate,2020-11-06T17:50:15+03:00*
G04 #@! TF.ProjectId,P_supply,505f7375-7070-46c7-992e-6b696361645f,rev?*
G04 #@! TF.SameCoordinates,Original*
G04 #@! TF.FileFunction,Legend,Top*
G04 #@! TF.FilePolarity,Positive*
%FSLAX46Y46*%
G04 Gerber Fmt 4.6, Leading zero omitted, Abs format (unit mm)*
G04 Created by KiCad (PCBNEW (5.1.5)-3) date 2020-11-06 17:50:15*
%MOMM*%
%LPD*%
G04 APERTURE LIST*
%ADD10C,0.150000*%
%ADD11C,0.120000*%
%ADD12C,0.300000*%
G04 APERTURE END LIST*
D10*
X112637819Y-52191114D02*
X112637819Y-52857780D01*
X111637819Y-52429209D01*
X111733057Y-53238733D02*
X111685438Y-53286352D01*
X111637819Y-53238733D01*
X111685438Y-53191114D01*
X111733057Y-53238733D01*
X111637819Y-53238733D01*
X112637819Y-53905400D02*
X112637819Y-54000638D01*
X112590200Y-54095876D01*
X112542580Y-54143495D01*
X112447342Y-54191114D01*
X112256866Y-54238733D01*
X112018771Y-54238733D01*
X111828295Y-54191114D01*
X111733057Y-54143495D01*
X111685438Y-54095876D01*
X111637819Y-54000638D01*
X111637819Y-53905400D01*
X111685438Y-53810161D01*
X111733057Y-53762542D01*
X111828295Y-53714923D01*
X112018771Y-53667304D01*
X112256866Y-53667304D01*
X112447342Y-53714923D01*
X112542580Y-53762542D01*
X112590200Y-53810161D01*
X112637819Y-53905400D01*
X112637819Y-55095876D02*
X112637819Y-54905400D01*
X112590200Y-54810161D01*
X112542580Y-54762542D01*
X112399723Y-54667304D01*
X112209247Y-54619685D01*
X111828295Y-54619685D01*
X111733057Y-54667304D01*
X111685438Y-54714923D01*
X111637819Y-54810161D01*
X111637819Y-55000638D01*
X111685438Y-55095876D01*
X111733057Y-55143495D01*
X111828295Y-55191114D01*
X112066390Y-55191114D01*
X112161628Y-55143495D01*
X112209247Y-55095876D01*
X112256866Y-55000638D01*
X112256866Y-54810161D01*
X112209247Y-54714923D01*
X112161628Y-54667304D01*
X112066390Y-54619685D01*
X111637819Y-56143495D02*
X111637819Y-55572066D01*
X111637819Y-55857780D02*
X112637819Y-55857780D01*
X112494961Y-55762542D01*
X112399723Y-55667304D01*
X112352104Y-55572066D01*
X111637819Y-57333971D02*
X112304485Y-57333971D01*
X112209247Y-57333971D02*
X112256866Y-57381590D01*
X112304485Y-57476828D01*
X112304485Y-57619685D01*
X112256866Y-57714923D01*
X112161628Y-57762542D01*
X111637819Y-57762542D01*
X112161628Y-57762542D02*
X112256866Y-57810161D01*
X112304485Y-57905400D01*
X112304485Y-58048257D01*
X112256866Y-58143495D01*
X112161628Y-58191114D01*
X111637819Y-58191114D01*
X111637819Y-58667304D02*
X112304485Y-58667304D01*
X112209247Y-58667304D02*
X112256866Y-58714923D01*
X112304485Y-58810161D01*
X112304485Y-58953019D01*
X112256866Y-59048257D01*
X112161628Y-59095876D01*
X111637819Y-59095876D01*
X112161628Y-59095876D02*
X112256866Y-59143495D01*
X112304485Y-59238733D01*
X112304485Y-59381590D01*
X112256866Y-59476828D01*
X112161628Y-59524447D01*
X111637819Y-59524447D01*
D11*
X110820200Y-52374800D02*
X110820200Y-59436000D01*
X108610400Y-52374800D02*
X111406621Y-52374800D01*
X108610400Y-59436000D02*
X111406621Y-59436000D01*
X110820200Y-59436000D02*
X110233779Y-58309496D01*
X110820200Y-59436000D02*
X111406621Y-58309496D01*
X110820200Y-52374800D02*
X110233779Y-53501304D01*
X110820200Y-52374800D02*
X111406621Y-53501304D01*
D10*
X111833982Y-82555783D02*
X111834395Y-81936735D01*
X112215125Y-82270322D01*
X112215220Y-82127465D01*
X112262902Y-82032259D01*
X112310553Y-81984672D01*
X112405823Y-81937116D01*
X112643918Y-81937275D01*
X112739125Y-81984957D01*
X112786712Y-82032608D01*
X112834267Y-82127878D01*
X112834077Y-82413592D01*
X112786394Y-82508799D01*
X112738744Y-82556386D01*
X112263347Y-81365592D02*
X112215664Y-81460799D01*
X112168014Y-81508386D01*
X112072744Y-81555942D01*
X112025125Y-81555910D01*
X111929918Y-81508227D01*
X111882331Y-81460577D01*
X111834776Y-81365307D01*
X111834903Y-81174831D01*
X111882585Y-81079624D01*
X111930236Y-81032037D01*
X112025506Y-80984481D01*
X112073125Y-80984513D01*
X112168331Y-81032196D01*
X112215918Y-81079847D01*
X112263474Y-81175116D01*
X112263347Y-81365592D01*
X112310902Y-81460862D01*
X112358490Y-81508513D01*
X112453696Y-81556196D01*
X112644172Y-81556323D01*
X112739442Y-81508767D01*
X112787093Y-81461180D01*
X112834775Y-81365973D01*
X112834902Y-81175497D01*
X112787347Y-81080227D01*
X112739760Y-81032577D01*
X112644553Y-80984894D01*
X112454077Y-80984767D01*
X112358807Y-81032323D01*
X112311156Y-81079910D01*
X112263474Y-81175116D01*
X112740077Y-80556386D02*
X112787728Y-80508799D01*
X112835315Y-80556450D01*
X112787664Y-80604037D01*
X112740077Y-80556386D01*
X112835315Y-80556450D01*
X112835982Y-79556450D02*
X112835601Y-80127878D01*
X112835791Y-79842164D02*
X111835791Y-79841498D01*
X111978585Y-79936831D01*
X112073760Y-80032132D01*
X112121315Y-80127402D01*
X111836395Y-78936736D02*
X111836458Y-78841498D01*
X111884141Y-78746291D01*
X111931791Y-78698704D01*
X112027061Y-78651149D01*
X112217569Y-78603657D01*
X112455664Y-78603815D01*
X112646109Y-78651561D01*
X112741315Y-78699244D01*
X112788902Y-78746895D01*
X112836458Y-78842164D01*
X112836394Y-78937403D01*
X112788712Y-79032609D01*
X112741061Y-79080196D01*
X112645791Y-79127752D01*
X112455283Y-79175244D01*
X112217188Y-79175085D01*
X112026744Y-79127339D01*
X111931537Y-79079656D01*
X111883950Y-79032006D01*
X111836395Y-78936736D01*
X111837030Y-77984355D02*
X111837093Y-77889117D01*
X111884776Y-77793911D01*
X111932426Y-77746323D01*
X112027696Y-77698768D01*
X112218204Y-77651276D01*
X112456299Y-77651435D01*
X112646744Y-77699181D01*
X112741950Y-77746863D01*
X112789537Y-77794514D01*
X112837093Y-77889784D01*
X112837029Y-77985022D01*
X112789347Y-78080228D01*
X112741696Y-78127815D01*
X112646426Y-78175371D01*
X112455918Y-78222863D01*
X112217823Y-78222704D01*
X112027379Y-78174958D01*
X111932172Y-78127276D01*
X111884585Y-78079625D01*
X111837030Y-77984355D01*
X112838045Y-76461213D02*
X112171379Y-76460768D01*
X112266617Y-76460832D02*
X112219029Y-76413181D01*
X112171474Y-76317911D01*
X112171569Y-76175054D01*
X112219252Y-76079848D01*
X112314521Y-76032292D01*
X112838331Y-76032641D01*
X112314521Y-76032292D02*
X112219315Y-75984610D01*
X112171760Y-75889340D01*
X112171855Y-75746483D01*
X112219537Y-75651276D01*
X112314807Y-75603721D01*
X112838617Y-75604070D01*
X112838934Y-75127880D02*
X112172268Y-75127435D01*
X112267506Y-75127499D02*
X112219918Y-75079848D01*
X112172363Y-74984578D01*
X112172458Y-74841721D01*
X112220141Y-74746515D01*
X112315410Y-74698959D01*
X112839220Y-74699308D01*
X112315410Y-74698959D02*
X112220204Y-74651277D01*
X112172649Y-74556007D01*
X112172744Y-74413150D01*
X112220426Y-74317943D01*
X112315696Y-74270388D01*
X112839506Y-74270737D01*
D11*
X111101695Y-97414826D02*
X111127095Y-59314826D01*
X102362000Y-97409000D02*
X111688116Y-97415217D01*
X102387400Y-59309000D02*
X111713516Y-59315217D01*
X111127095Y-59314826D02*
X111712765Y-60441720D01*
X111127095Y-59314826D02*
X110539923Y-60440939D01*
X111101695Y-97414826D02*
X111688867Y-96288713D01*
X111101695Y-97414826D02*
X110516025Y-96287932D01*
D10*
X117562380Y-81978047D02*
X117562380Y-82454238D01*
X118038571Y-82501857D01*
X117990952Y-82454238D01*
X117943333Y-82359000D01*
X117943333Y-82120904D01*
X117990952Y-82025666D01*
X118038571Y-81978047D01*
X118133809Y-81930428D01*
X118371904Y-81930428D01*
X118467142Y-81978047D01*
X118514761Y-82025666D01*
X118562380Y-82120904D01*
X118562380Y-82359000D01*
X118514761Y-82454238D01*
X118467142Y-82501857D01*
X117657619Y-81549476D02*
X117610000Y-81501857D01*
X117562380Y-81406619D01*
X117562380Y-81168523D01*
X117610000Y-81073285D01*
X117657619Y-81025666D01*
X117752857Y-80978047D01*
X117848095Y-80978047D01*
X117990952Y-81025666D01*
X118562380Y-81597095D01*
X118562380Y-80978047D01*
X118467142Y-80549476D02*
X118514761Y-80501857D01*
X118562380Y-80549476D01*
X118514761Y-80597095D01*
X118467142Y-80549476D01*
X118562380Y-80549476D01*
X117562380Y-79882809D02*
X117562380Y-79787571D01*
X117610000Y-79692333D01*
X117657619Y-79644714D01*
X117752857Y-79597095D01*
X117943333Y-79549476D01*
X118181428Y-79549476D01*
X118371904Y-79597095D01*
X118467142Y-79644714D01*
X118514761Y-79692333D01*
X118562380Y-79787571D01*
X118562380Y-79882809D01*
X118514761Y-79978047D01*
X118467142Y-80025666D01*
X118371904Y-80073285D01*
X118181428Y-80120904D01*
X117943333Y-80120904D01*
X117752857Y-80073285D01*
X117657619Y-80025666D01*
X117610000Y-79978047D01*
X117562380Y-79882809D01*
X117562380Y-79216142D02*
X117562380Y-78549476D01*
X118562380Y-78978047D01*
X117562380Y-77978047D02*
X117562380Y-77882809D01*
X117610000Y-77787571D01*
X117657619Y-77739952D01*
X117752857Y-77692333D01*
X117943333Y-77644714D01*
X118181428Y-77644714D01*
X118371904Y-77692333D01*
X118467142Y-77739952D01*
X118514761Y-77787571D01*
X118562380Y-77882809D01*
X118562380Y-77978047D01*
X118514761Y-78073285D01*
X118467142Y-78120904D01*
X118371904Y-78168523D01*
X118181428Y-78216142D01*
X117943333Y-78216142D01*
X117752857Y-78168523D01*
X117657619Y-78120904D01*
X117610000Y-78073285D01*
X117562380Y-77978047D01*
X118562380Y-76454238D02*
X117895714Y-76454238D01*
X117990952Y-76454238D02*
X117943333Y-76406619D01*
X117895714Y-76311380D01*
X117895714Y-76168523D01*
X117943333Y-76073285D01*
X118038571Y-76025666D01*
X118562380Y-76025666D01*
X118038571Y-76025666D02*
X117943333Y-75978047D01*
X117895714Y-75882809D01*
X117895714Y-75739952D01*
X117943333Y-75644714D01*
X118038571Y-75597095D01*
X118562380Y-75597095D01*
X118562380Y-75120904D02*
X117895714Y-75120904D01*
X117990952Y-75120904D02*
X117943333Y-75073285D01*
X117895714Y-74978047D01*
X117895714Y-74835190D01*
X117943333Y-74739952D01*
X118038571Y-74692333D01*
X118562380Y-74692333D01*
X118038571Y-74692333D02*
X117943333Y-74644714D01*
X117895714Y-74549476D01*
X117895714Y-74406619D01*
X117943333Y-74311380D01*
X118038571Y-74263761D01*
X118562380Y-74263761D01*
D11*
X116840000Y-104394000D02*
X116840000Y-52324000D01*
X108585000Y-104394000D02*
X117426421Y-104394000D01*
X108585000Y-52324000D02*
X117426421Y-52324000D01*
X116840000Y-52324000D02*
X117426421Y-53450504D01*
X116840000Y-52324000D02*
X116253579Y-53450504D01*
X116840000Y-104394000D02*
X117426421Y-103267496D01*
X116840000Y-104394000D02*
X116253579Y-103267496D01*
D12*
X99580000Y-59562857D02*
X99508571Y-59705714D01*
X99508571Y-59920000D01*
X99580000Y-60134285D01*
X99722857Y-60277142D01*
X99865714Y-60348571D01*
X100151428Y-60420000D01*
X100365714Y-60420000D01*
X100651428Y-60348571D01*
X100794285Y-60277142D01*
X100937142Y-60134285D01*
X101008571Y-59920000D01*
X101008571Y-59777142D01*
X100937142Y-59562857D01*
X100865714Y-59491428D01*
X100365714Y-59491428D01*
X100365714Y-59777142D01*
X101008571Y-58848571D02*
X99508571Y-58848571D01*
X101008571Y-57991428D01*
X99508571Y-57991428D01*
X101008571Y-57277142D02*
X99508571Y-57277142D01*
X99508571Y-56920000D01*
X99580000Y-56705714D01*
X99722857Y-56562857D01*
X99865714Y-56491428D01*
X100151428Y-56420000D01*
X100365714Y-56420000D01*
X100651428Y-56491428D01*
X100794285Y-56562857D01*
X100937142Y-56705714D01*
X101008571Y-56920000D01*
X101008571Y-57277142D01*
X99409285Y-53153571D02*
X98695000Y-53153571D01*
X98623571Y-53867857D01*
X98695000Y-53796428D01*
X98837857Y-53725000D01*
X99195000Y-53725000D01*
X99337857Y-53796428D01*
X99409285Y-53867857D01*
X99480714Y-54010714D01*
X99480714Y-54367857D01*
X99409285Y-54510714D01*
X99337857Y-54582142D01*
X99195000Y-54653571D01*
X98837857Y-54653571D01*
X98695000Y-54582142D01*
X98623571Y-54510714D01*
X99909285Y-53153571D02*
X100409285Y-54653571D01*
X100909285Y-53153571D01*
X99822142Y-102120000D02*
X99679285Y-102048571D01*
X99465000Y-102048571D01*
X99250714Y-102120000D01*
X99107857Y-102262857D01*
X99036428Y-102405714D01*
X98965000Y-102691428D01*
X98965000Y-102905714D01*
X99036428Y-103191428D01*
X99107857Y-103334285D01*
X99250714Y-103477142D01*
X99465000Y-103548571D01*
X99607857Y-103548571D01*
X99822142Y-103477142D01*
X99893571Y-103405714D01*
X99893571Y-102905714D01*
X99607857Y-102905714D01*
X100536428Y-103548571D02*
X100536428Y-102048571D01*
X101393571Y-103548571D01*
X101393571Y-102048571D01*
X102107857Y-103548571D02*
X102107857Y-102048571D01*
X102465000Y-102048571D01*
X102679285Y-102120000D01*
X102822142Y-102262857D01*
X102893571Y-102405714D01*
X102965000Y-102691428D01*
X102965000Y-102905714D01*
X102893571Y-103191428D01*
X102822142Y-103334285D01*
X102679285Y-103477142D01*
X102465000Y-103548571D01*
X102107857Y-103548571D01*
X100143571Y-98647142D02*
X100143571Y-99361428D01*
X100857857Y-99432857D01*
X100786428Y-99361428D01*
X100715000Y-99218571D01*
X100715000Y-98861428D01*
X100786428Y-98718571D01*
X100857857Y-98647142D01*
X101000714Y-98575714D01*
X101357857Y-98575714D01*
X101500714Y-98647142D01*
X101572142Y-98718571D01*
X101643571Y-98861428D01*
X101643571Y-99218571D01*
X101572142Y-99361428D01*
X101500714Y-99432857D01*
X100143571Y-98147142D02*
X101643571Y-97647142D01*
X100143571Y-97147142D01*
D11*
X90552600Y-66973200D02*
X90882600Y-66973200D01*
X90552600Y-60433200D02*
X90552600Y-66973200D01*
X90882600Y-60433200D02*
X90552600Y-60433200D01*
X93292600Y-66973200D02*
X92962600Y-66973200D01*
X93292600Y-60433200D02*
X93292600Y-66973200D01*
X92962600Y-60433200D02*
X93292600Y-60433200D01*
X98881000Y-56007000D02*
G75*
G03X98881000Y-56007000I-3270000J0D01*
G01*
X95611000Y-52777000D02*
X95611000Y-59237000D01*
X95651000Y-52777000D02*
X95651000Y-59237000D01*
X95691000Y-52777000D02*
X95691000Y-59237000D01*
X95731000Y-52779000D02*
X95731000Y-59235000D01*
X95771000Y-52780000D02*
X95771000Y-59234000D01*
X95811000Y-52783000D02*
X95811000Y-59231000D01*
X95851000Y-52785000D02*
X95851000Y-54967000D01*
X95851000Y-57047000D02*
X95851000Y-59229000D01*
X95891000Y-52789000D02*
X95891000Y-54967000D01*
X95891000Y-57047000D02*
X95891000Y-59225000D01*
X95931000Y-52792000D02*
X95931000Y-54967000D01*
X95931000Y-57047000D02*
X95931000Y-59222000D01*
X95971000Y-52796000D02*
X95971000Y-54967000D01*
X95971000Y-57047000D02*
X95971000Y-59218000D01*
X96011000Y-52801000D02*
X96011000Y-54967000D01*
X96011000Y-57047000D02*
X96011000Y-59213000D01*
X96051000Y-52806000D02*
X96051000Y-54967000D01*
X96051000Y-57047000D02*
X96051000Y-59208000D01*
X96091000Y-52812000D02*
X96091000Y-54967000D01*
X96091000Y-57047000D02*
X96091000Y-59202000D01*
X96131000Y-52818000D02*
X96131000Y-54967000D01*
X96131000Y-57047000D02*
X96131000Y-59196000D01*
X96171000Y-52825000D02*
X96171000Y-54967000D01*
X96171000Y-57047000D02*
X96171000Y-59189000D01*
X96211000Y-52832000D02*
X96211000Y-54967000D01*
X96211000Y-57047000D02*
X96211000Y-59182000D01*
X96251000Y-52840000D02*
X96251000Y-54967000D01*
X96251000Y-57047000D02*
X96251000Y-59174000D01*
X96291000Y-52848000D02*
X96291000Y-54967000D01*
X96291000Y-57047000D02*
X96291000Y-59166000D01*
X96332000Y-52857000D02*
X96332000Y-54967000D01*
X96332000Y-57047000D02*
X96332000Y-59157000D01*
X96372000Y-52866000D02*
X96372000Y-54967000D01*
X96372000Y-57047000D02*
X96372000Y-59148000D01*
X96412000Y-52876000D02*
X96412000Y-54967000D01*
X96412000Y-57047000D02*
X96412000Y-59138000D01*
X96452000Y-52886000D02*
X96452000Y-54967000D01*
X96452000Y-57047000D02*
X96452000Y-59128000D01*
X96492000Y-52897000D02*
X96492000Y-54967000D01*
X96492000Y-57047000D02*
X96492000Y-59117000D01*
X96532000Y-52909000D02*
X96532000Y-54967000D01*
X96532000Y-57047000D02*
X96532000Y-59105000D01*
X96572000Y-52921000D02*
X96572000Y-54967000D01*
X96572000Y-57047000D02*
X96572000Y-59093000D01*
X96612000Y-52933000D02*
X96612000Y-54967000D01*
X96612000Y-57047000D02*
X96612000Y-59081000D01*
X96652000Y-52946000D02*
X96652000Y-54967000D01*
X96652000Y-57047000D02*
X96652000Y-59068000D01*
X96692000Y-52960000D02*
X96692000Y-54967000D01*
X96692000Y-57047000D02*
X96692000Y-59054000D01*
X96732000Y-52974000D02*
X96732000Y-54967000D01*
X96732000Y-57047000D02*
X96732000Y-59040000D01*
X96772000Y-52989000D02*
X96772000Y-54967000D01*
X96772000Y-57047000D02*
X96772000Y-59025000D01*
X96812000Y-53005000D02*
X96812000Y-54967000D01*
X96812000Y-57047000D02*
X96812000Y-59009000D01*
X96852000Y-53021000D02*
X96852000Y-54967000D01*
X96852000Y-57047000D02*
X96852000Y-58993000D01*
X96892000Y-53037000D02*
X96892000Y-54967000D01*
X96892000Y-57047000D02*
X96892000Y-58977000D01*
X96932000Y-53055000D02*
X96932000Y-54967000D01*
X96932000Y-57047000D02*
X96932000Y-58959000D01*
X96972000Y-53073000D02*
X96972000Y-54967000D01*
X96972000Y-57047000D02*
X96972000Y-58941000D01*
X97012000Y-53091000D02*
X97012000Y-54967000D01*
X97012000Y-57047000D02*
X97012000Y-58923000D01*
X97052000Y-53111000D02*
X97052000Y-54967000D01*
X97052000Y-57047000D02*
X97052000Y-58903000D01*
X97092000Y-53131000D02*
X97092000Y-54967000D01*
X97092000Y-57047000D02*
X97092000Y-58883000D01*
X97132000Y-53151000D02*
X97132000Y-54967000D01*
X97132000Y-57047000D02*
X97132000Y-58863000D01*
X97172000Y-53173000D02*
X97172000Y-54967000D01*
X97172000Y-57047000D02*
X97172000Y-58841000D01*
X97212000Y-53195000D02*
X97212000Y-54967000D01*
X97212000Y-57047000D02*
X97212000Y-58819000D01*
X97252000Y-53217000D02*
X97252000Y-54967000D01*
X97252000Y-57047000D02*
X97252000Y-58797000D01*
X97292000Y-53241000D02*
X97292000Y-54967000D01*
X97292000Y-57047000D02*
X97292000Y-58773000D01*
X97332000Y-53265000D02*
X97332000Y-54967000D01*
X97332000Y-57047000D02*
X97332000Y-58749000D01*
X97372000Y-53291000D02*
X97372000Y-54967000D01*
X97372000Y-57047000D02*
X97372000Y-58723000D01*
X97412000Y-53317000D02*
X97412000Y-54967000D01*
X97412000Y-57047000D02*
X97412000Y-58697000D01*
X97452000Y-53343000D02*
X97452000Y-54967000D01*
X97452000Y-57047000D02*
X97452000Y-58671000D01*
X97492000Y-53371000D02*
X97492000Y-54967000D01*
X97492000Y-57047000D02*
X97492000Y-58643000D01*
X97532000Y-53400000D02*
X97532000Y-54967000D01*
X97532000Y-57047000D02*
X97532000Y-58614000D01*
X97572000Y-53429000D02*
X97572000Y-54967000D01*
X97572000Y-57047000D02*
X97572000Y-58585000D01*
X97612000Y-53459000D02*
X97612000Y-54967000D01*
X97612000Y-57047000D02*
X97612000Y-58555000D01*
X97652000Y-53491000D02*
X97652000Y-54967000D01*
X97652000Y-57047000D02*
X97652000Y-58523000D01*
X97692000Y-53523000D02*
X97692000Y-54967000D01*
X97692000Y-57047000D02*
X97692000Y-58491000D01*
X97732000Y-53557000D02*
X97732000Y-54967000D01*
X97732000Y-57047000D02*
X97732000Y-58457000D01*
X97772000Y-53591000D02*
X97772000Y-54967000D01*
X97772000Y-57047000D02*
X97772000Y-58423000D01*
X97812000Y-53627000D02*
X97812000Y-54967000D01*
X97812000Y-57047000D02*
X97812000Y-58387000D01*
X97852000Y-53664000D02*
X97852000Y-54967000D01*
X97852000Y-57047000D02*
X97852000Y-58350000D01*
X97892000Y-53702000D02*
X97892000Y-54967000D01*
X97892000Y-57047000D02*
X97892000Y-58312000D01*
X97932000Y-53742000D02*
X97932000Y-58272000D01*
X97972000Y-53783000D02*
X97972000Y-58231000D01*
X98012000Y-53825000D02*
X98012000Y-58189000D01*
X98052000Y-53870000D02*
X98052000Y-58144000D01*
X98092000Y-53915000D02*
X98092000Y-58099000D01*
X98132000Y-53963000D02*
X98132000Y-58051000D01*
X98172000Y-54012000D02*
X98172000Y-58002000D01*
X98212000Y-54063000D02*
X98212000Y-57951000D01*
X98252000Y-54117000D02*
X98252000Y-57897000D01*
X98292000Y-54173000D02*
X98292000Y-57841000D01*
X98332000Y-54231000D02*
X98332000Y-57783000D01*
X98372000Y-54293000D02*
X98372000Y-57721000D01*
X98412000Y-54357000D02*
X98412000Y-57657000D01*
X98452000Y-54426000D02*
X98452000Y-57588000D01*
X98492000Y-54498000D02*
X98492000Y-57516000D01*
X98532000Y-54575000D02*
X98532000Y-57439000D01*
X98572000Y-54657000D02*
X98572000Y-57357000D01*
X98612000Y-54745000D02*
X98612000Y-57269000D01*
X98652000Y-54842000D02*
X98652000Y-57172000D01*
X98692000Y-54948000D02*
X98692000Y-57066000D01*
X98732000Y-55067000D02*
X98732000Y-56947000D01*
X98772000Y-55205000D02*
X98772000Y-56809000D01*
X98812000Y-55374000D02*
X98812000Y-56640000D01*
X98852000Y-55605000D02*
X98852000Y-56409000D01*
X92110759Y-54168000D02*
X92740759Y-54168000D01*
X92425759Y-53853000D02*
X92425759Y-54483000D01*
X93470000Y-84580000D02*
X93470000Y-83280000D01*
X94770000Y-84580000D02*
X93470000Y-84580000D01*
X101120000Y-72330000D02*
X101120000Y-82230000D01*
X94420000Y-82230000D02*
X94420000Y-72330000D01*
X100370000Y-84280000D02*
X95170000Y-84280000D01*
X95170000Y-70280000D02*
X100370000Y-70280000D01*
X97598173Y-86239185D02*
G75*
G03X97134170Y-91587000I1080827J-2787815D01*
G01*
X99759827Y-86239185D02*
G75*
G02X100223830Y-91587000I-1080827J-2787815D01*
G01*
X97598571Y-86772521D02*
G75*
G03X97599000Y-91281684I1080429J-2254479D01*
G01*
X99759429Y-86772521D02*
G75*
G02X99759000Y-91281684I-1080429J-2254479D01*
G01*
X97134000Y-91587000D02*
X97599000Y-91587000D01*
X99759000Y-91587000D02*
X100224000Y-91587000D01*
X102683000Y-103438000D02*
X107883000Y-103438000D01*
X102683000Y-100838000D02*
X102683000Y-103438000D01*
X107883000Y-98238000D02*
X107883000Y-103438000D01*
X102683000Y-100838000D02*
X105283000Y-100838000D01*
X105283000Y-100838000D02*
X105283000Y-98238000D01*
X105283000Y-98238000D02*
X107883000Y-98238000D01*
X102683000Y-99568000D02*
X102683000Y-98238000D01*
X102683000Y-98238000D02*
X104013000Y-98238000D01*
X89194000Y-57745000D02*
G75*
G03X89194000Y-57745000I-5120000J0D01*
G01*
X89154000Y-57745000D02*
X78994000Y-57745000D01*
X89154000Y-57785000D02*
X78994000Y-57785000D01*
X89154000Y-57825000D02*
X78994000Y-57825000D01*
X89153000Y-57865000D02*
X78995000Y-57865000D01*
X89152000Y-57905000D02*
X78996000Y-57905000D01*
X89151000Y-57945000D02*
X78997000Y-57945000D01*
X89149000Y-57985000D02*
X78999000Y-57985000D01*
X89147000Y-58025000D02*
X79001000Y-58025000D01*
X89144000Y-58065000D02*
X79004000Y-58065000D01*
X89142000Y-58105000D02*
X79006000Y-58105000D01*
X89139000Y-58145000D02*
X79009000Y-58145000D01*
X89136000Y-58185000D02*
X79012000Y-58185000D01*
X89132000Y-58225000D02*
X79016000Y-58225000D01*
X89128000Y-58265000D02*
X79020000Y-58265000D01*
X89124000Y-58305000D02*
X79024000Y-58305000D01*
X89119000Y-58345000D02*
X79029000Y-58345000D01*
X89114000Y-58385000D02*
X79034000Y-58385000D01*
X89109000Y-58425000D02*
X79039000Y-58425000D01*
X89104000Y-58466000D02*
X79044000Y-58466000D01*
X89098000Y-58506000D02*
X79050000Y-58506000D01*
X89092000Y-58546000D02*
X79056000Y-58546000D01*
X89085000Y-58586000D02*
X79063000Y-58586000D01*
X89078000Y-58626000D02*
X79070000Y-58626000D01*
X89071000Y-58666000D02*
X79077000Y-58666000D01*
X89064000Y-58706000D02*
X79084000Y-58706000D01*
X89056000Y-58746000D02*
X79092000Y-58746000D01*
X89048000Y-58786000D02*
X79100000Y-58786000D01*
X89039000Y-58826000D02*
X79109000Y-58826000D01*
X89030000Y-58866000D02*
X79118000Y-58866000D01*
X89021000Y-58906000D02*
X79127000Y-58906000D01*
X89012000Y-58946000D02*
X79136000Y-58946000D01*
X89002000Y-58986000D02*
X79146000Y-58986000D01*
X88992000Y-59026000D02*
X85315000Y-59026000D01*
X82833000Y-59026000D02*
X79156000Y-59026000D01*
X88981000Y-59066000D02*
X85315000Y-59066000D01*
X82833000Y-59066000D02*
X79167000Y-59066000D01*
X88971000Y-59106000D02*
X85315000Y-59106000D01*
X82833000Y-59106000D02*
X79177000Y-59106000D01*
X88959000Y-59146000D02*
X85315000Y-59146000D01*
X82833000Y-59146000D02*
X79189000Y-59146000D01*
X88948000Y-59186000D02*
X85315000Y-59186000D01*
X82833000Y-59186000D02*
X79200000Y-59186000D01*
X88936000Y-59226000D02*
X85315000Y-59226000D01*
X82833000Y-59226000D02*
X79212000Y-59226000D01*
X88924000Y-59266000D02*
X85315000Y-59266000D01*
X82833000Y-59266000D02*
X79224000Y-59266000D01*
X88911000Y-59306000D02*
X85315000Y-59306000D01*
X82833000Y-59306000D02*
X79237000Y-59306000D01*
X88898000Y-59346000D02*
X85315000Y-59346000D01*
X82833000Y-59346000D02*
X79250000Y-59346000D01*
X88885000Y-59386000D02*
X85315000Y-59386000D01*
X82833000Y-59386000D02*
X79263000Y-59386000D01*
X88871000Y-59426000D02*
X85315000Y-59426000D01*
X82833000Y-59426000D02*
X79277000Y-59426000D01*
X88857000Y-59466000D02*
X85315000Y-59466000D01*
X82833000Y-59466000D02*
X79291000Y-59466000D01*
X88842000Y-59506000D02*
X85315000Y-59506000D01*
X82833000Y-59506000D02*
X79306000Y-59506000D01*
X88828000Y-59546000D02*
X85315000Y-59546000D01*
X82833000Y-59546000D02*
X79320000Y-59546000D01*
X88812000Y-59586000D02*
X85315000Y-59586000D01*
X82833000Y-59586000D02*
X79336000Y-59586000D01*
X88797000Y-59626000D02*
X85315000Y-59626000D01*
X82833000Y-59626000D02*
X79351000Y-59626000D01*
X88781000Y-59666000D02*
X85315000Y-59666000D01*
X82833000Y-59666000D02*
X79367000Y-59666000D01*
X88764000Y-59706000D02*
X85315000Y-59706000D01*
X82833000Y-59706000D02*
X79384000Y-59706000D01*
X88748000Y-59746000D02*
X85315000Y-59746000D01*
X82833000Y-59746000D02*
X79400000Y-59746000D01*
X88731000Y-59786000D02*
X85315000Y-59786000D01*
X82833000Y-59786000D02*
X79417000Y-59786000D01*
X88713000Y-59826000D02*
X85315000Y-59826000D01*
X82833000Y-59826000D02*
X79435000Y-59826000D01*
X88695000Y-59866000D02*
X85315000Y-59866000D01*
X82833000Y-59866000D02*
X79453000Y-59866000D01*
X88677000Y-59906000D02*
X85315000Y-59906000D01*
X82833000Y-59906000D02*
X79471000Y-59906000D01*
X88658000Y-59946000D02*
X85315000Y-59946000D01*
X82833000Y-59946000D02*
X79490000Y-59946000D01*
X88638000Y-59986000D02*
X85315000Y-59986000D01*
X82833000Y-59986000D02*
X79510000Y-59986000D01*
X88619000Y-60026000D02*
X85315000Y-60026000D01*
X82833000Y-60026000D02*
X79529000Y-60026000D01*
X88599000Y-60066000D02*
X85315000Y-60066000D01*
X82833000Y-60066000D02*
X79549000Y-60066000D01*
X88578000Y-60106000D02*
X85315000Y-60106000D01*
X82833000Y-60106000D02*
X79570000Y-60106000D01*
X88557000Y-60146000D02*
X85315000Y-60146000D01*
X82833000Y-60146000D02*
X79591000Y-60146000D01*
X88536000Y-60186000D02*
X85315000Y-60186000D01*
X82833000Y-60186000D02*
X79612000Y-60186000D01*
X88514000Y-60226000D02*
X85315000Y-60226000D01*
X82833000Y-60226000D02*
X79634000Y-60226000D01*
X88491000Y-60266000D02*
X85315000Y-60266000D01*
X82833000Y-60266000D02*
X79657000Y-60266000D01*
X88469000Y-60306000D02*
X85315000Y-60306000D01*
X82833000Y-60306000D02*
X79679000Y-60306000D01*
X88445000Y-60346000D02*
X85315000Y-60346000D01*
X82833000Y-60346000D02*
X79703000Y-60346000D01*
X88421000Y-60386000D02*
X85315000Y-60386000D01*
X82833000Y-60386000D02*
X79727000Y-60386000D01*
X88397000Y-60426000D02*
X85315000Y-60426000D01*
X82833000Y-60426000D02*
X79751000Y-60426000D01*
X88372000Y-60466000D02*
X85315000Y-60466000D01*
X82833000Y-60466000D02*
X79776000Y-60466000D01*
X88347000Y-60506000D02*
X85315000Y-60506000D01*
X82833000Y-60506000D02*
X79801000Y-60506000D01*
X88321000Y-60546000D02*
X85315000Y-60546000D01*
X82833000Y-60546000D02*
X79827000Y-60546000D01*
X88295000Y-60586000D02*
X85315000Y-60586000D01*
X82833000Y-60586000D02*
X79853000Y-60586000D01*
X88268000Y-60626000D02*
X85315000Y-60626000D01*
X82833000Y-60626000D02*
X79880000Y-60626000D01*
X88240000Y-60666000D02*
X85315000Y-60666000D01*
X82833000Y-60666000D02*
X79908000Y-60666000D01*
X88212000Y-60706000D02*
X85315000Y-60706000D01*
X82833000Y-60706000D02*
X79936000Y-60706000D01*
X88184000Y-60746000D02*
X85315000Y-60746000D01*
X82833000Y-60746000D02*
X79964000Y-60746000D01*
X88154000Y-60786000D02*
X85315000Y-60786000D01*
X82833000Y-60786000D02*
X79994000Y-60786000D01*
X88124000Y-60826000D02*
X85315000Y-60826000D01*
X82833000Y-60826000D02*
X80024000Y-60826000D01*
X88094000Y-60866000D02*
X85315000Y-60866000D01*
X82833000Y-60866000D02*
X80054000Y-60866000D01*
X88063000Y-60906000D02*
X85315000Y-60906000D01*
X82833000Y-60906000D02*
X80085000Y-60906000D01*
X88031000Y-60946000D02*
X85315000Y-60946000D01*
X82833000Y-60946000D02*
X80117000Y-60946000D01*
X87999000Y-60986000D02*
X85315000Y-60986000D01*
X82833000Y-60986000D02*
X80149000Y-60986000D01*
X87966000Y-61026000D02*
X85315000Y-61026000D01*
X82833000Y-61026000D02*
X80182000Y-61026000D01*
X87932000Y-61066000D02*
X85315000Y-61066000D01*
X82833000Y-61066000D02*
X80216000Y-61066000D01*
X87898000Y-61106000D02*
X85315000Y-61106000D01*
X82833000Y-61106000D02*
X80250000Y-61106000D01*
X87863000Y-61146000D02*
X85315000Y-61146000D01*
X82833000Y-61146000D02*
X80285000Y-61146000D01*
X87827000Y-61186000D02*
X85315000Y-61186000D01*
X82833000Y-61186000D02*
X80321000Y-61186000D01*
X87790000Y-61226000D02*
X85315000Y-61226000D01*
X82833000Y-61226000D02*
X80358000Y-61226000D01*
X87753000Y-61266000D02*
X85315000Y-61266000D01*
X82833000Y-61266000D02*
X80395000Y-61266000D01*
X87714000Y-61306000D02*
X85315000Y-61306000D01*
X82833000Y-61306000D02*
X80434000Y-61306000D01*
X87675000Y-61346000D02*
X85315000Y-61346000D01*
X82833000Y-61346000D02*
X80473000Y-61346000D01*
X87635000Y-61386000D02*
X85315000Y-61386000D01*
X82833000Y-61386000D02*
X80513000Y-61386000D01*
X87594000Y-61426000D02*
X85315000Y-61426000D01*
X82833000Y-61426000D02*
X80554000Y-61426000D01*
X87552000Y-61466000D02*
X85315000Y-61466000D01*
X82833000Y-61466000D02*
X80596000Y-61466000D01*
X87510000Y-61506000D02*
X80638000Y-61506000D01*
X87466000Y-61546000D02*
X80682000Y-61546000D01*
X87421000Y-61586000D02*
X80727000Y-61586000D01*
X87375000Y-61626000D02*
X80773000Y-61626000D01*
X87328000Y-61666000D02*
X80820000Y-61666000D01*
X87280000Y-61706000D02*
X80868000Y-61706000D01*
X87230000Y-61746000D02*
X80918000Y-61746000D01*
X87180000Y-61786000D02*
X80968000Y-61786000D01*
X87128000Y-61826000D02*
X81020000Y-61826000D01*
X87074000Y-61866000D02*
X81074000Y-61866000D01*
X87019000Y-61906000D02*
X81129000Y-61906000D01*
X86963000Y-61946000D02*
X81185000Y-61946000D01*
X86904000Y-61986000D02*
X81244000Y-61986000D01*
X86844000Y-62026000D02*
X81304000Y-62026000D01*
X86783000Y-62066000D02*
X81365000Y-62066000D01*
X86719000Y-62106000D02*
X81429000Y-62106000D01*
X86653000Y-62146000D02*
X81495000Y-62146000D01*
X86584000Y-62186000D02*
X81564000Y-62186000D01*
X86513000Y-62226000D02*
X81635000Y-62226000D01*
X86439000Y-62266000D02*
X81709000Y-62266000D01*
X86363000Y-62306000D02*
X81785000Y-62306000D01*
X86283000Y-62346000D02*
X81865000Y-62346000D01*
X86199000Y-62386000D02*
X81949000Y-62386000D01*
X86111000Y-62426000D02*
X82037000Y-62426000D01*
X86018000Y-62466000D02*
X82130000Y-62466000D01*
X85920000Y-62506000D02*
X82228000Y-62506000D01*
X85816000Y-62546000D02*
X82332000Y-62546000D01*
X85704000Y-62586000D02*
X82444000Y-62586000D01*
X85584000Y-62626000D02*
X82564000Y-62626000D01*
X85452000Y-62666000D02*
X82696000Y-62666000D01*
X85304000Y-62706000D02*
X82844000Y-62706000D01*
X85136000Y-62746000D02*
X83012000Y-62746000D01*
X84936000Y-62786000D02*
X83212000Y-62786000D01*
X84673000Y-62826000D02*
X83475000Y-62826000D01*
X86949000Y-52265354D02*
X86949000Y-53265354D01*
X87449000Y-52765354D02*
X86449000Y-52765354D01*
X83785000Y-81588000D02*
X83785000Y-84528000D01*
X84025000Y-81588000D02*
X84025000Y-84528000D01*
X83905000Y-81588000D02*
X83905000Y-84528000D01*
X89465000Y-83058000D02*
X88445000Y-83058000D01*
X81985000Y-83058000D02*
X83005000Y-83058000D01*
X88445000Y-81588000D02*
X83005000Y-81588000D01*
X88445000Y-84528000D02*
X88445000Y-81588000D01*
X83005000Y-84528000D02*
X88445000Y-84528000D01*
X83005000Y-81588000D02*
X83005000Y-84528000D01*
X82878000Y-76762000D02*
X82878000Y-79702000D01*
X82878000Y-79702000D02*
X88318000Y-79702000D01*
X88318000Y-79702000D02*
X88318000Y-76762000D01*
X88318000Y-76762000D02*
X82878000Y-76762000D01*
X81858000Y-78232000D02*
X82878000Y-78232000D01*
X89338000Y-78232000D02*
X88318000Y-78232000D01*
X83778000Y-76762000D02*
X83778000Y-79702000D01*
X83898000Y-76762000D02*
X83898000Y-79702000D01*
X83658000Y-76762000D02*
X83658000Y-79702000D01*
X83005000Y-86033000D02*
X83005000Y-88973000D01*
X83005000Y-88973000D02*
X88445000Y-88973000D01*
X88445000Y-88973000D02*
X88445000Y-86033000D01*
X88445000Y-86033000D02*
X83005000Y-86033000D01*
X81985000Y-87503000D02*
X83005000Y-87503000D01*
X89465000Y-87503000D02*
X88445000Y-87503000D01*
X83905000Y-86033000D02*
X83905000Y-88973000D01*
X84025000Y-86033000D02*
X84025000Y-88973000D01*
X83785000Y-86033000D02*
X83785000Y-88973000D01*
X83785000Y-71682000D02*
X83785000Y-74622000D01*
X84025000Y-71682000D02*
X84025000Y-74622000D01*
X83905000Y-71682000D02*
X83905000Y-74622000D01*
X89465000Y-73152000D02*
X88445000Y-73152000D01*
X81985000Y-73152000D02*
X83005000Y-73152000D01*
X88445000Y-71682000D02*
X83005000Y-71682000D01*
X88445000Y-74622000D02*
X88445000Y-71682000D01*
X83005000Y-74622000D02*
X88445000Y-74622000D01*
X83005000Y-71682000D02*
X83005000Y-74622000D01*
X100097000Y-63480000D02*
X97007000Y-63480000D01*
X101052000Y-66040000D02*
G75*
G03X101052000Y-66040000I-2500000J0D01*
G01*
X98552462Y-69030000D02*
G75*
G02X97007170Y-63480000I-462J2990000D01*
G01*
X98551538Y-69030000D02*
G75*
G03X100096830Y-63480000I462J2990000D01*
G01*
X86490000Y-91410000D02*
X92550000Y-91410000D01*
X92550000Y-91410000D02*
X92550000Y-94220000D01*
X92550000Y-98820000D02*
X92550000Y-101630000D01*
X92550000Y-101630000D02*
X86490000Y-101630000D01*
X82390000Y-101630000D02*
X79330000Y-101630000D01*
X79330000Y-101630000D02*
X79330000Y-91410000D01*
X79330000Y-91410000D02*
X82390000Y-91410000D01*
X92740000Y-95520000D02*
X92740000Y-97520000D01*
X101540000Y-53280000D02*
X102870000Y-53280000D01*
X101540000Y-54610000D02*
X101540000Y-53280000D01*
X104140000Y-53280000D02*
X106740000Y-53280000D01*
X104140000Y-55880000D02*
X104140000Y-53280000D01*
X101540000Y-55880000D02*
X104140000Y-55880000D01*
X106740000Y-53280000D02*
X106740000Y-58480000D01*
X101540000Y-55880000D02*
X101540000Y-58480000D01*
X101540000Y-58480000D02*
X106740000Y-58480000D01*
X94210000Y-101060000D02*
X93880000Y-101060000D01*
X93880000Y-101060000D02*
X93880000Y-94520000D01*
X93880000Y-94520000D02*
X94210000Y-94520000D01*
X96290000Y-101060000D02*
X96620000Y-101060000D01*
X96620000Y-101060000D02*
X96620000Y-94520000D01*
X96620000Y-94520000D02*
X96290000Y-94520000D01*
X79081000Y-64167000D02*
X89321000Y-64167000D01*
X79081000Y-68808000D02*
X89321000Y-68808000D01*
X79081000Y-64167000D02*
X79081000Y-68808000D01*
X89321000Y-64167000D02*
X89321000Y-68808000D01*
X79081000Y-65677000D02*
X89321000Y-65677000D01*
X82351000Y-64167000D02*
X82351000Y-65677000D01*
X86052000Y-64167000D02*
X86052000Y-65677000D01*
D10*
X94744980Y-63869866D02*
X94268790Y-64203200D01*
X94744980Y-64441295D02*
X93744980Y-64441295D01*
X93744980Y-64060342D01*
X93792600Y-63965104D01*
X93840219Y-63917485D01*
X93935457Y-63869866D01*
X94078314Y-63869866D01*
X94173552Y-63917485D01*
X94221171Y-63965104D01*
X94268790Y-64060342D01*
X94268790Y-64441295D01*
X94744980Y-62917485D02*
X94744980Y-63488914D01*
X94744980Y-63203200D02*
X93744980Y-63203200D01*
X93887838Y-63298438D01*
X93983076Y-63393676D01*
X94030695Y-63488914D01*
X90638333Y-54332142D02*
X90590714Y-54379761D01*
X90447857Y-54427380D01*
X90352619Y-54427380D01*
X90209761Y-54379761D01*
X90114523Y-54284523D01*
X90066904Y-54189285D01*
X90019285Y-53998809D01*
X90019285Y-53855952D01*
X90066904Y-53665476D01*
X90114523Y-53570238D01*
X90209761Y-53475000D01*
X90352619Y-53427380D01*
X90447857Y-53427380D01*
X90590714Y-53475000D01*
X90638333Y-53522619D01*
X91019285Y-53522619D02*
X91066904Y-53475000D01*
X91162142Y-53427380D01*
X91400238Y-53427380D01*
X91495476Y-53475000D01*
X91543095Y-53522619D01*
X91590714Y-53617857D01*
X91590714Y-53713095D01*
X91543095Y-53855952D01*
X90971666Y-54427380D01*
X91590714Y-54427380D01*
X93974761Y-78613333D02*
X94022380Y-78470476D01*
X94022380Y-78232380D01*
X93974761Y-78137142D01*
X93927142Y-78089523D01*
X93831904Y-78041904D01*
X93736666Y-78041904D01*
X93641428Y-78089523D01*
X93593809Y-78137142D01*
X93546190Y-78232380D01*
X93498571Y-78422857D01*
X93450952Y-78518095D01*
X93403333Y-78565714D01*
X93308095Y-78613333D01*
X93212857Y-78613333D01*
X93117619Y-78565714D01*
X93070000Y-78518095D01*
X93022380Y-78422857D01*
X93022380Y-78184761D01*
X93070000Y-78041904D01*
X93022380Y-77708571D02*
X94022380Y-77470476D01*
X93308095Y-77280000D01*
X94022380Y-77089523D01*
X93022380Y-76851428D01*
X94022380Y-75946666D02*
X94022380Y-76518095D01*
X94022380Y-76232380D02*
X93022380Y-76232380D01*
X93165238Y-76327619D01*
X93260476Y-76422857D01*
X93308095Y-76518095D01*
X95171380Y-89765095D02*
X94171380Y-89765095D01*
X94171380Y-89527000D01*
X94219000Y-89384142D01*
X94314238Y-89288904D01*
X94409476Y-89241285D01*
X94599952Y-89193666D01*
X94742809Y-89193666D01*
X94933285Y-89241285D01*
X95028523Y-89288904D01*
X95123761Y-89384142D01*
X95171380Y-89527000D01*
X95171380Y-89765095D01*
X94171380Y-88336523D02*
X94171380Y-88527000D01*
X94219000Y-88622238D01*
X94266619Y-88669857D01*
X94409476Y-88765095D01*
X94599952Y-88812714D01*
X94980904Y-88812714D01*
X95076142Y-88765095D01*
X95123761Y-88717476D01*
X95171380Y-88622238D01*
X95171380Y-88431761D01*
X95123761Y-88336523D01*
X95076142Y-88288904D01*
X94980904Y-88241285D01*
X94742809Y-88241285D01*
X94647571Y-88288904D01*
X94599952Y-88336523D01*
X94552333Y-88431761D01*
X94552333Y-88622238D01*
X94599952Y-88717476D01*
X94647571Y-88765095D01*
X94742809Y-88812714D01*
X101292066Y-99807780D02*
X101292066Y-100522066D01*
X101244447Y-100664923D01*
X101149209Y-100760161D01*
X101006352Y-100807780D01*
X100911114Y-100807780D01*
X101720638Y-99903019D02*
X101768257Y-99855400D01*
X101863495Y-99807780D01*
X102101590Y-99807780D01*
X102196828Y-99855400D01*
X102244447Y-99903019D01*
X102292066Y-99998257D01*
X102292066Y-100093495D01*
X102244447Y-100236352D01*
X101673019Y-100807780D01*
X102292066Y-100807780D01*
X80367142Y-53506666D02*
X80414761Y-53554285D01*
X80462380Y-53697142D01*
X80462380Y-53792380D01*
X80414761Y-53935238D01*
X80319523Y-54030476D01*
X80224285Y-54078095D01*
X80033809Y-54125714D01*
X79890952Y-54125714D01*
X79700476Y-54078095D01*
X79605238Y-54030476D01*
X79510000Y-53935238D01*
X79462380Y-53792380D01*
X79462380Y-53697142D01*
X79510000Y-53554285D01*
X79557619Y-53506666D01*
X80462380Y-52554285D02*
X80462380Y-53125714D01*
X80462380Y-52840000D02*
X79462380Y-52840000D01*
X79605238Y-52935238D01*
X79700476Y-53030476D01*
X79748095Y-53125714D01*
X84986904Y-81040380D02*
X84986904Y-80040380D01*
X85225000Y-80040380D01*
X85367857Y-80088000D01*
X85463095Y-80183238D01*
X85510714Y-80278476D01*
X85558333Y-80468952D01*
X85558333Y-80611809D01*
X85510714Y-80802285D01*
X85463095Y-80897523D01*
X85367857Y-80992761D01*
X85225000Y-81040380D01*
X84986904Y-81040380D01*
X86510714Y-81040380D02*
X85939285Y-81040380D01*
X86225000Y-81040380D02*
X86225000Y-80040380D01*
X86129761Y-80183238D01*
X86034523Y-80278476D01*
X85939285Y-80326095D01*
X80383095Y-81410380D02*
X80383095Y-80410380D01*
X80954523Y-81410380D02*
X80525952Y-80838952D01*
X80954523Y-80410380D02*
X80383095Y-80981809D01*
X84859904Y-76214380D02*
X84859904Y-75214380D01*
X85098000Y-75214380D01*
X85240857Y-75262000D01*
X85336095Y-75357238D01*
X85383714Y-75452476D01*
X85431333Y-75642952D01*
X85431333Y-75785809D01*
X85383714Y-75976285D01*
X85336095Y-76071523D01*
X85240857Y-76166761D01*
X85098000Y-76214380D01*
X84859904Y-76214380D01*
X85812285Y-75309619D02*
X85859904Y-75262000D01*
X85955142Y-75214380D01*
X86193238Y-75214380D01*
X86288476Y-75262000D01*
X86336095Y-75309619D01*
X86383714Y-75404857D01*
X86383714Y-75500095D01*
X86336095Y-75642952D01*
X85764666Y-76214380D01*
X86383714Y-76214380D01*
X80256095Y-76584380D02*
X80256095Y-75584380D01*
X80827523Y-76584380D02*
X80398952Y-76012952D01*
X80827523Y-75584380D02*
X80256095Y-76155809D01*
X84986904Y-85485380D02*
X84986904Y-84485380D01*
X85225000Y-84485380D01*
X85367857Y-84533000D01*
X85463095Y-84628238D01*
X85510714Y-84723476D01*
X85558333Y-84913952D01*
X85558333Y-85056809D01*
X85510714Y-85247285D01*
X85463095Y-85342523D01*
X85367857Y-85437761D01*
X85225000Y-85485380D01*
X84986904Y-85485380D01*
X85891666Y-84485380D02*
X86510714Y-84485380D01*
X86177380Y-84866333D01*
X86320238Y-84866333D01*
X86415476Y-84913952D01*
X86463095Y-84961571D01*
X86510714Y-85056809D01*
X86510714Y-85294904D01*
X86463095Y-85390142D01*
X86415476Y-85437761D01*
X86320238Y-85485380D01*
X86034523Y-85485380D01*
X85939285Y-85437761D01*
X85891666Y-85390142D01*
X80383095Y-85855380D02*
X80383095Y-84855380D01*
X80954523Y-85855380D02*
X80525952Y-85283952D01*
X80954523Y-84855380D02*
X80383095Y-85426809D01*
X84986904Y-71134380D02*
X84986904Y-70134380D01*
X85225000Y-70134380D01*
X85367857Y-70182000D01*
X85463095Y-70277238D01*
X85510714Y-70372476D01*
X85558333Y-70562952D01*
X85558333Y-70705809D01*
X85510714Y-70896285D01*
X85463095Y-70991523D01*
X85367857Y-71086761D01*
X85225000Y-71134380D01*
X84986904Y-71134380D01*
X86415476Y-70467714D02*
X86415476Y-71134380D01*
X86177380Y-70086761D02*
X85939285Y-70801047D01*
X86558333Y-70801047D01*
X80383095Y-71504380D02*
X80383095Y-70504380D01*
X80954523Y-71504380D02*
X80525952Y-70932952D01*
X80954523Y-70504380D02*
X80383095Y-71075809D01*
X96184980Y-62917295D02*
X95184980Y-62917295D01*
X95184980Y-62679200D01*
X95232600Y-62536342D01*
X95327838Y-62441104D01*
X95423076Y-62393485D01*
X95613552Y-62345866D01*
X95756409Y-62345866D01*
X95946885Y-62393485D01*
X96042123Y-62441104D01*
X96137361Y-62536342D01*
X96184980Y-62679200D01*
X96184980Y-62917295D01*
X95184980Y-61441104D02*
X95184980Y-61917295D01*
X95661171Y-61964914D01*
X95613552Y-61917295D01*
X95565933Y-61822057D01*
X95565933Y-61583961D01*
X95613552Y-61488723D01*
X95661171Y-61441104D01*
X95756409Y-61393485D01*
X95994504Y-61393485D01*
X96089742Y-61441104D01*
X96137361Y-61488723D01*
X96184980Y-61583961D01*
X96184980Y-61822057D01*
X96137361Y-61917295D01*
X96089742Y-61964914D01*
X93192380Y-96853333D02*
X93906666Y-96853333D01*
X94049523Y-96900952D01*
X94144761Y-96996190D01*
X94192380Y-97139047D01*
X94192380Y-97234285D01*
X94192380Y-95853333D02*
X94192380Y-96424761D01*
X94192380Y-96139047D02*
X93192380Y-96139047D01*
X93335238Y-96234285D01*
X93430476Y-96329523D01*
X93478095Y-96424761D01*
X103592380Y-52613333D02*
X104306666Y-52613333D01*
X104449523Y-52660952D01*
X104544761Y-52756190D01*
X104592380Y-52899047D01*
X104592380Y-52994285D01*
X103592380Y-52232380D02*
X103592380Y-51613333D01*
X103973333Y-51946666D01*
X103973333Y-51803809D01*
X104020952Y-51708571D01*
X104068571Y-51660952D01*
X104163809Y-51613333D01*
X104401904Y-51613333D01*
X104497142Y-51660952D01*
X104544761Y-51708571D01*
X104592380Y-51803809D01*
X104592380Y-52089523D01*
X104544761Y-52184761D01*
X104497142Y-52232380D01*
X93332380Y-97956666D02*
X92856190Y-98290000D01*
X93332380Y-98528095D02*
X92332380Y-98528095D01*
X92332380Y-98147142D01*
X92380000Y-98051904D01*
X92427619Y-98004285D01*
X92522857Y-97956666D01*
X92665714Y-97956666D01*
X92760952Y-98004285D01*
X92808571Y-98051904D01*
X92856190Y-98147142D01*
X92856190Y-98528095D01*
X92427619Y-97575714D02*
X92380000Y-97528095D01*
X92332380Y-97432857D01*
X92332380Y-97194761D01*
X92380000Y-97099523D01*
X92427619Y-97051904D01*
X92522857Y-97004285D01*
X92618095Y-97004285D01*
X92760952Y-97051904D01*
X93332380Y-97623333D01*
X93332380Y-97004285D01*
X83439095Y-62619380D02*
X83439095Y-63428904D01*
X83486714Y-63524142D01*
X83534333Y-63571761D01*
X83629571Y-63619380D01*
X83820047Y-63619380D01*
X83915285Y-63571761D01*
X83962904Y-63524142D01*
X84010523Y-63428904D01*
X84010523Y-62619380D01*
X85010523Y-63619380D02*
X84439095Y-63619380D01*
X84724809Y-63619380D02*
X84724809Y-62619380D01*
X84629571Y-62762238D01*
X84534333Y-62857476D01*
X84439095Y-62905095D01*
M02*
