G04 #@! TF.GenerationSoftware,KiCad,Pcbnew,(5.1.5)-3*
G04 #@! TF.CreationDate,2020-11-06T17:50:15+03:00*
G04 #@! TF.ProjectId,P_supply,505f7375-7070-46c7-992e-6b696361645f,rev?*
G04 #@! TF.SameCoordinates,Original*
G04 #@! TF.FileFunction,Copper,L1,Top*
G04 #@! TF.FilePolarity,Positive*
%FSLAX46Y46*%
G04 Gerber Fmt 4.6, Leading zero omitted, Abs format (unit mm)*
G04 Created by KiCad (PCBNEW (5.1.5)-3) date 2020-11-06 17:50:15*
%MOMM*%
%LPD*%
G04 APERTURE LIST*
%ADD10O,1.600000X1.600000*%
%ADD11C,1.600000*%
%ADD12R,1.600000X1.600000*%
%ADD13C,2.000000*%
%ADD14C,1.700000*%
%ADD15R,1.800000X1.800000*%
%ADD16C,1.800000*%
%ADD17R,1.700000X1.700000*%
%ADD18O,1.700000X1.700000*%
%ADD19R,2.000000X2.000000*%
%ADD20O,2.200000X2.200000*%
%ADD21R,2.200000X2.200000*%
%ADD22R,2.000000X4.000000*%
%ADD23O,2.000000X3.300000*%
%ADD24O,3.500000X2.000000*%
%ADD25R,1.905000X2.000000*%
%ADD26O,1.905000X2.000000*%
%ADD27C,0.250000*%
G04 APERTURE END LIST*
D10*
X91922600Y-67513200D03*
D11*
X91922600Y-59893200D03*
D12*
X94361000Y-56007000D03*
D11*
X96861000Y-56007000D03*
D13*
X94770000Y-83280000D03*
X94770000Y-71280000D03*
X100770000Y-71280000D03*
X100770000Y-83280000D03*
D14*
X96520000Y-81280000D03*
X96520000Y-77280000D03*
X96520000Y-73280000D03*
D15*
X98679000Y-91567000D03*
D16*
X98679000Y-89027000D03*
X98679000Y-86487000D03*
D17*
X104013000Y-99568000D03*
D18*
X106553000Y-99568000D03*
X104013000Y-102108000D03*
X106553000Y-102108000D03*
D19*
X84074000Y-55245000D03*
D13*
X84074000Y-60245000D03*
D20*
X90805000Y-83058000D03*
D21*
X80645000Y-83058000D03*
X80518000Y-78232000D03*
D20*
X90678000Y-78232000D03*
D21*
X80645000Y-87503000D03*
D20*
X90805000Y-87503000D03*
X90805000Y-73152000D03*
D21*
X80645000Y-73152000D03*
D16*
X98552000Y-67310000D03*
D15*
X98552000Y-64770000D03*
D22*
X91440000Y-96520000D03*
D23*
X85440000Y-96520000D03*
D24*
X84440000Y-92020000D03*
X84440000Y-101020000D03*
D18*
X105410000Y-57150000D03*
X102870000Y-57150000D03*
X105410000Y-54610000D03*
D17*
X102870000Y-54610000D03*
D11*
X95250000Y-101600000D03*
D10*
X95250000Y-93980000D03*
D25*
X81661000Y-67437000D03*
D26*
X84201000Y-67437000D03*
X86741000Y-67437000D03*
D27*
X81661000Y-56408000D02*
X81661000Y-67437000D01*
X84074000Y-55245000D02*
X82824000Y-55245000D01*
X82824000Y-55245000D02*
X81661000Y-56408000D01*
X79295000Y-83058000D02*
X80645000Y-83058000D01*
X79092999Y-82855999D02*
X79295000Y-83058000D01*
X79092999Y-68802501D02*
X79092999Y-82855999D01*
X80458500Y-67437000D02*
X79092999Y-68802501D01*
X81661000Y-67437000D02*
X80458500Y-67437000D01*
X80645000Y-83058000D02*
X80645000Y-87503000D01*
X98425000Y-72517000D02*
X98425000Y-75375000D01*
X95123000Y-69215000D02*
X98425000Y-72517000D01*
X98425000Y-75375000D02*
X96520000Y-77280000D01*
X86741000Y-67437000D02*
X88519000Y-69215000D01*
X88519000Y-69215000D02*
X95123000Y-69215000D01*
X80645000Y-78105000D02*
X80518000Y-78232000D01*
X81868000Y-78232000D02*
X81995000Y-78105000D01*
X80518000Y-78232000D02*
X81868000Y-78232000D01*
X85852000Y-78105000D02*
X90805000Y-83058000D01*
X81995000Y-78105000D02*
X85852000Y-78105000D01*
X92430600Y-94529400D02*
X92430600Y-84683600D01*
X91904999Y-84157999D02*
X90805000Y-83058000D01*
X92430600Y-84683600D02*
X91904999Y-84157999D01*
X91440000Y-96520000D02*
X91440000Y-95520000D01*
X91440000Y-95520000D02*
X92430600Y-94529400D01*
X98348800Y-67513200D02*
X98552000Y-67310000D01*
X91922600Y-67513200D02*
X98348800Y-67513200D01*
X95250000Y-92848630D02*
X94615000Y-92213630D01*
X95250000Y-93980000D02*
X95250000Y-92848630D01*
X94615000Y-92213630D02*
X94615000Y-90170000D01*
X95758000Y-89027000D02*
X98679000Y-89027000D01*
X94615000Y-90170000D02*
X95758000Y-89027000D01*
X100330000Y-96985000D02*
X100330000Y-85725000D01*
X100330000Y-85725000D02*
X96520000Y-81915000D01*
X104013000Y-99568000D02*
X102913000Y-99568000D01*
X96520000Y-81915000D02*
X96520000Y-81280000D01*
X96520000Y-81280000D02*
X96520000Y-80077919D01*
X99060000Y-77537919D02*
X99060000Y-69850000D01*
X96520000Y-80077919D02*
X99060000Y-77537919D01*
X101600000Y-67310000D02*
X101600000Y-58336000D01*
X99060000Y-69850000D02*
X101600000Y-67310000D01*
X98563630Y-97155000D02*
X100330000Y-97155000D01*
X95250000Y-101600000D02*
X95250000Y-100468630D01*
X102913000Y-99568000D02*
X100330000Y-97155000D01*
X95250000Y-100468630D02*
X98563630Y-97155000D01*
X100330000Y-97155000D02*
X100330000Y-96985000D01*
X101600000Y-58336000D02*
X100246000Y-58336000D01*
X100246000Y-58336000D02*
X99695000Y-57785000D01*
X99695000Y-57785000D02*
X99695000Y-55880000D01*
X100965000Y-54610000D02*
X102870000Y-54610000D01*
X99695000Y-55880000D02*
X100965000Y-54610000D01*
X102870000Y-54610000D02*
X105410000Y-54610000D01*
X104013000Y-99568000D02*
X106553000Y-99568000D01*
X85440000Y-96520000D02*
X85440000Y-94620000D01*
X90830100Y-87953010D02*
X90991400Y-87953010D01*
X90991400Y-87953010D02*
X91123205Y-87821205D01*
X85440000Y-94620000D02*
X90830100Y-89229900D01*
X90805000Y-88696800D02*
X91008200Y-88900000D01*
X90805000Y-87503000D02*
X90805000Y-88696800D01*
X90830100Y-89229900D02*
X91008200Y-88900000D01*
X91008200Y-88900000D02*
X91123205Y-88936795D01*
M02*
