G04 #@! TF.GenerationSoftware,KiCad,Pcbnew,(5.1.5)-3*
G04 #@! TF.CreationDate,2020-11-06T17:50:15+03:00*
G04 #@! TF.ProjectId,P_supply,505f7375-7070-46c7-992e-6b696361645f,rev?*
G04 #@! TF.SameCoordinates,Original*
G04 #@! TF.FileFunction,Legend,Bot*
G04 #@! TF.FilePolarity,Positive*
%FSLAX46Y46*%
G04 Gerber Fmt 4.6, Leading zero omitted, Abs format (unit mm)*
G04 Created by KiCad (PCBNEW (5.1.5)-3) date 2020-11-06 17:50:15*
%MOMM*%
%LPD*%
G04 APERTURE LIST*
%ADD10C,0.300000*%
%ADD11C,0.250000*%
%ADD12C,0.200000*%
%ADD13C,0.010000*%
G04 APERTURE END LIST*
D10*
X80895000Y-53733571D02*
X80895000Y-54447857D01*
X81323571Y-53590714D02*
X79823571Y-54090714D01*
X81323571Y-54590714D01*
X81323571Y-55090714D02*
X80323571Y-55090714D01*
X80609285Y-55090714D02*
X80466428Y-55162142D01*
X80395000Y-55233571D01*
X80323571Y-55376428D01*
X80323571Y-55519285D01*
X81323571Y-56233571D02*
X81252142Y-56090714D01*
X81180714Y-56019285D01*
X81037857Y-55947857D01*
X80609285Y-55947857D01*
X80466428Y-56019285D01*
X80395000Y-56090714D01*
X80323571Y-56233571D01*
X80323571Y-56447857D01*
X80395000Y-56590714D01*
X80466428Y-56662142D01*
X80609285Y-56733571D01*
X81037857Y-56733571D01*
X81180714Y-56662142D01*
X81252142Y-56590714D01*
X81323571Y-56447857D01*
X81323571Y-56233571D01*
X80323571Y-57376428D02*
X81323571Y-57376428D01*
X80466428Y-57376428D02*
X80395000Y-57447857D01*
X80323571Y-57590714D01*
X80323571Y-57805000D01*
X80395000Y-57947857D01*
X80537857Y-58019285D01*
X81323571Y-58019285D01*
X80895000Y-59805000D02*
X80895000Y-60519285D01*
X81323571Y-59662142D02*
X79823571Y-60162142D01*
X81323571Y-60662142D01*
X80323571Y-61019285D02*
X81323571Y-61376428D01*
X80323571Y-61733571D02*
X81323571Y-61376428D01*
X81680714Y-61233571D01*
X81752142Y-61162142D01*
X81823571Y-61019285D01*
X80323571Y-62947857D02*
X81323571Y-62947857D01*
X80323571Y-62305000D02*
X81109285Y-62305000D01*
X81252142Y-62376428D01*
X81323571Y-62519285D01*
X81323571Y-62733571D01*
X81252142Y-62876428D01*
X81180714Y-62947857D01*
X81323571Y-63662142D02*
X79823571Y-63662142D01*
X80395000Y-63662142D02*
X80323571Y-63805000D01*
X80323571Y-64090714D01*
X80395000Y-64233571D01*
X80466428Y-64305000D01*
X80609285Y-64376428D01*
X81037857Y-64376428D01*
X81180714Y-64305000D01*
X81252142Y-64233571D01*
X81323571Y-64090714D01*
X81323571Y-63805000D01*
X81252142Y-63662142D01*
D11*
X93114761Y-74557857D02*
X93162380Y-74462619D01*
X93162380Y-74272142D01*
X93114761Y-74176904D01*
X93019523Y-74129285D01*
X92638571Y-74129285D01*
X92543333Y-74176904D01*
X92495714Y-74272142D01*
X92495714Y-74462619D01*
X92543333Y-74557857D01*
X92638571Y-74605476D01*
X92733809Y-74605476D01*
X92829047Y-74129285D01*
X92495714Y-75034047D02*
X93162380Y-75034047D01*
X92590952Y-75034047D02*
X92543333Y-75081666D01*
X92495714Y-75176904D01*
X92495714Y-75319761D01*
X92543333Y-75415000D01*
X92638571Y-75462619D01*
X93162380Y-75462619D01*
X92495714Y-76367380D02*
X93305238Y-76367380D01*
X93400476Y-76319761D01*
X93448095Y-76272142D01*
X93495714Y-76176904D01*
X93495714Y-76034047D01*
X93448095Y-75938809D01*
X93114761Y-76367380D02*
X93162380Y-76272142D01*
X93162380Y-76081666D01*
X93114761Y-75986428D01*
X93067142Y-75938809D01*
X92971904Y-75891190D01*
X92686190Y-75891190D01*
X92590952Y-75938809D01*
X92543333Y-75986428D01*
X92495714Y-76081666D01*
X92495714Y-76272142D01*
X92543333Y-76367380D01*
X93162380Y-77272142D02*
X92638571Y-77272142D01*
X92543333Y-77224523D01*
X92495714Y-77129285D01*
X92495714Y-76938809D01*
X92543333Y-76843571D01*
X93114761Y-77272142D02*
X93162380Y-77176904D01*
X93162380Y-76938809D01*
X93114761Y-76843571D01*
X93019523Y-76795952D01*
X92924285Y-76795952D01*
X92829047Y-76843571D01*
X92781428Y-76938809D01*
X92781428Y-77176904D01*
X92733809Y-77272142D01*
X93162380Y-77748333D02*
X92495714Y-77748333D01*
X92686190Y-77748333D02*
X92590952Y-77795952D01*
X92543333Y-77843571D01*
X92495714Y-77938809D01*
X92495714Y-78034047D01*
X93162380Y-78510238D02*
X93114761Y-78415000D01*
X93067142Y-78367380D01*
X92971904Y-78319761D01*
X92686190Y-78319761D01*
X92590952Y-78367380D01*
X92543333Y-78415000D01*
X92495714Y-78510238D01*
X92495714Y-78653095D01*
X92543333Y-78748333D01*
X92590952Y-78795952D01*
X92686190Y-78843571D01*
X92971904Y-78843571D01*
X93067142Y-78795952D01*
X93114761Y-78748333D01*
X93162380Y-78653095D01*
X93162380Y-78510238D01*
X92495714Y-79272142D02*
X93162380Y-79272142D01*
X92590952Y-79272142D02*
X92543333Y-79319761D01*
X92495714Y-79415000D01*
X92495714Y-79557857D01*
X92543333Y-79653095D01*
X92638571Y-79700714D01*
X93162380Y-79700714D01*
X92590952Y-80319761D02*
X92543333Y-80224523D01*
X92495714Y-80176904D01*
X92400476Y-80129285D01*
X92352857Y-80129285D01*
X92257619Y-80176904D01*
X92210000Y-80224523D01*
X92162380Y-80319761D01*
X92162380Y-80510238D01*
X92210000Y-80605476D01*
X92257619Y-80653095D01*
X92352857Y-80700714D01*
X92400476Y-80700714D01*
X92495714Y-80653095D01*
X92543333Y-80605476D01*
X92590952Y-80510238D01*
X92590952Y-80319761D01*
X92638571Y-80224523D01*
X92686190Y-80176904D01*
X92781428Y-80129285D01*
X92971904Y-80129285D01*
X93067142Y-80176904D01*
X93114761Y-80224523D01*
X93162380Y-80319761D01*
X93162380Y-80510238D01*
X93114761Y-80605476D01*
X93067142Y-80653095D01*
X92971904Y-80700714D01*
X92781428Y-80700714D01*
X92686190Y-80653095D01*
X92638571Y-80605476D01*
X92590952Y-80510238D01*
X92686190Y-81748333D02*
X92638571Y-81700714D01*
X92590952Y-81605476D01*
X92590952Y-81510238D01*
X92638571Y-81415000D01*
X92686190Y-81367380D01*
X92781428Y-81319761D01*
X92876666Y-81319761D01*
X92971904Y-81367380D01*
X93019523Y-81415000D01*
X93067142Y-81510238D01*
X93067142Y-81605476D01*
X93019523Y-81700714D01*
X92971904Y-81748333D01*
X92590952Y-81748333D02*
X92971904Y-81748333D01*
X93019523Y-81795952D01*
X93019523Y-81843571D01*
X92971904Y-81938809D01*
X92876666Y-81986428D01*
X92638571Y-81986428D01*
X92495714Y-81891190D01*
X92400476Y-81748333D01*
X92352857Y-81557857D01*
X92400476Y-81367380D01*
X92495714Y-81224523D01*
X92638571Y-81129285D01*
X92829047Y-81081666D01*
X93019523Y-81129285D01*
X93162380Y-81224523D01*
X93257619Y-81367380D01*
X93305238Y-81557857D01*
X93257619Y-81748333D01*
X93162380Y-81891190D01*
X92495714Y-82843571D02*
X93305238Y-82843571D01*
X93400476Y-82795952D01*
X93448095Y-82748333D01*
X93495714Y-82653095D01*
X93495714Y-82510238D01*
X93448095Y-82415000D01*
X93114761Y-82843571D02*
X93162380Y-82748333D01*
X93162380Y-82557857D01*
X93114761Y-82462619D01*
X93067142Y-82415000D01*
X92971904Y-82367380D01*
X92686190Y-82367380D01*
X92590952Y-82415000D01*
X92543333Y-82462619D01*
X92495714Y-82557857D01*
X92495714Y-82748333D01*
X92543333Y-82843571D01*
X93162380Y-83319761D02*
X92495714Y-83319761D01*
X92590952Y-83319761D02*
X92543333Y-83367380D01*
X92495714Y-83462619D01*
X92495714Y-83605476D01*
X92543333Y-83700714D01*
X92638571Y-83748333D01*
X93162380Y-83748333D01*
X92638571Y-83748333D02*
X92543333Y-83795952D01*
X92495714Y-83891190D01*
X92495714Y-84034047D01*
X92543333Y-84129285D01*
X92638571Y-84176904D01*
X93162380Y-84176904D01*
X93162380Y-85081666D02*
X92638571Y-85081666D01*
X92543333Y-85034047D01*
X92495714Y-84938809D01*
X92495714Y-84748333D01*
X92543333Y-84653095D01*
X93114761Y-85081666D02*
X93162380Y-84986428D01*
X93162380Y-84748333D01*
X93114761Y-84653095D01*
X93019523Y-84605476D01*
X92924285Y-84605476D01*
X92829047Y-84653095D01*
X92781428Y-84748333D01*
X92781428Y-84986428D01*
X92733809Y-85081666D01*
X93162380Y-85557857D02*
X92495714Y-85557857D01*
X92162380Y-85557857D02*
X92210000Y-85510238D01*
X92257619Y-85557857D01*
X92210000Y-85605476D01*
X92162380Y-85557857D01*
X92257619Y-85557857D01*
X93162380Y-86176904D02*
X93114761Y-86081666D01*
X93019523Y-86034047D01*
X92162380Y-86034047D01*
X93067142Y-86557857D02*
X93114761Y-86605476D01*
X93162380Y-86557857D01*
X93114761Y-86510238D01*
X93067142Y-86557857D01*
X93162380Y-86557857D01*
X93114761Y-87462619D02*
X93162380Y-87367380D01*
X93162380Y-87176904D01*
X93114761Y-87081666D01*
X93067142Y-87034047D01*
X92971904Y-86986428D01*
X92686190Y-86986428D01*
X92590952Y-87034047D01*
X92543333Y-87081666D01*
X92495714Y-87176904D01*
X92495714Y-87367380D01*
X92543333Y-87462619D01*
X93162380Y-88034047D02*
X93114761Y-87938809D01*
X93067142Y-87891190D01*
X92971904Y-87843571D01*
X92686190Y-87843571D01*
X92590952Y-87891190D01*
X92543333Y-87938809D01*
X92495714Y-88034047D01*
X92495714Y-88176904D01*
X92543333Y-88272142D01*
X92590952Y-88319761D01*
X92686190Y-88367380D01*
X92971904Y-88367380D01*
X93067142Y-88319761D01*
X93114761Y-88272142D01*
X93162380Y-88176904D01*
X93162380Y-88034047D01*
X93162380Y-88795952D02*
X92495714Y-88795952D01*
X92590952Y-88795952D02*
X92543333Y-88843571D01*
X92495714Y-88938809D01*
X92495714Y-89081666D01*
X92543333Y-89176904D01*
X92638571Y-89224523D01*
X93162380Y-89224523D01*
X92638571Y-89224523D02*
X92543333Y-89272142D01*
X92495714Y-89367380D01*
X92495714Y-89510238D01*
X92543333Y-89605476D01*
X92638571Y-89653095D01*
X93162380Y-89653095D01*
D12*
X79088571Y-94025714D02*
X79136190Y-94168571D01*
X79183809Y-94216190D01*
X79279047Y-94263809D01*
X79421904Y-94263809D01*
X79517142Y-94216190D01*
X79564761Y-94168571D01*
X79612380Y-94073333D01*
X79612380Y-93692380D01*
X78612380Y-93692380D01*
X78612380Y-94025714D01*
X78660000Y-94120952D01*
X78707619Y-94168571D01*
X78802857Y-94216190D01*
X78898095Y-94216190D01*
X78993333Y-94168571D01*
X79040952Y-94120952D01*
X79088571Y-94025714D01*
X79088571Y-93692380D01*
X79612380Y-94692380D02*
X78945714Y-94692380D01*
X79136190Y-94692380D02*
X79040952Y-94740000D01*
X78993333Y-94787619D01*
X78945714Y-94882857D01*
X78945714Y-94978095D01*
X79564761Y-95692380D02*
X79612380Y-95597142D01*
X79612380Y-95406666D01*
X79564761Y-95311428D01*
X79469523Y-95263809D01*
X79088571Y-95263809D01*
X78993333Y-95311428D01*
X78945714Y-95406666D01*
X78945714Y-95597142D01*
X78993333Y-95692380D01*
X79088571Y-95740000D01*
X79183809Y-95740000D01*
X79279047Y-95263809D01*
X79612380Y-96597142D02*
X79088571Y-96597142D01*
X78993333Y-96549523D01*
X78945714Y-96454285D01*
X78945714Y-96263809D01*
X78993333Y-96168571D01*
X79564761Y-96597142D02*
X79612380Y-96501904D01*
X79612380Y-96263809D01*
X79564761Y-96168571D01*
X79469523Y-96120952D01*
X79374285Y-96120952D01*
X79279047Y-96168571D01*
X79231428Y-96263809D01*
X79231428Y-96501904D01*
X79183809Y-96597142D01*
X79612380Y-97501904D02*
X78612380Y-97501904D01*
X79564761Y-97501904D02*
X79612380Y-97406666D01*
X79612380Y-97216190D01*
X79564761Y-97120952D01*
X79517142Y-97073333D01*
X79421904Y-97025714D01*
X79136190Y-97025714D01*
X79040952Y-97073333D01*
X78993333Y-97120952D01*
X78945714Y-97216190D01*
X78945714Y-97406666D01*
X78993333Y-97501904D01*
X79612380Y-98740000D02*
X78612380Y-98740000D01*
X78993333Y-98740000D02*
X78945714Y-98835238D01*
X78945714Y-99025714D01*
X78993333Y-99120952D01*
X79040952Y-99168571D01*
X79136190Y-99216190D01*
X79421904Y-99216190D01*
X79517142Y-99168571D01*
X79564761Y-99120952D01*
X79612380Y-99025714D01*
X79612380Y-98835238D01*
X79564761Y-98740000D01*
X79612380Y-99787619D02*
X79564761Y-99692380D01*
X79517142Y-99644761D01*
X79421904Y-99597142D01*
X79136190Y-99597142D01*
X79040952Y-99644761D01*
X78993333Y-99692380D01*
X78945714Y-99787619D01*
X78945714Y-99930476D01*
X78993333Y-100025714D01*
X79040952Y-100073333D01*
X79136190Y-100120952D01*
X79421904Y-100120952D01*
X79517142Y-100073333D01*
X79564761Y-100025714D01*
X79612380Y-99930476D01*
X79612380Y-99787619D01*
X79612380Y-100978095D02*
X79088571Y-100978095D01*
X78993333Y-100930476D01*
X78945714Y-100835238D01*
X78945714Y-100644761D01*
X78993333Y-100549523D01*
X79564761Y-100978095D02*
X79612380Y-100882857D01*
X79612380Y-100644761D01*
X79564761Y-100549523D01*
X79469523Y-100501904D01*
X79374285Y-100501904D01*
X79279047Y-100549523D01*
X79231428Y-100644761D01*
X79231428Y-100882857D01*
X79183809Y-100978095D01*
X79612380Y-101454285D02*
X78945714Y-101454285D01*
X79136190Y-101454285D02*
X79040952Y-101501904D01*
X78993333Y-101549523D01*
X78945714Y-101644761D01*
X78945714Y-101740000D01*
X79612380Y-102501904D02*
X78612380Y-102501904D01*
X79564761Y-102501904D02*
X79612380Y-102406666D01*
X79612380Y-102216190D01*
X79564761Y-102120952D01*
X79517142Y-102073333D01*
X79421904Y-102025714D01*
X79136190Y-102025714D01*
X79040952Y-102073333D01*
X78993333Y-102120952D01*
X78945714Y-102216190D01*
X78945714Y-102406666D01*
X78993333Y-102501904D01*
X80645714Y-93073333D02*
X81645714Y-93073333D01*
X80693333Y-93073333D02*
X80645714Y-93168571D01*
X80645714Y-93359047D01*
X80693333Y-93454285D01*
X80740952Y-93501904D01*
X80836190Y-93549523D01*
X81121904Y-93549523D01*
X81217142Y-93501904D01*
X81264761Y-93454285D01*
X81312380Y-93359047D01*
X81312380Y-93168571D01*
X81264761Y-93073333D01*
X81312380Y-94120952D02*
X81264761Y-94025714D01*
X81217142Y-93978095D01*
X81121904Y-93930476D01*
X80836190Y-93930476D01*
X80740952Y-93978095D01*
X80693333Y-94025714D01*
X80645714Y-94120952D01*
X80645714Y-94263809D01*
X80693333Y-94359047D01*
X80740952Y-94406666D01*
X80836190Y-94454285D01*
X81121904Y-94454285D01*
X81217142Y-94406666D01*
X81264761Y-94359047D01*
X81312380Y-94263809D01*
X81312380Y-94120952D01*
X80645714Y-94787619D02*
X81312380Y-94978095D01*
X80836190Y-95168571D01*
X81312380Y-95359047D01*
X80645714Y-95549523D01*
X81264761Y-96311428D02*
X81312380Y-96216190D01*
X81312380Y-96025714D01*
X81264761Y-95930476D01*
X81169523Y-95882857D01*
X80788571Y-95882857D01*
X80693333Y-95930476D01*
X80645714Y-96025714D01*
X80645714Y-96216190D01*
X80693333Y-96311428D01*
X80788571Y-96359047D01*
X80883809Y-96359047D01*
X80979047Y-95882857D01*
X81312380Y-96787619D02*
X80645714Y-96787619D01*
X80836190Y-96787619D02*
X80740952Y-96835238D01*
X80693333Y-96882857D01*
X80645714Y-96978095D01*
X80645714Y-97073333D01*
X81264761Y-98120952D02*
X81312380Y-98216190D01*
X81312380Y-98406666D01*
X81264761Y-98501904D01*
X81169523Y-98549523D01*
X81121904Y-98549523D01*
X81026666Y-98501904D01*
X80979047Y-98406666D01*
X80979047Y-98263809D01*
X80931428Y-98168571D01*
X80836190Y-98120952D01*
X80788571Y-98120952D01*
X80693333Y-98168571D01*
X80645714Y-98263809D01*
X80645714Y-98406666D01*
X80693333Y-98501904D01*
X80645714Y-99406666D02*
X81312380Y-99406666D01*
X80645714Y-98978095D02*
X81169523Y-98978095D01*
X81264761Y-99025714D01*
X81312380Y-99120952D01*
X81312380Y-99263809D01*
X81264761Y-99359047D01*
X81217142Y-99406666D01*
X80645714Y-99882857D02*
X81645714Y-99882857D01*
X80693333Y-99882857D02*
X80645714Y-99978095D01*
X80645714Y-100168571D01*
X80693333Y-100263809D01*
X80740952Y-100311428D01*
X80836190Y-100359047D01*
X81121904Y-100359047D01*
X81217142Y-100311428D01*
X81264761Y-100263809D01*
X81312380Y-100168571D01*
X81312380Y-99978095D01*
X81264761Y-99882857D01*
X80645714Y-100787619D02*
X81645714Y-100787619D01*
X80693333Y-100787619D02*
X80645714Y-100882857D01*
X80645714Y-101073333D01*
X80693333Y-101168571D01*
X80740952Y-101216190D01*
X80836190Y-101263809D01*
X81121904Y-101263809D01*
X81217142Y-101216190D01*
X81264761Y-101168571D01*
X81312380Y-101073333D01*
X81312380Y-100882857D01*
X81264761Y-100787619D01*
X81312380Y-101835238D02*
X81264761Y-101740000D01*
X81169523Y-101692380D01*
X80312380Y-101692380D01*
X80645714Y-102120952D02*
X81312380Y-102359047D01*
X80645714Y-102597142D02*
X81312380Y-102359047D01*
X81550476Y-102263809D01*
X81598095Y-102216190D01*
X81645714Y-102120952D01*
D13*
G36*
X82751571Y-76466957D02*
G01*
X82775809Y-76563232D01*
X82818641Y-76649816D01*
X82878419Y-76724627D01*
X82953494Y-76785582D01*
X83042220Y-76830601D01*
X83138530Y-76856864D01*
X83235795Y-76862714D01*
X83329654Y-76847860D01*
X83417511Y-76814160D01*
X83496770Y-76763472D01*
X83564836Y-76697655D01*
X83619112Y-76618566D01*
X83657002Y-76528066D01*
X83669426Y-76476800D01*
X83676947Y-76432302D01*
X83679919Y-76398001D01*
X83678094Y-76365040D01*
X83671225Y-76324566D01*
X83664250Y-76291469D01*
X83632741Y-76198053D01*
X83581617Y-76114381D01*
X83512429Y-76042335D01*
X83426728Y-75983800D01*
X83399489Y-75969852D01*
X83363122Y-75953414D01*
X83332582Y-75943106D01*
X83300450Y-75937540D01*
X83259307Y-75935331D01*
X83213222Y-75935052D01*
X83128865Y-75939139D01*
X83059586Y-75952554D01*
X82998961Y-75977744D01*
X82940567Y-76017154D01*
X82896302Y-76055702D01*
X82830484Y-76127594D01*
X82785053Y-76202687D01*
X82757850Y-76285438D01*
X82747576Y-76363072D01*
X82751571Y-76466957D01*
G37*
X82751571Y-76466957D02*
X82775809Y-76563232D01*
X82818641Y-76649816D01*
X82878419Y-76724627D01*
X82953494Y-76785582D01*
X83042220Y-76830601D01*
X83138530Y-76856864D01*
X83235795Y-76862714D01*
X83329654Y-76847860D01*
X83417511Y-76814160D01*
X83496770Y-76763472D01*
X83564836Y-76697655D01*
X83619112Y-76618566D01*
X83657002Y-76528066D01*
X83669426Y-76476800D01*
X83676947Y-76432302D01*
X83679919Y-76398001D01*
X83678094Y-76365040D01*
X83671225Y-76324566D01*
X83664250Y-76291469D01*
X83632741Y-76198053D01*
X83581617Y-76114381D01*
X83512429Y-76042335D01*
X83426728Y-75983800D01*
X83399489Y-75969852D01*
X83363122Y-75953414D01*
X83332582Y-75943106D01*
X83300450Y-75937540D01*
X83259307Y-75935331D01*
X83213222Y-75935052D01*
X83128865Y-75939139D01*
X83059586Y-75952554D01*
X82998961Y-75977744D01*
X82940567Y-76017154D01*
X82896302Y-76055702D01*
X82830484Y-76127594D01*
X82785053Y-76202687D01*
X82757850Y-76285438D01*
X82747576Y-76363072D01*
X82751571Y-76466957D01*
G36*
X85197245Y-84926507D02*
G01*
X85431662Y-84926526D01*
X85644603Y-84926552D01*
X85837168Y-84926625D01*
X86010459Y-84926782D01*
X86165576Y-84927064D01*
X86303620Y-84927509D01*
X86425692Y-84928156D01*
X86532894Y-84929045D01*
X86626326Y-84930213D01*
X86707090Y-84931701D01*
X86776286Y-84933546D01*
X86835015Y-84935789D01*
X86884379Y-84938469D01*
X86925478Y-84941623D01*
X86959413Y-84945292D01*
X86987286Y-84949513D01*
X87010198Y-84954327D01*
X87029249Y-84959773D01*
X87045540Y-84965888D01*
X87060173Y-84972712D01*
X87074249Y-84980285D01*
X87088868Y-84988645D01*
X87097974Y-84993839D01*
X87158689Y-85028104D01*
X87158689Y-84169955D01*
X87062733Y-84169955D01*
X87019370Y-84169224D01*
X86986205Y-84167272D01*
X86968424Y-84164463D01*
X86966778Y-84163221D01*
X86973662Y-84151799D01*
X86991505Y-84129084D01*
X87010879Y-84106385D01*
X87051614Y-84051800D01*
X87092617Y-83982321D01*
X87130123Y-83905270D01*
X87160364Y-83827965D01*
X87170012Y-83797113D01*
X87184578Y-83728616D01*
X87194539Y-83645764D01*
X87199583Y-83556371D01*
X87199396Y-83468248D01*
X87193666Y-83389207D01*
X87187858Y-83351511D01*
X87149797Y-83213414D01*
X87092073Y-83086113D01*
X87015211Y-82970292D01*
X86919739Y-82866637D01*
X86806179Y-82775833D01*
X86695381Y-82709031D01*
X86578625Y-82654164D01*
X86459276Y-82612163D01*
X86333283Y-82582167D01*
X86196594Y-82563311D01*
X86045158Y-82554732D01*
X85967711Y-82554006D01*
X85910934Y-82556100D01*
X85910934Y-83385217D01*
X86004002Y-83385424D01*
X86091692Y-83388337D01*
X86168772Y-83394000D01*
X86230009Y-83402455D01*
X86242350Y-83405038D01*
X86349633Y-83436840D01*
X86436658Y-83478498D01*
X86503642Y-83530363D01*
X86550805Y-83592781D01*
X86578365Y-83666100D01*
X86586541Y-83750669D01*
X86575551Y-83846835D01*
X86559829Y-83910311D01*
X86541639Y-83959454D01*
X86515791Y-84013583D01*
X86492089Y-84054244D01*
X86445721Y-84124800D01*
X85295530Y-84124800D01*
X85251962Y-84057392D01*
X85211040Y-83978867D01*
X85184389Y-83894681D01*
X85172465Y-83809557D01*
X85175722Y-83728216D01*
X85194615Y-83655380D01*
X85210184Y-83623426D01*
X85253181Y-83565501D01*
X85309953Y-83516544D01*
X85382575Y-83475390D01*
X85473121Y-83440874D01*
X85583666Y-83411833D01*
X85589533Y-83410552D01*
X85651788Y-83400381D01*
X85729594Y-83392739D01*
X85817720Y-83387670D01*
X85910934Y-83385217D01*
X85910934Y-82556100D01*
X85754895Y-82561857D01*
X85559059Y-82583802D01*
X85380332Y-82619786D01*
X85218845Y-82669759D01*
X85074726Y-82733668D01*
X84948106Y-82811462D01*
X84839115Y-82903089D01*
X84747883Y-83008497D01*
X84716932Y-83053662D01*
X84660785Y-83154611D01*
X84621174Y-83257901D01*
X84597014Y-83367989D01*
X84587219Y-83489330D01*
X84588265Y-83581836D01*
X84599231Y-83711490D01*
X84621046Y-83824084D01*
X84654714Y-83922875D01*
X84701236Y-84011121D01*
X84735448Y-84059986D01*
X84757362Y-84089353D01*
X84772333Y-84111043D01*
X84776733Y-84119253D01*
X84765904Y-84120868D01*
X84735251Y-84122159D01*
X84687526Y-84123138D01*
X84625479Y-84123817D01*
X84551862Y-84124210D01*
X84469427Y-84124330D01*
X84380925Y-84124188D01*
X84289107Y-84123797D01*
X84196724Y-84123171D01*
X84106528Y-84122320D01*
X84021271Y-84121260D01*
X83943703Y-84120001D01*
X83876576Y-84118556D01*
X83822641Y-84116938D01*
X83784650Y-84115161D01*
X83777667Y-84114669D01*
X83707251Y-84107092D01*
X83652102Y-84095531D01*
X83604981Y-84077792D01*
X83558647Y-84051682D01*
X83549067Y-84045415D01*
X83512378Y-84020983D01*
X83512378Y-84926311D01*
X85197245Y-84926507D01*
G37*
X85197245Y-84926507D02*
X85431662Y-84926526D01*
X85644603Y-84926552D01*
X85837168Y-84926625D01*
X86010459Y-84926782D01*
X86165576Y-84927064D01*
X86303620Y-84927509D01*
X86425692Y-84928156D01*
X86532894Y-84929045D01*
X86626326Y-84930213D01*
X86707090Y-84931701D01*
X86776286Y-84933546D01*
X86835015Y-84935789D01*
X86884379Y-84938469D01*
X86925478Y-84941623D01*
X86959413Y-84945292D01*
X86987286Y-84949513D01*
X87010198Y-84954327D01*
X87029249Y-84959773D01*
X87045540Y-84965888D01*
X87060173Y-84972712D01*
X87074249Y-84980285D01*
X87088868Y-84988645D01*
X87097974Y-84993839D01*
X87158689Y-85028104D01*
X87158689Y-84169955D01*
X87062733Y-84169955D01*
X87019370Y-84169224D01*
X86986205Y-84167272D01*
X86968424Y-84164463D01*
X86966778Y-84163221D01*
X86973662Y-84151799D01*
X86991505Y-84129084D01*
X87010879Y-84106385D01*
X87051614Y-84051800D01*
X87092617Y-83982321D01*
X87130123Y-83905270D01*
X87160364Y-83827965D01*
X87170012Y-83797113D01*
X87184578Y-83728616D01*
X87194539Y-83645764D01*
X87199583Y-83556371D01*
X87199396Y-83468248D01*
X87193666Y-83389207D01*
X87187858Y-83351511D01*
X87149797Y-83213414D01*
X87092073Y-83086113D01*
X87015211Y-82970292D01*
X86919739Y-82866637D01*
X86806179Y-82775833D01*
X86695381Y-82709031D01*
X86578625Y-82654164D01*
X86459276Y-82612163D01*
X86333283Y-82582167D01*
X86196594Y-82563311D01*
X86045158Y-82554732D01*
X85967711Y-82554006D01*
X85910934Y-82556100D01*
X85910934Y-83385217D01*
X86004002Y-83385424D01*
X86091692Y-83388337D01*
X86168772Y-83394000D01*
X86230009Y-83402455D01*
X86242350Y-83405038D01*
X86349633Y-83436840D01*
X86436658Y-83478498D01*
X86503642Y-83530363D01*
X86550805Y-83592781D01*
X86578365Y-83666100D01*
X86586541Y-83750669D01*
X86575551Y-83846835D01*
X86559829Y-83910311D01*
X86541639Y-83959454D01*
X86515791Y-84013583D01*
X86492089Y-84054244D01*
X86445721Y-84124800D01*
X85295530Y-84124800D01*
X85251962Y-84057392D01*
X85211040Y-83978867D01*
X85184389Y-83894681D01*
X85172465Y-83809557D01*
X85175722Y-83728216D01*
X85194615Y-83655380D01*
X85210184Y-83623426D01*
X85253181Y-83565501D01*
X85309953Y-83516544D01*
X85382575Y-83475390D01*
X85473121Y-83440874D01*
X85583666Y-83411833D01*
X85589533Y-83410552D01*
X85651788Y-83400381D01*
X85729594Y-83392739D01*
X85817720Y-83387670D01*
X85910934Y-83385217D01*
X85910934Y-82556100D01*
X85754895Y-82561857D01*
X85559059Y-82583802D01*
X85380332Y-82619786D01*
X85218845Y-82669759D01*
X85074726Y-82733668D01*
X84948106Y-82811462D01*
X84839115Y-82903089D01*
X84747883Y-83008497D01*
X84716932Y-83053662D01*
X84660785Y-83154611D01*
X84621174Y-83257901D01*
X84597014Y-83367989D01*
X84587219Y-83489330D01*
X84588265Y-83581836D01*
X84599231Y-83711490D01*
X84621046Y-83824084D01*
X84654714Y-83922875D01*
X84701236Y-84011121D01*
X84735448Y-84059986D01*
X84757362Y-84089353D01*
X84772333Y-84111043D01*
X84776733Y-84119253D01*
X84765904Y-84120868D01*
X84735251Y-84122159D01*
X84687526Y-84123138D01*
X84625479Y-84123817D01*
X84551862Y-84124210D01*
X84469427Y-84124330D01*
X84380925Y-84124188D01*
X84289107Y-84123797D01*
X84196724Y-84123171D01*
X84106528Y-84122320D01*
X84021271Y-84121260D01*
X83943703Y-84120001D01*
X83876576Y-84118556D01*
X83822641Y-84116938D01*
X83784650Y-84115161D01*
X83777667Y-84114669D01*
X83707251Y-84107092D01*
X83652102Y-84095531D01*
X83604981Y-84077792D01*
X83558647Y-84051682D01*
X83549067Y-84045415D01*
X83512378Y-84020983D01*
X83512378Y-84926311D01*
X85197245Y-84926507D01*
G36*
X84591552Y-81413574D02*
G01*
X84611567Y-81565492D01*
X84645202Y-81700756D01*
X84692725Y-81820239D01*
X84754405Y-81924815D01*
X84817965Y-82002424D01*
X84892099Y-82071265D01*
X84971871Y-82125006D01*
X85064091Y-82167910D01*
X85107161Y-82183384D01*
X85146142Y-82196244D01*
X85182289Y-82207446D01*
X85217434Y-82217120D01*
X85253410Y-82225396D01*
X85292050Y-82232403D01*
X85335185Y-82238272D01*
X85384649Y-82243131D01*
X85442273Y-82247110D01*
X85509891Y-82250340D01*
X85589334Y-82252949D01*
X85682436Y-82255067D01*
X85791027Y-82256824D01*
X85916942Y-82258349D01*
X86062012Y-82259772D01*
X86204778Y-82261025D01*
X86360968Y-82262351D01*
X86496239Y-82263556D01*
X86612246Y-82264766D01*
X86710645Y-82266106D01*
X86793093Y-82267700D01*
X86861246Y-82269675D01*
X86916760Y-82272156D01*
X86961292Y-82275269D01*
X86996498Y-82279138D01*
X87024034Y-82283889D01*
X87045556Y-82289648D01*
X87062722Y-82296539D01*
X87077186Y-82304689D01*
X87090606Y-82314223D01*
X87104638Y-82325266D01*
X87110071Y-82329566D01*
X87132910Y-82345386D01*
X87148463Y-82352422D01*
X87148922Y-82352444D01*
X87151121Y-82341567D01*
X87153147Y-82310582D01*
X87154942Y-82261957D01*
X87156451Y-82198163D01*
X87157616Y-82121669D01*
X87158380Y-82034944D01*
X87158686Y-81940457D01*
X87158689Y-81929550D01*
X87158689Y-81506657D01*
X87062622Y-81503395D01*
X86966556Y-81500133D01*
X87017543Y-81438044D01*
X87085057Y-81340714D01*
X87139749Y-81230813D01*
X87169978Y-81144349D01*
X87184666Y-81075278D01*
X87194659Y-80991925D01*
X87199646Y-80902159D01*
X87199313Y-80813845D01*
X87193351Y-80734851D01*
X87187638Y-80698622D01*
X87149776Y-80558603D01*
X87094932Y-80432178D01*
X87023924Y-80320260D01*
X86937568Y-80223762D01*
X86836679Y-80143600D01*
X86722076Y-80080687D01*
X86595984Y-80036312D01*
X86539401Y-80023978D01*
X86477202Y-80016368D01*
X86402363Y-80012739D01*
X86368467Y-80012245D01*
X86365282Y-80012310D01*
X86365282Y-80772248D01*
X86440333Y-80781541D01*
X86504160Y-80809728D01*
X86559798Y-80858197D01*
X86564211Y-80863254D01*
X86599037Y-80911548D01*
X86621620Y-80963257D01*
X86633540Y-81023989D01*
X86636383Y-81099352D01*
X86635978Y-81117459D01*
X86633325Y-81171278D01*
X86627909Y-81211308D01*
X86617745Y-81246324D01*
X86600850Y-81285103D01*
X86595672Y-81295745D01*
X86559844Y-81356396D01*
X86517212Y-81403215D01*
X86501973Y-81415952D01*
X86445462Y-81460622D01*
X86249586Y-81460622D01*
X86170939Y-81460086D01*
X86112988Y-81458396D01*
X86073875Y-81455428D01*
X86051741Y-81451057D01*
X86045274Y-81446972D01*
X86042111Y-81431047D01*
X86039488Y-81397264D01*
X86037655Y-81350340D01*
X86036857Y-81294993D01*
X86036842Y-81286106D01*
X86042096Y-81165330D01*
X86058263Y-81062660D01*
X86085961Y-80976106D01*
X86125808Y-80903681D01*
X86172758Y-80848751D01*
X86230645Y-80804204D01*
X86293693Y-80779480D01*
X86365282Y-80772248D01*
X86365282Y-80012310D01*
X86274712Y-80014178D01*
X86195812Y-80022522D01*
X86124590Y-80038768D01*
X86053864Y-80064405D01*
X86001493Y-80088401D01*
X85906196Y-80147020D01*
X85818170Y-80225117D01*
X85739017Y-80320315D01*
X85670340Y-80430238D01*
X85613741Y-80552510D01*
X85570821Y-80684755D01*
X85555882Y-80749422D01*
X85533777Y-80885604D01*
X85519194Y-81034049D01*
X85512813Y-81185505D01*
X85514445Y-81312064D01*
X85521224Y-81473950D01*
X85462245Y-81466530D01*
X85363092Y-81447238D01*
X85282372Y-81416104D01*
X85219466Y-81372269D01*
X85173756Y-81314871D01*
X85144622Y-81243048D01*
X85131447Y-81155941D01*
X85133611Y-81052686D01*
X85137612Y-81014711D01*
X85162780Y-80873520D01*
X85203814Y-80736707D01*
X85241815Y-80642178D01*
X85261190Y-80597018D01*
X85276760Y-80558585D01*
X85286405Y-80532234D01*
X85288452Y-80524546D01*
X85279374Y-80514802D01*
X85250405Y-80498083D01*
X85201217Y-80474232D01*
X85131484Y-80443093D01*
X85040879Y-80404507D01*
X85025089Y-80397910D01*
X84952772Y-80367853D01*
X84887425Y-80340874D01*
X84831906Y-80318136D01*
X84789072Y-80300806D01*
X84761781Y-80290048D01*
X84752942Y-80286941D01*
X84748187Y-80296940D01*
X84742910Y-80323217D01*
X84739231Y-80351489D01*
X84734474Y-80381646D01*
X84725028Y-80429433D01*
X84711820Y-80490612D01*
X84695776Y-80560946D01*
X84677820Y-80636194D01*
X84670797Y-80664755D01*
X84645209Y-80769816D01*
X84625147Y-80857480D01*
X84609969Y-80932068D01*
X84599035Y-80997903D01*
X84591704Y-81059307D01*
X84587335Y-81120602D01*
X84585287Y-81186110D01*
X84584889Y-81244128D01*
X84591552Y-81413574D01*
G37*
X84591552Y-81413574D02*
X84611567Y-81565492D01*
X84645202Y-81700756D01*
X84692725Y-81820239D01*
X84754405Y-81924815D01*
X84817965Y-82002424D01*
X84892099Y-82071265D01*
X84971871Y-82125006D01*
X85064091Y-82167910D01*
X85107161Y-82183384D01*
X85146142Y-82196244D01*
X85182289Y-82207446D01*
X85217434Y-82217120D01*
X85253410Y-82225396D01*
X85292050Y-82232403D01*
X85335185Y-82238272D01*
X85384649Y-82243131D01*
X85442273Y-82247110D01*
X85509891Y-82250340D01*
X85589334Y-82252949D01*
X85682436Y-82255067D01*
X85791027Y-82256824D01*
X85916942Y-82258349D01*
X86062012Y-82259772D01*
X86204778Y-82261025D01*
X86360968Y-82262351D01*
X86496239Y-82263556D01*
X86612246Y-82264766D01*
X86710645Y-82266106D01*
X86793093Y-82267700D01*
X86861246Y-82269675D01*
X86916760Y-82272156D01*
X86961292Y-82275269D01*
X86996498Y-82279138D01*
X87024034Y-82283889D01*
X87045556Y-82289648D01*
X87062722Y-82296539D01*
X87077186Y-82304689D01*
X87090606Y-82314223D01*
X87104638Y-82325266D01*
X87110071Y-82329566D01*
X87132910Y-82345386D01*
X87148463Y-82352422D01*
X87148922Y-82352444D01*
X87151121Y-82341567D01*
X87153147Y-82310582D01*
X87154942Y-82261957D01*
X87156451Y-82198163D01*
X87157616Y-82121669D01*
X87158380Y-82034944D01*
X87158686Y-81940457D01*
X87158689Y-81929550D01*
X87158689Y-81506657D01*
X87062622Y-81503395D01*
X86966556Y-81500133D01*
X87017543Y-81438044D01*
X87085057Y-81340714D01*
X87139749Y-81230813D01*
X87169978Y-81144349D01*
X87184666Y-81075278D01*
X87194659Y-80991925D01*
X87199646Y-80902159D01*
X87199313Y-80813845D01*
X87193351Y-80734851D01*
X87187638Y-80698622D01*
X87149776Y-80558603D01*
X87094932Y-80432178D01*
X87023924Y-80320260D01*
X86937568Y-80223762D01*
X86836679Y-80143600D01*
X86722076Y-80080687D01*
X86595984Y-80036312D01*
X86539401Y-80023978D01*
X86477202Y-80016368D01*
X86402363Y-80012739D01*
X86368467Y-80012245D01*
X86365282Y-80012310D01*
X86365282Y-80772248D01*
X86440333Y-80781541D01*
X86504160Y-80809728D01*
X86559798Y-80858197D01*
X86564211Y-80863254D01*
X86599037Y-80911548D01*
X86621620Y-80963257D01*
X86633540Y-81023989D01*
X86636383Y-81099352D01*
X86635978Y-81117459D01*
X86633325Y-81171278D01*
X86627909Y-81211308D01*
X86617745Y-81246324D01*
X86600850Y-81285103D01*
X86595672Y-81295745D01*
X86559844Y-81356396D01*
X86517212Y-81403215D01*
X86501973Y-81415952D01*
X86445462Y-81460622D01*
X86249586Y-81460622D01*
X86170939Y-81460086D01*
X86112988Y-81458396D01*
X86073875Y-81455428D01*
X86051741Y-81451057D01*
X86045274Y-81446972D01*
X86042111Y-81431047D01*
X86039488Y-81397264D01*
X86037655Y-81350340D01*
X86036857Y-81294993D01*
X86036842Y-81286106D01*
X86042096Y-81165330D01*
X86058263Y-81062660D01*
X86085961Y-80976106D01*
X86125808Y-80903681D01*
X86172758Y-80848751D01*
X86230645Y-80804204D01*
X86293693Y-80779480D01*
X86365282Y-80772248D01*
X86365282Y-80012310D01*
X86274712Y-80014178D01*
X86195812Y-80022522D01*
X86124590Y-80038768D01*
X86053864Y-80064405D01*
X86001493Y-80088401D01*
X85906196Y-80147020D01*
X85818170Y-80225117D01*
X85739017Y-80320315D01*
X85670340Y-80430238D01*
X85613741Y-80552510D01*
X85570821Y-80684755D01*
X85555882Y-80749422D01*
X85533777Y-80885604D01*
X85519194Y-81034049D01*
X85512813Y-81185505D01*
X85514445Y-81312064D01*
X85521224Y-81473950D01*
X85462245Y-81466530D01*
X85363092Y-81447238D01*
X85282372Y-81416104D01*
X85219466Y-81372269D01*
X85173756Y-81314871D01*
X85144622Y-81243048D01*
X85131447Y-81155941D01*
X85133611Y-81052686D01*
X85137612Y-81014711D01*
X85162780Y-80873520D01*
X85203814Y-80736707D01*
X85241815Y-80642178D01*
X85261190Y-80597018D01*
X85276760Y-80558585D01*
X85286405Y-80532234D01*
X85288452Y-80524546D01*
X85279374Y-80514802D01*
X85250405Y-80498083D01*
X85201217Y-80474232D01*
X85131484Y-80443093D01*
X85040879Y-80404507D01*
X85025089Y-80397910D01*
X84952772Y-80367853D01*
X84887425Y-80340874D01*
X84831906Y-80318136D01*
X84789072Y-80300806D01*
X84761781Y-80290048D01*
X84752942Y-80286941D01*
X84748187Y-80296940D01*
X84742910Y-80323217D01*
X84739231Y-80351489D01*
X84734474Y-80381646D01*
X84725028Y-80429433D01*
X84711820Y-80490612D01*
X84695776Y-80560946D01*
X84677820Y-80636194D01*
X84670797Y-80664755D01*
X84645209Y-80769816D01*
X84625147Y-80857480D01*
X84609969Y-80932068D01*
X84599035Y-80997903D01*
X84591704Y-81059307D01*
X84587335Y-81120602D01*
X84585287Y-81186110D01*
X84584889Y-81244128D01*
X84591552Y-81413574D01*
G36*
X83674071Y-79068429D02*
G01*
X83695245Y-79228570D01*
X83735385Y-79392510D01*
X83794889Y-79562313D01*
X83874154Y-79740043D01*
X83879699Y-79751310D01*
X83907725Y-79809005D01*
X83931802Y-79860552D01*
X83950249Y-79902191D01*
X83961386Y-79930162D01*
X83963933Y-79939733D01*
X83968941Y-79958950D01*
X83973147Y-79963561D01*
X83983580Y-79958458D01*
X84009868Y-79942418D01*
X84049257Y-79917288D01*
X84098991Y-79884914D01*
X84156315Y-79847143D01*
X84218476Y-79805822D01*
X84282718Y-79762798D01*
X84346285Y-79719917D01*
X84406425Y-79679026D01*
X84460380Y-79641971D01*
X84505397Y-79610600D01*
X84538721Y-79586759D01*
X84557597Y-79572294D01*
X84559787Y-79570309D01*
X84555138Y-79560191D01*
X84537962Y-79537850D01*
X84511440Y-79507280D01*
X84496964Y-79491536D01*
X84421682Y-79395047D01*
X84366241Y-79288336D01*
X84331141Y-79172832D01*
X84316880Y-79049962D01*
X84318051Y-78980561D01*
X84335212Y-78859423D01*
X84371094Y-78750205D01*
X84425959Y-78652582D01*
X84500070Y-78566228D01*
X84593688Y-78490815D01*
X84707076Y-78426018D01*
X84793667Y-78388601D01*
X84929366Y-78344748D01*
X85076850Y-78312428D01*
X85232314Y-78291557D01*
X85391956Y-78282051D01*
X85551973Y-78283827D01*
X85708561Y-78296803D01*
X85857918Y-78320894D01*
X85996240Y-78356018D01*
X86119724Y-78402092D01*
X86153978Y-78418373D01*
X86268064Y-78486620D01*
X86364557Y-78567079D01*
X86442670Y-78658570D01*
X86501617Y-78759911D01*
X86540612Y-78869920D01*
X86558868Y-78987415D01*
X86560211Y-79028883D01*
X86549290Y-79150441D01*
X86516474Y-79270878D01*
X86462439Y-79388666D01*
X86387865Y-79502277D01*
X86309539Y-79593685D01*
X86265008Y-79640215D01*
X86562271Y-79821483D01*
X86636433Y-79866580D01*
X86704646Y-79907819D01*
X86764459Y-79943735D01*
X86813420Y-79972866D01*
X86849079Y-79993750D01*
X86868984Y-80004924D01*
X86872079Y-80006375D01*
X86881718Y-79998146D01*
X86898999Y-79972567D01*
X86922283Y-79932873D01*
X86949934Y-79882297D01*
X86980315Y-79824074D01*
X87011790Y-79761437D01*
X87042722Y-79697621D01*
X87071473Y-79635860D01*
X87096408Y-79579388D01*
X87115889Y-79531438D01*
X87124318Y-79507986D01*
X87162133Y-79374221D01*
X87187136Y-79236327D01*
X87200140Y-79088622D01*
X87202468Y-78961833D01*
X87201373Y-78893878D01*
X87199275Y-78828277D01*
X87196434Y-78770847D01*
X87193106Y-78727403D01*
X87191422Y-78713298D01*
X87162587Y-78574284D01*
X87117468Y-78432757D01*
X87058750Y-78295275D01*
X86989120Y-78168394D01*
X86936441Y-78090889D01*
X86828239Y-77963481D01*
X86701671Y-77845178D01*
X86559866Y-77738172D01*
X86405951Y-77644652D01*
X86243053Y-77566810D01*
X86125756Y-77522956D01*
X85942128Y-77472708D01*
X85747581Y-77439209D01*
X85546325Y-77422449D01*
X85342568Y-77422416D01*
X85140521Y-77439101D01*
X84944392Y-77472493D01*
X84758391Y-77522580D01*
X84746803Y-77526397D01*
X84584750Y-77589281D01*
X84436832Y-77666028D01*
X84298865Y-77759242D01*
X84166661Y-77871527D01*
X84121399Y-77915392D01*
X83997457Y-78051534D01*
X83894915Y-78191491D01*
X83812656Y-78337411D01*
X83749564Y-78491442D01*
X83704523Y-78655732D01*
X83687033Y-78751289D01*
X83671466Y-78910023D01*
X83674071Y-79068429D01*
G37*
X83674071Y-79068429D02*
X83695245Y-79228570D01*
X83735385Y-79392510D01*
X83794889Y-79562313D01*
X83874154Y-79740043D01*
X83879699Y-79751310D01*
X83907725Y-79809005D01*
X83931802Y-79860552D01*
X83950249Y-79902191D01*
X83961386Y-79930162D01*
X83963933Y-79939733D01*
X83968941Y-79958950D01*
X83973147Y-79963561D01*
X83983580Y-79958458D01*
X84009868Y-79942418D01*
X84049257Y-79917288D01*
X84098991Y-79884914D01*
X84156315Y-79847143D01*
X84218476Y-79805822D01*
X84282718Y-79762798D01*
X84346285Y-79719917D01*
X84406425Y-79679026D01*
X84460380Y-79641971D01*
X84505397Y-79610600D01*
X84538721Y-79586759D01*
X84557597Y-79572294D01*
X84559787Y-79570309D01*
X84555138Y-79560191D01*
X84537962Y-79537850D01*
X84511440Y-79507280D01*
X84496964Y-79491536D01*
X84421682Y-79395047D01*
X84366241Y-79288336D01*
X84331141Y-79172832D01*
X84316880Y-79049962D01*
X84318051Y-78980561D01*
X84335212Y-78859423D01*
X84371094Y-78750205D01*
X84425959Y-78652582D01*
X84500070Y-78566228D01*
X84593688Y-78490815D01*
X84707076Y-78426018D01*
X84793667Y-78388601D01*
X84929366Y-78344748D01*
X85076850Y-78312428D01*
X85232314Y-78291557D01*
X85391956Y-78282051D01*
X85551973Y-78283827D01*
X85708561Y-78296803D01*
X85857918Y-78320894D01*
X85996240Y-78356018D01*
X86119724Y-78402092D01*
X86153978Y-78418373D01*
X86268064Y-78486620D01*
X86364557Y-78567079D01*
X86442670Y-78658570D01*
X86501617Y-78759911D01*
X86540612Y-78869920D01*
X86558868Y-78987415D01*
X86560211Y-79028883D01*
X86549290Y-79150441D01*
X86516474Y-79270878D01*
X86462439Y-79388666D01*
X86387865Y-79502277D01*
X86309539Y-79593685D01*
X86265008Y-79640215D01*
X86562271Y-79821483D01*
X86636433Y-79866580D01*
X86704646Y-79907819D01*
X86764459Y-79943735D01*
X86813420Y-79972866D01*
X86849079Y-79993750D01*
X86868984Y-80004924D01*
X86872079Y-80006375D01*
X86881718Y-79998146D01*
X86898999Y-79972567D01*
X86922283Y-79932873D01*
X86949934Y-79882297D01*
X86980315Y-79824074D01*
X87011790Y-79761437D01*
X87042722Y-79697621D01*
X87071473Y-79635860D01*
X87096408Y-79579388D01*
X87115889Y-79531438D01*
X87124318Y-79507986D01*
X87162133Y-79374221D01*
X87187136Y-79236327D01*
X87200140Y-79088622D01*
X87202468Y-78961833D01*
X87201373Y-78893878D01*
X87199275Y-78828277D01*
X87196434Y-78770847D01*
X87193106Y-78727403D01*
X87191422Y-78713298D01*
X87162587Y-78574284D01*
X87117468Y-78432757D01*
X87058750Y-78295275D01*
X86989120Y-78168394D01*
X86936441Y-78090889D01*
X86828239Y-77963481D01*
X86701671Y-77845178D01*
X86559866Y-77738172D01*
X86405951Y-77644652D01*
X86243053Y-77566810D01*
X86125756Y-77522956D01*
X85942128Y-77472708D01*
X85747581Y-77439209D01*
X85546325Y-77422449D01*
X85342568Y-77422416D01*
X85140521Y-77439101D01*
X84944392Y-77472493D01*
X84758391Y-77522580D01*
X84746803Y-77526397D01*
X84584750Y-77589281D01*
X84436832Y-77666028D01*
X84298865Y-77759242D01*
X84166661Y-77871527D01*
X84121399Y-77915392D01*
X83997457Y-78051534D01*
X83894915Y-78191491D01*
X83812656Y-78337411D01*
X83749564Y-78491442D01*
X83704523Y-78655732D01*
X83687033Y-78751289D01*
X83671466Y-78910023D01*
X83674071Y-79068429D01*
G36*
X83214054Y-75793600D02*
G01*
X83327993Y-75804465D01*
X83435616Y-75836082D01*
X83534615Y-75886985D01*
X83622684Y-75955707D01*
X83697516Y-76040781D01*
X83755384Y-76137768D01*
X83795005Y-76244036D01*
X83813573Y-76351050D01*
X83812434Y-76456700D01*
X83792930Y-76558875D01*
X83756406Y-76655466D01*
X83704205Y-76744362D01*
X83637673Y-76823454D01*
X83558152Y-76890631D01*
X83466987Y-76943783D01*
X83365523Y-76980801D01*
X83255102Y-76999573D01*
X83205206Y-77001511D01*
X83117267Y-77001511D01*
X83117267Y-77053440D01*
X83120111Y-77089747D01*
X83131911Y-77116645D01*
X83155649Y-77143751D01*
X83194031Y-77182133D01*
X85385602Y-77182133D01*
X85647739Y-77182124D01*
X85888241Y-77182092D01*
X86108048Y-77182028D01*
X86308101Y-77181924D01*
X86489344Y-77181773D01*
X86652716Y-77181566D01*
X86799160Y-77181294D01*
X86929617Y-77180950D01*
X87045029Y-77180526D01*
X87146338Y-77180013D01*
X87234484Y-77179403D01*
X87310410Y-77178688D01*
X87375057Y-77177860D01*
X87429367Y-77176911D01*
X87474280Y-77175833D01*
X87510740Y-77174617D01*
X87539687Y-77173255D01*
X87562063Y-77171739D01*
X87578809Y-77170062D01*
X87590868Y-77168214D01*
X87599180Y-77166187D01*
X87604687Y-77163975D01*
X87606537Y-77162892D01*
X87613549Y-77158729D01*
X87619996Y-77155195D01*
X87625900Y-77151365D01*
X87631286Y-77146318D01*
X87636178Y-77139129D01*
X87640598Y-77128877D01*
X87644572Y-77114636D01*
X87648121Y-77095486D01*
X87651270Y-77070501D01*
X87654042Y-77038760D01*
X87656461Y-76999338D01*
X87658551Y-76951314D01*
X87660335Y-76893763D01*
X87661837Y-76825763D01*
X87663080Y-76746390D01*
X87664089Y-76654721D01*
X87664885Y-76549834D01*
X87665494Y-76430804D01*
X87665939Y-76296710D01*
X87666243Y-76146627D01*
X87666430Y-75979633D01*
X87666524Y-75794804D01*
X87666548Y-75591217D01*
X87666525Y-75367950D01*
X87666480Y-75124078D01*
X87666437Y-74858679D01*
X87666432Y-74820296D01*
X87666389Y-74553318D01*
X87666318Y-74307998D01*
X87666213Y-74083417D01*
X87666066Y-73878655D01*
X87665869Y-73692794D01*
X87665616Y-73524912D01*
X87665300Y-73374092D01*
X87664913Y-73239413D01*
X87664447Y-73119956D01*
X87663897Y-73014801D01*
X87663253Y-72923029D01*
X87662511Y-72843721D01*
X87661661Y-72775957D01*
X87660697Y-72718818D01*
X87659611Y-72671383D01*
X87658397Y-72632734D01*
X87657047Y-72601951D01*
X87655555Y-72578115D01*
X87653911Y-72560306D01*
X87652111Y-72547605D01*
X87650145Y-72539092D01*
X87648477Y-72534734D01*
X87644906Y-72526272D01*
X87642270Y-72518503D01*
X87639634Y-72511398D01*
X87636062Y-72504927D01*
X87630621Y-72499061D01*
X87622375Y-72493771D01*
X87610390Y-72489026D01*
X87593731Y-72484798D01*
X87571463Y-72481057D01*
X87542652Y-72477773D01*
X87506363Y-72474917D01*
X87461661Y-72472460D01*
X87407611Y-72470371D01*
X87343279Y-72468622D01*
X87267730Y-72467183D01*
X87180030Y-72466024D01*
X87079243Y-72465117D01*
X86964434Y-72464431D01*
X86834670Y-72463937D01*
X86689015Y-72463605D01*
X86526535Y-72463407D01*
X86346295Y-72463313D01*
X86147360Y-72463292D01*
X85928796Y-72463315D01*
X85689668Y-72463354D01*
X85429040Y-72463378D01*
X85386889Y-72463378D01*
X85123992Y-72463364D01*
X84882732Y-72463339D01*
X84662165Y-72463329D01*
X84461352Y-72463358D01*
X84279349Y-72463452D01*
X84115216Y-72463638D01*
X83968011Y-72463941D01*
X83836792Y-72464386D01*
X83726867Y-72464966D01*
X83726867Y-72767803D01*
X83784711Y-72807593D01*
X83800479Y-72818764D01*
X83814441Y-72828834D01*
X83827784Y-72837862D01*
X83841693Y-72845903D01*
X83857356Y-72853014D01*
X83875958Y-72859253D01*
X83898686Y-72864675D01*
X83926727Y-72869338D01*
X83961267Y-72873299D01*
X84003492Y-72876615D01*
X84054589Y-72879341D01*
X84115744Y-72881536D01*
X84188144Y-72883255D01*
X84272975Y-72884556D01*
X84371422Y-72885495D01*
X84484674Y-72886130D01*
X84613916Y-72886516D01*
X84760334Y-72886712D01*
X84925116Y-72886773D01*
X85109447Y-72886757D01*
X85314513Y-72886720D01*
X85437133Y-72886711D01*
X85654082Y-72886735D01*
X85849642Y-72886769D01*
X86024999Y-72886757D01*
X86181341Y-72886642D01*
X86319857Y-72886370D01*
X86441734Y-72885882D01*
X86548160Y-72885124D01*
X86640322Y-72884038D01*
X86719409Y-72882569D01*
X86786608Y-72880660D01*
X86843107Y-72878256D01*
X86890093Y-72875299D01*
X86928755Y-72871734D01*
X86960280Y-72867505D01*
X86985855Y-72862554D01*
X87006670Y-72856827D01*
X87023911Y-72850267D01*
X87038765Y-72842817D01*
X87052422Y-72834421D01*
X87066069Y-72825024D01*
X87080893Y-72814568D01*
X87089783Y-72808477D01*
X87147400Y-72769704D01*
X87147400Y-73301268D01*
X87147365Y-73424517D01*
X87147215Y-73527013D01*
X87146878Y-73610580D01*
X87146286Y-73677044D01*
X87145367Y-73728229D01*
X87144051Y-73765959D01*
X87142269Y-73792060D01*
X87139951Y-73808356D01*
X87137026Y-73816672D01*
X87133424Y-73818832D01*
X87129075Y-73816661D01*
X87127645Y-73815465D01*
X87090573Y-73790315D01*
X87037772Y-73764417D01*
X86975770Y-73740808D01*
X86949357Y-73732539D01*
X86931416Y-73727922D01*
X86910355Y-73724021D01*
X86884089Y-73720752D01*
X86850532Y-73718034D01*
X86807599Y-73715785D01*
X86753204Y-73713923D01*
X86685262Y-73712364D01*
X86601688Y-73711028D01*
X86500395Y-73709831D01*
X86379300Y-73708692D01*
X86334600Y-73708315D01*
X86209449Y-73707298D01*
X86105082Y-73706540D01*
X86019707Y-73706097D01*
X85951533Y-73706030D01*
X85898765Y-73706395D01*
X85859614Y-73707252D01*
X85832285Y-73708659D01*
X85814986Y-73710675D01*
X85805926Y-73713357D01*
X85803312Y-73716764D01*
X85805351Y-73720956D01*
X85809667Y-73725429D01*
X85822602Y-73735784D01*
X85851676Y-73757842D01*
X85894759Y-73790043D01*
X85949718Y-73830826D01*
X86014423Y-73878630D01*
X86086742Y-73931895D01*
X86164544Y-73989060D01*
X86245698Y-74048563D01*
X86328072Y-74108845D01*
X86409536Y-74168345D01*
X86487957Y-74225502D01*
X86561204Y-74278755D01*
X86627147Y-74326543D01*
X86683654Y-74367307D01*
X86728593Y-74399484D01*
X86759834Y-74421515D01*
X86766466Y-74426083D01*
X86803369Y-74449004D01*
X86851359Y-74475812D01*
X86900897Y-74501211D01*
X86907577Y-74504432D01*
X86955772Y-74526110D01*
X86993334Y-74538696D01*
X87029160Y-74544426D01*
X87071200Y-74545544D01*
X87147400Y-74544910D01*
X87147400Y-75699349D01*
X87053669Y-75608185D01*
X87003775Y-75561388D01*
X86947295Y-75511101D01*
X86893026Y-75465056D01*
X86867673Y-75444631D01*
X86828128Y-75414193D01*
X86774916Y-75374138D01*
X86709667Y-75325639D01*
X86634011Y-75269865D01*
X86549577Y-75207989D01*
X86457994Y-75141181D01*
X86360892Y-75070613D01*
X86259901Y-74997455D01*
X86156650Y-74922879D01*
X86052768Y-74848056D01*
X85949885Y-74774157D01*
X85849631Y-74702354D01*
X85753636Y-74633816D01*
X85663527Y-74569716D01*
X85580936Y-74511225D01*
X85507492Y-74459514D01*
X85444824Y-74415753D01*
X85394561Y-74381115D01*
X85358334Y-74356770D01*
X85337771Y-74343889D01*
X85333668Y-74342131D01*
X85322342Y-74350090D01*
X85295162Y-74370885D01*
X85253829Y-74403153D01*
X85200044Y-74445530D01*
X85135506Y-74496653D01*
X85061918Y-74555159D01*
X84980978Y-74619686D01*
X84894388Y-74688869D01*
X84803848Y-74761347D01*
X84711060Y-74835754D01*
X84636702Y-74895483D01*
X84636702Y-75906489D01*
X84649659Y-75912398D01*
X84671908Y-75926728D01*
X84673391Y-75927775D01*
X84703544Y-75946562D01*
X84740375Y-75966209D01*
X84748511Y-75970108D01*
X84756940Y-75973644D01*
X84767059Y-75976770D01*
X84780260Y-75979514D01*
X84797938Y-75981908D01*
X84821484Y-75983981D01*
X84852293Y-75985765D01*
X84891757Y-75987288D01*
X84941269Y-75988581D01*
X85002223Y-75989674D01*
X85076011Y-75990597D01*
X85164028Y-75991381D01*
X85267665Y-75992055D01*
X85388316Y-75992650D01*
X85527374Y-75993195D01*
X85686232Y-75993721D01*
X85865089Y-75994255D01*
X86050207Y-75994794D01*
X86214145Y-75995228D01*
X86358303Y-75995491D01*
X86484079Y-75995516D01*
X86592871Y-75995235D01*
X86686077Y-75994581D01*
X86765097Y-75993486D01*
X86831328Y-75991882D01*
X86886170Y-75989703D01*
X86931021Y-75986881D01*
X86967278Y-75983349D01*
X86996341Y-75979039D01*
X87019609Y-75973883D01*
X87038479Y-75967815D01*
X87054351Y-75960767D01*
X87068622Y-75952671D01*
X87082691Y-75943460D01*
X87095158Y-75934960D01*
X87121452Y-75917824D01*
X87139037Y-75907678D01*
X87142257Y-75906489D01*
X87143334Y-75917396D01*
X87144335Y-75948589D01*
X87145235Y-75997777D01*
X87146010Y-76062667D01*
X87146637Y-76140970D01*
X87147091Y-76230393D01*
X87147349Y-76328644D01*
X87147400Y-76397555D01*
X87147180Y-76502548D01*
X87146548Y-76599390D01*
X87145549Y-76685893D01*
X87144227Y-76759868D01*
X87142626Y-76819126D01*
X87140791Y-76861480D01*
X87138765Y-76884740D01*
X87137493Y-76888622D01*
X87122591Y-76880924D01*
X87114560Y-76872926D01*
X87097434Y-76859754D01*
X87067183Y-76842515D01*
X87042622Y-76830593D01*
X86983711Y-76803955D01*
X85806845Y-76800880D01*
X84629978Y-76797805D01*
X84629978Y-76352147D01*
X84630142Y-76254330D01*
X84630611Y-76163936D01*
X84631347Y-76083370D01*
X84632316Y-76015038D01*
X84633480Y-75961344D01*
X84634803Y-75924695D01*
X84636249Y-75907496D01*
X84636702Y-75906489D01*
X84636702Y-74895483D01*
X84617722Y-74910730D01*
X84525537Y-74984910D01*
X84436204Y-75056931D01*
X84351424Y-75125431D01*
X84272898Y-75189045D01*
X84202326Y-75246412D01*
X84141409Y-75296167D01*
X84091847Y-75336948D01*
X84071178Y-75354112D01*
X83970516Y-75440404D01*
X83887259Y-75517003D01*
X83819438Y-75585817D01*
X83765089Y-75648752D01*
X83757722Y-75658133D01*
X83727117Y-75697644D01*
X83726867Y-74565884D01*
X83774844Y-74571173D01*
X83832188Y-74567870D01*
X83900463Y-74546339D01*
X83980212Y-74506365D01*
X84052495Y-74461057D01*
X84075140Y-74444839D01*
X84112696Y-74416786D01*
X84163021Y-74378570D01*
X84223973Y-74331863D01*
X84293411Y-74278339D01*
X84369194Y-74219669D01*
X84449180Y-74157525D01*
X84531228Y-74093579D01*
X84613196Y-74029505D01*
X84692943Y-73966973D01*
X84768327Y-73907657D01*
X84837207Y-73853229D01*
X84897442Y-73805361D01*
X84946889Y-73765725D01*
X84983408Y-73735994D01*
X85004858Y-73717839D01*
X85008156Y-73714780D01*
X85000149Y-73711921D01*
X84969855Y-73709707D01*
X84917556Y-73708143D01*
X84843531Y-73707233D01*
X84748063Y-73706980D01*
X84631434Y-73707387D01*
X84511445Y-73708296D01*
X84379333Y-73709618D01*
X84267594Y-73711143D01*
X84174025Y-73713119D01*
X84096419Y-73715794D01*
X84032574Y-73719418D01*
X83980283Y-73724239D01*
X83937344Y-73730506D01*
X83901551Y-73738468D01*
X83870700Y-73748373D01*
X83842586Y-73760469D01*
X83815005Y-73775007D01*
X83789966Y-73789689D01*
X83726867Y-73827686D01*
X83726867Y-72767803D01*
X83726867Y-72464966D01*
X83720617Y-72464999D01*
X83618544Y-72465805D01*
X83529633Y-72466830D01*
X83452941Y-72468100D01*
X83387527Y-72469640D01*
X83332449Y-72471476D01*
X83286765Y-72473633D01*
X83249534Y-72476137D01*
X83219813Y-72479013D01*
X83196662Y-72482287D01*
X83179139Y-72485985D01*
X83166301Y-72490131D01*
X83157208Y-72494753D01*
X83150918Y-72499874D01*
X83146488Y-72505522D01*
X83142978Y-72511721D01*
X83139445Y-72518496D01*
X83135876Y-72524492D01*
X83133300Y-72529725D01*
X83130972Y-72537901D01*
X83128878Y-72550114D01*
X83127007Y-72567459D01*
X83125347Y-72591031D01*
X83123884Y-72621923D01*
X83122608Y-72661232D01*
X83121504Y-72710050D01*
X83120561Y-72769473D01*
X83119767Y-72840596D01*
X83119109Y-72924512D01*
X83118575Y-73022317D01*
X83118153Y-73135106D01*
X83117829Y-73263971D01*
X83117592Y-73410009D01*
X83117430Y-73574314D01*
X83117330Y-73757980D01*
X83117280Y-73962103D01*
X83117267Y-74173247D01*
X83117267Y-75793600D01*
X83214054Y-75793600D01*
G37*
X83214054Y-75793600D02*
X83327993Y-75804465D01*
X83435616Y-75836082D01*
X83534615Y-75886985D01*
X83622684Y-75955707D01*
X83697516Y-76040781D01*
X83755384Y-76137768D01*
X83795005Y-76244036D01*
X83813573Y-76351050D01*
X83812434Y-76456700D01*
X83792930Y-76558875D01*
X83756406Y-76655466D01*
X83704205Y-76744362D01*
X83637673Y-76823454D01*
X83558152Y-76890631D01*
X83466987Y-76943783D01*
X83365523Y-76980801D01*
X83255102Y-76999573D01*
X83205206Y-77001511D01*
X83117267Y-77001511D01*
X83117267Y-77053440D01*
X83120111Y-77089747D01*
X83131911Y-77116645D01*
X83155649Y-77143751D01*
X83194031Y-77182133D01*
X85385602Y-77182133D01*
X85647739Y-77182124D01*
X85888241Y-77182092D01*
X86108048Y-77182028D01*
X86308101Y-77181924D01*
X86489344Y-77181773D01*
X86652716Y-77181566D01*
X86799160Y-77181294D01*
X86929617Y-77180950D01*
X87045029Y-77180526D01*
X87146338Y-77180013D01*
X87234484Y-77179403D01*
X87310410Y-77178688D01*
X87375057Y-77177860D01*
X87429367Y-77176911D01*
X87474280Y-77175833D01*
X87510740Y-77174617D01*
X87539687Y-77173255D01*
X87562063Y-77171739D01*
X87578809Y-77170062D01*
X87590868Y-77168214D01*
X87599180Y-77166187D01*
X87604687Y-77163975D01*
X87606537Y-77162892D01*
X87613549Y-77158729D01*
X87619996Y-77155195D01*
X87625900Y-77151365D01*
X87631286Y-77146318D01*
X87636178Y-77139129D01*
X87640598Y-77128877D01*
X87644572Y-77114636D01*
X87648121Y-77095486D01*
X87651270Y-77070501D01*
X87654042Y-77038760D01*
X87656461Y-76999338D01*
X87658551Y-76951314D01*
X87660335Y-76893763D01*
X87661837Y-76825763D01*
X87663080Y-76746390D01*
X87664089Y-76654721D01*
X87664885Y-76549834D01*
X87665494Y-76430804D01*
X87665939Y-76296710D01*
X87666243Y-76146627D01*
X87666430Y-75979633D01*
X87666524Y-75794804D01*
X87666548Y-75591217D01*
X87666525Y-75367950D01*
X87666480Y-75124078D01*
X87666437Y-74858679D01*
X87666432Y-74820296D01*
X87666389Y-74553318D01*
X87666318Y-74307998D01*
X87666213Y-74083417D01*
X87666066Y-73878655D01*
X87665869Y-73692794D01*
X87665616Y-73524912D01*
X87665300Y-73374092D01*
X87664913Y-73239413D01*
X87664447Y-73119956D01*
X87663897Y-73014801D01*
X87663253Y-72923029D01*
X87662511Y-72843721D01*
X87661661Y-72775957D01*
X87660697Y-72718818D01*
X87659611Y-72671383D01*
X87658397Y-72632734D01*
X87657047Y-72601951D01*
X87655555Y-72578115D01*
X87653911Y-72560306D01*
X87652111Y-72547605D01*
X87650145Y-72539092D01*
X87648477Y-72534734D01*
X87644906Y-72526272D01*
X87642270Y-72518503D01*
X87639634Y-72511398D01*
X87636062Y-72504927D01*
X87630621Y-72499061D01*
X87622375Y-72493771D01*
X87610390Y-72489026D01*
X87593731Y-72484798D01*
X87571463Y-72481057D01*
X87542652Y-72477773D01*
X87506363Y-72474917D01*
X87461661Y-72472460D01*
X87407611Y-72470371D01*
X87343279Y-72468622D01*
X87267730Y-72467183D01*
X87180030Y-72466024D01*
X87079243Y-72465117D01*
X86964434Y-72464431D01*
X86834670Y-72463937D01*
X86689015Y-72463605D01*
X86526535Y-72463407D01*
X86346295Y-72463313D01*
X86147360Y-72463292D01*
X85928796Y-72463315D01*
X85689668Y-72463354D01*
X85429040Y-72463378D01*
X85386889Y-72463378D01*
X85123992Y-72463364D01*
X84882732Y-72463339D01*
X84662165Y-72463329D01*
X84461352Y-72463358D01*
X84279349Y-72463452D01*
X84115216Y-72463638D01*
X83968011Y-72463941D01*
X83836792Y-72464386D01*
X83726867Y-72464966D01*
X83726867Y-72767803D01*
X83784711Y-72807593D01*
X83800479Y-72818764D01*
X83814441Y-72828834D01*
X83827784Y-72837862D01*
X83841693Y-72845903D01*
X83857356Y-72853014D01*
X83875958Y-72859253D01*
X83898686Y-72864675D01*
X83926727Y-72869338D01*
X83961267Y-72873299D01*
X84003492Y-72876615D01*
X84054589Y-72879341D01*
X84115744Y-72881536D01*
X84188144Y-72883255D01*
X84272975Y-72884556D01*
X84371422Y-72885495D01*
X84484674Y-72886130D01*
X84613916Y-72886516D01*
X84760334Y-72886712D01*
X84925116Y-72886773D01*
X85109447Y-72886757D01*
X85314513Y-72886720D01*
X85437133Y-72886711D01*
X85654082Y-72886735D01*
X85849642Y-72886769D01*
X86024999Y-72886757D01*
X86181341Y-72886642D01*
X86319857Y-72886370D01*
X86441734Y-72885882D01*
X86548160Y-72885124D01*
X86640322Y-72884038D01*
X86719409Y-72882569D01*
X86786608Y-72880660D01*
X86843107Y-72878256D01*
X86890093Y-72875299D01*
X86928755Y-72871734D01*
X86960280Y-72867505D01*
X86985855Y-72862554D01*
X87006670Y-72856827D01*
X87023911Y-72850267D01*
X87038765Y-72842817D01*
X87052422Y-72834421D01*
X87066069Y-72825024D01*
X87080893Y-72814568D01*
X87089783Y-72808477D01*
X87147400Y-72769704D01*
X87147400Y-73301268D01*
X87147365Y-73424517D01*
X87147215Y-73527013D01*
X87146878Y-73610580D01*
X87146286Y-73677044D01*
X87145367Y-73728229D01*
X87144051Y-73765959D01*
X87142269Y-73792060D01*
X87139951Y-73808356D01*
X87137026Y-73816672D01*
X87133424Y-73818832D01*
X87129075Y-73816661D01*
X87127645Y-73815465D01*
X87090573Y-73790315D01*
X87037772Y-73764417D01*
X86975770Y-73740808D01*
X86949357Y-73732539D01*
X86931416Y-73727922D01*
X86910355Y-73724021D01*
X86884089Y-73720752D01*
X86850532Y-73718034D01*
X86807599Y-73715785D01*
X86753204Y-73713923D01*
X86685262Y-73712364D01*
X86601688Y-73711028D01*
X86500395Y-73709831D01*
X86379300Y-73708692D01*
X86334600Y-73708315D01*
X86209449Y-73707298D01*
X86105082Y-73706540D01*
X86019707Y-73706097D01*
X85951533Y-73706030D01*
X85898765Y-73706395D01*
X85859614Y-73707252D01*
X85832285Y-73708659D01*
X85814986Y-73710675D01*
X85805926Y-73713357D01*
X85803312Y-73716764D01*
X85805351Y-73720956D01*
X85809667Y-73725429D01*
X85822602Y-73735784D01*
X85851676Y-73757842D01*
X85894759Y-73790043D01*
X85949718Y-73830826D01*
X86014423Y-73878630D01*
X86086742Y-73931895D01*
X86164544Y-73989060D01*
X86245698Y-74048563D01*
X86328072Y-74108845D01*
X86409536Y-74168345D01*
X86487957Y-74225502D01*
X86561204Y-74278755D01*
X86627147Y-74326543D01*
X86683654Y-74367307D01*
X86728593Y-74399484D01*
X86759834Y-74421515D01*
X86766466Y-74426083D01*
X86803369Y-74449004D01*
X86851359Y-74475812D01*
X86900897Y-74501211D01*
X86907577Y-74504432D01*
X86955772Y-74526110D01*
X86993334Y-74538696D01*
X87029160Y-74544426D01*
X87071200Y-74545544D01*
X87147400Y-74544910D01*
X87147400Y-75699349D01*
X87053669Y-75608185D01*
X87003775Y-75561388D01*
X86947295Y-75511101D01*
X86893026Y-75465056D01*
X86867673Y-75444631D01*
X86828128Y-75414193D01*
X86774916Y-75374138D01*
X86709667Y-75325639D01*
X86634011Y-75269865D01*
X86549577Y-75207989D01*
X86457994Y-75141181D01*
X86360892Y-75070613D01*
X86259901Y-74997455D01*
X86156650Y-74922879D01*
X86052768Y-74848056D01*
X85949885Y-74774157D01*
X85849631Y-74702354D01*
X85753636Y-74633816D01*
X85663527Y-74569716D01*
X85580936Y-74511225D01*
X85507492Y-74459514D01*
X85444824Y-74415753D01*
X85394561Y-74381115D01*
X85358334Y-74356770D01*
X85337771Y-74343889D01*
X85333668Y-74342131D01*
X85322342Y-74350090D01*
X85295162Y-74370885D01*
X85253829Y-74403153D01*
X85200044Y-74445530D01*
X85135506Y-74496653D01*
X85061918Y-74555159D01*
X84980978Y-74619686D01*
X84894388Y-74688869D01*
X84803848Y-74761347D01*
X84711060Y-74835754D01*
X84636702Y-74895483D01*
X84636702Y-75906489D01*
X84649659Y-75912398D01*
X84671908Y-75926728D01*
X84673391Y-75927775D01*
X84703544Y-75946562D01*
X84740375Y-75966209D01*
X84748511Y-75970108D01*
X84756940Y-75973644D01*
X84767059Y-75976770D01*
X84780260Y-75979514D01*
X84797938Y-75981908D01*
X84821484Y-75983981D01*
X84852293Y-75985765D01*
X84891757Y-75987288D01*
X84941269Y-75988581D01*
X85002223Y-75989674D01*
X85076011Y-75990597D01*
X85164028Y-75991381D01*
X85267665Y-75992055D01*
X85388316Y-75992650D01*
X85527374Y-75993195D01*
X85686232Y-75993721D01*
X85865089Y-75994255D01*
X86050207Y-75994794D01*
X86214145Y-75995228D01*
X86358303Y-75995491D01*
X86484079Y-75995516D01*
X86592871Y-75995235D01*
X86686077Y-75994581D01*
X86765097Y-75993486D01*
X86831328Y-75991882D01*
X86886170Y-75989703D01*
X86931021Y-75986881D01*
X86967278Y-75983349D01*
X86996341Y-75979039D01*
X87019609Y-75973883D01*
X87038479Y-75967815D01*
X87054351Y-75960767D01*
X87068622Y-75952671D01*
X87082691Y-75943460D01*
X87095158Y-75934960D01*
X87121452Y-75917824D01*
X87139037Y-75907678D01*
X87142257Y-75906489D01*
X87143334Y-75917396D01*
X87144335Y-75948589D01*
X87145235Y-75997777D01*
X87146010Y-76062667D01*
X87146637Y-76140970D01*
X87147091Y-76230393D01*
X87147349Y-76328644D01*
X87147400Y-76397555D01*
X87147180Y-76502548D01*
X87146548Y-76599390D01*
X87145549Y-76685893D01*
X87144227Y-76759868D01*
X87142626Y-76819126D01*
X87140791Y-76861480D01*
X87138765Y-76884740D01*
X87137493Y-76888622D01*
X87122591Y-76880924D01*
X87114560Y-76872926D01*
X87097434Y-76859754D01*
X87067183Y-76842515D01*
X87042622Y-76830593D01*
X86983711Y-76803955D01*
X85806845Y-76800880D01*
X84629978Y-76797805D01*
X84629978Y-76352147D01*
X84630142Y-76254330D01*
X84630611Y-76163936D01*
X84631347Y-76083370D01*
X84632316Y-76015038D01*
X84633480Y-75961344D01*
X84634803Y-75924695D01*
X84636249Y-75907496D01*
X84636702Y-75906489D01*
X84636702Y-74895483D01*
X84617722Y-74910730D01*
X84525537Y-74984910D01*
X84436204Y-75056931D01*
X84351424Y-75125431D01*
X84272898Y-75189045D01*
X84202326Y-75246412D01*
X84141409Y-75296167D01*
X84091847Y-75336948D01*
X84071178Y-75354112D01*
X83970516Y-75440404D01*
X83887259Y-75517003D01*
X83819438Y-75585817D01*
X83765089Y-75648752D01*
X83757722Y-75658133D01*
X83727117Y-75697644D01*
X83726867Y-74565884D01*
X83774844Y-74571173D01*
X83832188Y-74567870D01*
X83900463Y-74546339D01*
X83980212Y-74506365D01*
X84052495Y-74461057D01*
X84075140Y-74444839D01*
X84112696Y-74416786D01*
X84163021Y-74378570D01*
X84223973Y-74331863D01*
X84293411Y-74278339D01*
X84369194Y-74219669D01*
X84449180Y-74157525D01*
X84531228Y-74093579D01*
X84613196Y-74029505D01*
X84692943Y-73966973D01*
X84768327Y-73907657D01*
X84837207Y-73853229D01*
X84897442Y-73805361D01*
X84946889Y-73765725D01*
X84983408Y-73735994D01*
X85004858Y-73717839D01*
X85008156Y-73714780D01*
X85000149Y-73711921D01*
X84969855Y-73709707D01*
X84917556Y-73708143D01*
X84843531Y-73707233D01*
X84748063Y-73706980D01*
X84631434Y-73707387D01*
X84511445Y-73708296D01*
X84379333Y-73709618D01*
X84267594Y-73711143D01*
X84174025Y-73713119D01*
X84096419Y-73715794D01*
X84032574Y-73719418D01*
X83980283Y-73724239D01*
X83937344Y-73730506D01*
X83901551Y-73738468D01*
X83870700Y-73748373D01*
X83842586Y-73760469D01*
X83815005Y-73775007D01*
X83789966Y-73789689D01*
X83726867Y-73827686D01*
X83726867Y-72767803D01*
X83726867Y-72464966D01*
X83720617Y-72464999D01*
X83618544Y-72465805D01*
X83529633Y-72466830D01*
X83452941Y-72468100D01*
X83387527Y-72469640D01*
X83332449Y-72471476D01*
X83286765Y-72473633D01*
X83249534Y-72476137D01*
X83219813Y-72479013D01*
X83196662Y-72482287D01*
X83179139Y-72485985D01*
X83166301Y-72490131D01*
X83157208Y-72494753D01*
X83150918Y-72499874D01*
X83146488Y-72505522D01*
X83142978Y-72511721D01*
X83139445Y-72518496D01*
X83135876Y-72524492D01*
X83133300Y-72529725D01*
X83130972Y-72537901D01*
X83128878Y-72550114D01*
X83127007Y-72567459D01*
X83125347Y-72591031D01*
X83123884Y-72621923D01*
X83122608Y-72661232D01*
X83121504Y-72710050D01*
X83120561Y-72769473D01*
X83119767Y-72840596D01*
X83119109Y-72924512D01*
X83118575Y-73022317D01*
X83118153Y-73135106D01*
X83117829Y-73263971D01*
X83117592Y-73410009D01*
X83117430Y-73574314D01*
X83117330Y-73757980D01*
X83117280Y-73962103D01*
X83117267Y-74173247D01*
X83117267Y-75793600D01*
X83214054Y-75793600D01*
M02*
