G04 #@! TF.GenerationSoftware,KiCad,Pcbnew,(5.1.5)-3*
G04 #@! TF.CreationDate,2020-12-01T08:46:11+03:00*
G04 #@! TF.ProjectId,project3_4layer,70726f6a-6563-4743-935f-346c61796572,1*
G04 #@! TF.SameCoordinates,Original*
G04 #@! TF.FileFunction,Legend,Top*
G04 #@! TF.FilePolarity,Positive*
%FSLAX46Y46*%
G04 Gerber Fmt 4.6, Leading zero omitted, Abs format (unit mm)*
G04 Created by KiCad (PCBNEW (5.1.5)-3) date 2020-12-01 08:46:11*
%MOMM*%
%LPD*%
G04 APERTURE LIST*
%ADD10C,0.150000*%
%ADD11C,0.120000*%
%ADD12C,0.100000*%
G04 APERTURE END LIST*
D10*
X118927857Y-126177000D02*
X119213571Y-126177000D01*
X118870714Y-126348428D02*
X119070714Y-125748428D01*
X119270714Y-126348428D01*
X119470714Y-126348428D02*
X119470714Y-125948428D01*
X119470714Y-126062714D02*
X119499285Y-126005571D01*
X119527857Y-125977000D01*
X119585000Y-125948428D01*
X119642142Y-125948428D01*
X119927857Y-126348428D02*
X119870714Y-126319857D01*
X119842142Y-126291285D01*
X119813571Y-126234142D01*
X119813571Y-126062714D01*
X119842142Y-126005571D01*
X119870714Y-125977000D01*
X119927857Y-125948428D01*
X120013571Y-125948428D01*
X120070714Y-125977000D01*
X120099285Y-126005571D01*
X120127857Y-126062714D01*
X120127857Y-126234142D01*
X120099285Y-126291285D01*
X120070714Y-126319857D01*
X120013571Y-126348428D01*
X119927857Y-126348428D01*
X120385000Y-125948428D02*
X120385000Y-126348428D01*
X120385000Y-126005571D02*
X120413571Y-125977000D01*
X120470714Y-125948428D01*
X120556428Y-125948428D01*
X120613571Y-125977000D01*
X120642142Y-126034142D01*
X120642142Y-126348428D01*
X121356428Y-126177000D02*
X121642142Y-126177000D01*
X121299285Y-126348428D02*
X121499285Y-125748428D01*
X121699285Y-126348428D01*
X121842142Y-125948428D02*
X121985000Y-126348428D01*
X122127857Y-125948428D02*
X121985000Y-126348428D01*
X121927857Y-126491285D01*
X121899285Y-126519857D01*
X121842142Y-126548428D01*
X122613571Y-125948428D02*
X122613571Y-126348428D01*
X122356428Y-125948428D02*
X122356428Y-126262714D01*
X122385000Y-126319857D01*
X122442142Y-126348428D01*
X122527857Y-126348428D01*
X122585000Y-126319857D01*
X122613571Y-126291285D01*
X122899285Y-126348428D02*
X122899285Y-125748428D01*
X122899285Y-125977000D02*
X122956428Y-125948428D01*
X123070714Y-125948428D01*
X123127857Y-125977000D01*
X123156428Y-126005571D01*
X123185000Y-126062714D01*
X123185000Y-126234142D01*
X123156428Y-126291285D01*
X123127857Y-126319857D01*
X123070714Y-126348428D01*
X122956428Y-126348428D01*
X122899285Y-126319857D01*
X116870714Y-127369857D02*
X116813571Y-127398428D01*
X116699285Y-127398428D01*
X116642142Y-127369857D01*
X116613571Y-127312714D01*
X116613571Y-127084142D01*
X116642142Y-127027000D01*
X116699285Y-126998428D01*
X116813571Y-126998428D01*
X116870714Y-127027000D01*
X116899285Y-127084142D01*
X116899285Y-127141285D01*
X116613571Y-127198428D01*
X117156428Y-126998428D02*
X117156428Y-127398428D01*
X117156428Y-127055571D02*
X117185000Y-127027000D01*
X117242142Y-126998428D01*
X117327857Y-126998428D01*
X117385000Y-127027000D01*
X117413571Y-127084142D01*
X117413571Y-127398428D01*
X117956428Y-126998428D02*
X117956428Y-127484142D01*
X117927857Y-127541285D01*
X117899285Y-127569857D01*
X117842142Y-127598428D01*
X117756428Y-127598428D01*
X117699285Y-127569857D01*
X117956428Y-127369857D02*
X117899285Y-127398428D01*
X117785000Y-127398428D01*
X117727857Y-127369857D01*
X117699285Y-127341285D01*
X117670714Y-127284142D01*
X117670714Y-127112714D01*
X117699285Y-127055571D01*
X117727857Y-127027000D01*
X117785000Y-126998428D01*
X117899285Y-126998428D01*
X117956428Y-127027000D01*
X118499285Y-127398428D02*
X118499285Y-127084142D01*
X118470714Y-127027000D01*
X118413571Y-126998428D01*
X118299285Y-126998428D01*
X118242142Y-127027000D01*
X118499285Y-127369857D02*
X118442142Y-127398428D01*
X118299285Y-127398428D01*
X118242142Y-127369857D01*
X118213571Y-127312714D01*
X118213571Y-127255571D01*
X118242142Y-127198428D01*
X118299285Y-127169857D01*
X118442142Y-127169857D01*
X118499285Y-127141285D01*
X118785000Y-127398428D02*
X118785000Y-126998428D01*
X118785000Y-127112714D02*
X118813571Y-127055571D01*
X118842142Y-127027000D01*
X118899285Y-126998428D01*
X118956428Y-126998428D01*
X119242142Y-127398428D02*
X119185000Y-127369857D01*
X119156428Y-127341285D01*
X119127857Y-127284142D01*
X119127857Y-127112714D01*
X119156428Y-127055571D01*
X119185000Y-127027000D01*
X119242142Y-126998428D01*
X119327857Y-126998428D01*
X119385000Y-127027000D01*
X119413571Y-127055571D01*
X119442142Y-127112714D01*
X119442142Y-127284142D01*
X119413571Y-127341285D01*
X119385000Y-127369857D01*
X119327857Y-127398428D01*
X119242142Y-127398428D01*
X119699285Y-126998428D02*
X119699285Y-127398428D01*
X119699285Y-127055571D02*
X119727857Y-127027000D01*
X119785000Y-126998428D01*
X119870714Y-126998428D01*
X119927857Y-127027000D01*
X119956428Y-127084142D01*
X119956428Y-127398428D01*
X120327857Y-127055571D02*
X120270714Y-127027000D01*
X120242142Y-126998428D01*
X120213571Y-126941285D01*
X120213571Y-126912714D01*
X120242142Y-126855571D01*
X120270714Y-126827000D01*
X120327857Y-126798428D01*
X120442142Y-126798428D01*
X120499285Y-126827000D01*
X120527857Y-126855571D01*
X120556428Y-126912714D01*
X120556428Y-126941285D01*
X120527857Y-126998428D01*
X120499285Y-127027000D01*
X120442142Y-127055571D01*
X120327857Y-127055571D01*
X120270714Y-127084142D01*
X120242142Y-127112714D01*
X120213571Y-127169857D01*
X120213571Y-127284142D01*
X120242142Y-127341285D01*
X120270714Y-127369857D01*
X120327857Y-127398428D01*
X120442142Y-127398428D01*
X120499285Y-127369857D01*
X120527857Y-127341285D01*
X120556428Y-127284142D01*
X120556428Y-127169857D01*
X120527857Y-127112714D01*
X120499285Y-127084142D01*
X120442142Y-127055571D01*
X121185000Y-127112714D02*
X121156428Y-127084142D01*
X121099285Y-127055571D01*
X121042142Y-127055571D01*
X120985000Y-127084142D01*
X120956428Y-127112714D01*
X120927857Y-127169857D01*
X120927857Y-127227000D01*
X120956428Y-127284142D01*
X120985000Y-127312714D01*
X121042142Y-127341285D01*
X121099285Y-127341285D01*
X121156428Y-127312714D01*
X121185000Y-127284142D01*
X121185000Y-127055571D02*
X121185000Y-127284142D01*
X121213571Y-127312714D01*
X121242142Y-127312714D01*
X121299285Y-127284142D01*
X121327857Y-127227000D01*
X121327857Y-127084142D01*
X121270714Y-126998428D01*
X121185000Y-126941285D01*
X121070714Y-126912714D01*
X120956428Y-126941285D01*
X120870714Y-126998428D01*
X120813571Y-127084142D01*
X120785000Y-127198428D01*
X120813571Y-127312714D01*
X120870714Y-127398428D01*
X120956428Y-127455571D01*
X121070714Y-127484142D01*
X121185000Y-127455571D01*
X121270714Y-127398428D01*
X121842142Y-126998428D02*
X121842142Y-127484142D01*
X121813571Y-127541285D01*
X121785000Y-127569857D01*
X121727857Y-127598428D01*
X121642142Y-127598428D01*
X121585000Y-127569857D01*
X121842142Y-127369857D02*
X121785000Y-127398428D01*
X121670714Y-127398428D01*
X121613571Y-127369857D01*
X121585000Y-127341285D01*
X121556428Y-127284142D01*
X121556428Y-127112714D01*
X121585000Y-127055571D01*
X121613571Y-127027000D01*
X121670714Y-126998428D01*
X121785000Y-126998428D01*
X121842142Y-127027000D01*
X122127857Y-127398428D02*
X122127857Y-126998428D01*
X122127857Y-127055571D02*
X122156428Y-127027000D01*
X122213571Y-126998428D01*
X122299285Y-126998428D01*
X122356428Y-127027000D01*
X122385000Y-127084142D01*
X122385000Y-127398428D01*
X122385000Y-127084142D02*
X122413571Y-127027000D01*
X122470714Y-126998428D01*
X122556428Y-126998428D01*
X122613571Y-127027000D01*
X122642142Y-127084142D01*
X122642142Y-127398428D01*
X123185000Y-127398428D02*
X123185000Y-127084142D01*
X123156428Y-127027000D01*
X123099285Y-126998428D01*
X122985000Y-126998428D01*
X122927857Y-127027000D01*
X123185000Y-127369857D02*
X123127857Y-127398428D01*
X122985000Y-127398428D01*
X122927857Y-127369857D01*
X122899285Y-127312714D01*
X122899285Y-127255571D01*
X122927857Y-127198428D01*
X122985000Y-127169857D01*
X123127857Y-127169857D01*
X123185000Y-127141285D01*
X123470714Y-127398428D02*
X123470714Y-126998428D01*
X123470714Y-126798428D02*
X123442142Y-126827000D01*
X123470714Y-126855571D01*
X123499285Y-126827000D01*
X123470714Y-126798428D01*
X123470714Y-126855571D01*
X123842142Y-127398428D02*
X123785000Y-127369857D01*
X123756428Y-127312714D01*
X123756428Y-126798428D01*
X124070714Y-127341285D02*
X124099285Y-127369857D01*
X124070714Y-127398428D01*
X124042142Y-127369857D01*
X124070714Y-127341285D01*
X124070714Y-127398428D01*
X124613571Y-127369857D02*
X124556428Y-127398428D01*
X124442142Y-127398428D01*
X124385000Y-127369857D01*
X124356428Y-127341285D01*
X124327857Y-127284142D01*
X124327857Y-127112714D01*
X124356428Y-127055571D01*
X124385000Y-127027000D01*
X124442142Y-126998428D01*
X124556428Y-126998428D01*
X124613571Y-127027000D01*
X124956428Y-127398428D02*
X124899285Y-127369857D01*
X124870714Y-127341285D01*
X124842142Y-127284142D01*
X124842142Y-127112714D01*
X124870714Y-127055571D01*
X124899285Y-127027000D01*
X124956428Y-126998428D01*
X125042142Y-126998428D01*
X125099285Y-127027000D01*
X125127857Y-127055571D01*
X125156428Y-127112714D01*
X125156428Y-127284142D01*
X125127857Y-127341285D01*
X125099285Y-127369857D01*
X125042142Y-127398428D01*
X124956428Y-127398428D01*
X125413571Y-127398428D02*
X125413571Y-126998428D01*
X125413571Y-127055571D02*
X125442142Y-127027000D01*
X125499285Y-126998428D01*
X125585000Y-126998428D01*
X125642142Y-127027000D01*
X125670714Y-127084142D01*
X125670714Y-127398428D01*
X125670714Y-127084142D02*
X125699285Y-127027000D01*
X125756428Y-126998428D01*
X125842142Y-126998428D01*
X125899285Y-127027000D01*
X125927857Y-127084142D01*
X125927857Y-127398428D01*
X117627857Y-128219857D02*
X118085000Y-128219857D01*
X117856428Y-128448428D02*
X117856428Y-127991285D01*
X118342142Y-127905571D02*
X118370714Y-127877000D01*
X118427857Y-127848428D01*
X118570714Y-127848428D01*
X118627857Y-127877000D01*
X118656428Y-127905571D01*
X118685000Y-127962714D01*
X118685000Y-128019857D01*
X118656428Y-128105571D01*
X118313571Y-128448428D01*
X118685000Y-128448428D01*
X119227857Y-127848428D02*
X118942142Y-127848428D01*
X118913571Y-128134142D01*
X118942142Y-128105571D01*
X118999285Y-128077000D01*
X119142142Y-128077000D01*
X119199285Y-128105571D01*
X119227857Y-128134142D01*
X119256428Y-128191285D01*
X119256428Y-128334142D01*
X119227857Y-128391285D01*
X119199285Y-128419857D01*
X119142142Y-128448428D01*
X118999285Y-128448428D01*
X118942142Y-128419857D01*
X118913571Y-128391285D01*
X119770714Y-128048428D02*
X119770714Y-128448428D01*
X119627857Y-127819857D02*
X119485000Y-128248428D01*
X119856428Y-128248428D01*
X120027857Y-127848428D02*
X120427857Y-127848428D01*
X120170714Y-128448428D01*
X120770714Y-127848428D02*
X120827857Y-127848428D01*
X120885000Y-127877000D01*
X120913571Y-127905571D01*
X120942142Y-127962714D01*
X120970714Y-128077000D01*
X120970714Y-128219857D01*
X120942142Y-128334142D01*
X120913571Y-128391285D01*
X120885000Y-128419857D01*
X120827857Y-128448428D01*
X120770714Y-128448428D01*
X120713571Y-128419857D01*
X120685000Y-128391285D01*
X120656428Y-128334142D01*
X120627857Y-128219857D01*
X120627857Y-128077000D01*
X120656428Y-127962714D01*
X120685000Y-127905571D01*
X120713571Y-127877000D01*
X120770714Y-127848428D01*
X121170714Y-127848428D02*
X121542142Y-127848428D01*
X121342142Y-128077000D01*
X121427857Y-128077000D01*
X121485000Y-128105571D01*
X121513571Y-128134142D01*
X121542142Y-128191285D01*
X121542142Y-128334142D01*
X121513571Y-128391285D01*
X121485000Y-128419857D01*
X121427857Y-128448428D01*
X121256428Y-128448428D01*
X121199285Y-128419857D01*
X121170714Y-128391285D01*
X121827857Y-128448428D02*
X121942142Y-128448428D01*
X121999285Y-128419857D01*
X122027857Y-128391285D01*
X122085000Y-128305571D01*
X122113571Y-128191285D01*
X122113571Y-127962714D01*
X122085000Y-127905571D01*
X122056428Y-127877000D01*
X121999285Y-127848428D01*
X121885000Y-127848428D01*
X121827857Y-127877000D01*
X121799285Y-127905571D01*
X121770714Y-127962714D01*
X121770714Y-128105571D01*
X121799285Y-128162714D01*
X121827857Y-128191285D01*
X121885000Y-128219857D01*
X121999285Y-128219857D01*
X122056428Y-128191285D01*
X122085000Y-128162714D01*
X122113571Y-128105571D01*
X122485000Y-127848428D02*
X122542142Y-127848428D01*
X122599285Y-127877000D01*
X122627857Y-127905571D01*
X122656428Y-127962714D01*
X122685000Y-128077000D01*
X122685000Y-128219857D01*
X122656428Y-128334142D01*
X122627857Y-128391285D01*
X122599285Y-128419857D01*
X122542142Y-128448428D01*
X122485000Y-128448428D01*
X122427857Y-128419857D01*
X122399285Y-128391285D01*
X122370714Y-128334142D01*
X122342142Y-128219857D01*
X122342142Y-128077000D01*
X122370714Y-127962714D01*
X122399285Y-127905571D01*
X122427857Y-127877000D01*
X122485000Y-127848428D01*
X122970714Y-128448428D02*
X123085000Y-128448428D01*
X123142142Y-128419857D01*
X123170714Y-128391285D01*
X123227857Y-128305571D01*
X123256428Y-128191285D01*
X123256428Y-127962714D01*
X123227857Y-127905571D01*
X123199285Y-127877000D01*
X123142142Y-127848428D01*
X123027857Y-127848428D01*
X122970714Y-127877000D01*
X122942142Y-127905571D01*
X122913571Y-127962714D01*
X122913571Y-128105571D01*
X122942142Y-128162714D01*
X122970714Y-128191285D01*
X123027857Y-128219857D01*
X123142142Y-128219857D01*
X123199285Y-128191285D01*
X123227857Y-128162714D01*
X123256428Y-128105571D01*
X123799285Y-127848428D02*
X123513571Y-127848428D01*
X123485000Y-128134142D01*
X123513571Y-128105571D01*
X123570714Y-128077000D01*
X123713571Y-128077000D01*
X123770714Y-128105571D01*
X123799285Y-128134142D01*
X123827857Y-128191285D01*
X123827857Y-128334142D01*
X123799285Y-128391285D01*
X123770714Y-128419857D01*
X123713571Y-128448428D01*
X123570714Y-128448428D01*
X123513571Y-128419857D01*
X123485000Y-128391285D01*
X124342142Y-127848428D02*
X124227857Y-127848428D01*
X124170714Y-127877000D01*
X124142142Y-127905571D01*
X124085000Y-127991285D01*
X124056428Y-128105571D01*
X124056428Y-128334142D01*
X124085000Y-128391285D01*
X124113571Y-128419857D01*
X124170714Y-128448428D01*
X124285000Y-128448428D01*
X124342142Y-128419857D01*
X124370714Y-128391285D01*
X124399285Y-128334142D01*
X124399285Y-128191285D01*
X124370714Y-128134142D01*
X124342142Y-128105571D01*
X124285000Y-128077000D01*
X124170714Y-128077000D01*
X124113571Y-128105571D01*
X124085000Y-128134142D01*
X124056428Y-128191285D01*
X124599285Y-127848428D02*
X124999285Y-127848428D01*
X124742142Y-128448428D01*
D11*
X112709000Y-126746000D02*
X112709000Y-128076000D01*
X112709000Y-128076000D02*
X111379000Y-128076000D01*
X112709000Y-125476000D02*
X110109000Y-125476000D01*
X110109000Y-125476000D02*
X110109000Y-128076000D01*
X110109000Y-128076000D02*
X104969000Y-128076000D01*
X104969000Y-122876000D02*
X104969000Y-128076000D01*
X112709000Y-122876000D02*
X104969000Y-122876000D01*
X112709000Y-122876000D02*
X112709000Y-125476000D01*
X125282000Y-124002000D02*
X125282000Y-125332000D01*
X125282000Y-125332000D02*
X123952000Y-125332000D01*
X122682000Y-125332000D02*
X115002000Y-125332000D01*
X115002000Y-122672000D02*
X115002000Y-125332000D01*
X122682000Y-122672000D02*
X115002000Y-122672000D01*
X122682000Y-122672000D02*
X122682000Y-125332000D01*
X127321000Y-123952000D02*
X127321000Y-122622000D01*
X127321000Y-122622000D02*
X128651000Y-122622000D01*
X129921000Y-122622000D02*
X137601000Y-122622000D01*
X137601000Y-125282000D02*
X137601000Y-122622000D01*
X129921000Y-125282000D02*
X137601000Y-125282000D01*
X129921000Y-125282000D02*
X129921000Y-122622000D01*
X112580000Y-152284000D02*
X112580000Y-150954000D01*
X112580000Y-150954000D02*
X113910000Y-150954000D01*
X115180000Y-150954000D02*
X135560000Y-150954000D01*
X135560000Y-153614000D02*
X135560000Y-150954000D01*
X115180000Y-153614000D02*
X135560000Y-153614000D01*
X115180000Y-153614000D02*
X115180000Y-150954000D01*
X100340000Y-145638000D02*
X100340000Y-133038000D01*
X95240000Y-145638000D02*
X100340000Y-145638000D01*
X95240000Y-133038000D02*
X95240000Y-145638000D01*
X133975000Y-133762000D02*
X133975000Y-146362000D01*
X139075000Y-133762000D02*
X133975000Y-133762000D01*
X139075000Y-146362000D02*
X139075000Y-133762000D01*
D10*
X99779000Y-148809000D02*
X99779000Y-148859000D01*
X103929000Y-148809000D02*
X103929000Y-148954000D01*
X103929000Y-153959000D02*
X103929000Y-153814000D01*
X99779000Y-153959000D02*
X99779000Y-153814000D01*
X99779000Y-148809000D02*
X103929000Y-148809000D01*
X99779000Y-153959000D02*
X103929000Y-153959000D01*
X99779000Y-148859000D02*
X98379000Y-148859000D01*
D11*
X142694500Y-128218000D02*
X141042000Y-128218000D01*
X142694500Y-127935500D02*
X142694500Y-128218000D01*
X145442000Y-127935500D02*
X142694500Y-127935500D01*
X148189500Y-127935500D02*
X148189500Y-128218000D01*
X145442000Y-127935500D02*
X148189500Y-127935500D01*
X142694500Y-133430500D02*
X142694500Y-133148000D01*
X145442000Y-133430500D02*
X142694500Y-133430500D01*
X148189500Y-133430500D02*
X148189500Y-133148000D01*
X145442000Y-133430500D02*
X148189500Y-133430500D01*
D10*
X142792000Y-138928000D02*
X141042000Y-138928000D01*
X142792000Y-144233000D02*
X148292000Y-144233000D01*
X142792000Y-138723000D02*
X148292000Y-138723000D01*
X142792000Y-144233000D02*
X142792000Y-143933000D01*
X148292000Y-144233000D02*
X148292000Y-143933000D01*
X148292000Y-138723000D02*
X148292000Y-139023000D01*
X142792000Y-138723000D02*
X142792000Y-138928000D01*
D12*
X124799000Y-144865000D02*
X124799000Y-143215000D01*
X123149000Y-144865000D02*
X124799000Y-144865000D01*
X111929000Y-144865000D02*
X111929000Y-143215000D01*
X113579000Y-144865000D02*
X111929000Y-144865000D01*
X124799000Y-131995000D02*
X124799000Y-133645000D01*
X123149000Y-131995000D02*
X124799000Y-131995000D01*
X111929000Y-133145000D02*
X111929000Y-133645000D01*
X113079000Y-131995000D02*
X111929000Y-133145000D01*
X113579000Y-131995000D02*
X113079000Y-131995000D01*
D11*
X127604000Y-129190000D02*
X119364000Y-129190000D01*
X127604000Y-147670000D02*
X127604000Y-129190000D01*
X109124000Y-147670000D02*
X127604000Y-147670000D01*
X109124000Y-130190000D02*
X109124000Y-147670000D01*
X110124000Y-129190000D02*
X109124000Y-130190000D01*
X117364000Y-129190000D02*
X110124000Y-129190000D01*
X130399748Y-140791000D02*
X130922252Y-140791000D01*
X130399748Y-139371000D02*
X130922252Y-139371000D01*
X130922252Y-134799000D02*
X130399748Y-134799000D01*
X130922252Y-136219000D02*
X130399748Y-136219000D01*
X145486000Y-153273000D02*
X145486000Y-150413000D01*
X145486000Y-150413000D02*
X143566000Y-150413000D01*
X143566000Y-150413000D02*
X143566000Y-153273000D01*
X104573000Y-140581748D02*
X104573000Y-141104252D01*
X105993000Y-140581748D02*
X105993000Y-141104252D01*
X105993000Y-134745252D02*
X105993000Y-134222748D01*
X104573000Y-134745252D02*
X104573000Y-134222748D01*
X133795000Y-130309252D02*
X133795000Y-129786748D01*
X132375000Y-130309252D02*
X132375000Y-129786748D01*
X95660000Y-124400000D02*
X96990000Y-124400000D01*
X95660000Y-125730000D02*
X95660000Y-124400000D01*
X95660000Y-127000000D02*
X98320000Y-127000000D01*
X98320000Y-127000000D02*
X98320000Y-129600000D01*
X95660000Y-127000000D02*
X95660000Y-129600000D01*
X95660000Y-129600000D02*
X98320000Y-129600000D01*
D10*
X113161380Y-128349333D02*
X113875666Y-128349333D01*
X114018523Y-128396952D01*
X114113761Y-128492190D01*
X114161380Y-128635047D01*
X114161380Y-128730285D01*
X113161380Y-127968380D02*
X113161380Y-127349333D01*
X113542333Y-127682666D01*
X113542333Y-127539809D01*
X113589952Y-127444571D01*
X113637571Y-127396952D01*
X113732809Y-127349333D01*
X113970904Y-127349333D01*
X114066142Y-127396952D01*
X114113761Y-127444571D01*
X114161380Y-127539809D01*
X114161380Y-127825523D01*
X114113761Y-127920761D01*
X114066142Y-127968380D01*
X125734380Y-124335333D02*
X126448666Y-124335333D01*
X126591523Y-124382952D01*
X126686761Y-124478190D01*
X126734380Y-124621047D01*
X126734380Y-124716285D01*
X126067714Y-123430571D02*
X126734380Y-123430571D01*
X125686761Y-123668666D02*
X126401047Y-123906761D01*
X126401047Y-123287714D01*
X125773380Y-124285333D02*
X126487666Y-124285333D01*
X126630523Y-124332952D01*
X126725761Y-124428190D01*
X126773380Y-124571047D01*
X126773380Y-124666285D01*
X125868619Y-123856761D02*
X125821000Y-123809142D01*
X125773380Y-123713904D01*
X125773380Y-123475809D01*
X125821000Y-123380571D01*
X125868619Y-123332952D01*
X125963857Y-123285333D01*
X126059095Y-123285333D01*
X126201952Y-123332952D01*
X126773380Y-123904380D01*
X126773380Y-123285333D01*
X111032380Y-152617333D02*
X111746666Y-152617333D01*
X111889523Y-152664952D01*
X111984761Y-152760190D01*
X112032380Y-152903047D01*
X112032380Y-152998285D01*
X112032380Y-151617333D02*
X112032380Y-152188761D01*
X112032380Y-151903047D02*
X111032380Y-151903047D01*
X111175238Y-151998285D01*
X111270476Y-152093523D01*
X111318095Y-152188761D01*
X94216190Y-139414190D02*
X94692380Y-139414190D01*
X93692380Y-139747523D02*
X94216190Y-139414190D01*
X93692380Y-139080857D01*
X93787619Y-138795142D02*
X93740000Y-138747523D01*
X93692380Y-138652285D01*
X93692380Y-138414190D01*
X93740000Y-138318952D01*
X93787619Y-138271333D01*
X93882857Y-138223714D01*
X93978095Y-138223714D01*
X94120952Y-138271333D01*
X94692380Y-138842761D01*
X94692380Y-138223714D01*
X140051190Y-140938190D02*
X140527380Y-140938190D01*
X139527380Y-141271523D02*
X140051190Y-140938190D01*
X139527380Y-140604857D01*
X140527380Y-139747714D02*
X140527380Y-140319142D01*
X140527380Y-140033428D02*
X139527380Y-140033428D01*
X139670238Y-140128666D01*
X139765476Y-140223904D01*
X139813095Y-140319142D01*
X101092095Y-147336380D02*
X101092095Y-148145904D01*
X101139714Y-148241142D01*
X101187333Y-148288761D01*
X101282571Y-148336380D01*
X101473047Y-148336380D01*
X101568285Y-148288761D01*
X101615904Y-148241142D01*
X101663523Y-148145904D01*
X101663523Y-147336380D01*
X102615904Y-147336380D02*
X102139714Y-147336380D01*
X102092095Y-147812571D01*
X102139714Y-147764952D01*
X102234952Y-147717333D01*
X102473047Y-147717333D01*
X102568285Y-147764952D01*
X102615904Y-147812571D01*
X102663523Y-147907809D01*
X102663523Y-148145904D01*
X102615904Y-148241142D01*
X102568285Y-148288761D01*
X102473047Y-148336380D01*
X102234952Y-148336380D01*
X102139714Y-148288761D01*
X102092095Y-148241142D01*
X144680095Y-126545380D02*
X144680095Y-127354904D01*
X144727714Y-127450142D01*
X144775333Y-127497761D01*
X144870571Y-127545380D01*
X145061047Y-127545380D01*
X145156285Y-127497761D01*
X145203904Y-127450142D01*
X145251523Y-127354904D01*
X145251523Y-126545380D01*
X146156285Y-126878714D02*
X146156285Y-127545380D01*
X145918190Y-126497761D02*
X145680095Y-127212047D01*
X146299142Y-127212047D01*
X144780095Y-137250380D02*
X144780095Y-138059904D01*
X144827714Y-138155142D01*
X144875333Y-138202761D01*
X144970571Y-138250380D01*
X145161047Y-138250380D01*
X145256285Y-138202761D01*
X145303904Y-138155142D01*
X145351523Y-138059904D01*
X145351523Y-137250380D01*
X145732476Y-137250380D02*
X146351523Y-137250380D01*
X146018190Y-137631333D01*
X146161047Y-137631333D01*
X146256285Y-137678952D01*
X146303904Y-137726571D01*
X146351523Y-137821809D01*
X146351523Y-138059904D01*
X146303904Y-138155142D01*
X146256285Y-138202761D01*
X146161047Y-138250380D01*
X145875333Y-138250380D01*
X145780095Y-138202761D01*
X145732476Y-138155142D01*
X117602095Y-127792380D02*
X117602095Y-128601904D01*
X117649714Y-128697142D01*
X117697333Y-128744761D01*
X117792571Y-128792380D01*
X117983047Y-128792380D01*
X118078285Y-128744761D01*
X118125904Y-128697142D01*
X118173523Y-128601904D01*
X118173523Y-127792380D01*
X118602095Y-127887619D02*
X118649714Y-127840000D01*
X118744952Y-127792380D01*
X118983047Y-127792380D01*
X119078285Y-127840000D01*
X119125904Y-127887619D01*
X119173523Y-127982857D01*
X119173523Y-128078095D01*
X119125904Y-128220952D01*
X118554476Y-128792380D01*
X119173523Y-128792380D01*
X130494333Y-138883380D02*
X130161000Y-138407190D01*
X129922904Y-138883380D02*
X129922904Y-137883380D01*
X130303857Y-137883380D01*
X130399095Y-137931000D01*
X130446714Y-137978619D01*
X130494333Y-138073857D01*
X130494333Y-138216714D01*
X130446714Y-138311952D01*
X130399095Y-138359571D01*
X130303857Y-138407190D01*
X129922904Y-138407190D01*
X130875285Y-137978619D02*
X130922904Y-137931000D01*
X131018142Y-137883380D01*
X131256238Y-137883380D01*
X131351476Y-137931000D01*
X131399095Y-137978619D01*
X131446714Y-138073857D01*
X131446714Y-138169095D01*
X131399095Y-138311952D01*
X130827666Y-138883380D01*
X131446714Y-138883380D01*
X130494333Y-137611380D02*
X130161000Y-137135190D01*
X129922904Y-137611380D02*
X129922904Y-136611380D01*
X130303857Y-136611380D01*
X130399095Y-136659000D01*
X130446714Y-136706619D01*
X130494333Y-136801857D01*
X130494333Y-136944714D01*
X130446714Y-137039952D01*
X130399095Y-137087571D01*
X130303857Y-137135190D01*
X129922904Y-137135190D01*
X131446714Y-137611380D02*
X130875285Y-137611380D01*
X131161000Y-137611380D02*
X131161000Y-136611380D01*
X131065761Y-136754238D01*
X130970523Y-136849476D01*
X130875285Y-136897095D01*
X146628380Y-153011095D02*
X145628380Y-153011095D01*
X145628380Y-152773000D01*
X145676000Y-152630142D01*
X145771238Y-152534904D01*
X145866476Y-152487285D01*
X146056952Y-152439666D01*
X146199809Y-152439666D01*
X146390285Y-152487285D01*
X146485523Y-152534904D01*
X146580761Y-152630142D01*
X146628380Y-152773000D01*
X146628380Y-153011095D01*
X146628380Y-151487285D02*
X146628380Y-152058714D01*
X146628380Y-151773000D02*
X145628380Y-151773000D01*
X145771238Y-151868238D01*
X145866476Y-151963476D01*
X145914095Y-152058714D01*
X107290142Y-141009666D02*
X107337761Y-141057285D01*
X107385380Y-141200142D01*
X107385380Y-141295380D01*
X107337761Y-141438238D01*
X107242523Y-141533476D01*
X107147285Y-141581095D01*
X106956809Y-141628714D01*
X106813952Y-141628714D01*
X106623476Y-141581095D01*
X106528238Y-141533476D01*
X106433000Y-141438238D01*
X106385380Y-141295380D01*
X106385380Y-141200142D01*
X106433000Y-141057285D01*
X106480619Y-141009666D01*
X106718714Y-140152523D02*
X107385380Y-140152523D01*
X106337761Y-140390619D02*
X107052047Y-140628714D01*
X107052047Y-140009666D01*
X103990142Y-134650666D02*
X104037761Y-134698285D01*
X104085380Y-134841142D01*
X104085380Y-134936380D01*
X104037761Y-135079238D01*
X103942523Y-135174476D01*
X103847285Y-135222095D01*
X103656809Y-135269714D01*
X103513952Y-135269714D01*
X103323476Y-135222095D01*
X103228238Y-135174476D01*
X103133000Y-135079238D01*
X103085380Y-134936380D01*
X103085380Y-134841142D01*
X103133000Y-134698285D01*
X103180619Y-134650666D01*
X103085380Y-134317333D02*
X103085380Y-133698285D01*
X103466333Y-134031619D01*
X103466333Y-133888761D01*
X103513952Y-133793523D01*
X103561571Y-133745904D01*
X103656809Y-133698285D01*
X103894904Y-133698285D01*
X103990142Y-133745904D01*
X104037761Y-133793523D01*
X104085380Y-133888761D01*
X104085380Y-134174476D01*
X104037761Y-134269714D01*
X103990142Y-134317333D01*
X131792142Y-130214666D02*
X131839761Y-130262285D01*
X131887380Y-130405142D01*
X131887380Y-130500380D01*
X131839761Y-130643238D01*
X131744523Y-130738476D01*
X131649285Y-130786095D01*
X131458809Y-130833714D01*
X131315952Y-130833714D01*
X131125476Y-130786095D01*
X131030238Y-130738476D01*
X130935000Y-130643238D01*
X130887380Y-130500380D01*
X130887380Y-130405142D01*
X130935000Y-130262285D01*
X130982619Y-130214666D01*
X130982619Y-129833714D02*
X130935000Y-129786095D01*
X130887380Y-129690857D01*
X130887380Y-129452761D01*
X130935000Y-129357523D01*
X130982619Y-129309904D01*
X131077857Y-129262285D01*
X131173095Y-129262285D01*
X131315952Y-129309904D01*
X131887380Y-129881333D01*
X131887380Y-129262285D01*
X96204285Y-123328571D02*
X96347142Y-123376190D01*
X96394761Y-123423809D01*
X96442380Y-123519047D01*
X96442380Y-123661904D01*
X96394761Y-123757142D01*
X96347142Y-123804761D01*
X96251904Y-123852380D01*
X95870952Y-123852380D01*
X95870952Y-122852380D01*
X96204285Y-122852380D01*
X96299523Y-122900000D01*
X96347142Y-122947619D01*
X96394761Y-123042857D01*
X96394761Y-123138095D01*
X96347142Y-123233333D01*
X96299523Y-123280952D01*
X96204285Y-123328571D01*
X95870952Y-123328571D01*
X96728095Y-122852380D02*
X97299523Y-122852380D01*
X97013809Y-123852380D02*
X97013809Y-122852380D01*
X98156666Y-123852380D02*
X97585238Y-123852380D01*
X97870952Y-123852380D02*
X97870952Y-122852380D01*
X97775714Y-122995238D01*
X97680476Y-123090476D01*
X97585238Y-123138095D01*
M02*
