G04 #@! TF.GenerationSoftware,KiCad,Pcbnew,(5.1.5)-3*
G04 #@! TF.CreationDate,2020-12-01T08:46:11+03:00*
G04 #@! TF.ProjectId,project3_4layer,70726f6a-6563-4743-935f-346c61796572,1*
G04 #@! TF.SameCoordinates,Original*
G04 #@! TF.FileFunction,Copper,L2,Inr*
G04 #@! TF.FilePolarity,Positive*
%FSLAX46Y46*%
G04 Gerber Fmt 4.6, Leading zero omitted, Abs format (unit mm)*
G04 Created by KiCad (PCBNEW (5.1.5)-3) date 2020-12-01 08:46:11*
%MOMM*%
%LPD*%
G04 APERTURE LIST*
%ADD10O,1.700000X1.700000*%
%ADD11R,1.700000X1.700000*%
%ADD12C,0.800000*%
%ADD13C,0.300000*%
%ADD14C,0.250000*%
G04 APERTURE END LIST*
D10*
X106299000Y-124206000D03*
X106299000Y-126746000D03*
X108839000Y-124206000D03*
X108839000Y-126746000D03*
X111379000Y-124206000D03*
D11*
X111379000Y-126746000D03*
D10*
X116332000Y-124002000D03*
X118872000Y-124002000D03*
X121412000Y-124002000D03*
D11*
X123952000Y-124002000D03*
D10*
X136271000Y-123952000D03*
X133731000Y-123952000D03*
X131191000Y-123952000D03*
D11*
X128651000Y-123952000D03*
D10*
X134230000Y-152284000D03*
X131690000Y-152284000D03*
X129150000Y-152284000D03*
X126610000Y-152284000D03*
X124070000Y-152284000D03*
X121530000Y-152284000D03*
X118990000Y-152284000D03*
X116450000Y-152284000D03*
D11*
X113910000Y-152284000D03*
D10*
X96990000Y-128270000D03*
D11*
X96990000Y-125730000D03*
D12*
X104243800Y-148567400D03*
X147716100Y-139573000D03*
X120904000Y-142183400D03*
X106184600Y-151818600D03*
X115361200Y-137405500D03*
X114610200Y-134900900D03*
X113675700Y-131819700D03*
X108410400Y-151844100D03*
X121642800Y-134671200D03*
X118191700Y-142177000D03*
X119346500Y-142177200D03*
X100776600Y-150773600D03*
X140611800Y-130683000D03*
X125269500Y-135813500D03*
D13*
X128651000Y-125152300D02*
X128651000Y-148044700D01*
X128651000Y-148044700D02*
X131690000Y-151083700D01*
X131690000Y-152284000D02*
X131690000Y-151083700D01*
X128651000Y-123952000D02*
X128651000Y-125152300D01*
X106299000Y-124206000D02*
X105098700Y-124206000D01*
X96990000Y-128270000D02*
X101034700Y-128270000D01*
X101034700Y-128270000D02*
X105098700Y-124206000D01*
D14*
X145701200Y-139637500D02*
X145765700Y-139573000D01*
X145765700Y-139573000D02*
X147716100Y-139573000D01*
X134230000Y-152284000D02*
X134230000Y-151108700D01*
X134230000Y-151108700D02*
X145701200Y-139637500D01*
X145701200Y-139637500D02*
X131191000Y-125127300D01*
X131191000Y-123952000D02*
X131191000Y-125127300D01*
X118990000Y-152284000D02*
X118990000Y-151108700D01*
X118990000Y-151108700D02*
X115361200Y-147479900D01*
X115361200Y-147479900D02*
X115361200Y-137405500D01*
X116450000Y-151108700D02*
X114610200Y-149268900D01*
X114610200Y-149268900D02*
X114610200Y-134900900D01*
X116450000Y-152284000D02*
X116450000Y-151108700D01*
X113910000Y-152284000D02*
X113910000Y-151108700D01*
X113910000Y-151108700D02*
X113675700Y-150874400D01*
X113675700Y-150874400D02*
X113675700Y-131819700D01*
X133731000Y-123952000D02*
X132555700Y-123952000D01*
X132555700Y-123952000D02*
X132555700Y-123584700D01*
X132555700Y-123584700D02*
X131725300Y-122754300D01*
X131725300Y-122754300D02*
X127670600Y-122754300D01*
X127670600Y-122754300D02*
X121642900Y-128782000D01*
X121642900Y-128782000D02*
X121642900Y-134671200D01*
X121642900Y-134671200D02*
X121642800Y-134671200D01*
X108839000Y-125381300D02*
X109206400Y-125381300D01*
X109206400Y-125381300D02*
X110014300Y-126189200D01*
X110014300Y-126189200D02*
X110014300Y-127544300D01*
X110014300Y-127544300D02*
X112395600Y-129925600D01*
X112395600Y-129925600D02*
X112819200Y-129925600D01*
X112819200Y-129925600D02*
X118191700Y-135298100D01*
X118191700Y-135298100D02*
X118191700Y-142177000D01*
X108839000Y-124206000D02*
X108839000Y-125381300D01*
X119346500Y-142177200D02*
X119346500Y-135786400D01*
X119346500Y-135786400D02*
X111481400Y-127921300D01*
X111481400Y-127921300D02*
X111379000Y-127921300D01*
X111379000Y-126746000D02*
X111379000Y-127921300D01*
M02*
