M48
; DRILL file {KiCad (5.1.5)-3} date 12/01/20 08:46:14
; FORMAT={-:-/ absolute / inch / decimal}
; #@! TF.CreationDate,2020-12-01T08:46:14+03:00
; #@! TF.GenerationSoftware,Kicad,Pcbnew,(5.1.5)-3
; #@! TF.FileFunction,Plated,1,4,PTH
FMAT,2
INCH
T1C0.0157
T2C0.0394
%
G90
G05
T1
X3.9676Y-5.936
X4.1041Y-5.8491
X4.1805Y-5.9771
X4.2681Y-5.9781
X4.4754Y-5.1898
X4.5122Y-5.3111
X4.5418Y-5.4097
X4.6532Y-5.5975
X4.6987Y-5.5975
X4.76Y-5.5978
X4.7891Y-5.302
X4.9319Y-5.347
X5.5359Y-5.145
X5.8156Y-5.495
T2
X4.4846Y-5.9954
X4.5846Y-5.9954
X4.6846Y-5.9954
X4.7846Y-5.9954
X4.8846Y-5.9954
X4.9846Y-5.9954
X5.0846Y-5.9954
X5.1846Y-5.9954
X5.2846Y-5.9954
X4.185Y-4.89
X4.185Y-4.99
X4.285Y-4.89
X4.285Y-4.99
X4.385Y-4.89
X4.385Y-4.99
X5.065Y-4.88
X5.165Y-4.88
X5.265Y-4.88
X5.365Y-4.88
X4.58Y-4.882
X4.68Y-4.882
X4.78Y-4.882
X4.88Y-4.882
X3.8185Y-4.95
X3.8185Y-5.05
T0
M30
